<?xml version="1.0" standalone="no"?>
<!DOCTYPE svg PUBLIC "-//W3C//DTD SVG 1.1//EN" "http://www.w3.org/Graphics/SVG/1.1/DTD/svg11.dtd" >
<svg xmlns="http://www.w3.org/2000/svg" xmlns:xlink="http://www.w3.org/1999/xlink" version="1.1">
<metadata></metadata>
<defs>
<font id="casanovaregular" horiz-adv-x="974" >
<font-face units-per-em="2048" ascent="1638" descent="-410" />
<missing-glyph horiz-adv-x="737" />
<glyph unicode=" "  horiz-adv-x="737" />
<glyph unicode="&#x09;" horiz-adv-x="737" />
<glyph unicode="&#xa0;" horiz-adv-x="737" />
<glyph unicode="!" horiz-adv-x="589" d="M106 1188q0 129 64 203q55 59 129 59q76 0 133 -57q68 -68 68 -189q0 -80 -35 -178q-49 -137 -66 -207q-35 -160 -34 -393h-156q0 231 -27 391q-12 78 -49 207q-27 94 -27 164zM133 137q0 66 48 114t114 48t114 -48t48 -114t-48.5 -114t-113.5 -48q-66 0 -114 48.5 t-48 113.5z" />
<glyph unicode="&#x22;" horiz-adv-x="620" d="M76 1372q0 72 102 72q103 0 103 -72l-37 -373q0 -72 -66 -71q-66 0 -65 71zM340 1372q0 72 102 72q103 0 103 -72l-37 -373q0 -72 -66 -71q-66 0 -65 71z" />
<glyph unicode="#" horiz-adv-x="989" d="M41 684q0 33 25.5 60.5t64.5 27.5h135l33 154h-135q-59 0 -60 55q0 33 26 60.5t65 27.5h135l65 307q16 72 88 72t56 -72l-66 -307h154l65 307q16 72 88 72t56 -72l-66 -307h121q59 0 59 -55q0 -33 -25.5 -60.5t-64.5 -27.5h-121l-32 -154h120q59 0 60 -55 q0 -33 -25.5 -60.5t-64.5 -27.5h-121l-66 -307q-16 -72 -88 -72t-55 72l65 307h-153l-66 -307q-16 -72 -88 -72t-55 72l66 307h-136q-59 0 -59 55zM410 772h153l33 154h-154z" />
<glyph unicode="$" horiz-adv-x="1210" d="M84 418q0 66 50 121t118 55q66 0 113 -37t47 -98q0 -117 -113 -123q94 -66 233 -78v365q-201 43 -288 102q-133 90 -133 262q0 129 88 223q113 119 333 136v149h144v-147q162 -14 276 -84q127 -76 127 -187q0 -76 -48 -132t-120 -56q-61 0 -104 33.5t-43 89.5 q0 96 100 129q-82 53 -188 61v-348q219 -51 317 -115q150 -96 150 -276q0 -313 -467 -348v-168h-144v168q-180 8 -301 78q-147 82 -147 225zM328 1036q-1 -96 204 -149v315q-205 -20 -204 -166zM676 260q229 19 229 162q0 121 -229 172v-334z" />
<glyph unicode="%" horiz-adv-x="1439" d="M63 981q0 137 86.5 233.5t206.5 96.5q133 0 224 -117q63 -47 141 -47q92 0 153 80l21 51q16 39 57 39q66 0 66 -62q0 -12 -6 -26l-490 -1200q-16 -41 -57 -41q-68 0 -68 61q0 12 6 27l390 952q-41 -10 -72 -10q-29 0 -74 4q2 -12 2 -41q0 -137 -86 -235.5t-207 -98.5 t-207 98.5t-86 235.5zM254 975q0 -231 106 -232q107 0 107 240q0 227 -111 227q-102 0 -102 -235zM752 328q0 137 86 233t206 96q121 0 207 -96t86 -233t-86 -235.5t-207 -98.5t-206.5 97t-85.5 237zM940 324q0 -233 107 -234q108 0 108 240q0 229 -111 229 q-104 0 -104 -235z" />
<glyph unicode="&#x26;" horiz-adv-x="1771" d="M55 385q0 139 121 260q86 86 268 189q-82 170 -82 305q0 174 136 254q94 55 231 55q109 0 197 -76t88 -184q0 -121 -78 -213q-57 -68 -182 -144q162 -221 362 -417q80 111 107 231q10 47 -39 47h-152q-76 0 -76 78q0 76 76 76h580q78 0 78 -76q0 -78 -78 -78h-199 q-35 0 -43 -47q-31 -176 -147 -330q137 -121 194 -120q119 0 150 118q8 35 8 162q0 72 72 72q71 0 71 -72q0 -197 -26 -274q-72 -207 -316 -207q-127 0 -329 143q-207 -156 -400 -155q-246 0 -416 110q-176 115 -176 293zM362 401q0 -123 80 -191.5t205 -68.5q134 0 279 92 q-240 203 -402 459q-162 -123 -162 -291zM588 1143q0 -57 80 -187q202 121 202 232q0 51 -44 84t-97 33q-141 0 -141 -162z" />
<glyph unicode="'" horiz-adv-x="344" d="M76 1372q0 72 102 72q103 0 103 -72l-37 -373q0 -72 -66 -71q-66 0 -65 71z" />
<glyph unicode="(" horiz-adv-x="563" d="M78 702q0 297 131 590q123 276 231 277q33 0 46.5 -11.5t13.5 -58.5q0 -45 -39 -143q-51 -125 -76 -230q-39 -180 -39 -424q0 -252 39 -430q25 -102 76 -221q39 -94 39 -139q0 -70 -60 -70q-113 0 -233 264q-129 281 -129 596z" />
<glyph unicode=")" horiz-adv-x="563" d="M70 -88q0 45 39 139q51 119 75 221q39 178 39 430q0 244 -39 424q-25 104 -75 230q-39 98 -39 143q0 47 16 60q10 10 43 10q109 0 231 -277q132 -293 132 -590q0 -315 -130 -596q-121 -264 -233 -264q-59 0 -59 70z" />
<glyph unicode="*" horiz-adv-x="589" d="M74 1069q0 41 61 61q55 16 109 33q-14 10 -107 39q-63 18 -63 55q0 72 61 72q18 0 62 -39q57 -55 67 -63q-4 23 -16 71q-10 39 -10 56q0 70 65 69q29 0 46.5 -21.5t17.5 -47.5q0 -12 -11 -58q-14 -55 -16 -69l61 61q39 37 60 37q70 0 69 -61q0 -43 -57 -62 q-86 -29 -100 -39q51 -14 100 -28q57 -19 57 -66q0 -66 -61 -65q-23 0 -127 98q2 -31 14.5 -75t12.5 -52q0 -23 -21.5 -45.5t-46.5 -22.5q-61 0 -61 74q0 10 12 55t14 66q-12 -8 -63 -60q-39 -39 -58 -38q-72 0 -71 65z" />
<glyph unicode="+" horiz-adv-x="829" d="M78 635q0 76 76 76h178v178q0 78 78 78q76 0 75 -78v-178h181q78 0 77 -76q1 -78 -77 -78h-181v-180q0 -76 -75 -76q-78 0 -78 76v180h-178q-76 0 -76 78z" />
<glyph unicode="," horiz-adv-x="610" d="M147 -190q0 33 33 51q80 43 123 114q-63 4 -108 51.5t-45 110.5q0 68 48 116t115 48q68 0 116 -48t48 -116q0 -96 -43 -186q-61 -125 -192 -197q-16 -8 -31 -8q-27 0 -45.5 19.5t-18.5 44.5z" />
<glyph unicode="-" horiz-adv-x="686" d="M78 635q0 76 76 76h389q78 0 78 -76q0 -78 -78 -78h-389q-76 0 -76 78z" />
<glyph unicode="." horiz-adv-x="614" d="M150 137q0 68 48 116t115 48q68 0 116 -48t48 -116t-48 -115t-116 -47t-115.5 47.5t-47.5 114.5z" />
<glyph unicode="/" horiz-adv-x="835" d="M41 -23q0 14 6 29l594 1464q18 45 64 46q29 0 51 -19.5t22 -50.5q0 -15 -6 -29l-594 -1464q-18 -45 -63 -45q-29 0 -51.5 19.5t-22.5 49.5z" />
<glyph unicode="0" horiz-adv-x="1093" d="M61 713q0 307 140.5 521t351.5 214t345 -213t134 -522t-134 -522.5t-345 -213.5t-351.5 214.5t-140.5 521.5zM358 713q0 -254 50 -416q53 -174 143 -174q88 0 137 174q43 158 43 416t-43 415q-49 174 -137 175q-90 0 -143 -175q-49 -162 -50 -415z" />
<glyph unicode="1" horiz-adv-x="698" d="M63 1180q0 55 78 84q117 41 135.5 55t77.5 90q41 49 84 49q74 0 74 -90v-1151q0 -25 20.5 -44t40.5 -19q78 0 78 -76q0 -78 -78 -78h-389q-76 0 -75 78q0 76 75 76q20 0 41 19.5t21 43.5v827q0 23 -41 43.5t-66 20.5q-76 0 -76 72z" />
<glyph unicode="2" horiz-adv-x="995" d="M47 106q0 121 152 273q139 135 278 272q152 172 152 348q0 137 -61.5 223.5t-157.5 86.5q-174 0 -174 -158q0 -109 79 -109q59 0 60 48q0 43 -51 59q41 59 102 51q49 -6 78 -53q25 -39 24 -84q0 -84 -49 -145.5t-137 -81.5q20 -59 25 -123q6 -76 -72 -76q-68 0 -72 68 q-8 127 -59 172q-113 100 -113 237q0 143 107.5 240.5t287.5 97.5q199 0 327 -125t128 -328q0 -244 -217 -440q-176 -141 -352 -280l250 -3q61 0 130.5 51.5t69.5 98.5q0 10 -3 40t-3 46q0 66 43 66q121 0 121 -170q0 -70 -31 -144q-35 -84 -94 -121h49q72 0 72 -71 q0 -72 -72 -72h-741q-76 0 -76 106z" />
<glyph unicode="3" horiz-adv-x="1073" d="M53 338q0 150 97 242q88 86 208 86q115 0 195 -83t80 -184q0 -76 -43 -133q-53 -68 -152 -67q-96 0 -143 57q-33 41 -33 94q0 43 24.5 74t65.5 31q45 0 62 -25q-31 -27 -23 -55q12 -39 47 -39q51 0 51 63q0 47 -38.5 85t-92.5 38q-66 0 -110 -49q-51 -53 -51 -135 q0 -90 67.5 -149.5t177.5 -59.5q119 0 197 92q86 98 86 264q0 94 -39 166q-49 90 -137 90q-29 0 -69 -26.5t-79 -26.5q-84 0 -84 72q0 74 80 108q147 66 152 68q80 57 80 184q0 82 -45 136.5t-119 54.5q-66 0 -105 -35q-29 -25 -28 -49q0 -53 43 -53q18 0 53 14t43 14 q61 0 61 -72q0 -39 -69 -79q-88 -51 -96 -62q-31 -39 -64 -80q-41 -47 -74 -47q-66 0 -65 66q0 10 9 41.5t9 52.5q0 14 -22.5 60t-22.5 94q0 111 97.5 191.5t257.5 80.5q166 0 280.5 -87t114.5 -212q0 -154 -152 -268q121 -66 174 -129q101 -115 101 -293q0 -233 -148 -363 q-139 -123 -381 -123q-203 0 -321 113q-106 102 -107 252z" />
<glyph unicode="4" horiz-adv-x="1116" d="M37 416q0 100 94 252q86 131 174 264q94 158 94 272q0 20 -11 50t-11 55q0 61 72 61q18 0 52 -7t50 -7q45 0 94 51t90 51q74 0 74 -102q0 -137 -121 -318q-74 -113 -246 -299q-162 -178 -196 -235q111 4 147 4q49 0 197 -29v283q0 61 32.5 103t67.5 81q27 41 51 84 q37 53 64 53q51 0 51 -75v-553q45 16 84 90q31 63 82 63q78 0 78 -80q0 -98 -67.5 -158.5t-176.5 -72.5v-80q0 -25 20.5 -44t41.5 -19q78 0 77 -76q0 -78 -77 -78h-390q-76 0 -75 78q0 76 75 76q20 0 41 19.5t21 43.5v107q-197 41 -238 41q-68 0 -139.5 -40t-91.5 -40 q-84 0 -84 131z" />
<glyph unicode="5" horiz-adv-x="1112" d="M53 346q0 145 84 246q88 109 230 108q139 0 219 -98q63 -78 63 -168q0 -82 -47 -143q-55 -70 -149 -70q-86 0 -129 53q-33 41 -33 95q0 37 25.5 65.5t56.5 28.5q35 0 59 -31q-20 -18 -20 -51q0 -29 41 -29q53 0 53 82q0 43 -33 78q-39 45 -106 45q-80 0 -125 -62.5 t-45 -148.5q0 -90 67 -156q74 -72 197 -71q131 0 209 123t78 323q0 133 -70 234q-74 109 -186 108q-86 0 -139.5 -59.5t-98.5 -59.5q-72 0 -72 70q0 10 32 74.5t32 114.5v391h678q39 0 39 -37q0 -14 -58 -94q-61 -86 -74 -121h-423v-142q143 25 153 25q176 0 316 -117 q172 -143 172 -397q0 -266 -148 -418q-154 -162 -442 -162q-186 0 -301 119q-104 106 -105 252z" />
<glyph unicode="6" horiz-adv-x="1050" d="M66 606q0 338 196 594q209 268 512 268q121 0 121 -65q0 -27 -137 -84q-164 -68 -254 -209q-137 -219 -137 -639q0 -131 32 -221q43 -113 127 -113q94 0 146 156q39 127 39 301q0 152 -54 244q-33 55 -102 108q-53 43 -53 70q0 55 80 55q190 0 309 -172 q106 -158 106 -373q0 -213 -131 -370q-135 -166 -336 -166q-223 0 -352 194q-113 172 -112 422z" />
<glyph unicode="7" horiz-adv-x="901" d="M25 1438h374h496q66 -1 66 -52q0 -23 -48 -69q-66 -63 -82 -88q-70 -100 -141 -266q-100 -231 -100 -390q0 -100 37 -159q18 -27 71 -70q37 -29 37 -61q0 -37 -61 -64q-78 -35 -101 -67q-31 -43 -47 -136q-10 -68 -45 -67q-70 0 -129 84q-82 111 -82 313q0 207 121 457 q96 201 244 379h-266q-68 0 -102 -99.5t-87 -99.5q-80 0 -59.5 64.5t20.5 85.5q0 29 -58 119.5t-58 185.5z" />
<glyph unicode="8" horiz-adv-x="1069" d="M49 430q0 186 101 322q68 92 212 188q-127 76 -167 113q-72 63 -72 135q0 117 131 194q119 72 270 72q145 0 260 -65q125 -72 125 -183q0 -76 -71 -141q-39 -37 -164 -119q162 -92 233 -174q109 -123 109 -297q0 -201 -135.5 -347t-329.5 -146q-203 0 -352.5 128 t-149.5 320zM354 473q0 -137 41 -227q49 -113 152 -103q164 17 164 306q0 227 -191 385q-166 -152 -166 -361zM395 1214q0 -90 119 -174q113 89 113 177q0 39 -34 73.5t-79 34.5q-47 0 -83 -36t-36 -75z" />
<glyph unicode="9" horiz-adv-x="1050" d="M59 911q0 213 131 371q135 166 336 166q223 0 353 -195q112 -172 112 -422q0 -338 -196 -593q-209 -268 -512 -269q-121 0 -121 66q0 27 137 84q164 68 254 209q137 219 137 639q0 131 -33 221q-43 113 -127 112q-94 0 -143 -155q-41 -127 -41 -301q0 -152 53 -244 q33 -55 103 -108q53 -43 53 -70q0 -55 -80 -55q-190 0 -309 172q-106 158 -107 372z" />
<glyph unicode=":" horiz-adv-x="614" d="M150 137q0 68 48 116t115 48q68 0 116 -48t48 -116t-48 -115t-116 -47t-115.5 47.5t-47.5 114.5zM150 813q0 68 48 116t115 48q68 0 116 -48t48 -116t-48 -115t-116 -47t-115.5 47t-47.5 115z" />
<glyph unicode=";" horiz-adv-x="610" d="M147 -190q0 33 33 51q80 43 123 114q-63 4 -108 51.5t-45 110.5q0 68 48 116t115 48q68 0 116 -48t48 -116q0 -96 -43 -186q-61 -125 -192 -197q-16 -8 -31 -8q-27 0 -45.5 19.5t-18.5 44.5zM150 813q0 68 48 116t115 48q68 0 116 -48t48 -116t-48 -115t-116 -47 t-115.5 47t-47.5 115z" />
<glyph unicode="&#x3c;" horiz-adv-x="819" d="M96 618q0 31 37 58l483 354q20 16 46 17q29 0 50 -23t21 -53q0 -33 -31 -56l-405 -297l405 -294q31 -23 31 -56q0 -29 -21.5 -51t-52.5 -22q-23 0 -43 14l-483 352q-37 27 -37 57z" />
<glyph unicode="=" horiz-adv-x="761" d="M78 516q0 76 76 76h456q78 0 78 -76q0 -78 -78 -78h-456q-76 0 -76 78zM78 748q0 76 76 75h456q78 0 78 -75q0 -78 -78 -78h-456q-76 0 -76 78z" />
<glyph unicode="&#x3e;" horiz-adv-x="819" d="M98 268q0 33 31 56l406 294l-406 297q-31 23 -31 56q0 31 21.5 53.5t50.5 22.5q25 0 45 -17l483 -354q37 -27 37 -58q0 -30 -37 -57l-483 -352q-20 -14 -43 -14q-31 0 -52.5 22.5t-21.5 50.5z" />
<glyph unicode="?" horiz-adv-x="1187" d="M68 1108q0 158 147 251t408 93q274 0 407 -131q105 -101 105 -248q0 -156 -123 -254q-115 -74 -230 -149q-123 -96 -123 -244h-155q0 229 78 358q33 51 147 152q78 68 78 154q0 96 -74 155.5t-194 59.5q-195 0 -299 -119q25 4 45 4q154 0 153 -156q0 -66 -55 -107.5 t-127 -41.5t-127 59q-61 66 -61 164zM428 137q0 68 47 115t115 47t115 -47t47 -115t-47.5 -115t-114.5 -47q-68 0 -115 47.5t-47 114.5z" />
<glyph unicode="@" horiz-adv-x="1554" d="M68 700q0 291 206.5 498t497.5 207q289 0 494 -180q213 -186 213 -471q0 -178 -134.5 -304t-291.5 -126h-410q-66 0 -125 41q-82 53 -82 151q0 119 80 189q88 78 293 112l-6 43q-96 -18 -172 -18q-92 0 -142 51q-39 41 -38 88q0 86 69 86q27 0 99.5 -51t160.5 -51 q51 0 126 23.5t100 23.5q53 0 47 -49q0 -20 -42 -61.5t-36 -94.5l39 -340q6 -47 43 -45q125 8 223 98q106 98 106 234q0 246 -186 405q-178 154 -428 154q-254 0 -433 -179.5t-179 -433.5t179 -434t433 -180q168 0 311 84q12 6 25 6q43 0 43 -47q0 -23 -23 -37 q-166 -98 -356 -98q-291 0 -497.5 208t-206.5 498zM635 549l184 151l-2 29q-57 -12 -110 -59q-61 -53 -72 -121zM637 502q4 -14 25 -39l169 141l-6 53zM694 442q25 -10 43 -10h64q14 0 29.5 14.5t13.5 30.5l-8 82z" />
<glyph unicode="A" horiz-adv-x="1529" d="M51 203q0 109 152 514q153 398 153 484q0 79 -86 83q-75 0 -75 76q0 78 75 78h949q77 0 77 -74q0 -80 -77 -80q-76 0 -76 -63q0 -6 1 -12.5t3 -14.5l209 -967q12 -61 94 -73q78 0 78 -76q0 -78 -78 -78h-430q-76 0 -76 78q0 76 76 76q29 0 45 20.5t10 44.5l-63 287 l-45 209l-33 149h-514l-141 -375q-74 -195 -74 -286q0 -141 88 -232q88 -94 215 -94q109 0 182 82q66 72 66 154q0 41 -15.5 74.5t-40 58t-57.5 38t-65 13.5q-135 0 -136 -113q0 -78 74 -78q35 0 35 35q0 37 -39 39q16 47 80 47q35 0 62.5 -31.5t27.5 -84.5 q0 -31 -12.5 -58.5t-35 -50t-52 -36t-66.5 -13.5q-88 0 -145 45q-82 57 -82 186q0 127 86 199q80 68 203 68q8 0 20.5 -1.5t28.5 -3.5q135 -25 208.5 -111.5t73.5 -221.5t-104 -254q-121 -135 -297 -135q-188 0 -320 135q-137 137 -137 344zM451 956h462l-14 64h-430 q-2 -10 -8 -31.5t-10 -32.5zM492 1112h389l-21 96q-14 76 -74 76h-266q-8 -96 -28 -172z" />
<glyph unicode="B" horiz-adv-x="1259" d="M4 1362q0 76 76 76h620q135 0 234 -64q110 -69 110 -184q0 -72 -63 -133q-49 -47 -113 -74q152 -66 242 -201t90 -298v-21q-6 -209 -129 -359q-130 -157 -324 -157h-2q-106 0 -182 51q-84 59 -84 158q0 59 41 103t98 44q47 -1 77 -31q24 -24 24 -64q0 -11 -2 -22 q-16 16 -49 17q-47 0 -47 -43q0 -23 22.5 -38.5t46.5 -15.5q162 0 178 343v17q0 90 -39 185q-47 88 -102 160q-94 100 -188 100h-131v-358v-242v-309q0 -96 -72 -161.5t-170 -65.5q-100 0 -156 119q131 0 131 108v1219q0 25 -20.5 44t-40.5 19q-76 0 -76 78zM408 1065h131 q55 0 100 30.5t45 75.5t-37 79t-86 34h-153v-219z" />
<glyph unicode="C" horiz-adv-x="1239" d="M35 780q0 283 153 480q163 208 424 208h2q82 0 191.5 -42t128.5 -42q72 0 92.5 41t58.5 41q29 0 51.5 -20.5t22.5 -48.5q0 -16 -8 -33q-25 -49 -138.5 -189.5t-164.5 -236.5q-82 -150 -82 -293q0 -55 35 -102q39 -53 92 -54q31 0 55.5 20.5t24.5 51.5q0 29 -43 29 q-25 0 -49 -25q-12 25 -13 49q0 43 34 70t77 27q66 0 100.5 -43t34.5 -107q0 -86 -65.5 -149.5t-155.5 -63.5q-129 0 -213 123q-54 65 -54 122q0 7 1 15q-1 15 -1 30q0 150 72 327q63 182 64 211q0 47 -25 86q-38 65 -124 65h-3q-133 0 -200 -143q-55 -117 -56 -291 q0 -207 80 -371q56 -101 107 -162q189 -200 500 -200h3q166 0 166 -70q0 -78 -125 -121q-102 -35 -239 -35q-358 0 -590 252q-221 242 -221 594z" />
<glyph unicode="D" horiz-adv-x="1263" d="M102 154q29 0 51.5 20.5t22.5 50.5v985q0 74 -74.5 74t-74.5 78q0 76 75 76h457q645 0 645 -553q0 -350 -219 -615q-225 -270 -547 -270h-336q-75 0 -75 76q0 78 75 78zM442 174q117 0 228 111q178 171 198 544v82q1 10 1 22q0 56 -25 128q-35 100 -110 161.5t-175 61.5 h-117v-557v-283v-270z" />
<glyph unicode="E" horiz-adv-x="1282" d="M37 78q0 76 76 76q61 0 61 59v1012q0 25 -19.5 42t-41.5 17q-76 0 -76 78q0 76 76 76h675q33 0 76 40t76 40q51 0 81 -62.5t56 -124.5q6 -10 60 -74q32 -38 32 -69q0 -25 -20.5 -39t-42.5 -14q-66 0 -151 74.5t-167 74.5h-348v-203h256q39 0 53.5 59.5t57.5 59.5 q45 0 84 -53q33 -53 67 -109q12 -18 64 -61q35 -31 35 -64q0 -49 -58 -49q-41 0 -98 32t-115 32h-346v-396v-241v-137h391q80 41 154 147q80 115 80 211q0 74 -52 129t-126 55q-61 0 -108.5 -35.5t-47.5 -93.5q0 -92 74 -92q39 0 39 27t-17 26q-20 0 -26 -12q-6 12 -6 27 q0 31 23.5 55.5t64.5 24.5q43 0 73.5 -35t30.5 -86q0 -72 -54 -121t-128 -49q-123 0 -207 157q-10 41 -10 78l22 107q35 76 111 121t166 45q135 0 228 -97.5t93 -230.5q0 -156 -90 -299q-16 -27 -16 -39q0 -20 26 -20h48q77 0 77 -74q0 -80 -77 -80h-1063q-76 0 -76 78z" />
<glyph unicode="F" horiz-adv-x="1163" d="M14 78q0 76 76 76q20 0 41 19.5t21 43.5v1004q0 25 -20.5 44t-41.5 19q-76 0 -76 78q0 76 76 76h868q63 0 103 57q23 33 57 33q31 0 53.5 -20.5t22.5 -49.5q0 -20 -14 -41q-135 -190 -269 -381q-147 -225 -147 -368q0 -59 37 -106.5t92 -47.5q35 0 59.5 24.5t24.5 59.5 t-35 35q-39 0 -59 -41q-39 29 -39 72q0 37 35.5 66.5t76.5 29.5q70 0 117 -47t47 -115q0 -96 -66.5 -161.5t-160.5 -65.5q-141 0 -225 135q-50 64 -50 145q0 30 7 62q10 86 63 209h-270v-375v-242v-88q0 -25 20.5 -44t40.5 -19q78 0 78 -76q0 -78 -78 -78h-389q-76 0 -76 78 zM418 1075h340q63 136 63 150q0 59 -76 59h-266q-20 0 -40.5 -19.5t-20.5 -43.5v-146z" />
<glyph unicode="G" horiz-adv-x="1200" d="M35 780q0 283 153 480q163 208 424 208h2q82 0 187.5 -37.5t124.5 -37.5q20 0 60 41t75 41q65 0 65 -68q0 -49 -55 -102q-88 -86 -104 -109q-10 -12 -52 -109q-27 -59 -63 -59q-90 0 -90 148q0 47 -25 86q-38 65 -124 65h-3q-133 0 -200 -143q-55 -117 -56 -291 q0 -237 150 -483q27 -41 86 -107q100 -102 205 -162l-2 566v30q0 25 -20.5 44.5t-41.5 19.5q-76 0 -76 78q0 75 74 75h2h389q78 0 78 -75q0 -78 -78 -78q-20 0 -40.5 -19.5t-20.5 -44.5l2 -803q-459 0 -750 252q-276 242 -276 594z" />
<glyph unicode="H" horiz-adv-x="1388" d="M14 78q0 76 76 76q20 0 41 19.5t21 43.5v1004q0 25 -20.5 44t-41.5 19q-76 0 -76 78q0 76 76 76h389q78 0 78 -76q0 -78 -78 -78q-20 0 -40.5 -19.5t-20.5 -43.5v-318h528v326q0 25 -20.5 44t-40.5 19q-76 0 -76 78q0 76 76 76h389q78 0 78 -76q0 -78 -78 -78 q-20 0 -41 -19.5t-21 -43.5v-1004q0 -25 20.5 -44t41.5 -19q78 0 78 -76q0 -78 -78 -78h-389q-76 0 -76 78q0 76 76 76q20 0 40.5 19.5t20.5 43.5v350h-528v-358q0 -25 20.5 -44t40.5 -19q78 0 78 -76q0 -78 -78 -78h-389q-76 0 -76 78zM418 653h528v99h-528v-99z" />
<glyph unicode="I" horiz-adv-x="569" d="M14 78q0 76 76 76q20 0 41 19.5t21 43.5v1004q0 25 -20.5 44t-41.5 19q-76 0 -76 78q0 76 76 76h389q78 0 78 -76q0 -78 -78 -78q-20 0 -40.5 -19.5t-20.5 -43.5v-1004q0 -25 20.5 -44t40.5 -19q78 0 78 -76q0 -78 -78 -78h-389q-76 0 -76 78z" />
<glyph unicode="J" horiz-adv-x="1187" d="M122 383.5q87 97.5 220 97.5q29 0 43 -2q139 -10 186 -100q53 -76 54 -170q0 -80 -60.5 -135.5t-142.5 -55.5q-63 0 -111.5 34t-48.5 91q0 45 36 78q29 27 59 27q7 0 14 -2q0 -45 2 -51q8 -33 49 -33q59 0 59 47q0 53 -32 88q-39 41 -107 41q-72 0 -118 -56.5t-46 -134.5 q0 -123 109 -200q100 -72 241 -72q94 0 160 42t66 99q0 33 -35 66t-35 55q0 18 45 93t45 135v430v426q0 25 -20.5 44t-40.5 19q-76 0 -76 78q0 76 76 76h389q78 0 78 -76q0 -78 -78 -78q-20 0 -41 -19.5t-21 -43.5v-877q59 -106 60 -192q0 -254 -219 -361q-137 -65 -347 -65 h-6q-197 0 -342 116q-151 122 -151 303q0 141 87 238.5z" />
<glyph unicode="K" horiz-adv-x="1431" d="M41 78q0 76 76 76q20 0 40.5 19.5t20.5 43.5v1004q0 25 -20.5 44t-40.5 19q-76 0 -76 78q0 76 76 76h389q78 0 78 -76q0 -78 -78 -78q-20 0 -41 -19.5t-21 -43.5v-232q178 229 285 326q178 158 342 158q154 0 252 -101q90 -96 90 -233t-76.5 -211t-195.5 -74 q-115 0 -185 64q-63 57 -63 141t46 132t116 48q59 0 92 -33q23 -25 22 -53q0 -61 -41 -82q-27 37 -57 37q-35 0 -35 -49q0 -61 105 -62q55 0 92 37t37 105q0 80 -54.5 135t-144.5 55q-193 0 -422 -295q37 -55 150 -63l346 -729q41 -88 184 -88q78 0 78 -76q0 -78 -78 -78 l-356 -4l-248 508l-186 383q-59 -84 -95 -127v-484v-59q0 -25 20.5 -44t41.5 -19q78 0 78 -76q0 -78 -78 -78h-389q-76 0 -76 78z" />
<glyph unicode="L" horiz-adv-x="1288" d="M37 78q0 76 76 76q61 0 61 59v1012q0 25 -19.5 42t-41.5 17q-76 0 -76 78q0 76 76 76h389q78 0 78 -76q0 -78 -78 -78q-23 0 -42.5 -17.5t-19.5 -41.5v-934v-137h391q80 41 154 147q80 115 80 211q0 74 -52 129t-126 55q-61 0 -108.5 -35.5t-47.5 -93.5q0 -92 74 -92 q39 0 39 27t-17 26q-20 0 -26 -12q-6 12 -6 27q0 31 23.5 55.5t64.5 24.5q43 0 73.5 -35t30.5 -86q0 -72 -54 -121t-128 -49q-123 0 -207 157q-10 41 -10 78l22 107q35 76 111 121t166 45q135 0 228 -97.5t93 -230.5q0 -156 -90 -299q-16 -27 -16 -39q0 -20 26 -20h48 q77 0 77 -74q0 -80 -77 -80h-1063q-76 0 -76 78z" />
<glyph unicode="M" horiz-adv-x="1748" d="M59 371q0 145 52 358q35 141 98 330q51 158 51 166q0 25 -18.5 42t-38.5 17q-76 0 -76 78q0 76 76 76h329l371 -303q143 211 260 303h326q78 0 78 -76q0 -78 -78 -78q-23 0 -55.5 -20.5t-32.5 -44.5q0 -16 59 -172q74 -190 113 -347q59 -240 59 -458q0 -84 73 -86t73 -82 q0 -74 -74 -74h-457q-78 0 -78 78q0 76 78 76q98 12 99 88q0 141 -37 309q-23 94 -58 215q-63 203 -147 383q-113 -164 -225 -328q-137 -174 -258 -174q-59 0 -99 35q-35 29 -35 66q0 66 56 92q16 -49 78 -49q43 0 131 122l-340 283q-63 -188 -127 -375q-82 -258 -82 -450 q0 -197 108 -336q117 -150 303 -150q127 0 215 66q98 74 99 190q0 88 -57.5 147.5t-149.5 59.5q-68 0 -117 -37t-49 -104q0 -29 20.5 -50.5t51.5 -21.5q47 0 47 31q0 25 -19 33q-18 4 -32 -6q-4 10 -5 20q0 29 25 50.5t64 21.5q51 0 84 -41q26 -34 26 -75q0 -77 -54 -127 t-136 -50q-92 0 -153.5 64.5t-61.5 150.5q0 133 94 213q86 72 215 72q86 0 158 -33q92 -59 147 -142q45 -80 45 -176q0 -178 -139 -293q-133 -106 -318 -106q-248 0 -405 192q-150 180 -150 437z" />
<glyph unicode="N" horiz-adv-x="1376" d="M47 418q0 178 83 485t83 318q0 63 -61 63q-76 0 -76 78q0 76 76 76h438q41 -92 94 -135l395 -316v234q0 25 -20.5 44t-40.5 19q-76 0 -76 78q0 76 76 76h268q78 0 78 -76q0 -78 -78 -78q-20 0 -40.5 -19.5t-20.5 -43.5v-1192q0 -72 -72 -72q-74 0 -74 72v618l-188 148 l-506 397q-53 -152 -104 -303q-76 -240 -88 -410v-14q0 -116 32 -221q61 -131 181 -131q29 0 80 66.5t106 66.5q104 0 104 -121q0 -92 -88 -141q-66 -36 -153 -36q-16 0 -33 1q-162 12 -272 162q-102 139 -103 307z" />
<glyph unicode="O" horiz-adv-x="1327" d="M57 719q0 313 179.5 534.5t431.5 221.5t432 -221.5t180 -534.5t-180 -534.5t-432 -221.5t-431.5 221.5t-179.5 534.5zM381 719q0 -14 2 -43v-41l526 420q-84 276 -241 276q-123 0 -205 -178t-82 -434zM389 571q6 -47 17 -110l536 432q-8 51 -18 106zM420 406 q82 -299 248 -300q123 0 204.5 178.5t81.5 434.5q0 39 -4 112z" />
<glyph unicode="P" horiz-adv-x="1222" d="M-25 418q0 84 56 84q27 0 71 -45q47 -49 99 -66v830q0 25 -20.5 44t-41.5 19q-76 0 -76 78q0 76 76 76h535q510 0 510 -467q0 -264 -219 -467q-203 -188 -498 -246v-213q0 -117 -53 -188q-61 -82 -185 -82q-86 0 -133 47q-35 35 -39 92h15q128 0 129 131v203 q-45 8 -86 25.5t-72 41t-49.5 49t-18.5 54.5zM467 424q145 63 248 203q100 137 129 303q4 45 4 76.5t-3 56t-8.5 45t-13.5 43.5q-72 133 -229 133h-66q-20 0 -40.5 -19.5t-20.5 -43.5v-598v-199z" />
<glyph unicode="Q" horiz-adv-x="1343" d="M57 719q0 313 179.5 534.5t431.5 221.5t432 -221.5t180 -534.5q0 -307 -174 -526.5t-422 -229.5q-12 -31 -31 -61q41 -10 140 -58q74 -34 118 -34h2q133 0 134 92q0 20 -12.5 39.5t-12.5 42.5q0 31 21.5 49t50.5 18q47 0 73 -53q23 -45 23 -96q0 -135 -121 -217 q-104 -72 -238 -72q-72 0 -153.5 24.5t-138.5 24.5q-37 0 -62 -12q-8 -6 -53 -41q-23 -16 -47 -17q-29 0 -51.5 23t-22.5 51q0 31 27 53q125 104 207 263q-207 55 -343.5 262t-136.5 475zM381 719q0 -14 2 -43v-41l526 420q-84 276 -241 276q-123 0 -205 -178t-82 -434z M389 571q6 -47 17 -110l536 432q-8 51 -18 106zM420 406q63 -223 176 -281q41 123 45 235q2 72 72 72q71 0 71 -70q0 -49 -39 -233q92 53 150.5 216t58.5 374q0 39 -4 112z" />
<glyph unicode="R" horiz-adv-x="1318" d="M4 850q0 80 70 135q63 49 168 68v166q0 25 -20.5 44t-41.5 19q-76 0 -76 78q0 76 76 76h748q135 0 241 -66q123 -78 123 -201q0 -197 -284 -262q145 -887 292 -934q33 -11 66 -11q30 0 59 9q4 -20 5 -43q0 -80 -46 -135q-54 -69 -152 -69h-3q-293 0 -441 811 q-16 96 -36 223q-6 49 -15 123q-109 2 -229 20v-588v-98q0 -25 20.5 -44t40.5 -19q78 0 78 -76q0 -78 -78 -78h-389q-76 0 -76 78q0 76 76 76q20 0 41 19t21 44v700q-94 -10 -95 -65q0 -47 54 -62q-14 -63 -90 -63q-49 0 -80 43q-27 37 -27 82zM508 1044q143 -16 240 -16 q163 0 163 141q0 117 -174 117h-166q-23 0 -43 -21.5t-20 -45.5v-175z" />
<glyph unicode="S" horiz-adv-x="1239" d="M51 381q0 154 99 244q90 82 231 82q199 0 281 -144q33 -88 32 -137l-20 -100q-29 -59 -90 -95q-51 -28 -105 -28h-4q-76 0 -127 39q-61 45 -61 127q0 41 30.5 73.5t73.5 32.5q57 0 72 -45q-33 0 -33 -39q0 -45 45 -45q27 0 51.5 21.5t24.5 58.5q0 66 -47 101.5t-123 35.5 q-80 0 -131 -45q-55 -51 -55 -137q0 -143 149 -219q106 -53 217 -53q109 0 201 57q133 84 133 252q0 45 -8 78q-33 84 -109 161q-70 55 -261 131t-265 136q-119 98 -119 256q0 88 74 172q101 116 294 116h3q109 0 229.5 -49t134.5 -49q37 0 91.5 35t80.5 35q25 0 44.5 -19.5 t19.5 -42.5q0 -33 -60 -102q-68 -80 -75 -98q-14 -49 -27 -99q-20 -59 -65 -59q-55 0 -74 57q-18 51 -35 105q-39 63 -76 90q-70 53 -188 53q-121 0 -121 -100q0 -78 209 -166q291 -121 389 -197q209 -160 209 -416q0 -272 -234 -395q-162 -86 -395 -86q-174 0 -319 88 q-190 115 -191 328z" />
<glyph unicode="T" horiz-adv-x="1294" d="M39 1456q0 29 22.5 49.5t51.5 20.5q39 0 61 -39q27 -49 88 -49h768q61 0 88 49q23 39 62 39q29 0 51 -20.5t22 -49.5q0 -16 -8 -35q-31 -61 -117 -102q121 -111 121 -277q0 -104 -64.5 -172.5t-162.5 -68.5q-186 0 -186 178q0 61 38 98q33 33 80 33q45 0 71 -30 q19 -23 19 -54q0 -11 -2 -22q-14 12 -38 12q-25 0 -25 -37q0 -35 43 -35q84 0 84 98q0 119 -109 189q-84 53 -157 53q-20 0 -41 -19.5t-21 -43.5v-1004q0 -25 20.5 -44t41.5 -19q78 0 78 -76q0 -78 -78 -78h-389q-76 0 -76 78q0 76 76 76q20 0 40.5 19.5t20.5 43.5v1004 q0 25 -20.5 44t-40.5 19q-74 0 -156 -53q-109 -72 -109 -189q0 -98 84 -98q43 0 43 35q0 37 -24 37q-25 0 -39 -12q-2 11 -2 21q0 33 20 55q26 30 70 30q47 0 83 -35t36 -96q0 -178 -187 -178q-98 0 -162.5 68.5t-64.5 172.5q0 166 121 277q-86 41 -117 102q-8 18 -8 35z " />
<glyph unicode="U" horiz-adv-x="1243" d="M14 1362q0 76 76 76h389q78 0 78 -76q0 -78 -78 -78q-20 0 -40.5 -19.5t-20.5 -43.5l2 -846q27 -141 244 -142q299 0 299 173v643v65q-4 43 -29 43q-10 0 -52 -15.5t-67 -15.5q-33 0 -54.5 20.5t-21.5 47.5q0 61 81 103t161 81q29 16 98 88q49 49 90 50q66 0 66 -64 q0 -27 -64.5 -114t-64.5 -148v-784q0 -207 -94 -310q-113 -125 -373 -125q-487 0 -487 435v815q0 25 -20.5 44t-41.5 19q-76 0 -76 78z" />
<glyph unicode="V" horiz-adv-x="1380" d="M14 1362q0 76 76 76h447q77 0 77 -74q0 -80 -77 -80q-18 0 -37 -16.5t-19 -34.5q0 -6 2 -12l197 -484q41 -98 78 -188l80 -195q231 304 305 488q55 111 55 219q0 34 -6 69q-14 129 -94 195q-61 49 -140 49q-63 0 -108 -35q-53 -39 -53 -110q0 -33 22.5 -54.5t48.5 -21.5 q49 0 50 35q0 56 -36 56q-10 0 -24 -5q12 63 92 64q35 0 68 -31q41 -37 41 -98q0 -68 -52.5 -116t-138.5 -48q-82 0 -148.5 62.5t-66.5 156.5q0 139 99 219q86 70 206 70q137 0 240 -84q139 -117 139 -357q0 -195 -135 -440q-82 -152 -262 -389q-20 -27 -20 -45 q0 -49 65 -49q78 0 78 -76q0 -78 -78 -78h-477q-76 0 -76 78q0 76 76 76q20 0 41.5 16t21.5 35q0 6 -2 12l-409 1004q-27 63 -70 63q-76 0 -76 78z" />
<glyph unicode="W" horiz-adv-x="1708" d="M16 1362q0 76 76 76h457q78 0 78 -78q0 -76 -78 -76q-98 -12 -98 -88q2 -68 36 -317q27 -125 50 -215q55 -186 139 -330l205 434q23 49 59 49q27 0 57 -31q65 -65 136 -65q14 0 28 2q10 2 23 2q71 0 71 -70q0 -49 -49 -67q-10 -4 -61 -13l96 -221q96 125 178 295 q102 209 103 342q0 168 -99 269q-90 94 -219 94q-111 0 -177 -58.5t-66 -144.5q0 -137 157 -137q92 0 92 71q0 51 -49 52q-35 0 -31 0q-23 -4 -43 -31q-32 16 -32 58q0 48 40 78t97 30q63 0 108 -41q53 -49 54 -146q0 -90 -56 -147q-63 -68 -180 -68q-141 0 -227 84 q-77 96 -77 190q0 18 3 36q0 115 105.5 216t281.5 101q186 0 318 -129q145 -141 145 -377q0 -139 -90 -352q-78 -182 -178 -328q-31 -45 -31 -92q0 -29 37 -49q31 -18 59 -18q78 0 78 -76q0 -78 -78 -78h-366l-197 475l-217 -475h-375q-76 0 -76 78q0 76 76 76q88 27 88 65 q0 16 -61 174q-72 190 -111 346q-61 240 -61 459q0 84 -74 86t-74 80z" />
<glyph unicode="X" horiz-adv-x="1546" d="M53 156q0 207 148 385q106 133 323 276l-276 404q-43 63 -94 63q-76 0 -76 78q0 76 76 76h491q78 0 78 -76q0 -78 -78 -78q-35 0 -35 -43q0 -12 6 -20l166 -242q229 147 240 246q0 25 -21.5 42t-44.5 17q-75 0 -75 76q0 78 75 78h357q78 0 78 -76q0 -78 -78 -78 q-29 0 -64 -22q-45 -31 -59 -78q-76 -176 -316 -338l435 -629q43 -63 155 -63q78 0 78 -76q0 -78 -78 -78h-377l-213 311l-110 160l-146 213q-205 -129 -294 -225q-127 -137 -127 -303q0 -119 81.5 -200t198.5 -81q104 0 172 62q63 55 64 129q0 61 -42 101t-108 40 q-49 0 -74.5 -26.5t-25.5 -57.5q0 -35 47 -35q35 0 47 55q80 -4 80 -94q0 -100 -139 -100q-61 0 -117 51q-61 53 -62 123q0 80 54 145q68 82 190 82q29 0 41 -2q115 -4 189 -100q63 -80 63 -182q0 -127 -98 -226q-110 -108 -278 -108h-3q-176 0 -300 121.5t-124 302.5z" />
<glyph unicode="Y" horiz-adv-x="1376" d="M102 1438h459q78 0 78 -76q0 -78 -78 -78q-47 0 -47 -35q0 -31 25 -69l161 -252l127 -197q358 301 359 475q0 84 -52.5 136.5t-119.5 52.5q-59 0 -106.5 -33t-47.5 -84q0 -76 68 -76q37 0 37 27q0 20 -17 24q-14 4 -28 -4q-2 35 22.5 57.5t56.5 22.5q106 0 107 -123 q0 -59 -43 -100q-49 -47 -135 -47q-25 0 -54 6q-115 25 -145 131q-12 37 -12 82q0 109 89 184.5t208 75.5q121 0 213 -88q102 -96 102 -244q0 -223 -432 -608v-381q0 -29 37 -47q31 -16 57 -16q78 0 78 -76q0 -78 -78 -78h-450q-76 0 -76 78q0 76 76 76q27 0 58.5 17 t31.5 46v330l-428 670q-42 67 -99 67h-2q-75 0 -75 76q0 78 75 78z" />
<glyph unicode="Z" horiz-adv-x="1400" d="M2 0l832 1249q-55 2 -149.5 38t-154.5 36q-55 0 -87.5 -42t-32.5 -87q0 -12 8 -51t8 -66q0 -100 -94 -100q-23 0 -47 10q-31 16 -31 41q0 31 14.5 44t14.5 54q0 39 -91.5 130.5t-91.5 127.5q0 43 37 43q25 0 57.5 -14t59.5 -14q47 0 127 33.5t149 33.5q74 0 197 -38.5 t164 -38.5q88 0 119 6q55 14 110 65q27 25 58 25q69 0 69 -68q0 -27 -16 -51l-801 -1212h383q115 0 248 92q145 98 145 213q0 86 -43 131t-104 45q-51 0 -84 -31t-33 -69q0 -39 39 -39h4q40 2 40 49q0 8 -1 18q43 -2 72.5 -29.5t29.5 -68.5q0 -115 -141 -115q-76 0 -127 41 q-61 49 -61 144q0 94 69 165q76 80 193 80q119 0 198 -73q95 -88 95 -248q0 -82 -42 -166t-106 -139h70q78 0 78 -76q0 -78 -78 -78h-1272z" />
<glyph unicode="[" horiz-adv-x="516" d="M90 -154v1694h285q78 0 78 -76q0 -78 -78 -78h-62v-1386h62q78 0 78 -78q0 -76 -78 -76h-285z" />
<glyph unicode="\" horiz-adv-x="835" d="M41 1446q0 31 22.5 50.5t51.5 19.5q45 0 63 -46l594 -1464q6 -14 6 -29q0 -31 -22.5 -50t-50.5 -19q-45 0 -64 45l-594 1464q-6 14 -6 29z" />
<glyph unicode="]" horiz-adv-x="516" d="M61 -78q0 78 76 78h62v1386h-62q-76 0 -76 78q0 76 76 76h285v-1694h-285q-76 0 -76 76z" />
<glyph unicode="^" horiz-adv-x="630" d="M45 1561q0 23 21 43l202 247q16 20 49 21q35 0 52 -21l202 -247q16 -20 17 -45q0 -53 -49 -54q-25 0 -45 21l-175 143l-176 -143q-20 -20 -43 -21q-55 0 -55 56z" />
<glyph unicode="_" horiz-adv-x="1198" d="M-70 -176q0 47 47 47h1231q47 0 47 -47q0 -45 -47 -45h-1231q-47 0 -47 45z" />
<glyph unicode="`" horiz-adv-x="512" d="M72 1765q0 35 32.5 68t67.5 33q23 0 37 -15l203 -247q20 -20 20 -43q0 -55 -55 -56q-23 0 -43 21l-248 203q-14 14 -14 36z" />
<glyph unicode="a" horiz-adv-x="997" d="M43 274q0 168 115 269q127 111 417 162l-6 61q-137 -27 -247 -27q-131 0 -203 74q-55 57 -56 125q0 45 27 84t74 39q41 0 94 -39q80 -57 107 -70q76 -39 172 -39q74 0 180 35t141 35q69 0 69 -59q0 -6 -1 -13q0 -31 -60 -88q-53 -50 -54 -117q0 -9 1 -18l51 -471 q2 -25 21.5 -44t40.5 -19q78 0 78 -76q0 -78 -78 -78h-586q-94 0 -180 57q-117 76 -117 217zM328 319v-13q0 -99 84 -138q37 -14 63 -14h90q23 0 43.5 19.5t18.5 43.5l-13 119l-26 244q-84 -20 -158 -86q-88 -78 -102 -175z" />
<glyph unicode="b" horiz-adv-x="940" d="M-27 1362q0 76 78 76h285v-471q219 -29 344 -111q225 -147 225 -481q0 -170 -90 -269q-105 -120 -328 -120h-4q-135 0 -239 71q-29 -69 -73 -69h-1q-57 0 -57 82v1151q0 25 -20.5 44t-41.5 19q-78 0 -78 78zM336 217q0 -25 20.5 -44t40.5 -19h72q145 0 145 266 q0 39 -6 78q-20 96 -61 172q-74 127 -211 159v-550v-62z" />
<glyph unicode="c" horiz-adv-x="894" d="M55 506q0 270 154 389q104 80 256 80q55 0 124.5 -25.5t78.5 -25.5q39 0 51 24q25 47 69 47q70 0 70 -69q0 -12 -4 -27q-23 -68 -98 -166q-63 -80 -64 -133q0 -29 31 -45q18 -16 18 -45q0 -74 -63 -74q-16 0 -35 8q-88 39 -88 138q0 23 12.5 59.5t12.5 56.5 q0 135 -101 136q-143 0 -143 -256q0 -254 166 -379q109 -80 313 -113q53 -9 53 -68q0 -65 -133 -65h-4q-240 0 -436 127q-240 156 -240 426z" />
<glyph unicode="d" horiz-adv-x="962" d="M37 358q0 317 184 467q133 109 387 140v256q0 25 -20.5 44t-40.5 19q-76 0 -76 78q0 76 76 76h284v-1221q0 -25 20.5 -44t41.5 -19q78 0 78 -76q0 -78 -78 -78h-518q-162 0 -256 117q-82 102 -82 241zM330 492q-3 -37 -3 -71q0 -97 27 -171q45 -96 152 -96h41 q20 0 40.5 19.5t20.5 43.5v244v368q-88 -20 -159 -90q-106 -105 -119 -247z" />
<glyph unicode="e" horiz-adv-x="917" d="M47 498q0 227 121 362q113 127 283 127q90 0 173 -45t78 -45q14 0 51.5 26.5t67.5 26.5h2q64 0 64 -73q0 -78 -107 -181q-61 -57 -229 -182q-154 -113 -205 -168q41 -188 254 -188q45 0 104.5 14t86.5 14q67 0 67 -63q0 -49 -61 -90q-88 -59 -256 -60q-205 0 -344 138 q-150 147 -150 387zM336 539q131 88 133 90q82 69 82 139q0 72 -78 72q-125 0 -137 -301z" />
<glyph unicode="f" horiz-adv-x="602" d="M-4 899q0 70 70 70q18 0 48.5 -18.5t47.5 -18.5q18 0 26 2q-4 70 -58 159t-54 146q0 92 60.5 153.5t148.5 61.5q68 0 111.5 -31.5t52.5 -31.5q18 0 37.5 23.5t37.5 23.5q45 0 45 -66q0 -41 -30.5 -84t-30.5 -55q0 -18 13.5 -42t13.5 -34q0 -43 -62 -43q-57 0 -72 57 q-8 51 -16 105q-14 57 -68 57q-59 0 -59 -71q0 -31 72 -113q74 -88 84 -150q45 8 63 9q43 0 82 -29t39 -70q0 -80 -63 -80q-20 0 -46 24t-43 24q-20 0 -30 -3v-669q0 -25 20.5 -44.5t40.5 -19.5q78 0 78 -71q0 -72 -80 -86q-41 -14 -143 -78q-51 -49 -103.5 -99.5 t-95.5 -50.5q-57 0 -57 49q0 43 56 109t56 143v760q-57 -14 -79 -14q-113 0 -113 96z" />
<glyph unicode="g" horiz-adv-x="890" d="M2 -125q0 109 100 109q45 0 76 -31t31 -74q0 -123 233 -123q100 0 193 37q110 45 110 120q0 93 -135 93q-49 0 -155.5 -9t-141.5 -9q-86 0 -161 41q-109 57 -109 166q0 39 27 75q23 -39 57 -39q41 0 73.5 41t32.5 93q0 12 -4 28q-163 95 -163 262q0 135 109.5 229.5 t262.5 94.5q45 0 78 -8q29 57 29 110q0 41 -35 41q-43 0 -43 -32q0 -23 18 -46q-27 -8 -51 -8q-49 0 -79.5 30t-30.5 77q0 49 41 94q49 57 131 57q192 0 192 -190q0 -84 -47 -178q170 -94 170 -269q0 -131 -109.5 -225t-263.5 -94q-35 0 -69 6q-29 -25 -29 -45q0 -68 78 -68 q39 0 132 15.5t146 15.5q102 0 181 -57q104 -78 104 -232q0 -123 -125 -219q-158 -121 -440 -121q-158 0 -269 48q-145 63 -145 194zM324 618v-9q0 -55 43 -113q31 -37 71 -37q49 0 82 54t35 134q-2 125 -55 180q-25 29 -62 29q-47 0 -82 -56q-32 -54 -32 -169v-13z" />
<glyph unicode="h" horiz-adv-x="915" d="M20 78q0 76 76 76q20 0 41 19.5t21 43.5v1004q0 25 -20.5 44t-41.5 19q-76 0 -76 78q0 76 76 76h285v-576q86 104 217 105q92 0 152.5 -65.5t60.5 -180.5v-518q0 -59 52 -97t52 -71q0 -49 -55 -49h-84q-76 0 -132 61.5t-56 142.5l-2 449q0 109 -94 109q-111 0 -111 -148 v-125v-258q0 -25 20.5 -44t40.5 -19q78 0 78 -76q0 -78 -78 -78h-346q-76 0 -76 78z" />
<glyph unicode="i" horiz-adv-x="573" d="M37 78q0 76 76 76q20 0 40.5 19.5t20.5 43.5v528q0 25 -20.5 44.5t-40.5 19.5q-76 0 -76 78q0 76 76 76h284v-746q0 -25 20.5 -44t41.5 -19q78 0 78 -76q0 -78 -78 -78h-346q-76 0 -76 78zM121 1229q0 66 47 113t113 47t112.5 -47t46.5 -113t-47 -113t-112 -47 q-66 0 -113 47t-47 113z" />
<glyph unicode="j" horiz-adv-x="503" d="M-80 -231q0 57 29 100q39 59 119 59q57 0 90 -47q21 -31 21 -62q0 -6 -1 -12q-12 4 -26 5q-49 0 -50 -33q0 -45 62 -45q82 0 82 116q0 119 -133 150q-72 12 -72 86q0 68 72 68q20 0 40.5 19.5t20.5 43.5v528q0 25 -20.5 44.5t-40.5 19.5q-76 0 -76 78q0 76 76 76h284 v-746q0 -94 58.5 -183t58.5 -171q0 -150 -89 -231t-253 -81q-141 0 -207 89q-45 59 -45 129zM121 1229q0 66 47 113t113 47t112.5 -47t46.5 -113t-47 -113t-112 -47q-66 0 -113 47t-47 113z" />
<glyph unicode="k" horiz-adv-x="1081" d="M12 78q0 76 76 76q20 0 41 19.5t21 43.5v1004q0 25 -20.5 44t-41.5 19q-76 0 -76 78q0 76 76 76h285v-662q223 195 393 195q152 0 221 -94q49 -66 49 -160q0 -84 -56 -132t-128 -48q-68 0 -111 38q-36 32 -36 74q0 96 86 96q20 0 32 -8q-8 -12 -8 -24q0 -33 37 -33 q41 0 41 37q0 110 -125 110h-2q-131 0 -299 -157q31 -74 147 -86l234 -367q14 -23 52 -43t58 -20q78 0 78 -76q0 -78 -78 -78h-264l-321 498v-281q0 -25 20.5 -44t40.5 -19q78 0 78 -76q0 -78 -78 -78h-346q-76 0 -76 78z" />
<glyph unicode="l" horiz-adv-x="571" d="M37 78q0 76 76 76q20 0 40.5 19.5t20.5 43.5v1004q0 25 -20.5 44t-40.5 19q-76 0 -76 78q0 76 76 76h284v-1221q0 -25 20.5 -44t41.5 -19q78 0 78 -76q0 -78 -78 -78h-346q-76 0 -76 78z" />
<glyph unicode="m" horiz-adv-x="1351" d="M12 78q0 76 76 76q20 0 41 19.5t21 43.5v528q0 25 -20.5 44.5t-41.5 19.5q-76 0 -76 78q0 76 76 76h285v-101q86 104 217 105q139 0 192 -131q100 131 238 131q92 0 152.5 -65.5t60.5 -180.5v-518q0 -59 52 -97t52 -71q0 -49 -55 -49h-84q-76 0 -132 61.5t-56 142.5 l-2 449q0 109 -95 109q-111 0 -110 -148v-344v-39q0 -51 52 -92t52 -76q0 -49 -55 -49h-84q-76 0 -132 61.5t-56 143.5l-2 434q0 109 -95 109q-111 0 -110 -148v-125v-258q0 -25 20.5 -44t40.5 -19q78 0 78 -76q0 -78 -78 -78h-346q-76 0 -76 78z" />
<glyph unicode="n" horiz-adv-x="892" d="M12 78q0 76 76 76q20 0 41 19.5t21 43.5v528q0 25 -20.5 44.5t-41.5 19.5q-76 0 -76 78q0 76 76 76h285v-101q86 104 217 105q92 0 152.5 -65.5t60.5 -180.5v-518q0 -59 52 -97t52 -71q0 -49 -55 -49h-84q-76 0 -132 61.5t-56 142.5l-2 449q0 109 -95 109 q-111 0 -110 -148v-344v-39q0 -25 20.5 -44t40.5 -19q78 0 78 -76q0 -78 -78 -78h-346q-76 0 -76 78z" />
<glyph unicode="o" d="M43 477q0 209 131 356.5t315 147.5t315.5 -147.5t131.5 -356.5t-131 -357.5t-316 -148.5q-184 0 -315 148.5t-131 357.5zM324 477l6 -88q1 -31 30 -137q47 -127 129 -127q72 0 119 102.5t47 249.5l-4 80q-8 57 -30 139q-49 133 -132 133q-72 0 -118.5 -102t-46.5 -250z " />
<glyph unicode="p" horiz-adv-x="966" d="M-8 887q0 76 78 76h518q162 0 256 -117q82 -103 82 -242q0 -317 -185 -467q-133 -109 -387 -139v-256q0 -80 -55 -128t-139 -48q-63 0 -110.5 32.5t-49.5 92.5h10q121 0 121 145v909q0 25 -20.5 44.5t-40.5 19.5q-78 0 -78 78zM354 133q88 20 160 92q107 105 119 287 q1 17 1 34q0 86 -26 167q-45 96 -151 96h-41q-20 0 -41 -19.5t-21 -44.5v-466v-146z" />
<glyph unicode="q" horiz-adv-x="919" d="M45 575q0 170 90 269q106 121 332 121q135 0 240 -72q29 70 73 70q57 0 58 -82v-1057q0 -25 20.5 -44.5t40.5 -19.5q78 0 78 -77q0 -76 -78 -76h-346q-76 0 -76 76q0 77 74 77h2q20 0 40.5 19.5t20.5 44.5v160q-219 29 -342 110q-227 147 -227 481zM336 530 q0 -37 18 -135q10 -32 49 -114q74 -127 211 -160v330v282q0 25 -20.5 44.5t-40.5 19.5h-72q-145 0 -145 -267z" />
<glyph unicode="r" horiz-adv-x="849" d="M16 78q0 76 76 76q20 0 41 19.5t21 43.5v528q0 25 -20.5 44.5t-41.5 19.5q-76 0 -76 78q0 76 76 76h285v-127q43 51 106 96q90 59 166 59q88 0 144.5 -45t56.5 -119q0 -59 -62 -94q2 -20 3 -45q0 -196 -147 -196h-1q-59 0 -93 31.5t-34 70.5q0 41 29 70q14 -20 39 -21 q33 0 32 45q0 47 -65 47q-72 0 -123 -52t-51 -124v-342q0 -25 20.5 -44t40.5 -19q78 0 78 -76q0 -78 -78 -78h-346q-76 0 -76 78z" />
<glyph unicode="s" horiz-adv-x="907" d="M43 272q0 74 51 129q59 61 158 62q90 0 141 -55q39 -43 39 -99q0 -45 -30.5 -84t-71.5 -39q-57 0 -80 45q47 0 47 50q0 47 -51 47q-25 0 -46.5 -19.5t-21.5 -48.5q0 -49 60 -92q74 -53 198 -53q121 0 174 55q37 35 37 84q0 72 -137 143q-127 63 -254 129 q-137 86 -137 195q0 125 84 192q78 66 217 66q88 0 162.5 -30.5t79.5 -30.5q12 0 47.5 21.5t58.5 21.5q53 0 53 -58q0 -41 -45 -82q-31 -29 -61 -57l-21 -59q-12 -33 -47 -33q-45 0 -68.5 45t-46.5 88q-35 47 -100 47q-84 0 -84 -57q0 -45 137 -99q186 -74 256 -125 q138 -102 138 -268q0 -158 -134 -248q-121 -80 -301 -80q-156 0 -262 60q-139 76 -139 237z" />
<glyph unicode="t" horiz-adv-x="667" d="M-2 899q0 70 70 70q18 0 48.5 -18.5t47.5 -18.5q18 0 26 2v102q0 57 -64.5 89t-64.5 73q0 57 103 82q145 35 147 37q12 8 92 76q57 47 99 47q67 0 67 -66q0 -41 -76.5 -118.5t-76.5 -145.5v-111q45 8 63 9q43 0 82 -29t39 -70q0 -80 -63 -80q-20 0 -46 24t-42 24 q-20 0 -31 -3v-550q0 -25 20.5 -44.5t40.5 -19.5q16 0 46 62.5t77 62.5q70 0 70 -74q0 -63 -81 -157.5t-81 -165.5q-25 -2 -55 -2q-264 0 -265 190v641q-57 -14 -79 -14q-113 0 -113 96z" />
<glyph unicode="u" horiz-adv-x="894" d="M-6 911q0 49 55 50h84q76 0 132.5 -61.5t56.5 -143.5l2 -434q0 -109 94 -109q111 0 110 147v125v258q0 25 -20.5 44.5t-40.5 19.5q-76 0 -76 78q0 76 76 76h346q78 0 78 -76q0 -78 -78 -78q-20 0 -40.5 -19.5t-20.5 -44.5v-528q0 -25 20.5 -44t40.5 -19q78 0 78 -76 q0 -78 -78 -78h-285v100q-86 -104 -217 -104q-92 0 -149 63q-63 68 -64 183v503q0 59 -52 97.5t-52 70.5z" />
<glyph unicode="v" horiz-adv-x="948" d="M14 963h346q78 0 78 -76q0 -78 -78 -78q-20 0 -34.5 -21.5t-8.5 -42.5l95 -296l77 -240q72 117 142 233q96 162 149 365q6 37 6 70q0 27 -2 38q-20 106 -66 139t-93 33q-57 0 -58 -53q0 -20 23 -53q-20 -14 -70 -14q-55 0 -98 43t-43 102q0 74 59.5 121t145.5 47 q121 0 221 -88q125 -113 125 -315q0 -205 -236 -603q-41 -70 -41 -86q0 -35 37 -34q78 0 78 -76q0 -78 -78 -78h-473q-76 0 -76 78q0 76 76 76q20 0 35.5 21.5t9.5 41.5l-168 528q-8 27 -33.5 45.5t-46.5 18.5q-77 0 -77 76q0 78 77 78z" />
<glyph unicode="w" horiz-adv-x="1511" d="M2 887q0 76 76 76h346q78 0 78 -76q0 -78 -78 -78q-20 0 -34.5 -21.5t-8.5 -42.5l168 -520l192 635q18 59 60 60q35 0 59 -29q31 -39 62 -53q47 -23 47 -60q0 -14 -31 -35.5t-31 -42.5q0 -6 2 -12l78 -239l78 -240q111 193 125 221q78 147 115 270q24 114 24 149 q0 29 -2 42q-31 113 -72 142.5t-88 29.5q-57 0 -57 -53q0 -20 23 -54q-20 -14 -70 -14q-55 0 -98 43t-43 102q0 74 59 121t145 47q121 0 222 -88q125 -113 125 -315q0 -236 -203 -578q-41 -70 -41 -86q0 -35 37 -34q77 0 77 -74q0 -78 -77 -80l-351 -6l-141 440l-147 -434 h-346q-76 0 -76 78q0 76 76 76q20 0 35.5 21.5t9.5 41.5l-168 528q-8 27 -34 45.5t-46 18.5q-76 0 -76 78z" />
<glyph unicode="x" horiz-adv-x="1110" d="M-8 25q0 279 362 507l-149 213q-45 63 -86 64q-76 0 -76 78q0 76 76 76h389q78 0 78 -76q0 -78 -78 -78q-12 0 -12 -12q0 -23 20 -52l62 -86q86 49 131 86q16 14 16 41q0 23 -16 23q-76 0 -76 78q0 76 76 76h278q78 0 78 -76q0 -78 -78 -78q-25 0 -78 -64 q-90 -106 -247 -204l229 -324q45 -63 110 -63q78 0 78 -76q0 -78 -78 -78h-436q-76 0 -76 78q0 76 76 76q18 0 23 24q2 23 -10 39l-138 195q-152 -88 -215 -160q-90 -98 -90 -227q0 -190 133 -191q27 0 65 76t97 76q119 0 119 -127q0 -92 -80 -148q-70 -47 -168 -47 q-117 0 -203 78q-106 96 -106 283z" />
<glyph unicode="y" horiz-adv-x="1157" d="M18 8q70 76 166 76q98 0 154 -64q49 -55 49 -126q0 -63 -39 -103q-33 -33 -67 -33q-94 0 -97 56q59 10 60 80q0 47 -60 47q-39 0 -65.5 -33t-26.5 -76q0 -141 182 -141q197 0 299 289q-51 74 -192 131q-115 47 -115 90q0 31 43 61q45 31 45 53q0 20 -10 41l-207 389 q-33 63 -65 64q-78 0 -78 78q0 76 78 76h389q78 0 78 -76q0 -78 -78 -78q-16 0 -31.5 -15.5t-15.5 -33.5q0 -6 4 -15l117 -241l131 -271l184 519q2 20 -12.5 38.5t-32.5 18.5q-76 0 -76 78q0 76 76 76h291q78 0 78 -76q0 -78 -78 -78q-20 0 -49 -19.5t-37 -44.5l-265 -778 q-70 -201 -159 -297q-117 -123 -312 -123q-176 0 -260 97q-65 75 -65 185q0 103 69 179z" />
<glyph unicode="z" horiz-adv-x="1019" d="M-12 0l516 784q-49 45 -111 45q-76 0 -94 -57q-4 -16 -4 -92q0 -37 -25.5 -59.5t-58.5 -22.5q-29 0 -48.5 21.5t-19.5 44.5q0 12 10.5 32.5t10.5 48.5q0 16 -57.5 76t-57.5 105q0 49 45 49q23 0 59.5 -20.5t55.5 -20.5q6 0 63.5 26.5t108.5 26.5q41 0 151.5 -26.5 t131.5 -26.5q27 0 77 20.5t66 20.5q29 0 49.5 -20.5t20.5 -49.5q0 -12 -39 -71l-447 -693h219q72 0 123 39q66 49 66 139q0 57 -45 58q-33 0 -33 -45q0 -14 8 -23q-7 -1 -13 -1q-33 0 -59 18q-39 27 -39 77q0 61 50 97q40 30 98 30h4q70 0 129 -51q74 -65 74 -178 q0 -92 -55 -158q51 -35 51 -80q0 -63 -86 -63h-895z" />
<glyph unicode="{" horiz-adv-x="684" d="M27 668q0 61 71 75q33 0 99 19q45 25 45 110q0 43 -17.5 161t-17.5 179q0 182 123 250q55 31 125 31h118q72 0 72 -72t-72 -71h-32q-47 0 -80 -33q-20 -20 -21 -66q0 -37 28 -157.5t28 -190.5q0 -156 -117 -237q106 -84 106 -242q0 -68 -23.5 -183.5t-23.5 -152.5 q0 -47 23 -70q33 -33 80 -32h32q72 0 72 -72t-72 -72h-118q-70 0 -125 31q-123 68 -123 250q0 61 17.5 179t17.5 161q0 86 -45 110q-31 16 -99 19q-72 14 -71 76z" />
<glyph unicode="|" horiz-adv-x="460" d="M154 -20v1464q0 72 71 72q72 0 72 -72v-1464q0 -72 -72 -72t-71 72z" />
<glyph unicode="}" horiz-adv-x="684" d="M39 -86q0 72 72 72h32q47 0 80 32q23 23 23 70q0 37 -23.5 152.5t-23.5 183.5q0 158 106 242q-117 82 -117 237q0 70 28 190.5t28 157.5q0 45 -21 66q-33 33 -80 33h-32q-72 0 -72 71q0 72 72 72h118q70 0 125 -31q123 -68 123 -250q0 -61 -17.5 -179t-17.5 -161 q0 -86 45 -110q31 -16 99 -19q72 -14 71 -75q1 -62 -71 -76q-33 0 -99 -19q-45 -25 -45 -110q0 -43 17.5 -161t17.5 -179q0 -182 -123 -250q-55 -31 -125 -31h-118q-72 0 -72 72z" />
<glyph unicode="~" horiz-adv-x="630" d="M37 1565q4 57 59.5 108t124.5 47q53 -4 121 -47q59 -37 86 -33q45 8 47 21q6 57 57 57q56 0 56 -61q0 -59 -54.5 -106.5t-127.5 -45.5q-61 2 -117 41q-63 45 -96 37q-41 0 -43 -27q-4 -55 -58 -55q-61 0 -55 64z" />
<glyph unicode="&#xa4;" horiz-adv-x="1214" d="M115 115l164 159q-61 92 -62 209q0 115 62 205l-164 168l112 105l160 -162q94 59 209 59q117 0 205 -59l168 162l104 -105l-162 -168q59 -90 60 -205q0 -115 -60 -209l162 -159l-104 -115l-168 166q-90 -61 -205 -62q-111 0 -209 62l-162 -166zM371 483 q0 -94 65.5 -162.5t159.5 -68.5q92 0 156.5 68.5t64.5 162.5q0 92 -64.5 160t-156.5 68q-94 0 -159.5 -68t-65.5 -160z" />
<glyph unicode="&#xa6;" horiz-adv-x="460" d="M154 10v563q0 72 71 72q72 0 72 -72v-563q0 -72 -72 -71q-72 0 -71 71zM154 881v563q0 72 71 72q72 0 72 -72v-563q0 -72 -72 -72t-71 72z" />
<glyph unicode="&#xa7;" horiz-adv-x="927" d="M49 223q0 76 55 135q63 68 162 68q90 0 137 -59q35 -45 35 -105q0 -49 -30.5 -90t-71.5 -41q-37 0 -55 16q-2 2 -25 33q47 0 47 53q0 49 -51 50q-25 0 -46.5 -20.5t-21.5 -51.5q0 -53 60 -100q74 -57 198 -58q121 0 174 60q37 39 37 90q0 78 -137 153q-127 70 -254 138 q-137 92 -137 208q0 182 147 242q-147 92 -147 217q0 133 82 205t219 72q88 0 163 -33t79 -33q12 0 48 22.5t58 22.5q53 0 53 -61q0 -43 -45 -88q-31 -31 -61 -62q-10 -31 -21.5 -63.5t-46.5 -32.5q-45 0 -68.5 47t-45.5 94q-35 49 -101 49q-84 0 -84 -59q0 -49 138 -106 q186 -80 256 -134q137 -111 137 -286q0 -131 -84 -219q84 -90 84 -240q0 -168 -133 -264q-119 -84 -301 -84q-158 0 -263 61q-139 82 -139 254zM354 780q0 -43 100.5 -89t202.5 -91q6 88 -71 168q-72 74 -148 74q-84 0 -84 -62z" />
<glyph unicode="&#xa9;" horiz-adv-x="1599" d="M82 700q0 297 210 507t507 210t508 -210t211 -507t-211 -506.5t-508 -209.5t-507 209.5t-210 506.5zM174 700q0 -260 182.5 -442t442.5 -182t443 182t183 442t-183 442.5t-443 182.5t-442.5 -182t-182.5 -443zM406 711q0 229 131 329q88 68 217 68q47 0 105.5 -21.5 t66.5 -21.5q33 0 43 20q20 41 59 41q59 0 59 -59q0 -10 -4 -23q-18 -59 -84 -141q-53 -68 -53 -112q0 -25 27 -39q16 -12 16 -39q0 -61 -55 -62q-14 0 -29 6q-76 33 -76 117q0 18 10.5 51t10.5 49q0 115 -84 115q-123 0 -123 -217q0 -356 408 -418q45 -6 45 -57 q0 -57 -117 -57q-203 0 -369 108q-205 133 -204 363z" />
<glyph unicode="&#xab;" horiz-adv-x="901" d="M82 618q0 18 24 37l304 224q14 10 28 10q43 0 43 -45q0 -23 -16 -39l-174 -187l174 -186q16 -16 16 -37q0 -45 -43 -45q-14 0 -28 10l-304 222q-25 18 -24 36zM410 618q0 18 24 37l303 224q14 10 29 10q43 0 43 -45q0 -23 -16 -39l-175 -187l175 -186q16 -16 16 -37 q0 -45 -43 -45q-14 0 -29 10l-303 222q-25 18 -24 36z" />
<glyph unicode="&#xac;" d="M123 657v250h729v-465h-317v215h-412z" />
<glyph unicode="&#xad;" horiz-adv-x="686" d="M78 635q0 76 76 76h389q78 0 78 -76q0 -78 -78 -78h-389q-76 0 -76 78z" />
<glyph unicode="&#xae;" horiz-adv-x="1044" d="M98 997q0 170 122 292t292 122t293 -122t123 -292t-123 -292.5t-293 -122.5t-292 122.5t-122 292.5zM190 997q0 -133 94.5 -228t227.5 -95t228.5 95t95.5 228t-95.5 227.5t-228.5 94.5t-227.5 -94.5t-94.5 -227.5zM352 817q0 20 19.5 20.5t19.5 16.5v279q0 18 -19.5 18 t-19.5 20t21 21h207q37 0 68.5 -19.5t31.5 -54.5q0 -53 -76 -74q8 -70 19 -108q16 -70 43 -80q12 -2 18 -2t14 2q6 -23 -6 -41q-14 -25 -47 -24q-86 0 -117 247q-35 0 -65 6v-190q0 -16 20.5 -16t20.5 -21q0 -23 -23 -22h-108q-20 0 -21 22zM463 1083q10 0 32.5 -2t34.5 -2 q45 0 45 39q0 33 -47 33h-47q-18 0 -18 -18v-50z" />
<glyph unicode="&#xb0;" horiz-adv-x="638" d="M84 1176q0 96 68.5 163.5t162.5 67.5q96 0 165 -68.5t69 -162.5t-68.5 -164t-165.5 -70q-94 0 -162.5 68.5t-68.5 165.5zM176 1176q0 -59 41 -100.5t98 -41.5q59 0 100.5 42.5t41.5 99.5t-41 98t-101 41q-57 0 -98 -40t-41 -99z" />
<glyph unicode="&#xb1;" horiz-adv-x="829" d="M78 119q0 76 76 76h512q78 0 77 -76q1 -78 -77 -78h-512q-76 0 -76 78zM78 635q0 76 76 76h178v178q0 78 78 78q76 0 75 -78v-178h181q78 0 77 -76q1 -78 -77 -78h-181v-180q0 -76 -75 -76q-78 0 -78 76v180h-178q-76 0 -76 78z" />
<glyph unicode="&#xb5;" horiz-adv-x="909" d="M-6 911q0 49 55 50h84q76 0 132.5 -61.5t56.5 -143.5v-217l206 166v38q0 25 -20.5 44.5t-40.5 19.5q-76 0 -76 78q0 76 76 76h346q78 0 78 -76q0 -78 -78 -78q-20 0 -40.5 -19.5t-20.5 -44.5v-528q0 -25 20.5 -44t40.5 -19q78 0 78 -76q0 -78 -78 -78h-285v100 q-86 -104 -217 -104q-57 0 -102 26q2 -49 29.5 -118.5t27.5 -122.5q0 -47 -25.5 -79t-66.5 -32q-92 0 -92 111q0 61 28.5 137t28.5 129q0 27 -20.5 86t-20.5 109v503q0 59 -52 97.5t-52 70.5zM322 387l206 166v84l-206 -166v-84zM324 322q0 -109 94 -109q110 0 110 147v125z " />
<glyph unicode="&#xb6;" horiz-adv-x="964" d="M68 1008q0 176 111.5 302t266.5 126h490v-144h-92v-1442h-144v1442h-112v-1442h-144l2 728q-158 0 -268 125.5t-110 304.5z" />
<glyph unicode="&#xb7;" horiz-adv-x="614" d="M150 696q0 68 48 116t115 48q68 0 116 -48t48 -116t-48 -114.5t-116 -46.5t-115.5 47t-47.5 114z" />
<glyph unicode="&#xbb;" horiz-adv-x="901" d="M80 395q0 20 16 37l174 186l-174 187q-16 16 -16 39q0 45 43 45q14 0 29 -10l303 -224q25 -18 24 -37q1 -18 -24 -36l-303 -222q-14 -10 -29 -10q-43 0 -43 45zM408 395q0 20 16 37l174 186l-174 187q-16 16 -16 39q0 45 43 45q14 0 28 -10l303 -224q25 -18 25 -37 q0 -18 -25 -36l-303 -222q-14 -10 -28 -10q-43 0 -43 45z" />
<glyph unicode="&#xbf;" horiz-adv-x="1187" d="M70 344q0 156 123 254q115 74 229 150q123 96 123 243h155q0 -229 -77 -358q-33 -51 -148 -152q-78 -68 -78 -153q0 -96 74 -155.5t195 -59.5q195 0 299 118q-25 -4 -45 -4q-154 0 -154 156q0 66 55.5 107.5t126.5 41.5q72 0 129 -59q60 -66 60 -164q0 -158 -147.5 -251 t-407.5 -93q-274 0 -408 131q-104 100 -104 248zM453 1280q0 68 47 115t114 47q68 0 115 -47t47 -115t-47 -115t-115 -47t-114.5 47t-46.5 115z" />
<glyph unicode="&#xf7;" horiz-adv-x="743" d="M78 635q0 76 76 76h438q78 0 78 -76q0 -78 -78 -78h-438q-76 0 -76 78zM270 371q0 45 31 75.5t76 30.5t75.5 -30.5t30.5 -75.5t-30.5 -75t-75.5 -30t-76 30t-31 75zM270 881q0 45 31 75.5t76 30.5t75.5 -30.5t30.5 -75.5t-30.5 -75t-75.5 -30t-76 30t-31 75z" />
<glyph unicode="&#x131;" horiz-adv-x="573" d="M37 78q0 76 76 76q20 0 40.5 19.5t20.5 43.5v528q0 25 -20.5 44.5t-40.5 19.5q-76 0 -76 78q0 76 76 76h284v-746q0 -25 20.5 -44t41.5 -19q78 0 78 -76q0 -78 -78 -78h-346q-76 0 -76 78z" />
<glyph unicode="&#x401;" horiz-adv-x="1282" d="M37 78q0 76 76 76q61 0 61 59v1012q0 25 -19.5 42t-41.5 17q-76 0 -76 78q0 76 76 76h675q33 0 76 40t76 40q51 0 81 -62.5t56 -124.5q6 -10 60 -74q33 -39 32 -71q0 -23 -20.5 -37t-42.5 -14q-66 0 -151 74.5t-167 74.5h-348v-203h256q39 0 53.5 59.5t57.5 59.5 q45 0 84 -53q33 -53 67 -109q12 -18 64 -61q35 -31 35 -64q0 -49 -58 -49q-41 0 -98 32t-115 32h-346v-396l170 142q35 76 111 121t166 45q135 0 228 -97.5t93 -230.5q0 -156 -90 -299q-16 -27 -16 -39q0 -20 26 -20h48q78 0 77 -76q0 -78 -77 -78h-1063q-76 0 -76 78z M324 1647q0 47 32.5 78.5t77.5 31.5q47 0 79 -31.5t32 -78.5q0 -45 -32 -78t-79 -33q-45 0 -77.5 33t-32.5 78zM440 154h391q80 41 154 147q80 115 80 211q0 74 -52 129t-126 55q-61 0 -108.5 -35.5t-47.5 -93.5q0 -92 74 -92q39 0 39 27t-17 26q-20 0 -26 -12q-6 12 -6 27 q0 31 23.5 55.5t64.5 24.5q43 0 73.5 -35t30.5 -86q0 -72 -54 -121t-128 -49q-123 0 -187 106l-178 -147v-137zM440 358l158 131q-10 41 -10 78v21l-148 -123v-107zM653 1647q0 45 33 77.5t80 32.5t79 -31.5t32 -78.5q0 -45 -32 -78t-79 -33t-80 33t-33 78z" />
<glyph unicode="&#x404;" horiz-adv-x="1232" d="M37 780q0 143 43 269.5t119.5 219.5t183 146t233.5 53q35 0 89.5 -12t105.5 -27.5t90 -27.5t43 -12q37 0 56.5 11t33 25.5t24.5 25.5t32 11q29 0 50 -17.5t21 -43.5q0 -23 -31.5 -67t-109.5 -132q-33 -37 -67.5 -92t-63.5 -115.5t-45.5 -122t-14.5 -113.5t30 -88t89 -46 q41 -4 63.5 -27t22.5 -46.5t-20.5 -40.5t-65.5 -11q-51 0 -103 25.5t-93 66.5q-37 37 -54 84h-315q27 -111 91.5 -219.5t153.5 -195.5t199.5 -140t229.5 -53q84 0 125 -6.5t41 -41.5q0 -78 -109.5 -94t-318.5 15q-162 37 -301.5 117.5t-240.5 191t-158.5 246t-57.5 284.5z M358 848q0 -25 2 -48.5t7 -45.5h321q5 45 19 94h-349zM362 999h390q16 53 24 98.5t0 78.5q0 66 -47 108.5t-117 42.5q-104 0 -167.5 -89t-82.5 -239z" />
<glyph unicode="&#x406;" horiz-adv-x="569" d="M14 78q0 76 76 76q20 0 41 19.5t21 43.5v1004q0 25 -20.5 44t-41.5 19q-76 0 -76 78q0 76 76 76h389q78 0 78 -76q0 -78 -78 -78q-20 0 -40.5 -19.5t-20.5 -43.5v-1004q0 -25 20.5 -44t40.5 -19q78 0 78 -76q0 -78 -78 -78h-389q-76 0 -76 78z" />
<glyph unicode="&#x407;" horiz-adv-x="569" d="M12 1647q0 47 33 78.5t78 31.5q47 0 78.5 -31.5t31.5 -78.5q0 -45 -31.5 -78t-78.5 -33q-45 0 -78 33t-33 78zM14 78q0 76 76 76q20 0 41 19.5t21 43.5v1004q0 25 -20.5 44t-41.5 19q-76 0 -76 78q0 76 76 76h389q78 0 78 -76q0 -78 -78 -78q-20 0 -40.5 -19.5 t-20.5 -43.5v-1004q0 -25 20.5 -44t40.5 -19q78 0 78 -76q0 -78 -78 -78h-389q-76 0 -76 78zM342 1647q0 45 33 77.5t80 32.5t78.5 -31.5t31.5 -78.5q0 -45 -31.5 -78t-78.5 -33t-80 33t-33 78z" />
<glyph unicode="&#x408;" horiz-adv-x="1187" d="M35 147q0 139 87 236.5t220 97.5q29 0 43 -2q139 -10 186 -100q53 -76 54 -170q0 -80 -60.5 -135.5t-142.5 -55.5q-63 0 -111.5 34t-48.5 91q0 45 36 78t73 25q0 -45 2 -51q8 -33 49 -33q59 0 59 47q0 53 -32 88q-39 41 -107 41q-72 0 -118 -56.5t-46 -134.5 q0 -123 109 -200q100 -72 241 -72q94 0 160 42t66 99q0 33 -35 66t-35 55q0 18 45 93t45 135v430v426q0 25 -20.5 44t-40.5 19q-76 0 -76 78q0 76 76 76h389q78 0 78 -76q0 -78 -78 -78q-20 0 -41 -19.5t-21 -43.5v-877q59 -106 60 -192q0 -254 -219 -361q-139 -66 -353 -65 q-197 0 -342 116q-152 123 -151 305z" />
<glyph unicode="&#x40e;" horiz-adv-x="1308" d="M25 1352q-2 76 75 75h439q78 0 79 -75q4 -78 -75 -78q-16 0 -31.5 -15.5t-13.5 -33.5q0 -6 4 -15l125 -241l217 -418q49 59 107.5 145t107.5 180.5t80.5 188.5t25.5 174q-6 78 -59 130t-150 46q-31 -2 -55 -20.5t-41.5 -45t-25 -57t-0.5 -55.5q14 -76 81 -57q35 6 29 32 q-4 25 -20 21q-16 0 -27 -10q-10 35 9.5 61.5t49.5 34.5q104 20 131 -96q6 -29 2 -56.5t-20 -52.5q-37 -53 -123 -76q-10 -4 -23.5 -4t-27.5 -2q-119 -4 -172 96q-18 31 -31 76q-23 106 45 201q72 94 187 121q117 27 227 -37q59 -35 94 -79t51 -138q12 -74 -13.5 -179.5 t-82.5 -227.5t-140 -251t-186 -249q-41 -49 -98 -113t-126.5 -120t-150.5 -95t-173 -37q-31 0 -65 20.5t-59.5 57.5t-36.5 89t5 114q14 33 37.5 54t46 27.5t38 -3t13.5 -40.5q-4 -66 33 -104.5t80 -38.5q53 2 114.5 44t124.5 122q-35 76 -91 145.5t-124 98.5q-57 23 -95 45 t-38 45q0 33 41 61q43 29 43 54q0 23 -12 40l-209 379q-37 63 -68 64q-76 0 -79 78zM426 1745q0 39 53 39q29 0 49 -19q86 -98 156 -98q74 0 160 102q18 18 45 19q55 0 55 -43q0 -13 -12 -25q-127 -199 -250 -196q-125 2 -246 196q-10 12 -10 25z" />
<glyph unicode="&#x410;" horiz-adv-x="1529" d="M51 203q0 109 152 514q154 401 153 485q0 78 -86 82q-76 0 -75 78q0 76 75 76h949q78 0 77 -76q0 -78 -77 -78q-76 0 -76 -63q0 -6 1 -12.5t3 -14.5l209 -967q12 -61 94 -73q78 0 78 -76q0 -78 -78 -78h-430q-76 0 -76 78q0 76 76 76q29 0 45 20.5t10 44.5l-63 287 l-45 209l-33 149h-514l-141 -375q-74 -195 -74 -286q0 -141 88 -232q88 -94 215 -94q109 0 182 82q66 72 66 154q0 41 -15.5 74.5t-40 58t-57.5 38t-65 13.5q-135 0 -136 -113q0 -78 74 -78q35 0 35 35q0 37 -39 39q16 47 80 47q35 0 62.5 -31.5t27.5 -84.5 q0 -31 -12.5 -58.5t-35 -50t-52 -36t-66.5 -13.5q-88 0 -145 45q-82 57 -82 186q0 127 86 199q80 68 203 68q8 0 20.5 -1.5t28.5 -3.5q135 -25 208.5 -111.5t73.5 -221.5t-104 -254q-121 -135 -297 -135q-188 0 -320 135q-137 137 -137 344zM451 956h462l-14 64h-430 q-2 -10 -8 -31.5t-10 -32.5zM492 1112h389l-21 96q-14 76 -74 76h-266q-8 -96 -28 -172z" />
<glyph unicode="&#x411;" horiz-adv-x="1259" d="M4 1362q0 76 76 76h620l-4 4q25 -6 70 35t76 41q53 0 80 -64q16 -31 29.5 -61.5t27.5 -61.5q4 -4 18.5 -22.5t40.5 -51.5q33 -39 33 -71q0 -23 -20.5 -37t-42.5 -14q-66 0 -152 73q-82 76 -166 76h-282v-242h131q150 -10 273.5 -54t210.5 -117.5t134 -176t43 -231.5 q-6 -207 -129 -359q-133 -158 -326 -157q-106 0 -182 51q-84 59 -84 158q0 59 41 103t98 44q47 0 77 -30.5t22 -86.5q-16 16 -49 17q-47 0 -47 -43q0 -23 22.5 -38.5t46.5 -15.5q162 0 178 343q2 96 -26.5 181t-87 146.5t-146.5 92t-200 20.5v-336v-242v-309q0 -96 -72 -162 t-170 -65q-100 0 -156 119q131 0 131 108v1219q0 25 -20.5 44t-40.5 19q-76 0 -76 78z" />
<glyph unicode="&#x412;" horiz-adv-x="1259" d="M4 1362q0 76 76 76h620q135 0 234 -64q111 -70 110 -186q0 -70 -63 -131q-49 -47 -113 -74q152 -66 242 -201q96 -143 90 -319q-6 -209 -129 -359q-131 -158 -326 -157q-106 0 -182 51q-84 59 -84 158q0 59 41 103t98 44q47 0 77 -30.5t22 -86.5q-16 16 -49 17 q-47 0 -47 -43q0 -23 22.5 -38.5t46.5 -15.5q162 0 178 343q4 98 -39 202q-47 88 -102 160q-94 100 -188 100h-131v-358v-242v-309q0 -96 -72 -161.5t-170 -65.5q-100 0 -156 119q131 0 131 108v1219q0 25 -20.5 44t-40.5 19q-76 0 -76 78zM408 1065h131q55 0 100 30.5 t45 75.5t-37 79t-86 34h-153v-219z" />
<glyph unicode="&#x413;" horiz-adv-x="1163" d="M14 78q0 76 76 76q20 0 41 19.5t21 43.5v1004q0 25 -20.5 44t-41.5 19q-76 0 -76 78q0 76 76 76h868q63 0 103 57q23 33 57 33q31 0 53.5 -20.5t22.5 -49.5q0 -20 -14 -41q-135 -190 -269 -381q-147 -225 -147 -368q0 -59 37 -106.5t92 -47.5q35 0 59.5 24.5t24.5 59.5 t-35 35q-39 0 -59 -41q-39 29 -39 72q0 37 35.5 66.5t76.5 29.5q70 0 117 -47t47 -115q0 -96 -66.5 -161.5t-160.5 -65.5q-141 0 -225 135q-68 88 -43 207q10 86 63 209q133 289 133 303q0 59 -76 59h-266q-20 0 -40.5 -19.5t-20.5 -43.5v-299v-375v-242v-88q0 -25 20.5 -44 t40.5 -19q78 0 78 -76q0 -78 -78 -78h-389q-76 0 -76 78z" />
<glyph unicode="&#x414;" horiz-adv-x="1687" d="M-33 -262q0 61 39 98q33 33 80 33q45 0 70.5 -31t17.5 -76q-16 12 -39 13q-25 0 -24 -37q0 -39 43 -35q49 4 65.5 47t8 95.5t-35 99.5t-63.5 61q-43 4 -65.5 19.5t-33 35t-14.5 40t-12 36.5q-4 10 -1 18.5t3 16.5q0 29 22.5 49.5t51.5 20.5q41 0 61 -39q14 -25 41 -35 t58 -10q14 41 36.5 126t48 190.5t52 220t47 217t34 180t13.5 110.5q0 39 -29.5 59.5t-72.5 22.5q-76 0 -76 78q0 76 76 76h905q78 0 78 -76q0 -78 -78 -78q-39 0 -65.5 -15.5t-26.5 -47.5q0 -6 1 -12.5t3 -14.5l174 -819q6 -39 16 -81t28.5 -71.5t47.5 -38t72 20.5 q20 12 30.5 25.5t30.5 13.5q29 0 51.5 -20.5t22.5 -49.5q0 -8 -2 -25.5t-6 -27.5q-8 -16 -17.5 -33.5t-27 -33t-45 -28t-70.5 -16.5q-37 -14 -63.5 -61t-35 -99.5t8 -95.5t65.5 -47q43 -4 43 35q0 37 -24 37q-25 0 -39 -12q-8 45 17.5 75.5t70.5 30.5q47 0 80 -33 q39 -37 39 -98q0 -45 -16.5 -76t-42 -49t-57.5 -27.5t-62 -9.5q-78 -2 -134.5 43t-79 110.5t-8 140.5t75.5 130l-334 -6l-694 4q61 -55 71.5 -131t-17 -143.5t-84 -112.5t-126.5 -39q-31 2 -62.5 11.5t-57 27.5t-42 48t-16.5 75zM424 156q72 0 167 -2t187 -3t169 -1t112 4 q29 0 45 20.5t10 44.5l-63 287l-41 188l-566 -458q-6 -23 -11 -43.5t-9 -36.5zM473 354l518 422l-18 88l-12 54l-445 -373q-10 -51 -21.5 -97.5t-21.5 -93.5zM543 659l401 336l-45 213q-15 76 -74 76h-151q-4 -20 -16.5 -80.5t-30 -145.5t-40 -188.5t-44.5 -210.5z" />
<glyph unicode="&#x415;" horiz-adv-x="1282" d="M37 78q0 76 76 76q61 0 61 59v1012q0 25 -19.5 42t-41.5 17q-76 0 -76 78q0 76 76 76h675q33 0 76 40t76 40q51 0 81 -62.5t56 -124.5q6 -10 60 -74q33 -39 32 -71q0 -23 -20.5 -37t-42.5 -14q-66 0 -151 74.5t-167 74.5h-348v-203h256q39 0 53.5 59.5t57.5 59.5 q45 0 84 -53q33 -53 67 -109q12 -18 64 -61q35 -31 35 -64q0 -49 -58 -49q-41 0 -98 32t-115 32h-346v-396v-241v-137h391q80 41 154 147q80 115 80 211q0 74 -52 129t-126 55q-61 0 -108.5 -35.5t-47.5 -93.5q0 -92 74 -92q39 0 39 27t-17 26q-20 0 -26 -12q-6 12 -6 27 q0 31 23.5 55.5t64.5 24.5q43 0 73.5 -35t30.5 -86q0 -72 -54 -121t-128 -49q-123 0 -207 157q-10 41 -10 78l22 107q35 76 111 121t166 45q135 0 228 -97.5t93 -230.5q0 -156 -90 -299q-16 -27 -16 -39q0 -20 26 -20h48q78 0 77 -76q0 -78 -77 -78h-1063q-76 0 -76 78z" />
<glyph unicode="&#x416;" horiz-adv-x="2267" d="M27 1141q0 137 90 233q98 100 252 101q164 0 342 -158q106 -96 284 -326v232q0 25 -20.5 44t-40.5 19q-78 0 -78 78q0 76 78 76h389q78 0 78 -76q0 -78 -78 -78q-20 0 -40.5 -19.5t-20.5 -43.5v-232q178 229 284 326q178 158 342 158q154 0 252 -101q90 -96 90 -233 t-76.5 -211t-195.5 -74q-115 0 -184 64q-63 57 -64 141q0 84 46 132t116 48q59 0 92 -33q23 -25 23 -53q0 -61 -41 -82q-27 37 -58 37q-35 0 -35 -49q0 -61 105 -62q55 0 92 37t37 105q0 80 -54.5 135t-144.5 55q-193 0 -422 -295q37 -55 150 -63l346 -729q41 -88 184 -88 q78 0 78 -76q0 -78 -78 -78l-356 -4l-248 508l-186 383q-59 -84 -94 -127v-483v-60q0 -25 20.5 -44t40.5 -19q78 0 78 -76q0 -78 -78 -78h-389q-78 0 -78 78q0 76 78 76q20 0 40.5 19.5t20.5 43.5v60v483q-35 43 -94 127l-186 -383l-248 -508l-356 4q-78 0 -78 78 q0 76 78 76q143 0 184 88l346 729q113 8 150 63q-229 295 -422 295q-90 0 -144.5 -55t-54.5 -135q0 -68 37 -105t92 -37q104 0 104 62q0 49 -34 49q-31 0 -58 -37q-41 20 -41 82q0 29 23 53q33 33 92 33q70 0 116 -48t46 -132t-64 -141q-70 -63 -184 -64q-119 0 -195.5 74 t-76.5 211z" />
<glyph unicode="&#x417;" horiz-adv-x="1159" d="M33 420q0 74 23.5 134t67.5 102t104.5 65.5t133.5 23.5q70 0 128.5 -20t99.5 -58t63.5 -89.5t22.5 -112.5l-21 -100q-27 -53 -82 -88t-116 -35q-82 0 -135.5 45t-53.5 121q0 41 31 73.5t74 32.5q57 0 71 -45q-33 0 -32 -39q0 -45 45 -45q27 0 51 21.5t24 58.5 q0 66 -47 101.5t-123 35.5q-86 0 -136 -50t-50 -132q0 -59 31 -109.5t81 -86.5t116.5 -56.5t138.5 -20.5q123 -2 201.5 75t103.5 194q12 63 8 127.5t-27.5 118t-64.5 87t-100 33.5q-14 0 -36 -1t-46.5 -1t-49 -1t-43.5 -1q-84 16 -69 92q8 45 45 60.5t80 16.5t78.5 -3 t40.5 0q41 29 60 88.5t19 122.5q0 82 -44 136.5t-117 54.5q-41 0 -69 -7.5t-49.5 -25t-39.5 -46t-39 -69.5q-6 -27 -12 -55.5t-16.5 -53t-25 -40t-36.5 -15.5q-20 0 -32.5 14.5t-19.5 38t-13.5 51t-12.5 56.5q-2 2 -19.5 29.5t-39 61.5t-39 66.5t-17.5 47.5q0 23 16.5 43 t37.5 20q10 0 28.5 -11t40 -24.5t42 -24.5t34.5 -11q2 0 26.5 13t65.5 30.5t95.5 32t117.5 16.5q80 0 152.5 -23.5t126 -63.5t85 -94.5t31.5 -117.5q0 -78 -37.5 -158t-113.5 -137q121 -53 188.5 -139t85 -183.5t-13.5 -198t-105.5 -181.5t-191 -132t-270.5 -51 q-104 0 -196.5 31t-162 85t-110.5 131t-41 169z" />
<glyph unicode="&#x418;" horiz-adv-x="1388" d="M14 78q0 76 76 76q20 0 41 19.5t21 43.5v1004q0 25 -20.5 44t-41.5 19q-76 0 -76 78q0 76 76 76h389q78 0 78 -76q0 -78 -78 -78q-20 0 -40.5 -19.5t-20.5 -43.5v-693l528 709q-4 18 -20 35q-20 20 -41 20q-76 0 -76 78q0 76 76 76h389q78 0 78 -76q0 -78 -78 -78 q-20 0 -41 -19.5t-21 -43.5v-1004q0 -25 20.5 -44t41.5 -19q78 0 78 -76q0 -78 -78 -78h-389q-76 0 -76 78q0 76 76 76q20 0 40.5 19.5t20.5 43.5v733l-528 -741q0 -25 20.5 -44t40.5 -19q78 0 78 -76q0 -78 -78 -78h-389q-76 0 -76 78z" />
<glyph unicode="&#x419;" horiz-adv-x="1388" d="M14 78q0 76 76 76q20 0 41 19.5t21 43.5v1004q0 25 -20.5 44t-41.5 19q-76 0 -76 78q0 76 76 76h389q78 0 78 -76q0 -78 -78 -78q-20 0 -40.5 -19.5t-20.5 -43.5v-691l528 707q-4 18 -20 35q-20 20 -41 20q-76 0 -76 78q0 76 76 76h389q78 0 78 -76q0 -78 -78 -78 q-20 0 -41 -19.5t-21 -43.5v-1004q0 -25 20.5 -44t41.5 -19q78 0 78 -76q0 -78 -78 -78h-389q-76 0 -76 78q0 76 76 76q20 0 40.5 19.5t20.5 43.5v733l-528 -741q0 -25 20.5 -44t40.5 -19q78 0 78 -76q0 -78 -78 -78h-389q-76 0 -76 78zM399 1757q0 41 60 41q33 0 55 -20 q96 -104 174 -105q82 0 178 109q20 20 52 20q61 0 61 -45q0 -14 -14 -26q-141 -211 -279 -209q-139 2 -274 209q-12 12 -13 26z" />
<glyph unicode="&#x41a;" horiz-adv-x="1431" d="M41 78q0 76 76 76q20 0 40.5 19.5t20.5 43.5v1004q0 25 -20.5 44t-40.5 19q-76 0 -76 78q0 76 76 76h389q78 0 78 -76q0 -78 -78 -78q-20 0 -41 -19.5t-21 -43.5v-232q178 229 285 326q178 158 342 158q154 0 252 -101q90 -96 90 -233t-76.5 -211t-195.5 -74 q-115 0 -185 64q-63 57 -63 141t46 132t116 48q59 0 92 -33q23 -25 22 -53q0 -61 -41 -82q-27 37 -57 37q-35 0 -35 -49q0 -61 105 -62q55 0 92 37t37 105q0 80 -54.5 135t-144.5 55q-193 0 -422 -295q37 -55 150 -63l346 -729q41 -88 184 -88q78 0 78 -76q0 -78 -78 -78 l-356 -4l-248 508l-186 383q-59 -84 -95 -127v-484v-59q0 -25 20.5 -44t41.5 -19q78 0 78 -76q0 -78 -78 -78h-389q-76 0 -76 78z" />
<glyph unicode="&#x41b;" horiz-adv-x="1380" d="M31 358q0 195 135 441q41 76 105.5 173t156.5 216q20 27 21 45q0 49 -66 49q-78 0 -78 76q0 78 78 78h477q76 0 76 -78q0 -76 -76 -76q-20 0 -41.5 -16.5t-21.5 -34.5q0 -8 2 -12l409 -1004q27 -63 70 -63q76 0 76 -78q0 -76 -76 -76h-447q-78 0 -77 76q0 78 77 78 q18 0 37 16t19 35q0 8 -2 12l-197 483q-20 49 -39.5 96.5t-38.5 92.5l-80 194q-233 -307 -305 -487q-72 -147 -49 -289q16 -131 94 -194q61 -49 140 -50q61 0 108 35q53 41 53 111q0 33 -22.5 54.5t-48.5 21.5q-49 0 -49 -35q0 -74 59 -51q-12 -63 -92 -64q-35 0 -68 31 q-41 37 -41 98q0 68 52.5 116t138.5 48q84 0 147 -64q68 -61 68 -155q0 -139 -99 -219q-84 -70 -206 -70q-137 0 -240 84q-139 117 -139 356z" />
<glyph unicode="&#x41c;" horiz-adv-x="1748" d="M59 371q0 72 12.5 162t39.5 196q35 145 98 330q51 154 51 166q0 25 -18.5 42t-38.5 17q-76 0 -76 78q0 76 76 76h329l371 -303q143 211 260 303h326q78 0 78 -76q0 -78 -78 -78q-12 0 -26.5 -6t-29 -15.5t-23.5 -20.5t-9 -23t59 -172q37 -96 64.5 -182.5t48.5 -164.5 q59 -244 59 -458q0 -82 72 -86q74 -4 74 -82q0 -74 -74 -74h-457q-78 0 -78 78q0 76 78 76q98 12 99 88q0 139 -37 309q-10 47 -25.5 101.5t-32.5 113.5q-63 199 -147 383q-57 -82 -112.5 -164t-112.5 -164q-137 -174 -258 -174q-57 0 -99 35q-35 29 -35 66q0 63 56 92 q14 -49 78 -49q41 0 131 122l-340 283q-33 -94 -64 -187.5t-63 -187.5q-82 -254 -82 -450q0 -197 108 -336q117 -150 303 -150q125 0 215 66q98 74 99 190q0 88 -57.5 147.5t-149.5 59.5q-68 0 -117 -37t-49 -104q0 -29 20.5 -50.5t51.5 -21.5q47 0 47 31q0 23 -19 33 q-18 2 -32 -6q-4 12 -5 20q0 29 25 50.5t64 21.5q49 0 84 -41q27 -33 26 -78q0 -74 -54 -124t-136 -50q-47 0 -86 17.5t-68 47t-45 68.5t-16 82q0 133 94 213q88 72 215 72q90 0 158 -33q92 -59 147 -142q45 -78 45 -176q0 -178 -139 -293q-131 -106 -318 -106 q-250 0 -405 192q-150 180 -150 437z" />
<glyph unicode="&#x41d;" horiz-adv-x="1388" d="M14 78q0 76 76 76q20 0 41 19.5t21 43.5v1004q0 25 -20.5 44t-41.5 19q-76 0 -76 78q0 76 76 76h389q78 0 78 -76q0 -78 -78 -78q-20 0 -40.5 -19.5t-20.5 -43.5v-318h528v326q0 25 -20.5 44t-40.5 19q-76 0 -76 78q0 76 76 76h389q78 0 78 -76q0 -78 -78 -78 q-20 0 -41 -19.5t-21 -43.5v-1004q0 -25 20.5 -44t41.5 -19q78 0 78 -76q0 -78 -78 -78h-389q-76 0 -76 78q0 76 76 76q20 0 40.5 19.5t20.5 43.5v350h-528v-358q0 -25 20.5 -44t40.5 -19q78 0 78 -76q0 -78 -78 -78h-389q-76 0 -76 78zM418 653h528v99h-528v-99z" />
<glyph unicode="&#x41e;" horiz-adv-x="1327" d="M57 719q0 313 179.5 534.5t431.5 221.5t432 -221.5t180 -534.5t-180 -534.5t-432 -221.5t-431.5 221.5t-179.5 534.5zM381 719q0 -14 2 -43q0 -29 0 -8l526 419q-84 244 -241 244q-123 0 -205 -178t-82 -434zM389 571q6 -47 17 -110l536 432q-8 51 -18 106zM420 373 q82 -266 248 -267q123 0 204.5 178.5t81.5 434.5q0 39 -4 80z" />
<glyph unicode="&#x41f;" horiz-adv-x="1388" d="M14 78q0 76 76 76q20 0 41 19.5t21 43.5v1004q0 25 -20.5 44t-41.5 19q-76 0 -76 78q0 76 76 76l795 8h389q78 0 78 -76q0 -78 -78 -78q-20 0 -41 -19.5t-21 -43.5v-1004q0 -25 20.5 -44t41.5 -19q78 0 78 -76q0 -78 -78 -78h-389q-76 0 -76 78q0 76 76 76 q20 0 40.5 19.5t20.5 43.5v850l-528 -2v-856q0 -25 20.5 -44t40.5 -19q78 0 78 -76q0 -78 -78 -78h-389q-76 0 -76 78zM418 1155h528v64q0 25 -20.5 44t-40.5 19l-406 2q-20 0 -40.5 -24.5t-20.5 -49.5v-55z" />
<glyph unicode="&#x420;" horiz-adv-x="1222" d="M-25 418q0 84 56 84q27 0 71 -45q47 -49 99 -66v830q0 25 -20.5 44t-41.5 19q-76 0 -76 78q0 76 76 76h535q510 0 510 -467q0 -264 -219 -467q-203 -188 -498 -246v-213q0 -117 -53 -188q-61 -82 -185 -82q-86 0 -133 47q-35 35 -39 92q143 -8 144 131v203 q-45 8 -86 25.5t-72 41t-49.5 49t-18.5 54.5zM467 424q145 63 248 203q100 137 129 303q4 45 4 76.5t-3 56t-8.5 45t-13.5 43.5q-72 133 -229 133h-66q-20 0 -40.5 -19.5t-20.5 -43.5v-598v-199z" />
<glyph unicode="&#x421;" horiz-adv-x="1239" d="M35 780q0 283 153 480q164 209 426 208q82 0 191.5 -42t128.5 -42q72 0 92.5 41t58.5 41q29 0 51.5 -20.5t22.5 -48.5q0 -16 -8 -33q-25 -49 -138.5 -189.5t-164.5 -236.5q-82 -150 -82 -293q0 -55 35 -102q39 -53 92 -54q31 0 55.5 20.5t24.5 51.5q0 29 -43 29 q-25 0 -49 -25q-12 25 -13 49q0 43 34 70t77 27q66 0 100.5 -43t34.5 -107q0 -86 -65.5 -149.5t-155.5 -63.5q-129 0 -213 123q-61 74 -53 137q-8 162 71 357q63 182 64 211q0 47 -25 86q-39 66 -127 65q-133 0 -200 -143q-55 -117 -56 -291q0 -207 80 -371 q56 -101 107 -162q190 -201 503 -200q166 0 166 -70q0 -78 -125 -121q-102 -35 -239 -35q-358 0 -590 252q-221 242 -221 594z" />
<glyph unicode="&#x422;" horiz-adv-x="1294" d="M39 1456q0 29 22.5 49.5t51.5 20.5q39 0 61 -39q27 -49 88 -49h768q61 0 88 49q23 39 62 39q29 0 51 -20.5t22 -49.5q0 -16 -8 -35q-31 -61 -117 -102q121 -111 121 -277q0 -104 -64.5 -172.5t-162.5 -68.5q-186 0 -186 178q0 61 38 98q33 33 80 33q45 0 71 -30.5 t17 -75.5q-14 12 -38 12q-25 0 -25 -37q0 -35 43 -35q84 0 84 98q0 119 -109 189q-84 53 -157 53q-20 0 -41 -19.5t-21 -43.5v-1004q0 -25 20.5 -44t41.5 -19q78 0 78 -76q0 -78 -78 -78h-389q-76 0 -76 78q0 76 76 76q20 0 40.5 19.5t20.5 43.5v1004q0 25 -20.5 44 t-40.5 19q-74 0 -156 -53q-109 -72 -109 -189q0 -98 84 -98q43 0 43 35q0 37 -24 37q-25 0 -39 -12q-8 45 17.5 75.5t70.5 30.5q47 0 83 -35t36 -96q0 -178 -187 -178q-98 0 -162.5 68.5t-64.5 172.5q0 166 121 277q-86 41 -117 102q-8 18 -8 35z" />
<glyph unicode="&#x423;" horiz-adv-x="1308" d="M25 1352q-2 76 75 75h439q78 0 79 -75q4 -78 -75 -78q-16 0 -31.5 -15.5t-13.5 -33.5q0 -6 4 -15l125 -241l217 -418q49 59 107.5 145t107.5 180.5t80.5 188.5t25.5 174q-6 78 -59 130t-150 46q-31 -2 -55 -20.5t-41.5 -45t-25 -57t-0.5 -55.5q14 -76 81 -57q35 6 29 32 q-4 25 -20 21q-16 0 -27 -10q-10 35 9.5 61.5t49.5 34.5q104 20 131 -96q6 -29 2 -56.5t-20 -52.5q-37 -53 -123 -76q-10 -4 -23.5 -4t-27.5 -2q-119 -4 -172 96q-18 31 -31 76q-23 106 45 201q72 94 187 121q117 27 227 -37q59 -35 94 -79t51 -138q12 -74 -13.5 -179.5 t-82.5 -227.5t-140 -251t-186 -249q-41 -49 -98 -113t-126.5 -120t-150.5 -95t-173 -37q-31 0 -65 20.5t-59.5 57.5t-36.5 89t5 114q14 33 37.5 54t46 27.5t38 -3t13.5 -40.5q-4 -66 33 -104.5t80 -38.5q53 2 114.5 44t124.5 122q-35 76 -91 145.5t-124 98.5q-57 23 -95 45 t-38 45q0 33 41 61q43 29 43 54q0 23 -12 40l-209 379q-37 63 -68 64q-76 0 -79 78z" />
<glyph unicode="&#x424;" horiz-adv-x="1728" d="M29 580q0 238 219 419q203 168 497 222q0 25 -20 44t-41 19q-76 0 -76 78q0 76 76 76h346q78 0 78 -76q0 -78 -78 -78q-31 0 -37 -12t-6 -41q295 -53 498 -221q219 -182 219 -420q0 -106 -51 -200.5t-138.5 -154t-203 -71.5t-244.5 47q-43 33 -55.5 59.5t-4 42t32 15.5 t52.5 -21q74 -27 130 -15.5t93 55.5t53 116t8 164q-12 74 -49 143.5t-90 128.5t-119.5 106.5t-140.5 75.5l8 -913l-6 -123q-8 -80 -28.5 -148.5t-57.5 -119.5t-93.5 -82t-135.5 -33q-115 0 -185 64q-63 57 -63 141q0 86 46 133t116 47q59 0 92 -33q23 -27 22 -53 q0 -59 -41 -82q-29 37 -57 37q-35 0 -35 -49q0 -31 11.5 -46.5t64.5 -15.5q41 8 78 68.5t41 171.5l2 1026q-74 -29 -140.5 -76t-121 -106.5t-91 -129t-49.5 -143.5q-8 -92 8.5 -163.5t53.5 -115.5t93 -55.5t130 15.5q27 20 51.5 20t33.5 -15t-3 -42t-55 -59 q-129 -59 -245 -47t-203 71.5t-138 153.5t-51 201z" />
<glyph unicode="&#x425;" horiz-adv-x="1546" d="M53 156q0 207 148 385q106 133 323 276l-276 404q-43 63 -94 63q-76 0 -76 78q0 76 76 76h491q78 0 78 -76q0 -78 -78 -78q-35 0 -35 -43q0 -12 6 -20l166 -242q229 147 240 246q0 25 -21.5 42t-44.5 17q-76 0 -75 78q0 76 75 76h357q78 0 78 -76q0 -78 -78 -78 q-29 0 -64 -22q-45 -31 -59 -78q-76 -176 -316 -338l435 -629q43 -63 155 -63q78 0 78 -76q0 -78 -78 -78h-377l-213 311l-110 160l-146 213q-205 -129 -294 -225q-127 -137 -127 -303q0 -119 81.5 -200t198.5 -81q104 0 172 62q63 55 64 129q0 61 -42 101t-108 40 q-49 0 -74.5 -26.5t-25.5 -57.5q0 -35 47 -35q35 0 47 55q80 -4 80 -94q0 -100 -139 -100q-61 0 -117 51q-61 53 -62 123q0 80 54 145q68 82 190 82q29 0 41 -2q115 -4 189 -100q63 -80 63 -182q0 -127 -98 -226q-111 -109 -281 -108q-176 0 -300 121.5t-124 302.5z" />
<glyph unicode="&#x426;" horiz-adv-x="1527" d="M14 82q0 39 18.5 52t57.5 13q20 0 41 19.5t21 44.5v1003q0 25 -20.5 44.5t-41.5 19.5q-76 0 -76 76q0 78 76 78h389q78 0 78 -78q0 -76 -78 -76q-20 0 -40.5 -19.5t-20.5 -44.5v-993q0 -25 20.5 -49.5t40.5 -24.5l406 3q20 0 40.5 19t20.5 44v993q0 25 -20.5 44.5 t-40.5 19.5q-76 0 -76 76q0 78 76 77h389q78 0 78 -77q0 -76 -78 -76q-20 0 -41 -19.5t-21 -44.5v-1016q0 -25 20.5 -44t41.5 -19q33 0 51 17.5t33.5 37t31 37t44.5 17.5q23 2 38 -10.5t21 -31t5 -40t-9 -39.5q-20 -41 -72 -74q43 -35 65.5 -83t26.5 -99.5t-10 -101.5 t-45 -90t-77 -64.5t-105 -24.5q-35 0 -73 11.5t-66.5 34t-46 56t-13.5 78.5q6 63 53 97q39 31 95 26q51 -4 75.5 -36.5t14.5 -80.5q-16 14 -43 17q-31 0 -33 -35q-4 -39 43 -39q59 0 81.5 44t16.5 99q-4 41 -21.5 70t-44 46.5t-59 24.5t-69.5 9l-1092 -2q-39 0 -57.5 22.5 t-18.5 61.5z" />
<glyph unicode="&#x427;" horiz-adv-x="1374" d="M-2 1298.5q-8 55.5 15.5 106.5t73.5 87t116 40q47 6 95 -5t88 -37t69.5 -62.5t42.5 -81.5q12 -47 9 -91.5t-12.5 -88.5t-20.5 -92t-13 -99q-10 -145 57.5 -225t175.5 -78q72 0 120 27.5t77 75.5t41 114.5t12 144.5v197q-2 16 -20 35q-20 20 -41 20q-76 0 -76 78 q0 76 76 76h389q78 0 78 -76q0 -78 -78 -78q-20 0 -41 -19.5t-21 -43.5v-1004q0 -25 20.5 -44t41.5 -19q78 0 78 -76q0 -78 -78 -78h-389q-76 0 -76 78q0 76 76 76q20 0 39.5 19.5t21.5 43.5l2 412q-53 -57 -132 -87t-163 -35t-163.5 12.5t-135.5 58.5q-66 47 -97.5 101 t-42.5 112.5t-4 120t23 120.5q10 39 27.5 83t29 89t12.5 88t-21 82q-29 33 -61 33t-52.5 -20.5t-23.5 -52t24 -60.5q33 -23 86 -2q2 -27 -15.5 -51.5t-45 -38t-62.5 -11t-70 30.5q-53 39 -61 94.5z" />
<glyph unicode="&#x428;" horiz-adv-x="2158" d="M0 86q0 39 18.5 52.5t57.5 13.5q20 0 40.5 19t20.5 44v1004q0 25 -20.5 44t-40.5 19q-76 0 -76 76q0 78 76 78h389q78 0 78 -78q0 -76 -78 -76q-20 0 -41 -19.5t-21 -43.5v-992q0 -25 20.5 -49t41.5 -24h405q20 0 41 19.5t21 43.5v993q0 25 -20.5 44.5t-41.5 19.5 q-76 0 -75 76q0 78 75 77h390q78 0 77 -77q0 -76 -77 -76q-20 0 -41 -19.5t-21 -44.5v-993q0 -25 20.5 -49.5t41.5 -24.5l405 2q20 0 40.5 19.5t20.5 44.5v993q0 25 -20 44.5t-41 19.5q-76 0 -76 75q0 78 76 78h389q78 0 78 -78q0 -76 -78 -75q-20 0 -40.5 -19.5 t-20.5 -44.5v-991q0 -25 20.5 -44.5t40.5 -19.5q39 0 57.5 -13t18.5 -52t-18.5 -61.5t-57.5 -22.5l-1978 4q-39 0 -57.5 22.5t-18.5 61.5z" />
<glyph unicode="&#x429;" horiz-adv-x="2308" d="M0 86q0 39 18.5 52.5t57.5 13.5q20 0 40.5 19t20.5 44v1004q0 25 -20.5 44t-40.5 19q-76 0 -76 76q0 78 76 78h389q78 0 78 -78q0 -76 -78 -76q-20 0 -41 -19.5t-21 -43.5v-992q0 -25 20.5 -49t41.5 -24h405q20 0 41 19.5t21 43.5v993q0 25 -20.5 44.5t-41.5 19.5 q-76 0 -75 76q0 78 75 77h390q78 0 77 -77q0 -76 -77 -76q-20 0 -41 -19.5t-21 -44.5v-993q0 -25 20.5 -49.5t41.5 -24.5l405 2q20 0 40.5 19.5t20.5 44.5v993q0 25 -20 44.5t-41 19.5q-76 0 -76 75q0 78 76 78h389q78 0 78 -78q0 -76 -78 -75q-20 0 -40.5 -19.5 t-20.5 -44.5v-1016q0 -25 20.5 -44t40.5 -19q33 0 51.5 17.5t33.5 37t30.5 36.5t44.5 17q23 2 38 -10t21 -30.5t5 -40t-9 -39.5q-20 -41 -71 -74q43 -35 65.5 -83t26.5 -99.5t-10.5 -101.5t-45 -90t-77 -64.5t-105.5 -24.5q-35 0 -72.5 11.5t-66.5 34t-46.5 56t-13.5 78.5 q6 63 54 96q39 31 94 27q51 -4 75.5 -37t14.5 -80q-16 14 -43 17q-31 0 -33 -35q-4 -39 43 -39q59 0 82 44t17 99q-4 41 -21.5 70t-44.5 46.5t-59.5 25.5t-69.5 10l-1886 4q-39 0 -57.5 22.5t-18.5 61.5z" />
<glyph unicode="&#x42a;" horiz-adv-x="1447" d="M0 1384q0 43 37 43q27 0 59.5 -14t61.5 -14q49 0 129 33q82 35 151 34q39 0 71 -9t95 -30q123 -39 168 -38q35 0 55.5 3t38 8t33.5 10t45 11q61 12 94 2t40 -31.5t-11 -47t-57 -44.5q-37 -18 -96.5 -60t-123 -103.5t-122 -139t-95.5 -170.5q-35 -86 -34.5 -191.5 t32 -200.5t96 -163.5t160.5 -81.5q47 -6 99.5 4.5t111.5 43.5q47 27 79 63.5t51.5 77.5t28.5 82t11 78q4 84 -21.5 142t-66.5 90t-90 39t-91 -11.5t-68.5 -60.5t-22.5 -105q2 -25 22.5 -41.5t44.5 -13.5q29 4 53.5 29.5t20.5 66.5q51 -2 89 -35t30 -86q-10 -59 -43 -93 t-78 -44t-95 0t-91 39.5t-68.5 77t-27.5 108.5t26.5 119.5t70.5 103.5t101.5 73t120.5 28q207 0 309.5 -114t102.5 -319q0 -53 -14.5 -106t-39 -104.5t-58.5 -96.5t-73 -80h52q78 0 77 -77q0 -18 -11 -34t-29.5 -25t-40 -14t-42.5 -5l-888 4q-80 0 -80 78t80 78h63 q-63 63 -104 152t-55.5 191.5t2 212t67.5 214t140 198.5t223 164q-29 -16 -64 -11t-70.5 16t-70.5 23.5t-62 12.5q-55 0 -89 -43t-34 -88q0 -12 8.5 -51t8.5 -66q0 -53 -4 -77.5t-52 -24.5q-23 0 -49 10q-31 14 -30 43q0 14 -2 24.5t-3.5 19.5t-3.5 21.5t-2 32.5 q0 41 -94 129q-92 92 -92 131z" />
<glyph unicode="&#x42b;" horiz-adv-x="1927" d="M23 938q0 -41 17 -67.5t52 -55.5q64 -49 170 -67v-531q0 -25 -20.5 -44t-40.5 -19q-76 0 -76 -78q0 -76 76 -76h659q113 0 203 45t149.5 118t86 167t12.5 192q-27 188 -132.5 280.5t-265.5 104.5q-78 6 -173 -1t-212 -19v334q0 25 20.5 44t41.5 19q78 0 78 76 q0 78 -78 78h-389q-76 0 -76 -78q0 -76 76 -76q20 0 40.5 -19.5t20.5 -43.5v-349q-96 10 -96 66q0 45 53 61q-14 63 -90 64q-49 0 -80 -43q-27 -35 -26 -82zM528 217v539q72 8 132.5 14t107.5 6q84 0 135 -46t72.5 -115.5t17.5 -151.5t-31.5 -151.5t-75.5 -115.5t-112 -46 h-182q-23 0 -43.5 21.5t-20.5 45.5zM1350 80q0 76 75 76q20 0 41 19.5t21 43.5v1004q0 25 -20.5 44t-41.5 19q-76 0 -75 78q0 76 75 76h390q78 0 77 -76q0 -78 -77 -78q-20 0 -41 -19.5t-21 -43.5v-1004q0 -25 20.5 -44t41.5 -19q78 0 77 -76q1 -78 -77 -78h-390 q-76 0 -75 78z" />
<glyph unicode="&#x42c;" horiz-adv-x="1353" d="M23 938q0 47 26 82q31 43 80 43q76 0 90 -64q-53 -16 -53 -61q0 -55 96 -66v349q0 25 -20.5 44t-40.5 19q-76 0 -76 76q0 78 76 78h389q78 0 78 -78q0 -76 -78 -76q-20 0 -41 -19.5t-21 -43.5v-334q117 12 212.5 19t172.5 1q160 -12 265.5 -104t132.5 -281 q14 -98 -12.5 -192t-86 -167t-149.5 -118t-203 -45h-659q-76 0 -76 76q0 78 76 78q20 0 40.5 19.5t20.5 43.5v531q-106 18 -170 67q-35 29 -52 55.5t-17 67.5zM528 217q0 -25 20.5 -46t43.5 -21h182q63 0 111.5 46t76 115.5t31.5 151.5t-17.5 151.5t-72.5 115.5t-135 46 q-47 0 -107.5 -6t-132.5 -14v-539z" />
<glyph unicode="&#x42d;" horiz-adv-x="1232" d="M-10 20q0 35 41 41.5t125 6.5q119 0 229.5 53t199.5 140t153.5 195.5t90.5 219.5h-315q-16 -47 -53 -84q-41 -41 -93.5 -66.5t-103.5 -25.5q-45 -6 -65.5 11t-20.5 40.5t22.5 46.5t63.5 27q61 10 89 46t30 88t-14.5 113.5t-45 122t-63.5 115.5t-67 92q-78 88 -110 132 t-32 67q0 27 21.5 44t50.5 17q20 0 31.5 -11t25 -25.5t32.5 -25.5t56 -11q4 0 43 12t90.5 27.5t105.5 27.5t89 12q127 0 233.5 -53t183.5 -146t120 -219t43 -270q0 -150 -57.5 -285t-159 -245.5t-240.5 -191.5t-301 -117q-209 -31 -318.5 -14.5t-109.5 93.5zM436 1098 q8 -45 25 -99h389q-18 150 -81.5 239t-168.5 89q-70 0 -117 -42.5t-47 -108.5q-8 -33 0 -78zM506 848q14 -49 18 -94h322q4 23 6 46t2 48h-348z" />
<glyph unicode="&#x42e;" horiz-adv-x="1867" d="M14 78q0 76 76 76q20 0 41 19.5t21 43.5v1004q0 25 -20.5 44t-41.5 19q-76 0 -76 78q0 76 76 76h389q78 0 78 -76q0 -78 -78 -78q-20 0 -40.5 -19.5t-20.5 -43.5v-318h215q41 184 158 330q180 221 432 221t432 -221.5t180 -534.5t-180 -534t-432 -221t-431.5 221 t-179.5 534v54h-194v-535q0 -25 20.5 -44t40.5 -19q78 0 78 -76q0 -78 -78 -78h-389q-76 0 -76 78zM936 698q0 -14 2 -43v-8l526 420q-84 244 -241 244q-123 0 -205 -178.5t-82 -434.5zM944 551q6 -47 17 -111l536 432q-8 51 -18 107zM975 352q82 -266 248 -266 q123 0 204.5 178t81.5 434q0 39 -4 80z" />
<glyph unicode="&#x42f;" horiz-adv-x="1343" d="M6 -74q0 10 1 21.5t3 21.5q31 -10 60 -10q35 0 69 12q37 12 79 54.5t84 125t81 214.5q31 98 57 231q-59 4 -116 18q-84 23 -151 72t-106.5 129t-39.5 197q0 88 42 165.5t107.5 136t145 91.5t157.5 33h660q76 0 75 -76q0 -43 -21.5 -56.5t-47 -20.5t-47 -17.5t-21.5 -46.5 v-465q106 -18 173 -68.5t67 -122.5q0 -49 -31 -87t-76 -38q-76 0 -90 64q53 16 54 61q0 55 -97 66v-414q0 -37 21.5 -47t47 -17.5t47 -20.5t21.5 -54q0 -78 -75 -78h-389q-78 0 -78 78q0 41 21.5 54t48 19.5t48 17.5t21.5 48v399q-92 -10 -170 -16q-8 -2 -16 -2 q-35 -184 -76 -338q-45 -166 -100.5 -285.5t-117 -186.5t-124.5 -67q-90 0 -145.5 56.5t-55.5 148.5zM311 991q0 -51 13.5 -98t41 -84t70 -59.5t101.5 -22.5q47 0 124.5 6t149.5 15v473q0 25 -20.5 46t-42.5 21h-218q-51 0 -91 -25.5t-68.5 -66.5t-44 -94t-15.5 -111z M455 686l4 -2v2h-4z" />
<glyph unicode="&#x430;" horiz-adv-x="1048" d="M43 274q0 168 115 269q127 111 417 162l-6 61q-137 -27 -247 -27q-131 0 -203 74q-55 57 -56 125q0 45 27 84t74 39q41 0 94 -39q80 -57 107 -70q76 -39 172 -39q74 0 180 35t141 35q76 0 68 -72q0 -31 -60.5 -88t-52.5 -135l51 -471q2 -25 21.5 -44t40.5 -19 q78 0 78 -76q0 -78 -78 -78h-586q-94 0 -180 57q-117 76 -117 217zM328 319q-6 -110 84 -151q37 -14 63 -14h90q23 0 43.5 19.5t18.5 43.5l-13 119l-26 244q-84 -20 -158 -86q-88 -78 -102 -175z" />
<glyph unicode="&#x431;" d="M50 636q3 128 18 325q14 201 74.5 340t195.5 194q55 20 102 19t91 -6t88.5 -2t93.5 34q16 10 52 30.5t58 22.5q45 10 41 -43q-2 -23 -21.5 -61.5t-43 -77.5t-44 -70.5t-20.5 -37.5q0 -29 8.5 -48.5t8.5 -31.5q-2 -25 -20.5 -48.5t-47.5 -27.5q-39 -4 -59.5 14.5t-29.5 44 t-11 49t-2 27.5q-41 12 -93.5 10t-109.5 -8q-47 -6 -77 -21.5t-48 -39t-28.5 -53t-16.5 -64.5q-8 -49 -19.5 -126t-3.5 -157q61 72 134 115t169 43q92 0 173 -40t141.5 -108.5t96.5 -161t36 -194.5t-35 -194.5t-95.5 -161t-142 -109.5t-174.5 -41q-119 0 -217 64.5 t-157 169.5q-23 39 -38.5 88t-22.5 132t-4 211zM324 477l6 -88q1 -28 30 -137q47 -127 129 -127q37 0 67 27.5t52.5 75.5t34.5 113t12 136l-4 80q-10 55 -23.5 105.5t-34 87t-46 58t-58.5 21.5q-37 0 -66.5 -27.5t-52 -75.5t-34.5 -112.5t-12 -136.5z" />
<glyph unicode="&#x432;" horiz-adv-x="989" d="M4 76q0 43 21.5 55t48 18.5t48 15.5t21.5 46v530q0 37 -21.5 47.5t-48 17.5t-48 20.5t-21.5 56.5q0 76 78 75h481q131 0 223 -57q90 -61 91 -168q0 -57 -31 -96t-117 -78q184 -33 225 -182q12 -84 -12 -155.5t-87.5 -124t-174.5 -79t-260 -18.5h-338q-78 0 -78 76z M367 229q0 -25 20.5 -45t40.5 -20l131 -2q59 -4 86 19.5t47 56.5q18 63 8 110t-38.5 81t-74.5 52.5t-102 22.5q-12 2 -36.5 1t-40.5 5q-12 4 -13.5 14.5t-1.5 18.5q0 10 2 19t15 13q12 4 32.5 4.5t32.5 0.5q78 4 129 36.5t51 108.5q0 41 -18.5 66.5t-48.5 31.5l-170 2 q-20 0 -35.5 -19.5t-15.5 -43.5v-80v-391v-62z" />
<glyph unicode="&#x433;" horiz-adv-x="952" d="M37 78q0 76 76 76q20 0 40.5 19.5t20.5 43.5v526q0 25 -20.5 44.5t-40.5 19.5q-76 0 -76 78q0 76 76 76h348h360q86 0 86 -64q0 -45 -51 -80q55 -66 55 -158q0 -113 -73 -178q-59 -51 -129 -51q-61 0 -103 31q-49 35 -49 96q0 51 39 78q31 20 72 16q-8 -8 -9 -22 q0 -45 33 -45q45 0 45 57q0 90 -65 139q-51 39 -123 39h-152v-602q0 -25 20.5 -44t41.5 -19q78 0 78 -76q0 -78 -78 -78h-346q-76 0 -76 78z" />
<glyph unicode="&#x434;" horiz-adv-x="1103" d="M12 205h111q45 186 221 481q41 72 41 86q0 23 -18.5 29t-40 11t-39 19.5t-17.5 51.5q0 78 78 78h473q76 0 76 -78q0 -39 -19.5 -52.5t-42 -19.5t-42 -16.5t-19.5 -40.5q0 -6 2 -11l164 -538h137q0 -47 -14 -85t-43 -85q-29 -45 -39 -57.5t-10 -26.5q0 -23 20 -84 q23 -66 -59 -66q-53 0 -86 101q-35 98 -103 98h-397q-70 0 -102 -98q-33 -100 -86 -101q-82 0 -60 66q20 61 21 84q0 14 -10.5 26.5t-38.5 57.5q-29 47 -43.5 85t-14.5 85zM279 205h440l-164 547q-53 -68 -96 -141.5t-78 -146.5t-60.5 -139.5t-41.5 -119.5z" />
<glyph unicode="&#x435;" horiz-adv-x="917" d="M47 498q0 227 121 362q113 127 283 127q90 0 173 -45t78 -45q14 0 51.5 26.5t67.5 26.5q66 1 66 -73q0 -78 -107 -181q-61 -57 -229 -182q-154 -113 -205 -168q41 -188 254 -188q45 0 104.5 14t86.5 14q68 0 67 -65q0 -47 -61 -88q-88 -59 -256 -60q-205 0 -344 138 q-150 147 -150 387zM336 539q131 88 133 90q82 69 82 139q0 72 -78 72q-125 0 -137 -301z" />
<glyph unicode="&#x436;" horiz-adv-x="1607" d="M23 80q0 45 17 57.5t41.5 17.5t52.5 14t50 50l127 221q86 -10 142.5 19.5t62.5 89.5q-45 88 -83 147.5t-79 94.5q-23 20 -47 34.5t-44.5 17.5t-34 -9.5t-13.5 -42.5q0 -12 7 -23.5t18 -11.5q10 0 18 9t12 21q27 -6 42.5 -26.5t15.5 -36.5q0 -23 -26 -53.5t-73 -30.5 q-31 0 -59.5 12.5t-51 33t-36.5 48t-14 58.5q0 35 14 67.5t39.5 57t63.5 38t87 13.5q55 0 98.5 -27t88.5 -80t97 -135t130 -193v218q0 37 -21.5 47t-47 17t-47 20.5t-21.5 56.5q0 76 78 76h344q78 0 78 -76q0 -43 -21.5 -56.5t-47.5 -20.5t-47.5 -17.5t-21.5 -46.5v-218 q76 111 132.5 193t104.5 135t94 80t101 27q49 0 87 -13.5t64 -38t40 -57.5t14 -67q0 -31 -14 -58.5t-36.5 -48t-51.5 -33t-60 -12.5q-47 0 -72.5 30.5t-25.5 53.5q0 16 15.5 36.5t42.5 26.5q4 -12 12 -21t18 -9t17.5 11t7.5 24q0 31 -16.5 42t-41 8t-53 -17.5t-51.5 -35.5 q-41 -35 -83 -92t-75 -143q6 -59 58.5 -90t138.5 -21l127 -221q23 -41 52.5 -51t55 -15t44 -17.5t18.5 -57.5q0 -78 -78 -78h-264l-256 418q-20 -29 -36.5 -52.5t-27.5 -41.5l-2 -107q0 -37 21.5 -48t47.5 -17.5t48.5 -19.5t22.5 -54q0 -78 -78 -78h-346h-2q-78 0 -78 78 q0 41 22.5 54t48 19.5t47 17.5t21.5 48l-2 107q-10 18 -26.5 41.5t-36.5 52.5l-256 -418h-265q-78 0 -77 78z" />
<glyph unicode="&#x437;" horiz-adv-x="978" d="M29 272q0 76 51 129q57 61 158 62q88 0 141 -55q39 -41 39 -95q0 -45 -31 -84t-72 -39q-59 0 -79 46q47 0 47 49q0 47 -52 47q-25 0 -46 -25.5t-21 -54.5q0 -39 26.5 -67.5t67.5 -47t91 -26t98.5 -4t88 17.5t60.5 39q49 53 59.5 111.5t-10 107.5t-69 83t-115.5 38 q-23 2 -42.5 -1t-49.5 -3q-35 6 -50.5 28.5t-9.5 44.5q4 25 24.5 35t47.5 15q37 4 56.5 -0.5t23.5 0.5q63 18 87.5 57t18.5 79t-40.5 67.5t-86.5 25.5q-68 -4 -100 -47q-12 -23 -22.5 -45.5t-23.5 -43t-29.5 -32.5t-39.5 -12q-35 0 -47 33l-20 59q-16 14 -30.5 28.5 t-31.5 28.5q-45 39 -45 82q0 57 53 58q20 0 60 -23q33 -20 47 -20q37 0 74 10t75.5 22.5t78.5 24.5t83 16q55 6 121 -5t119 -68q18 -18 30.5 -59.5t4 -88.5t-41 -92t-104.5 -72h-26q94 -8 153.5 -41t93 -78t47 -94t13.5 -90q0 -158 -133 -248q-31 -20 -75 -34.5t-94 -24.5 t-102.5 -15.5t-97.5 -5.5q-154 0 -262 60q-139 78 -139 237z" />
<glyph unicode="&#x438;" horiz-adv-x="964" d="M27 911q0 49 55 50h84q76 0 132 -61.5t56 -143.5l2 -434q0 -109 95 -109q111 0 110 147v125v258q0 25 -20.5 44.5t-40.5 19.5q-76 0 -76 78q0 76 76 76h346q78 0 78 -76q0 -78 -78 -78q-20 0 -41 -19.5t-21 -44.5v-528q0 -25 20.5 -44t41.5 -19q78 0 78 -76 q0 -78 -78 -78h-285v100q-86 -104 -217 -104q-92 0 -149 63q-63 68 -64 183v503q0 59 -52 97.5t-52 70.5z" />
<glyph unicode="&#x439;" horiz-adv-x="968" d="M31 911q0 49 55 50h84q76 0 132 -61.5t56 -143.5l2 -434q0 -109 95 -109q111 0 110 147v125v258q0 25 -20.5 44.5t-40.5 19.5q-76 0 -76 78q0 76 76 76h346q78 0 78 -76q0 -78 -78 -78q-20 0 -41 -19.5t-21 -44.5v-528q0 -25 20.5 -44t41.5 -19q78 0 78 -76 q0 -78 -78 -78h-285v100q-86 -104 -217 -104q-92 0 -149 63q-63 68 -64 183v503q0 59 -52 97.5t-52 70.5zM221 1286q0 39 53 39q29 0 50 -18q86 -98 155 -99q74 0 160 103q18 18 45 18q55 0 55 -43q0 -12 -12 -24q-127 -199 -250 -197q-125 2 -246 197q-10 12 -10 24z" />
<glyph unicode="&#x43a;" horiz-adv-x="1062" d="M10 889q0 76 78 76h285v-424q76 111 133 190.5t107.5 129.5t99.5 75t110 25q106 2 158.5 -56.5t52.5 -136.5q0 -35 -15 -66.5t-41 -54t-57.5 -36t-64.5 -13.5q-51 0 -79.5 34t-28.5 60q0 18 17 41t46 29q8 -33 31 -33q12 0 20 12.5t8 26.5q0 35 -15 51.5t-39.5 15.5 t-53.5 -17.5t-55 -45.5q-41 -45 -80 -91t-84 -134q6 -59 49 -89t129 -20l127 -221q23 -41 54.5 -50t61 -14.5t51 -17.5t21.5 -57q0 -78 -78 -78h-264l-256 418q-20 -29 -36.5 -52.5t-26.5 -41.5l-2 -107q0 -37 21.5 -48t48 -17.5t48 -19.5t21.5 -54q0 -78 -78 -78h-346 q-76 0 -76 78q0 41 21.5 54t47 20.5t47.5 17.5t22 47l-3 531q0 37 -21.5 47t-47 17t-47 20.5t-21.5 56.5z" />
<glyph unicode="&#x43b;" horiz-adv-x="999" d="M30.5 89q12.5 122 54.5 247t106.5 240.5t136.5 197.5q0 16 -23.5 25.5t-42.5 9.5q-78 0 -78 76q0 78 78 78l346 -5h285q76 0 76 -75q0 -78 -76 -78q-20 0 -41 -19.5t-21 -44.5v-528q0 -25 20.5 -44t41.5 -19q76 0 76 -76q0 -78 -76 -78h-346q-78 0 -78 78q0 76 78 76 q20 0 40.5 19t20.5 44v571h-6q-23 4 -61.5 -5t-61.5 -31q-66 -68 -119 -159t-87.5 -188.5t-49 -193.5t-1 -173t56.5 -127t122 -57q31 -4 27 11.5t-4 42.5q0 25 -27 57q27 14 78 14q31 0 57.5 -12t48 -32.5t34 -48t12.5 -58.5q0 -76 -64.5 -124t-159.5 -48 q-152 0 -235.5 60.5t-116.5 157.5t-20.5 219z" />
<glyph unicode="&#x43c;" horiz-adv-x="1468" d="M24 68q-1 127 27.5 256t81.5 247.5t123 202.5q0 16 -25.5 25.5t-44.5 9.5q-78 0 -77 76q0 74 77 78l414 2l141 -439l148 435h461q76 0 75 -76q0 -78 -75 -78q-20 0 -41 -19.5t-21 -44.5v-526q0 -25 20.5 -44t41.5 -19q76 0 75 -76q0 -78 -75 -78h-346q-78 0 -78 78 q0 76 78 76q20 0 40.5 19.5t20.5 43.5v571h-57l-217 -688q-10 -29 -33 -44t-43 -15q-16 0 -47 8t-43 23q-29 37 -62 53q-47 23 -47 59q0 12 31 35q31 20 31 43q0 8 -3 12l-77 240l-78 240q-61 -70 -108.5 -163t-77 -192.5t-38 -196t7 -174t59.5 -128t122 -56.5 q31 -4 39 11.5t8 42.5q0 25 -26 57q27 14 77 14q61 0 99.5 -25.5t52.5 -64.5t7 -84t-35.5 -85t-78 -66.5t-116.5 -26.5q-137 -2 -222.5 60.5t-125 163t-40.5 227.5z" />
<glyph unicode="&#x43d;" horiz-adv-x="1169" d="M37 78q0 76 76 76q20 0 40.5 19.5t20.5 43.5v528q0 25 -20.5 44.5t-40.5 19.5q-76 0 -76 76q0 78 76 78h346q78 0 78 -78q0 -76 -78 -76q-20 0 -41 -19.5t-21 -44.5v-149h9h346h8v149q0 25 -20.5 44.5t-41.5 19.5q-76 0 -75 76q0 78 75 78h346q78 0 78 -78q0 -76 -78 -76 q-20 0 -40.5 -19.5t-20.5 -44.5v-528q0 -25 20.5 -44t40.5 -19q78 0 78 -76q0 -78 -78 -78h-346q-76 0 -75 78q0 76 75 76q20 0 41 19.5t21 43.5v225h-8h-346h-9v-225q0 -25 20.5 -44t41.5 -19q78 0 78 -76q0 -78 -78 -78h-346q-76 0 -76 78z" />
<glyph unicode="&#x43e;" d="M43 477q0 209 131 356.5t315 147.5t315.5 -147.5t131.5 -356.5t-131 -357.5t-316 -148.5q-184 0 -315 148.5t-131 357.5zM324 477l6 -88q1 -31 30 -137q47 -127 129 -127q72 0 119 102.5t47 249.5l-4 80q-8 57 -30 139q-49 133 -132 133q-72 0 -118.5 -102t-46.5 -250z " />
<glyph unicode="&#x43f;" horiz-adv-x="954" d="M18 78q0 76 76 76q20 0 41 19.5t21 43.5v528q0 25 -20.5 44.5t-41.5 19.5q-76 0 -76 78q0 76 76 76h285v-101q86 104 217 105q92 0 152.5 -65.5t60.5 -180.5v-518q0 -59 52 -97t52 -71q0 -49 -55 -49h-84q-76 0 -132 61.5t-56 142.5l-2 449q0 109 -95 109 q-111 0 -110 -148v-344v-39q0 -25 20.5 -44t40.5 -19q78 0 78 -76q0 -78 -78 -78h-346q-76 0 -76 78z" />
<glyph unicode="&#x440;" horiz-adv-x="983" d="M16 887q0 76 78 76h518q162 0 256 -117q82 -103 82 -242q0 -317 -184 -467q-133 -109 -387 -139v-256q0 -80 -55.5 -128t-139.5 -48q-63 0 -110 32.5t-49 92.5q131 -6 131 145v909q0 25 -20.5 44.5t-41.5 19.5q-78 0 -78 78zM379 133q88 20 160 92q106 105 118 287 q6 104 -24 201q-45 96 -152 96h-41q-20 0 -40.5 -19.5t-20.5 -44.5v-466v-146z" />
<glyph unicode="&#x441;" horiz-adv-x="894" d="M41 506q0 268 154 389q104 80 256 80q57 0 124 -27q70 -25 78 -24q39 0 52 24q25 47 69 47q70 0 70 -69q0 -6 -1 -12.5t-3 -14.5q-23 -68 -99 -166q-16 -20 -30.5 -49t-25.5 -57.5t-18.5 -54t-7.5 -37.5q0 -31 31 -46q18 -16 19 -45q0 -74 -64 -73q-18 0 -35 8 q-88 39 -88 137q0 12 7.5 38t14.5 54.5t14 54t7 35.5q0 135 -100 136q-143 0 -143 -256q0 -254 165 -379q106 -78 314 -113q53 -11 53 -68q0 -66 -137 -65q-238 0 -436 127q-240 156 -240 426z" />
<glyph unicode="&#x442;" horiz-adv-x="1351" d="M12 78q0 76 76 76q20 0 41 19.5t21 43.5v528q0 25 -20.5 44.5t-41.5 19.5q-76 0 -76 78q0 76 76 76h285v-101q86 104 217 105q139 0 192 -131q100 131 238 131q92 0 152.5 -65.5t60.5 -180.5v-518q0 -59 52 -97t52 -71q0 -49 -55 -49h-84q-76 0 -132 61.5t-56 142.5 l-2 449q0 109 -95 109q-111 0 -110 -148v-344v-39q0 -51 52 -92t52 -76q0 -49 -55 -49h-84q-76 0 -132 61.5t-56 143.5l-2 434q0 109 -95 109q-111 0 -110 -148v-125v-258q0 -25 20.5 -44t40.5 -19q78 0 78 -76q0 -78 -78 -78h-346q-76 0 -76 78z" />
<glyph unicode="&#x443;" horiz-adv-x="1204" d="M-33 -168q0 100 70 176t166 76q98 0 153 -64q49 -55 50 -126q0 -63 -39 -103q-33 -33 -68 -33q-94 0 -96 56q59 10 59 80q0 47 -59 47q-39 0 -65.5 -33t-26.5 -76q0 -141 182 -141q197 0 299 289q-51 74 -193 131q-115 47 -114 90q0 31 43 61q45 31 45 53q0 20 -11 41 l-206 389q-33 63 -66 64q-78 0 -78 78q0 76 78 76h389q78 0 78 -76q0 -78 -78 -78q-16 0 -31.5 -15.5t-15.5 -33.5q0 -6 4 -15l117 -241l131 -271l184 519q2 20 -12 38.5t-33 18.5q-76 0 -75 78q0 76 75 76h291q78 0 78 -76q0 -78 -78 -78q-20 0 -49 -19.5t-37 -44.5 l-264 -778q-70 -201 -160 -297q-117 -123 -311 -123q-176 0 -260 97q-66 76 -66 188z" />
<glyph unicode="&#x444;" horiz-adv-x="1429" d="M27 602q0 141 82 242q94 117 260 117h233v59q0 25 -20.5 44t-40.5 19q-76 0 -76 78q0 76 76 76h346q78 0 78 -76q0 -78 -78 -78q-20 0 -41 -19.5t-21 -43.5v-57h234q164 0 260 -117q82 -100 82 -242q0 -313 -189 -467q-133 -109 -387 -139v-256q0 -80 -54 -128t-140 -48 q-63 0 -110.5 32.5t-49.5 92.5q131 -6 131 145v170v-10q-254 31 -387 139q-188 154 -188 467zM318 552q1 -77 19.5 -141.5t48.5 -112.5t56 -75q70 -72 160 -92v369v243q0 25 -20.5 44.5t-40.5 19.5h-41q-104 0 -152 -96q-31 -82 -30 -159zM825 133q88 20 160 92 q27 27 56.5 75t48 112.5t19.5 141.5t-30 159q-47 96 -151 96h-41q-20 0 -41 -19.5t-21 -44.5v-243v-369z" />
<glyph unicode="&#x445;" horiz-adv-x="1110" d="M-8 25q0 279 362 507l-149 213q-45 63 -86 64q-76 0 -76 78q0 76 76 76h389q78 0 78 -76q0 -78 -78 -78q-12 0 -12 -12q0 -23 20 -52l62 -86q86 49 131 86q16 14 16 41q0 23 -16 23q-76 0 -76 78q0 76 76 76h278q78 0 78 -76q0 -78 -78 -78q-25 0 -78 -64 q-90 -106 -247 -204l229 -324q45 -63 110 -63q78 0 78 -76q0 -78 -78 -78h-436q-76 0 -76 78q0 76 76 76q18 0 23 24q2 23 -10 39l-138 195q-152 -88 -215 -160q-90 -98 -90 -227q0 -190 133 -191q27 0 65 76t97 76q119 0 119 -127q0 -92 -80 -148q-70 -47 -168 -47 q-117 0 -203 78q-106 96 -106 283z" />
<glyph unicode="&#x446;" horiz-adv-x="1064" d="M27 911q0 49 55 50h84q37 0 71.5 -16.5t60.5 -45.5t41 -65.5t15 -77.5l2 -434q0 -109 95 -109q111 0 110 147v383q0 37 -21.5 47.5t-47 17.5t-47 20.5t-21.5 56.5q0 76 76 76h346q78 0 78 -76q0 -43 -21.5 -56.5t-48.5 -20.5t-48.5 -17.5t-21.5 -47.5v-524 q0 -25 20.5 -43t41.5 -18q33 0 46 17.5t20.5 36.5t17.5 36.5t39 17.5q25 2 39 -15.5t20 -42t5 -51t-9 -44.5q-23 -41 -72 -74q66 -41 86.5 -108.5t2 -132t-76 -111.5t-147.5 -47q-35 0 -71.5 11t-66.5 33.5t-47.5 56.5t-13.5 79q6 61 54 96q39 31 94 27q51 -4 75.5 -37 t14.5 -80q-12 12 -43 16q-29 0 -33 -35q-2 -39 43 -38q51 2 74 47t8 98q-12 41 -46 61.5t-105 24.5l-193 -2v100q-86 -104 -217 -104q-98 0 -155.5 67.5t-57.5 178.5v503q0 29 -16.5 52.5t-36 43t-35.5 37t-16 35.5z" />
<glyph unicode="&#x447;" horiz-adv-x="999" d="M18 911q0 49 56 50h84q37 0 70.5 -16.5t60 -45.5t42 -65.5t15.5 -77.5l2 -144q0 -109 94 -108q55 0 100.5 37t45.5 110v92q0 25 -20.5 44.5t-41.5 19.5q-76 0 -75 78q0 76 75 76h346q78 0 78 -76q0 -78 -78 -78q-20 0 -40.5 -19.5t-20.5 -44.5v-528q0 -25 20.5 -44 t40.5 -19q78 0 78 -78q0 -76 -78 -76h-346q-76 0 -75 76q0 78 75 78q20 0 41 19t21 44v174q-43 -53 -115 -78.5t-137 -25.5q-92 0 -150 63q-63 66 -63 182v213q0 59 -53 97q-51 39 -52 71z" />
<glyph unicode="&#x448;" horiz-adv-x="1662" d="M31 78q0 39 19.5 54t58.5 15q20 0 40.5 19.5t20.5 44.5v522q0 25 -20.5 44.5t-40.5 19.5q-78 0 -78 75q0 78 78 78h346q76 0 75 -78q0 -76 -75 -75q-20 0 -41 -19.5t-21 -44.5v-149v-367q0 -12 12.5 -23.5t29 -20.5t32.5 -14t27 -5h157q20 0 41 19.5t21 43.5v367v149 q0 25 -20.5 44.5t-41.5 19.5q-76 0 -76 75q0 78 76 78h346q78 0 78 -78q0 -76 -78 -75q-20 0 -40.5 -19.5t-20.5 -44.5v-516q0 -25 20.5 -44t40.5 -19h205q20 0 41 19.5t21 43.5v367v149q0 25 -20.5 44.5t-41.5 19.5q-76 0 -76 75q0 78 76 78h346q78 0 78 -78q0 -76 -78 -75 q-20 0 -40.5 -19.5t-20.5 -44.5v-522q0 -25 20.5 -44.5t40.5 -19.5q39 0 58.5 -15t19.5 -54q0 -78 -78 -78h-1439q-78 0 -78 78z" />
<glyph unicode="&#x449;" horiz-adv-x="1767" d="M31 78q0 39 19.5 54t58.5 15q20 0 40.5 19.5t20.5 44.5v522q0 25 -20.5 44.5t-40.5 19.5q-78 0 -78 75q0 78 78 78h346q76 0 75 -78q0 -76 -75 -75q-20 0 -41 -19.5t-21 -44.5v-149v-367q0 -12 12.5 -23.5t29 -20.5t32.5 -14t27 -5h157q20 0 41 19.5t21 43.5v367v149 q0 25 -20.5 44.5t-41.5 19.5q-76 0 -76 75q0 78 76 78h346q78 0 78 -78q0 -76 -78 -75q-20 0 -40.5 -19.5t-20.5 -44.5v-516q0 -25 20.5 -44t40.5 -19h205q20 0 41 19.5t21 43.5v367v149q0 25 -20.5 44.5t-41.5 19.5q-76 0 -76 75q0 78 76 78h346q78 0 78 -78q0 -76 -78 -75 q-20 0 -40.5 -19.5t-20.5 -44.5v-514q0 -25 20.5 -43t40.5 -18q33 0 46.5 17.5t20.5 36.5t17 36.5t39 17.5q23 2 38 -15.5t21.5 -42t5.5 -51t-10 -44.5q-20 -41 -71 -74q66 -41 86 -108.5t1.5 -132t-75.5 -111.5t-147 -47q-35 0 -73 11t-66.5 33.5t-46 56.5t-13.5 79 q6 63 53 96q39 31 94 27q51 -4 76 -37t15 -80q-16 14 -43 16q-31 0 -33 -35q-4 -39 43 -38q51 2 73.5 47t8.5 98q-12 41 -46 61.5t-106 24.5h-1347q-78 0 -78 78z" />
<glyph unicode="&#x44a;" horiz-adv-x="1064" d="M20 926q0 49 46 49q12 0 27.5 -6t31.5 -14.5t30.5 -14.5t24.5 -6q8 0 64 27q55 27 108 26q45 0 152 -26q106 -27 131 -27q29 0 76 20q49 20 67 21q29 0 49.5 -20.5t20.5 -49.5q0 -16 -2 -27.5t-12.5 -18.5t-32 -11t-60.5 -8q-47 -37 -106.5 -92.5t-109.5 -125 t-78.5 -149.5t-14.5 -164q10 -61 49 -107t111 -50q76 -4 118 40t54 99t-4.5 101t-59.5 46t-43 -65q0 -18 13 -33q-27 -2 -49.5 3t-42.5 22q-49 37 -50 110q0 92 62 139q51 45 131 45q45 0 97 -18t89 -55q39 -37 63.5 -95.5t27.5 -122t-17.5 -124t-71.5 -101.5q39 0 57.5 -7 t25.5 -19.5t6 -26.5t-1 -27q0 -33 -28.5 -50t-94.5 -13h-600q-43 0 -64.5 12.5t-21.5 44.5q0 12 1 24.5t8.5 24t24 19.5t44.5 12q-45 72 -58 159t11.5 176t87 171t168.5 141q-47 45 -110 45q-76 0 -95 -57q-4 -20 -4 -92q0 -37 -25.5 -59.5t-58.5 -22.5q-29 0 -48 21.5 t-19 44.5q0 12 10 32.5t10 48.5q0 18 -57 76q-57 57 -58 105z" />
<glyph unicode="&#x44b;" horiz-adv-x="1533" d="M35 78q0 43 21.5 55t48 18.5t48 15.5t21.5 46l2 522q0 25 -20.5 44.5t-40.5 19.5q-76 0 -76 75q0 78 76 78h346q78 0 78 -78q0 -76 -78 -75q-20 0 -41 -19.5t-21 -44.5v-82q98 -12 179 -17t172 -20h2q78 -14 129 -56t75.5 -98t23.5 -121t-25.5 -124t-71.5 -107.5 t-115 -72.5q-31 -10 -71 -18.5t-111.5 -12.5t-184 -5t-288.5 1q-78 0 -78 76zM397 231q0 -25 20.5 -45t41.5 -20l131 -2q41 2 69.5 21.5t46 50t23.5 67.5t2 74q-6 55 -42 86t-85 47t-104.5 21.5t-102.5 9.5v-248v-62zM997 80q0 76 76 76q20 0 41 19.5t21 43.5v225v304 q0 25 -20.5 44t-41.5 19q-76 0 -76 76q0 78 76 78h346q78 0 78 -78q0 -76 -78 -76q-20 0 -40.5 -19.5t-20.5 -43.5v-529q0 -25 20.5 -44t40.5 -19q78 0 78 -76q0 -78 -78 -78h-346q-76 0 -76 78z" />
<glyph unicode="&#x44c;" horiz-adv-x="1003" d="M35 78q0 43 21.5 55t48 18.5t48 15.5t21.5 46l2 522q0 25 -20.5 44.5t-40.5 19.5q-76 0 -76 75q0 78 76 78h346q78 0 78 -78q0 -76 -78 -75q-20 0 -41 -19.5t-21 -44.5v-82q98 -12 179 -17t172 -20h2q78 -14 129 -56t75.5 -98t23.5 -121t-25.5 -124t-71.5 -107.5 t-115 -72.5q-31 -10 -71 -18.5t-111.5 -12.5t-184 -5t-288.5 1q-78 0 -78 76zM397 231q0 -25 20.5 -45t41.5 -20l131 -2q41 2 69.5 21.5t46 50t23.5 67.5t2 74q-6 55 -42 86t-85 47t-104.5 21.5t-102.5 9.5v-248v-62z" />
<glyph unicode="&#x44d;" horiz-adv-x="894" d="M31 926q0 35 4 52t39 17q23 0 35 -11t23 -24.5t24.5 -24.5t38.5 -11l23 8q24 8 55.5 17t66.5 17.5t57 8.5q96 0 182.5 -32t151 -91t102 -147.5t37.5 -198.5q0 -121 -55 -222.5t-149.5 -175t-217 -114.5t-258.5 -41q-137 0 -137 65q0 57 53 68q211 35 327 120t147 222 h-304q-23 0 -37 16.5t-13 43t13.5 47t45.5 24.5h315v23q0 125 -55.5 190.5t-161.5 61.5q-51 -2 -92 -35t-41 -101q0 -10 0 -6t1 10.5t1 9.5t0 -10q0 -25 -4 -50t-15.5 -45.5t-31 -34t-49.5 -13.5q-63 0 -64 74q0 18 8 29.5t17.5 20.5t17.5 17.5t8 22.5q0 29 -17.5 54.5 t-36.5 50t-36.5 48t-17.5 50.5z" />
<glyph unicode="&#x44e;" horiz-adv-x="1492" d="M37 78q0 76 76 76q20 0 40.5 19.5t20.5 43.5v528q0 25 -20.5 44.5t-40.5 19.5q-76 0 -76 76q0 78 76 78h346q78 0 78 -78q0 -76 -78 -76q-20 0 -41 -19.5t-21 -44.5v-149h176q29 125 117 223q131 147 316 148q184 0 315 -147.5t131 -356.5t-131 -357.5t-315 -148.5 t-316 147q-125 141 -131 338h-162v-225q0 -25 20.5 -44t41.5 -19q78 0 78 -76q0 -78 -78 -78h-346q-76 0 -76 78zM840 463l6 -88q2 -31 31 -137q47 -127 129 -127q72 0 118.5 102t46.5 250l-4 80q-8 57 -30 139q-49 133 -131 133q-72 0 -119 -102.5t-47 -249.5z" />
<glyph unicode="&#x44f;" horiz-adv-x="993" d="M12 66q0 10 1 18t1 16q66 -25 112 2t83 80.5t68.5 122t68.5 123.5q-10 2 -21.5 3t-23.5 5h-2q-80 14 -130 50t-74.5 84t-23.5 102.5t25.5 105.5t71.5 93t115 67q31 10 61.5 12t92 2h167t283.5 6q76 0 76 -75q0 -78 -76 -78q-20 0 -41 -19.5t-21 -44.5v-528 q0 -25 20.5 -44t41.5 -19q76 0 76 -76q0 -78 -76 -78h-346q-76 0 -76 78q0 76 76 76q20 0 40.5 19t20.5 44v205q-35 2 -63.5 3t-55.5 1q-41 -82 -62.5 -173t-44 -172t-59 -138.5t-110.5 -71.5q-35 -6 -70 11.5t-62.5 48t-45 68.5t-17.5 71zM321.5 697q-6.5 -40 4 -79.5 t39.5 -56.5q23 -14 50 -19t57 -7.5t62.5 -2.5t67.5 -2v199q0 25 -20.5 45.5t-40.5 20.5l-135 2q-35 2 -56.5 -29t-28 -71z" />
<glyph unicode="&#x451;" horiz-adv-x="925" d="M47 498q0 227 121 362q113 127 283 127q90 0 173 -45t78 -45q14 0 51.5 26.5t67.5 26.5q66 1 66 -73q0 -78 -107 -181q-61 -57 -229 -182q-154 -113 -205 -168q41 -188 254 -188q45 0 104.5 14t86.5 14q68 0 67 -65q0 -47 -61 -88q-88 -59 -256 -60q-205 0 -344 138 q-150 147 -150 387zM182 1180q0 47 33 78.5t78 31.5q47 0 78.5 -31.5t31.5 -78.5q0 -45 -31.5 -78t-78.5 -33q-45 0 -78 33t-33 78zM336 539q131 88 133 90q82 69 82 139q0 72 -78 72q-125 0 -137 -301zM512 1180q0 45 33 77.5t80 32.5t78.5 -31.5t31.5 -78.5 q0 -45 -31.5 -78t-78.5 -33t-80 33t-33 78z" />
<glyph unicode="&#x454;" horiz-adv-x="884" d="M27 506q0 111 37.5 199t102 147t150.5 91t183 32q23 0 57.5 -8.5t66 -17.5t54.5 -17l24 -8q25 0 38.5 11t24.5 24.5t23.5 24.5t34.5 11q35 0 39 -17t4 -52q0 -27 -17.5 -50.5t-36.5 -48t-36.5 -50t-17.5 -54.5q0 -14 8 -22.5t17.5 -17.5t17.5 -20.5t8 -29.5 q0 -74 -64 -74q-31 0 -50 13.5t-30.5 34t-15.5 46t-4 49.5q0 12 0 9.5t1 -9t1 -10.5t0 6q0 68 -41 101t-92 35q-106 4 -161.5 -61.5t-55.5 -190.5v-23h315q33 -4 45.5 -24.5t13.5 -47t-13.5 -43t-36.5 -16.5h-304q31 -137 147 -222t327 -120q53 -10 53 -68q0 -66 -137 -65 q-135 0 -258 41t-217.5 114.5t-149.5 175t-55 222.5z" />
<glyph unicode="&#x456;" horiz-adv-x="573" d="M39 78q0 -78 76 -78h346q78 0 78 78q0 76 -78 76q-20 0 -41 19.5t-21 43.5v528q0 25 20.5 44.5t41.5 19.5q78 0 78 76q0 78 -78 78h-346q-76 0 -76 -78q0 -76 76 -76q20 0 40.5 -19.5t20.5 -44.5v-303v-225q0 -25 -20.5 -44t-40.5 -19q-76 0 -76 -76zM121 1229 q0 66 47 113t113 47t112.5 -47t46.5 -113t-47 -113t-112 -47q-66 0 -113 47t-47 113z" />
<glyph unicode="&#x457;" horiz-adv-x="573" d="M0 1176q0 47 33 78.5t78 31.5q47 0 78.5 -31.5t31.5 -78.5q0 -45 -31.5 -78t-78.5 -33q-45 0 -78 32.5t-33 78.5zM39 78q0 -78 76 -78h346q78 0 78 78q0 76 -78 76q-20 0 -41 19.5t-21 43.5v528q0 25 20.5 44.5t41.5 19.5q78 0 78 76q0 78 -78 78h-346q-76 0 -76 -78 q0 -76 76 -76q20 0 40.5 -19.5t20.5 -44.5v-303v-225q0 -25 -20.5 -44t-40.5 -19q-76 0 -76 -76zM330 1176q0 45 32.5 77.5t79.5 32.5t79 -31.5t32 -78.5q0 -45 -32 -78t-79 -33t-79.5 32.5t-32.5 78.5z" />
<glyph unicode="&#x458;" horiz-adv-x="503" d="M-80 -231q0 57 29 100q39 59 119 59q57 0 90 -47q25 -37 20 -74q-12 4 -26 5q-49 0 -50 -33q0 -45 62 -45q82 0 82 116q0 119 -133 150q-72 12 -72 86q0 68 72 68q20 0 40.5 19.5t20.5 43.5v528q0 25 -20.5 44.5t-40.5 19.5q-76 0 -76 78q0 76 76 76h284v-746 q0 -94 58.5 -183t58.5 -171q0 -150 -89 -231t-253 -81q-141 0 -207 89q-45 59 -45 129zM121 1229q0 66 47 113t113 47t112.5 -47t46.5 -113t-47 -113t-112 -47q-66 0 -113 47t-47 113z" />
<glyph unicode="&#x45e;" horiz-adv-x="1204" d="M-33 -168q0 100 70 176t166 76q98 0 153 -64q49 -55 50 -126q0 -63 -39 -103q-33 -33 -68 -33q-94 0 -96 56q59 10 59 80q0 47 -59 47q-39 0 -65.5 -33t-26.5 -76q0 -141 182 -141q197 0 299 289q-51 74 -193 131q-115 47 -114 90q0 31 43 61q45 31 45 53q0 20 -11 41 l-206 389q-33 63 -66 64q-78 0 -78 78q0 76 78 76h389q78 0 78 -76q0 -78 -78 -78q-16 0 -31.5 -15.5t-15.5 -33.5q0 -6 4 -15l117 -241l131 -271l184 519q2 20 -12 38.5t-33 18.5q-76 0 -75 78q0 76 75 76h291q78 0 78 -76q0 -78 -78 -78q-20 0 -49 -19.5t-37 -44.5 l-264 -778q-70 -201 -160 -297q-117 -123 -311 -123q-176 0 -260 97q-66 76 -66 188zM381 1286q0 39 53 39q29 0 49 -18q86 -98 156 -99q74 0 160 103q18 18 45 18q55 0 55 -43q0 -12 -12 -24q-127 -199 -250 -197q-125 2 -246 197q-10 12 -10 24z" />
<glyph unicode="&#x490;" horiz-adv-x="1089" d="M37 76q0 76 76 76q20 0 40.5 19t20.5 44v1010q0 25 -19.5 42t-41.5 17q-76 0 -76 78q0 76 76 76h669q84 0 166 75q86 74 152 74q23 0 43 -14t20 -37q0 -33 -33 -72q-27 -33 -41 -51t-18 -22q-14 -31 -27.5 -62t-29.5 -61q-27 -63 -80 -64q-31 0 -76 41q-41 39 -76 39 h-342v-203v-866q0 -25 20.5 -44t41.5 -19q78 0 78 -76q0 -78 -78 -78h-389q-76 0 -76 78z" />
<glyph unicode="&#x491;" horiz-adv-x="872" d="M37 78q0 76 76 76q20 0 40.5 19.5t20.5 43.5v526q0 25 -20.5 44.5t-40.5 19.5q-76 0 -76 78q0 76 76 76h368q72 -2 123 36q66 49 66 140q0 57 -45 57q-33 0 -33 -45q0 -14 8 -23q-41 -4 -72 17q-39 27 -39 78q0 61 50 96q41 31 102 31q70 0 129 -52q74 -66 74 -178 q0 -92 -56 -157q51 -35 52 -84q0 -64 -86 -64h-355l-2 -596q0 -25 20.5 -44t41.5 -19q78 0 78 -76q0 -78 -78 -78h-346q-76 0 -76 78z" />
<glyph unicode="&#x492;" horiz-adv-x="1222" d="M20 692q0 76 76 76h117v453q0 25 -20.5 44t-40.5 19q-76 0 -76 78q0 76 76 76h868q63 0 102 57q23 33 58 33q31 0 53 -20.5t22 -49.5q0 -20 -14 -41q-135 -190 -268 -381q-147 -225 -148 -368q0 -59 37 -106.5t92 -47.5q35 0 59.5 24.5t24.5 59.5t-34 35q-39 0 -60 -41 q-39 29 -39 72q0 37 36 66.5t77 29.5q70 0 117 -47t47 -115q0 -96 -66.5 -161.5t-161.5 -65.5q-141 0 -225 135q-68 88 -43 207q10 86 64 209q133 289 133 303q0 59 -76 59h-266q-20 0 -41 -19.5t-21 -43.5v-453h109q78 0 78 -76q0 -78 -78 -78h-109v-397q0 -25 20.5 -44 t41.5 -19q78 0 77 -76q0 -78 -77 -78h-389q-76 0 -76 78q0 76 76 76q20 0 40.5 19.5t20.5 43.5v397h-117q-76 0 -76 78z" />
<glyph unicode="&#x493;" horiz-adv-x="952" d="M10 532q0 76 76 76h88v135q0 25 -20.5 44.5t-40.5 19.5q-76 0 -76 78q0 76 76 76h708q86 0 86 -64q0 -45 -51 -80q55 -66 55 -158q0 -113 -73 -178q-59 -51 -129 -51q-61 0 -103 31q-49 35 -49 96q0 51 39 78q31 20 72 16q-8 -8 -9 -22q0 -45 33 -45q45 0 45 57 q0 90 -65 139q-51 39 -123 39h-152v-211h70q78 0 78 -76q0 -77 -78 -77h-70v-238q0 -25 20.5 -44t41.5 -19q78 0 78 -76q0 -78 -78 -78h-346q-76 0 -76 78q0 76 76 76q20 0 40.5 19.5t20.5 43.5v238h-88q-76 0 -76 77z" />
<glyph unicode="&#x496;" horiz-adv-x="2342" d="M27 1141q0 137 90 233q98 100 252 101q162 0 342 -158q104 -92 284 -326v232q0 25 -20.5 44t-40.5 19q-78 0 -78 78q0 76 78 76h389q78 0 78 -76q0 -78 -78 -78q-20 0 -40.5 -19.5t-20.5 -43.5v-232q180 233 284 326q180 158 342 158q154 0 252 -101q90 -96 90 -233 t-76.5 -211t-195.5 -74q-115 0 -184 64q-63 57 -64 141q0 86 46 133t116 47q59 0 92 -33q23 -27 23 -53q0 -59 -41 -82q-29 37 -58 37q-35 0 -35 -49q0 -61 105 -62q55 0 92 37t37 105q0 80 -53.5 135t-145.5 55q-193 0 -422 -295q37 -55 150 -63l346 -729 q10 -23 28.5 -44.5t44 -35.5t59.5 -14t73 20q20 23 36.5 48.5t51.5 25.5q25 2 39 -10.5t20 -31t5 -40t-9 -39.5q-23 -41 -72 -74q43 -35 66 -83t27 -99t-10.5 -101.5t-45 -90.5t-77 -64.5t-105.5 -24.5q-35 0 -71.5 11.5t-66.5 34t-47.5 56t-13.5 79.5q6 61 54 96 q39 31 94 26q51 -4 75.5 -36.5t14.5 -79.5q-12 12 -43 16q-29 0 -33 -35q-2 -39 43 -39q59 0 82 44t17 100q-4 43 -21.5 68.5t-44.5 41t-59.5 22.5t-69.5 9h-213l-248 506l-186 383q-29 -41 -53.5 -73t-40.5 -54v-483v-60q0 -25 20.5 -44t40.5 -19q78 0 78 -76 q0 -78 -78 -78h-389q-78 0 -78 78q0 76 78 76q20 0 40.5 19.5t20.5 43.5v60v483q-16 23 -40.5 54.5t-53.5 72.5l-186 -383l-248 -506h-356q-78 0 -78 78q0 76 78 76q143 0 184 92l346 727q113 8 150 63q-231 295 -422 295q-92 0 -145.5 -55t-53.5 -135q0 -68 37 -105t92 -37 q104 0 104 62q0 49 -34 49q-31 0 -58 -37q-41 23 -41 82q0 27 23 53q33 33 92 33q70 0 116 -47t46 -133q0 -84 -64 -141q-70 -63 -184 -64q-119 0 -195.5 74t-76.5 211z" />
<glyph unicode="&#x497;" horiz-adv-x="1705" d="M23 80q0 45 17 57.5t41.5 17.5t52.5 14t50 50l127 221q86 -10 142.5 19.5t62.5 89.5q-45 88 -83 147.5t-79 94.5q-23 20 -47 34.5t-44.5 17.5t-34 -9.5t-13.5 -42.5q0 -12 7 -23.5t18 -11.5q10 0 18 9t12 21q27 -6 42.5 -26.5t15.5 -36.5q0 -23 -26 -53.5t-73 -30.5 q-31 0 -59.5 12.5t-51 33t-36.5 48t-14 58.5q0 72 53 124t151 52q57 0 99.5 -27t86.5 -80t97 -135t131 -193v218q0 37 -21.5 47t-47 17t-47 20.5t-21.5 56.5q0 76 78 76h344q78 0 78 -76q0 -43 -21.5 -56.5t-47.5 -20.5t-47.5 -17.5t-21.5 -46.5v-218q76 111 132.5 193 t104.5 135t94 80t101 27q98 0 151.5 -52.5t53.5 -123.5q0 -31 -14 -58.5t-36.5 -48t-51.5 -33t-60 -12.5q-47 0 -72.5 30.5t-25.5 53.5q0 16 15.5 36.5t42.5 26.5q4 -12 12 -21t18 -9t17.5 11t7.5 24q0 31 -16.5 42t-41 8t-53 -17.5t-51.5 -35.5q-41 -35 -83 -92t-75 -143 q6 -59 58.5 -90t138.5 -21l127 -221q14 -29 31.5 -42t36.5 -19q29 -16 45 -2t30.5 37.5t29.5 46t44 22.5q25 2 39 -15.5t20.5 -42t5.5 -51t-10 -44.5q-23 -41 -71 -74q66 -41 86 -108.5t1.5 -132t-75.5 -111.5t-148 -47q-35 0 -71.5 11t-66 33.5t-47 56.5t-13.5 79 q6 61 53 96q39 31 94 27q51 -4 76 -37t14 -80q-12 12 -43 16q-29 0 -32 -35q-2 -39 43 -38q51 2 73.5 47t8.5 98q-12 41 -46 62.5t-106 25.5l-174 2l-256 418q-20 -29 -36.5 -52.5t-27.5 -41.5l-2 -107q0 -37 21.5 -48t48.5 -17.5t48.5 -19.5t21.5 -54q0 -78 -78 -78h-346 h-2q-78 0 -78 78q0 41 21.5 54t48 19.5t48 17.5t21.5 48l-2 107q-10 18 -26.5 41.5t-36.5 52.5l-256 -418h-265q-78 0 -77 78z" />
<glyph unicode="&#x498;" horiz-adv-x="1159" d="M33 420q0 74 23.5 134t67.5 102t104.5 65.5t133.5 23.5q70 0 128.5 -20t99.5 -58t63.5 -89.5t22.5 -112.5l-21 -100q-27 -53 -82 -88t-116 -35q-82 0 -135.5 45t-53.5 121q0 41 31 73.5t74 32.5q57 0 71 -45q-33 0 -32 -39q0 -45 45 -45q27 0 51 21.5t24 58.5 q0 66 -47 101.5t-123 35.5q-86 0 -136 -50t-50 -132q0 -59 31 -109.5t81 -86.5t116.5 -56.5t138.5 -20.5q123 -2 201.5 75t103.5 194q12 63 8 127.5t-27.5 118t-64.5 87t-100 33.5q-14 0 -36 -1t-46.5 -1t-49 -1t-43.5 -1q-84 16 -69 92q8 45 45 60.5t80 16.5t78.5 -3 t40.5 0q41 29 60 88.5t19 122.5q0 82 -44 136.5t-117 54.5q-41 0 -69 -7.5t-49.5 -25t-39.5 -46t-39 -69.5q-6 -27 -12 -55.5t-16.5 -53t-25 -40t-36.5 -15.5q-20 0 -32.5 14.5t-19.5 38t-13.5 51t-12.5 56.5q-2 2 -19.5 29.5t-39 61.5t-39 66.5t-17.5 47.5q0 23 16.5 43 t37.5 20q10 0 28.5 -11t40 -24.5t42 -24.5t34.5 -11q2 0 26.5 13t65.5 30.5t95.5 32t117.5 16.5q80 0 152.5 -23.5t126 -63.5t85 -94.5t31.5 -117.5q0 -78 -37.5 -158t-113.5 -137q121 -53 188.5 -139t85 -183.5t-13.5 -198t-105.5 -181.5t-191.5 -132q-94 -41 -211 -51v-49 h4q86 0 144.5 -58.5t58.5 -144.5t-58.5 -144.5t-144.5 -58.5q-121 0 -178 107q-8 14 -8 29q0 55 61 55q31 0 49 -29q20 -49 76 -49q37 0 63.5 26.5t26.5 63.5t-26.5 63.5t-63.5 26.5q-12 0 -28 -10q-23 -16 -43 -16q-45 0 -46 61v129q-76 6 -143 29q-92 31 -161.5 85 t-110.5 131t-41 169z" />
<glyph unicode="&#x499;" horiz-adv-x="978" d="M29 272q0 76 51 129q57 61 158 62q88 0 141 -55q39 -41 39 -95q0 -45 -31 -84t-72 -39q-59 0 -79 46q47 0 47 49q0 47 -52 47q-25 0 -46 -25.5t-21 -54.5q0 -39 26.5 -67.5t67.5 -47t91 -26t98.5 -4t88 17.5t60.5 39q49 53 59.5 111.5t-10 107.5t-69 83t-115.5 38 q-23 2 -42.5 -1t-49.5 -3q-35 6 -50.5 28.5t-9.5 44.5q4 25 24.5 35t47.5 15q37 4 56.5 -0.5t23.5 0.5q63 18 87.5 57t18.5 79t-40.5 67.5t-86.5 25.5q-68 -4 -100 -47q-12 -23 -22.5 -45.5t-23.5 -43t-29.5 -32.5t-39.5 -12q-35 0 -47 33l-20 59q-16 14 -30.5 28.5 t-31.5 28.5q-45 39 -45 82q0 57 53 58q20 0 60 -23q33 -20 47 -20q37 0 74 10t75.5 22.5t78.5 24.5t83 16q55 6 121 -5t119 -68q18 -18 30.5 -59.5t4 -88.5t-41 -92t-104.5 -72h-22q90 -10 149 -41q59 -33 93 -78t47.5 -94t13.5 -90q0 -158 -133 -248q-31 -20 -75 -34.5 t-94 -24.5t-104 -14q-23 -2 -43 -5v-30h4q84 0 143.5 -59.5t59.5 -143.5t-59.5 -143.5t-143.5 -59.5q-119 0 -178 107q-8 14 -8 28q0 55 61 56q31 0 50 -29q23 -49 75 -49q37 0 64 26.5t27 63.5t-27 63.5t-64 26.5q-12 0 -28 -10q-23 -16 -43 -17q-45 0 -45 62v108 q-117 10 -203 58q-139 78 -139 237z" />
<glyph unicode="&#x49a;" horiz-adv-x="1511" d="M29 78q0 76 77 76q20 0 41 19.5t21 43.5v59v484v461q0 25 -20.5 44t-41.5 19q-78 0 -77 78q0 76 77 76h390q78 0 77 -76q0 -78 -77 -78q-20 0 -41 -19.5t-21 -43.5v-232q180 233 285 326q180 158 342 158q154 0 252 -101q90 -96 90 -233t-77 -211t-196 -74 q-115 0 -184 64q-63 57 -63 141q0 86 46 133t115 47q59 0 93 -33q23 -27 22 -53q0 -59 -41 -82q-29 37 -57 37q-35 0 -35 -49q0 -61 104 -62q55 0 92.5 37t37.5 105q0 80 -53.5 135t-145.5 55q-193 0 -422 -295q37 -55 149 -63l347 -729q10 -23 28.5 -44.5t44 -36t59 -14.5 t72.5 21q20 23 37 48.5t51 25.5q25 2 39.5 -10.5t20.5 -31t5 -40t-9 -39.5q-23 -41 -72 -74q43 -35 65.5 -83t26.5 -99t-10 -101.5t-45 -90.5t-77 -64.5t-105 -24.5q-35 0 -72 11.5t-66.5 34t-47 56t-13.5 78.5q6 61 53 97q39 31 94 26q51 -4 76 -36.5t15 -79.5 q-12 12 -43 16q-29 0 -33 -35q-2 -39 43 -39q59 0 81.5 44t16.5 100q-4 43 -21.5 68.5t-44 41t-59.5 22.5t-69 9h-213l-248 506l-187 383q-29 -41 -53 -73t-41 -54v-484v-59q0 -25 20.5 -44t41.5 -19q78 0 77 -76q0 -78 -77 -78h-390q-78 0 -77 78z" />
<glyph unicode="&#x49b;" horiz-adv-x="1198" d="M27 78q0 41 21.5 54t48 19.5t48 17.5t21.5 48v533q0 37 -21.5 47t-47 17t-47 20.5t-21.5 56.5q0 76 77 76h345q78 0 77 -76q0 -43 -21.5 -56.5t-47 -20.5t-47 -17.5t-21.5 -46.5v-218q76 111 132.5 193t104.5 135t94 80t101 27q98 0 151.5 -52.5t53.5 -123.5 q0 -31 -14.5 -58.5t-37 -48t-51 -33t-59.5 -12.5q-47 0 -72.5 30.5t-25.5 53.5q0 16 15.5 36.5t41.5 26.5q4 -12 12.5 -21t18.5 -9t17.5 11t7.5 24q0 31 -16.5 42t-41 8t-53.5 -17.5t-51 -35.5q-41 -35 -83 -92t-75 -143q6 -59 58.5 -90t138.5 -21l127 -221q14 -29 31.5 -42 t35.5 -19q29 -16 45.5 -2t30.5 37.5t29.5 46t44.5 22.5q25 2 39 -15.5t20 -42t5 -51t-9 -44.5q-23 -41 -72 -74q66 -41 86.5 -108.5t2 -132t-76 -111.5t-147.5 -47q-35 0 -71.5 11t-66.5 33.5t-47 56.5t-13 79q6 61 53 96q39 31 94 27q51 -4 75.5 -37t14.5 -80 q-12 12 -43 16q-29 0 -33 -35q-2 -39 43 -38q51 2 74 47t8 98q-12 41 -46 62.5t-105 25.5l-174 2l-256 418q-20 -29 -37 -52.5t-27 -41.5l-2 -109q0 -37 21.5 -48t48 -17.5t48 -19.5t21.5 -54q0 -78 -77 -78h-347h-2q-78 0 -77 78z" />
<glyph unicode="&#x4a0;" horiz-adv-x="2007" d="M25 1458q0 29 22.5 49.5t52.5 20.5q35 0 58 -33q39 -57 102 -57h813q76 0 76 -76q0 -78 -76 -78q-20 0 -40.5 -19.5t-20.5 -43.5v-232q178 229 284 326q178 158 342 158q154 0 252 -101q90 -96 90 -233t-76.5 -211t-195.5 -74q-115 0 -184 64q-63 57 -64 141q0 84 46 132 t116 48q59 0 92 -33q23 -25 23 -53q0 -61 -41 -82q-27 37 -58 37q-35 0 -34 -49q0 -61 104 -62q55 0 92 37t37 105q0 80 -54 135t-145 55q-193 0 -421 -295q37 -55 149 -63l346 -729q41 -88 184 -88q78 0 78 -76q0 -78 -78 -78l-356 -4l-248 508l-186 383q-59 -84 -94 -127 v-484v-59q0 -25 20.5 -44t40.5 -19q78 0 78 -76q0 -78 -78 -78h-389q-76 0 -76 78q0 76 76 76q20 0 40.5 19.5t20.5 43.5v705l3 157q0 166 -21.5 185.5t-42.5 19.5h-211q-76 0 -76 -59q0 -14 133 -303q80 -207 21 -416q-84 -135 -225 -135q-94 0 -161 65.5t-67 161.5 q0 68 47.5 115t116.5 47q41 0 77 -30t36 -66q0 -43 -39 -72q-20 41 -60 41q-35 0 -34 -35q0 -35 24.5 -59.5t59.5 -24.5q55 0 92 47t37 107q0 143 -148 368q-133 190 -268 381q-14 20 -14 41z" />
<glyph unicode="&#x4a1;" horiz-adv-x="1392" d="M27 662q0 92 55 157q-51 33 -51 80q0 63 86 64h360h281q76 0 76 -76q0 -78 -76 -78q-20 0 -41 -19.5t-21 -44.5v-204q76 111 133.5 190.5t107.5 129.5t99 75t111 25q106 2 158.5 -56.5t52.5 -136.5q0 -35 -15.5 -66.5t-41 -54t-57.5 -36t-64 -13.5q-51 0 -80 34t-29 60 q0 18 17.5 41t46.5 29q8 -33 30 -33q12 0 20.5 12.5t8.5 26.5q0 35 -15.5 51.5t-40 15.5t-53 -17.5t-55.5 -45.5q-41 -45 -80 -91t-84 -134q6 -59 49 -89t129 -20l127 -221q23 -41 54.5 -50t61.5 -14.5t51.5 -17.5t21.5 -57q0 -78 -78 -78h-264l-256 418 q-20 -29 -36.5 -52.5t-27.5 -41.5l-2 -107q0 -37 21.5 -48t48.5 -17.5t48.5 -19.5t21.5 -54q0 -78 -78 -78h-346q-76 0 -76 78q0 41 21.5 54t47 20.5t47 17.5t21.5 47v604h-84q-72 0 -123 -39q-66 -49 -65 -139q0 -57 45 -57q33 0 33 45q0 14 -9 22q43 4 72 -16 q39 -27 39 -78q0 -63 -49 -96q-41 -31 -103 -31q-72 0 -129 51q-74 63 -73 179z" />
<glyph unicode="&#x4a2;" horiz-adv-x="1511" d="M14 78q0 76 76 76q20 0 41 19.5t21 43.5v1004q0 25 -20.5 44t-41.5 19q-76 0 -76 78q0 76 76 76h389q78 0 78 -76q0 -78 -78 -78q-20 0 -40.5 -19.5t-20.5 -43.5v-318h528v326q0 25 -20.5 44t-40.5 19q-76 0 -76 78q0 76 76 76h389q78 0 78 -76q0 -78 -78 -78 q-20 0 -41 -19.5t-21 -43.5v-1039q0 -25 20.5 -44t41.5 -19q33 0 51 17.5t33.5 37t31 37t44.5 17.5q25 2 39 -10.5t20 -31t5 -40t-9 -39.5q-23 -41 -72 -74q43 -35 65.5 -83t26.5 -99.5t-10 -101.5t-45 -90t-77 -64.5t-105 -24.5q-35 0 -72 11.5t-66.5 34t-47 56t-13.5 78.5 q6 61 53 97q39 31 95 26q51 -4 75.5 -36.5t14.5 -80.5q-12 12 -43 17q-29 0 -33 -35q-2 -39 43 -39q59 0 81.5 44t16.5 99q-4 43 -21.5 71t-44 44.5t-59 24.5t-69.5 10h-297q-76 0 -76 78q0 76 76 76q20 0 40.5 19.5t20.5 43.5v358h-528v-358q0 -25 20.5 -44t40.5 -19 q78 0 78 -76q0 -78 -78 -78h-389q-76 0 -76 78zM418 653h528v99h-528v-99z" />
<glyph unicode="&#x4a3;" horiz-adv-x="1226" d="M37 78q0 76 76 76q20 0 40.5 19.5t20.5 43.5v528q0 25 -20.5 44.5t-40.5 19.5q-76 0 -76 76q0 78 76 78h346q78 0 78 -78q0 -76 -78 -76q-20 0 -41 -19.5t-21 -44.5v-149h9h346h8v149q0 25 -20.5 44.5t-41.5 19.5q-76 0 -75 76q0 78 75 78h346q78 0 78 -78q0 -76 -78 -76 q-20 0 -40.5 -19.5t-20.5 -44.5v-579q33 0 49.5 17.5t28.5 37t25.5 36.5t41.5 17q25 2 39.5 -15t20.5 -41.5t5 -51.5t-9 -45q-23 -41 -72 -74q66 -41 86.5 -108.5t2 -132t-76 -111.5t-147.5 -47q-35 0 -72 11t-66.5 33.5t-47 56.5t-13.5 79q6 61 53 96q39 31 95 27 q51 -4 75.5 -37t14.5 -80q-12 12 -43 16q-29 0 -33 -34q-2 -39 43 -39q51 2 73.5 47t8.5 98q-12 41 -46 57.5t-106 20.5h-215q-76 0 -75 78q0 76 75 76q20 0 41 19.5t21 43.5v225h-8h-346h-9v-225q0 -25 20.5 -44t41.5 -19q78 0 78 -76q0 -78 -78 -78h-346q-76 0 -76 78z " />
<glyph unicode="&#x4a4;" horiz-adv-x="1961" d="M14 78q0 76 76 76q20 0 41 19.5t21 43.5v1004q0 25 -20.5 44t-41.5 19q-76 0 -76 78q0 76 76 76h389q78 0 78 -76q0 -78 -78 -78q-20 0 -40.5 -19.5t-20.5 -43.5v-318h528v326q0 25 -20.5 44t-40.5 19q-76 0 -76 78q0 76 76 76h813q63 0 102 57q23 33 58 33 q31 0 53 -20.5t22 -49.5q0 -20 -14 -41q-135 -190 -268 -381q-147 -225 -148 -368q0 -59 37 -106.5t92 -47.5q35 0 59.5 24.5t24.5 59.5t-35 35q-39 0 -59 -41q-39 29 -39 72q0 37 36 66.5t77 29.5q70 0 117 -47t47 -115q0 -96 -67 -161.5t-161 -65.5q-141 0 -225 135 q-59 209 20 416q133 289 134 303q0 59 -76 59h-215q-20 0 -42 -19.5t-22 -185.5l6 -862q0 -25 20.5 -44t41.5 -19q78 0 78 -76q0 -78 -78 -78h-389q-76 0 -76 78q0 76 76 76q20 0 40.5 19.5t20.5 43.5v350h-528v-358q0 -25 20.5 -44t40.5 -19q78 0 78 -76q0 -78 -78 -78 h-389q-76 0 -76 78zM418 653h528v99h-528v-99z" />
<glyph unicode="&#x4a5;" horiz-adv-x="1466" d="M37 78q0 76 76 76q20 0 40.5 19.5t20.5 43.5v528q0 25 -20.5 44.5t-40.5 19.5q-76 0 -76 76q0 78 76 78h346q78 0 78 -78q0 -76 -78 -76q-20 0 -41 -19.5t-21 -44.5v-149h9h346h8v149q0 25 -20.5 44.5t-41.5 19.5q-76 0 -75 76q0 78 75 78h285h360q86 0 87 -64 q0 -47 -52 -80q55 -66 56 -157q0 -115 -74 -179q-57 -51 -129 -51q-61 0 -103 31q-49 33 -49 96q0 51 39 78q29 20 72 16q-8 -8 -8 -22q0 -45 32 -45q45 0 46 57q0 90 -66 139q-51 39 -123 39h-88v-604q0 -25 20.5 -44t40.5 -19q78 0 78 -76q0 -78 -78 -78h-346 q-76 0 -75 78q0 76 75 76q20 0 41 19.5t21 43.5v225h-8h-346h-9v-225q0 -25 20.5 -44t41.5 -19q78 0 78 -76q0 -78 -78 -78h-346q-76 0 -76 78z" />
<glyph unicode="&#x4aa;" horiz-adv-x="1239" d="M35 780q0 283 153 480q164 209 426 208q82 0 191.5 -42t128.5 -42q72 0 92.5 41t58.5 41q29 0 51.5 -20.5t22.5 -48.5q0 -16 -8 -33q-25 -49 -138.5 -189.5t-164.5 -236.5q-82 -150 -82 -293q0 -55 35 -102q39 -53 92 -54q31 0 55.5 20.5t24.5 51.5q0 29 -43 29 q-25 0 -49 -25q-12 25 -13 49q0 43 34 70t77 27q66 0 100.5 -43t34.5 -107q0 -86 -65.5 -149.5t-155.5 -63.5q-129 0 -213 123q-61 74 -53 137q-8 162 71 357q63 182 64 211q0 47 -25 86q-39 66 -127 65q-133 0 -200 -143q-55 -117 -56 -291q0 -207 80 -371 q55 -100 107 -162q190 -201 503 -200q166 0 166 -70q0 -78 -125 -121q-102 -35 -239 -35q-195 0 -352 74v-67h4q86 0 144 -58.5t58 -144.5t-58 -144.5t-144 -58.5q-121 0 -179 107q-8 14 -8 28q0 55 62 56q31 0 49 -29q20 -49 76 -49q37 0 63.5 26.5t26.5 63.5t-26.5 63.5 t-63.5 26.5q-12 0 -29 -10q-23 -16 -43 -17q-45 0 -45 62v211q-68 49 -125 112q-221 242 -221 594z" />
<glyph unicode="&#x4ab;" horiz-adv-x="894" d="M41 506q0 268 154 389q104 80 256 80q57 0 124 -27q70 -25 78 -24q39 0 52 24q25 47 69 47q70 0 70 -69q0 -6 -1 -12.5t-3 -14.5q-23 -68 -99 -166q-16 -20 -30.5 -49t-25.5 -57.5t-18.5 -54t-7.5 -37.5q0 -31 31 -46q18 -16 19 -45q0 -74 -64 -73q-18 0 -35 8 q-88 39 -88 137q0 12 7.5 38t14.5 54.5t14 54t7 35.5q0 135 -100 136q-143 0 -143 -256q0 -254 165 -379q106 -78 314 -113q53 -11 53 -68q0 -66 -137 -65q-143 0 -273 47v-55h5q84 0 143 -59.5t59 -143.5t-59.5 -143.5t-142.5 -59.5q-119 0 -179 107q-8 14 -8 28 q0 55 62 56q31 0 49 -29q23 -49 76 -49q37 0 63.5 26.5t26.5 63.5t-27 63.5t-63 26.5q-12 0 -29 -10q-23 -16 -43 -17q-45 0 -45 62v182q-27 14 -51 31q-240 156 -240 426z" />
<glyph unicode="&#x4ae;" horiz-adv-x="1376" d="M27 1362q0 76 75 76h459q78 0 78 -76q0 -78 -78 -78q-47 0 -47 -35q0 -31 25 -69l161 -252l127 -197q358 301 359 475q0 84 -52.5 136.5t-119.5 52.5q-59 0 -106.5 -33t-47.5 -84q0 -76 68 -76q37 0 37 27q0 20 -17 24q-14 4 -28 -4q-2 35 22.5 57.5t56.5 22.5 q106 0 107 -123q0 -59 -43 -100q-49 -47 -135 -47q-25 0 -54 6q-115 25 -145 131q-12 37 -12 82q0 109 89 184.5t208 75.5q121 0 213 -88q102 -96 102 -244q0 -223 -432 -608v-381q0 -29 37 -47q31 -16 57 -16q78 0 78 -76q0 -78 -78 -78h-450q-76 0 -76 78q0 76 76 76 q27 0 58.5 17t31.5 46v330l-428 670q-43 68 -101 67q-76 0 -75 78z" />
<glyph unicode="&#x4af;" horiz-adv-x="1157" d="M6 887q0 76 78 76h377q78 0 78 -76q0 -78 -78 -78q-16 0 -31.5 -15.5t-15.5 -33.5q0 -6 4 -15l248 -473l184 480q2 20 -12.5 38.5t-32.5 18.5q-76 0 -76 78q0 76 76 76h291q78 0 78 -76q0 -78 -78 -78q-20 0 -49 -19.5t-37 -44.5l-262 -739v-266q0 -25 20 -44.5t41 -19.5 q78 0 78 -75q0 -78 -78 -78h-297q-76 0 -76 78q0 76 76 75q20 0 40.5 19.5t18.5 44.5v260q-51 76 -190 150q-115 47 -115 90q0 31 43 61q45 31 45 53q0 20 -10 41l-194 350q-33 63 -66 64q-78 0 -78 78z" />
<glyph unicode="&#x4b0;" horiz-adv-x="1376" d="M27 1362q0 76 75 76h459q78 0 78 -76q0 -78 -78 -78q-47 0 -47 -35q0 -31 25 -69l161 -252l127 -197q358 301 359 475q0 84 -52.5 136.5t-119.5 52.5q-59 0 -106.5 -33t-47.5 -84q0 -76 68 -76q37 0 37 27q0 20 -17 24q-14 4 -28 -4q-2 35 22.5 57.5t56.5 22.5 q106 0 107 -123q0 -59 -43 -100q-49 -47 -135 -47q-25 0 -54 6q-115 25 -145 131q-12 37 -12 82q0 109 89 184.5t208 75.5q121 0 213 -88q102 -96 102 -244q0 -223 -432 -608v-94h109q78 0 77 -76q0 -78 -77 -78h-109v-133q0 -29 37 -47q31 -16 57 -16q78 0 78 -76 q0 -78 -78 -78h-450q-76 0 -76 78q0 76 76 76q27 0 58.5 17t31.5 46v133h-117q-76 0 -76 78q0 76 76 76h117v43l-428 670q-43 68 -101 67q-76 0 -75 78z" />
<glyph unicode="&#x4b1;" horiz-adv-x="1157" d="M6 887q0 76 78 76h377q78 0 78 -76q0 -78 -78 -78q-16 0 -31.5 -15.5t-15.5 -33.5q0 -6 4 -15l248 -473l184 480q2 20 -12.5 38.5t-32.5 18.5q-76 0 -76 78q0 76 76 76h291q78 0 78 -76q0 -78 -78 -78q-20 0 -49 -19.5t-37 -44.5l-262 -739v-43h94q78 0 78 -76 q0 -78 -78 -77h-94v-70q0 -25 20 -44.5t41 -19.5q78 0 78 -75q0 -78 -78 -78h-297q-76 0 -76 78q0 76 76 75q20 0 40.5 19.5t18.5 44.5v70h-110q-76 0 -76 77q0 76 76 76h110v37q-51 76 -190 150q-115 47 -115 90q0 31 43 61q45 31 45 53q0 20 -10 41l-194 350 q-33 63 -66 64q-78 0 -78 78z" />
<glyph unicode="&#x4b2;" horiz-adv-x="1677" d="M53 156q0 207 148 385q53 66 133 135t190 141l-276 404q-43 63 -94 63q-76 0 -76 78q0 76 76 76h491q78 0 78 -76q0 -78 -78 -78q-35 0 -35 -43q0 -12 6 -20l166 -242q229 147 240 246q0 25 -21.5 42t-44.5 17q-76 0 -75 78q0 76 75 76h357q78 0 78 -76q0 -78 -78 -78 q-29 0 -64 -22q-43 -29 -59 -78q-78 -176 -316 -338l435 -629q10 -16 28.5 -31.5t38 -27t35.5 -19.5t23 -8q33 0 51 17.5t33.5 37t31 37t43.5 17.5q25 2 39.5 -10.5t20.5 -31t5 -40t-9 -39.5q-23 -41 -72 -74q43 -35 65.5 -83t26.5 -99t-10 -101.5t-45 -90.5t-77 -64.5 t-105 -24.5q-35 0 -72 11.5t-66.5 34t-47 56t-13.5 78.5q6 61 53 97q39 31 94 26q51 -4 76 -36.5t14 -79.5q-12 12 -43 16q-29 0 -32 -35q-2 -39 43 -39q59 0 81.5 44t16.5 100q-4 43 -21.5 69.5t-44 43t-59.5 23.5t-70 9h-254l-213 311l-110 160l-146 213 q-203 -127 -294 -225q-127 -139 -127 -303q0 -119 82 -199q82 -82 198 -82q104 0 172 62q63 55 64 129q0 61 -42 101t-108 40q-49 0 -74.5 -26.5t-25.5 -57.5q0 -35 47 -35q35 0 47 55q80 -4 80 -94q0 -100 -139 -100q-63 0 -117 51q-61 51 -62 123q0 80 54 145 q68 82 190 82q33 0 41 -2q113 -2 189 -100q63 -78 63 -182q0 -127 -98 -226q-113 -109 -281 -108q-176 0 -301 123q-123 119 -123 301z" />
<glyph unicode="&#x4b3;" horiz-adv-x="1214" d="M-8 25q0 279 362 507l-149 213q-45 63 -86 64q-76 0 -76 78q0 76 76 76h389q78 0 78 -76q0 -78 -78 -78q-12 0 -12 -12q0 -23 20 -52l62 -86q86 49 131 86q16 14 16 41q0 23 -16 23q-76 0 -76 78q0 76 76 76h278q78 0 78 -76q0 -78 -78 -78q-25 0 -78 -64 q-90 -106 -247 -204l229 -324q45 -63 110 -63q33 0 46.5 17t20.5 36.5t17.5 37t38.5 17.5q25 2 39.5 -15.5t20.5 -42t5 -51t-9 -44.5q-23 -41 -72 -74q66 -41 86 -108.5t2 -132t-75.5 -112t-147.5 -47.5q-35 0 -72 11.5t-66.5 34t-47 56.5t-13.5 79q6 61 53 96q39 31 95 27 q51 -4 75.5 -37t14.5 -80q-12 12 -43 16q-29 0 -33 -35q-2 -39 43 -39q51 2 73.5 47.5t8.5 98.5q-12 41 -46 63.5t-106 26.5h-344q-76 0 -76 78q0 76 76 76q18 0 23 24q2 23 -10 39l-138 195q-152 -88 -215 -160q-90 -98 -90 -227q0 -190 133 -191q27 0 65 76t97 76 q119 0 119 -127q0 -92 -80 -148q-70 -47 -168 -47q-117 0 -203 78q-106 96 -106 283z" />
<glyph unicode="&#x4b6;" horiz-adv-x="1536" d="M-2 1298.5q-8 55.5 15.5 106.5t73.5 87t116 40q47 6 95 -5t88 -37t69.5 -62.5t42.5 -81.5q12 -47 9 -91.5t-12.5 -88.5t-20.5 -92t-13 -99q-10 -145 57.5 -225t175.5 -78q72 0 120 27.5t77 75.5t41 114.5t12 144.5v197q-2 16 -20 35q-20 20 -41 20q-76 0 -76 78 q0 76 76 76h389q78 0 78 -76q0 -78 -78 -78q-20 0 -41 -19.5t-21 -43.5v-1033q0 -25 21.5 -44t42.5 -19q33 0 51 17.5t33.5 37t31 37t44.5 17.5q25 2 39 -10.5t20 -31t5 -40t-9 -39.5q-23 -41 -72 -74q43 -35 65.5 -83t26.5 -99.5t-10 -101.5t-45 -90t-77 -64.5t-105 -24.5 q-35 0 -72 11.5t-66.5 34t-47 56t-13.5 78.5q6 61 53 97q39 31 95 26q51 -4 75.5 -36.5t14.5 -80.5q-12 12 -43 17q-29 0 -33 -35q-2 -39 43 -39q59 0 81.5 44t16.5 99q-4 43 -21.5 71t-44 44.5t-59 24.5t-69.5 10h-297q-76 0 -76 78q0 76 76 76q20 0 40.5 19.5t20.5 45.5 v412q-53 -57 -132 -87t-163 -35t-163.5 12.5t-135.5 58.5q-66 47 -97.5 101t-42.5 112.5t-4 120t23 120.5q10 39 27.5 83t29 89t12.5 88t-21 82q-29 33 -61 33t-52.5 -20.5t-23.5 -52t24 -60.5q33 -23 86 -2q2 -27 -15.5 -51.5t-45 -38t-62.5 -11t-70 30.5q-53 39 -61 94.5z " />
<glyph unicode="&#x4b7;" horiz-adv-x="1052" d="M18 911q0 49 56 50h84q37 0 70.5 -16.5t60 -45.5t42 -65.5t15.5 -77.5l2 -144q0 -109 94 -108q55 0 100.5 37t45.5 110v92q0 25 -20.5 44.5t-41.5 19.5q-76 0 -75 78q0 76 75 76h346q78 0 78 -76q0 -78 -78 -78q-20 0 -40.5 -19.5t-20.5 -44.5v-577q33 0 49.5 17.5 t28.5 37t25.5 36.5t41.5 17q25 2 39.5 -15t20.5 -41.5t5 -51.5t-9 -45q-23 -41 -72 -74q66 -41 86.5 -108.5t2 -132t-76 -111.5t-147.5 -47q-35 0 -72 11t-66.5 33.5t-47 56.5t-13.5 79q6 61 53 96q39 31 95 27q51 -4 75.5 -37t14.5 -80q-12 12 -43 16q-29 0 -33 -34 q-2 -39 43 -39q51 2 73.5 47t8.5 98q-12 41 -46 57.5t-106 20.5h-215q-76 0 -75 78q0 76 75 76q20 0 41 19.5t21 43.5v172q-43 -53 -115 -78.5t-137 -25.5q-92 0 -150 63q-63 66 -63 182v213q0 59 -53 97q-51 39 -52 71z" />
<glyph unicode="&#x4ba;" horiz-adv-x="1355" d="M-10 76q0 78 78 78q20 0 40.5 19.5t20.5 43.5v1006q0 25 -20.5 44t-40.5 19q-78 0 -78 76q0 78 78 78h389q76 0 75 -78q0 -76 -75 -76q-20 0 -40 -19.5t-22 -43.5l-2 -363q53 57 132 87t163 35t164 -12.5t135 -58.5q66 -47 97.5 -101t43 -112.5t4 -120t-23.5 -120.5 q-10 -90 -27.5 -134t-29 -89.5t-12.5 -88.5t22 -82q29 -33 60.5 -32.5t52 21t23.5 52t-23 60.5q-33 23 -87 2q-2 27 15.5 51.5t45.5 37.5t62.5 11t69.5 -30q53 -39 61.5 -94.5t-15 -106.5t-74 -87t-115.5 -40q-47 -6 -95.5 5t-88.5 36.5t-69.5 62.5t-41.5 82q-12 47 -9 91 t12 88t20.5 118t13.5 125q10 145 -57.5 225t-176.5 78q-72 0 -120 -27.5t-76.5 -75.5t-41 -114.5t-12.5 -144.5v-248q2 -16 21 -35q20 -20 41 -20q76 0 75 -78q0 -76 -75 -76h-389q-78 0 -78 76z" />
<glyph unicode="&#x4bb;" horiz-adv-x="966" d="M16 76q0 76 78 76q20 0 41 19t21 44v528q0 25 -20.5 44.5t-41.5 19.5q-78 0 -78 78q0 76 78 76h346q76 0 76 -76q0 -78 -76 -78q-20 0 -40.5 -19.5t-20.5 -44.5v-174q43 53 114.5 79t137.5 26q92 0 149 -64q63 -66 64 -182v-213q0 -59 53 -96q51 -39 51 -72 q0 -49 -55 -49h-84q-37 0 -70.5 16.5t-60.5 46t-42 65.5t-15 77l-3 143q0 109 -94 109q-55 0 -100 -37t-45 -111v-92q0 -25 20.5 -44t40.5 -19q76 0 76 -76t-76 -76h-346q-78 0 -78 76z" />
<glyph unicode="&#x4c0;" horiz-adv-x="569" d="M14 78q0 76 76 76q20 0 41 19.5t21 43.5v1004q0 25 -20.5 44t-41.5 19q-76 0 -76 78q0 76 76 76h389q78 0 78 -76q0 -78 -78 -78q-20 0 -40.5 -19.5t-20.5 -43.5v-1004q0 -25 20.5 -44t40.5 -19q78 0 78 -76q0 -78 -78 -78h-389q-76 0 -76 78z" />
<glyph unicode="&#x4cb;" horiz-adv-x="1376" d="M-2 1298.5q-8 55.5 15.5 106.5t73.5 87t116 40q47 6 95 -5t88 -37t69.5 -62.5t42.5 -81.5q12 -47 9 -91.5t-12.5 -88.5t-20.5 -92t-13 -99q-10 -145 57.5 -225t175.5 -78q72 0 120 27.5t77 75.5t41 114.5t12 144.5v197q-2 16 -20 35q-20 20 -41 20q-76 0 -76 78 q0 76 76 76h389q78 0 78 -76q0 -78 -78 -78q-20 0 -41 -19.5t-21 -43.5v-1004q0 -27 20.5 -46t41.5 -19q76 0 76 -76q0 -78 -76 -78h-297q-37 -2 -70 -10t-59.5 -24.5t-44 -44t-21.5 -71.5q-6 -55 16.5 -99t82.5 -44q45 0 43 39q-4 35 -33 35q-31 -4 -43 -17q-10 47 14.5 80 t75.5 37q55 4 94 -26q47 -35 53 -97q4 -45 -13 -78.5t-47 -56t-66.5 -34t-71.5 -11.5q-59 0 -105.5 24.5t-77 64.5t-45 90t-10.5 101.5t26.5 99.5t65.5 83q-49 33 -71 74q-8 18 -9.5 39.5t5 40t20.5 31t39 10.5q29 0 44 -17.5t30.5 -37t34 -37t51.5 -17.5q20 0 41.5 19.5 t21.5 43.5v441q-53 -57 -132 -87t-163 -35t-163.5 12.5t-135.5 58.5q-66 47 -97.5 101t-42.5 112.5t-4 120t23 120.5q10 39 27.5 83t29 89t12.5 88t-21 82q-29 33 -61 33t-52.5 -20.5t-23.5 -52t24 -60.5q33 -23 86 -2q2 -27 -15.5 -51.5t-45 -38t-62.5 -11t-70 30.5 q-53 39 -61 94.5z" />
<glyph unicode="&#x4cc;" horiz-adv-x="987" d="M18 911q0 49 56 50h84q37 0 70.5 -16.5t60 -45.5t42 -65.5t15.5 -77.5l2 -144q0 -109 94 -108q55 0 100.5 37t45.5 110v92q0 25 -20.5 44.5t-41.5 19.5q-76 0 -75 78q0 76 75 76h346q78 0 78 -76q0 -78 -78 -78q-20 0 -40.5 -19.5t-20.5 -44.5v-526q0 -25 20.5 -44 t40.5 -19q76 0 76 -76q0 -78 -76 -78h-215q-72 -4 -105.5 -20.5t-45.5 -57.5q-14 -53 8.5 -98t73.5 -47q45 0 43 39q-4 35 -33 34q-29 -2 -43 -16q-10 47 14.5 80t75.5 37q55 4 94 -27q47 -35 54 -96q4 -45 -13.5 -79t-47.5 -56.5t-66.5 -33.5t-71.5 -11q-49 0 -89 15 t-69.5 41t-47 58.5t-23.5 69.5q-6 31 -5.5 71t21 85t69 91t138.5 87v223q-43 -53 -115 -78.5t-137 -25.5q-92 0 -150 63q-63 63 -63 182v213q0 59 -53 97q-51 39 -52 71z" />
<glyph unicode="&#x4cf;" horiz-adv-x="569" d="M14 78q0 76 76 76q20 0 41 19.5t21 43.5v1004q0 25 -20.5 44t-41.5 19q-76 0 -76 78q0 76 76 76h389q78 0 78 -76q0 -78 -78 -78q-20 0 -40.5 -19.5t-20.5 -43.5v-1004q0 -25 20.5 -44t40.5 -19q78 0 78 -76q0 -78 -78 -78h-389q-76 0 -76 78z" />
<glyph unicode="&#x4d0;" horiz-adv-x="1529" d="M51 203q0 109 152 514q154 401 153 485q0 78 -86 82q-76 0 -75 78q0 76 75 76h949q78 0 77 -76q0 -78 -77 -78q-76 0 -76 -63q0 -6 1 -12.5t3 -14.5l209 -967q12 -61 94 -73q78 0 78 -76q0 -78 -78 -78h-430q-76 0 -76 78q0 76 76 76q29 0 45 20.5t10 44.5l-63 287 l-45 209l-33 149h-514l-141 -375q-74 -195 -74 -286q0 -141 88 -232q88 -94 215 -94q109 0 182 82q66 72 66 154q0 41 -15.5 74.5t-40 58t-57.5 38t-65 13.5q-135 0 -136 -113q0 -78 74 -78q35 0 35 35q0 37 -39 39q16 47 80 47q35 0 62.5 -31.5t27.5 -84.5 q0 -31 -12.5 -58.5t-35 -50t-52 -36t-66.5 -13.5q-88 0 -145 45q-82 57 -82 186q0 127 86 199q80 68 203 68q8 0 20.5 -1.5t28.5 -3.5q135 -25 208.5 -111.5t73.5 -221.5t-104 -254q-121 -135 -297 -135q-188 0 -320 135q-137 137 -137 344zM412 1757q0 41 59 41 q33 0 55 -20q96 -104 174 -105q82 0 179 109q20 20 51 20q61 0 61 -45q0 -14 -14 -26q-141 -211 -279 -209q-139 2 -274 209q-12 12 -12 26zM451 956h462l-14 64h-430q-2 -10 -8 -31.5t-10 -32.5zM492 1112h389l-21 96q-14 76 -74 76h-266q-8 -96 -28 -172z" />
<glyph unicode="&#x4d1;" horiz-adv-x="1048" d="M43 274q0 168 115 269q127 111 417 162l-6 61q-137 -27 -247 -27q-131 0 -203 74q-55 57 -56 125q0 45 27 84t74 39q41 0 94 -39q80 -57 107 -70q76 -39 172 -39q74 0 180 35t141 35q76 0 68 -72q0 -31 -60.5 -88t-52.5 -135l51 -471q2 -25 21.5 -44t40.5 -19 q78 0 78 -76q0 -78 -78 -78h-586q-94 0 -180 57q-117 76 -117 217zM254 1286q0 39 53 39q29 0 49 -18q86 -98 156 -99q74 0 160 103q18 18 45 18q55 0 55 -43q0 -12 -12 -24q-127 -199 -250 -197q-125 2 -246 197q-10 12 -10 24zM328 319q-6 -110 84 -151q37 -14 63 -14h90 q23 0 43.5 19.5t18.5 43.5l-13 119l-26 244q-84 -20 -158 -86q-88 -78 -102 -175z" />
<glyph unicode="&#x4d2;" horiz-adv-x="1529" d="M51 203q0 109 152 514q154 401 153 485q0 78 -86 82q-76 0 -75 78q0 78 75 78h949q78 0 77 -78q0 -78 -77 -78q-76 0 -76 -63q0 -6 1 -12.5t3 -14.5l209 -967q12 -61 94 -73q78 0 78 -76q0 -78 -78 -78h-430q-76 0 -76 78q0 76 76 76q29 0 45 20.5t10 44.5l-63 287 l-45 209l-33 149h-514l-141 -375q-74 -195 -74 -286q0 -141 88 -232q88 -94 215 -94q109 0 182 82q66 72 66 154q0 41 -15.5 74.5t-40 58t-57.5 38t-65 13.5q-135 0 -136 -113q0 -78 74 -78q35 0 35 35q0 37 -39 39q16 47 80 47q35 0 62.5 -31.5t27.5 -84.5 q0 -31 -12.5 -58.5t-35 -50t-52 -36t-66.5 -13.5q-88 0 -145 45q-82 57 -82 186q0 127 86 199q80 68 203 68q8 0 20.5 -1.5t28.5 -3.5q135 -25 208.5 -111.5t73.5 -221.5t-104 -254q-121 -135 -297 -135q-188 0 -320 135q-137 137 -137 344zM444 1647q0 47 33 78.5t78 31.5 q47 0 79 -31.5t32 -78.5q0 -45 -32 -78t-79 -33q-45 0 -78 33t-33 78zM451 956h462l-14 64h-430q-2 -10 -8 -31.5t-10 -32.5zM492 1112h389l-21 96q-14 76 -74 76h-266q-8 -96 -28 -172zM774 1647q0 45 33 77.5t80 32.5t78.5 -31.5t31.5 -78.5q0 -45 -31.5 -78t-78.5 -33 t-80 33t-33 78z" />
<glyph unicode="&#x4d3;" horiz-adv-x="1048" d="M43 274q0 168 115 269q127 111 417 162l-6 61q-137 -27 -247 -27q-131 0 -203 74q-55 57 -56 125q0 45 27 84t74 39q41 0 94 -39q80 -57 107 -70q76 -39 172 -39q74 0 180 35t141 35q76 0 68 -72q0 -31 -60.5 -88t-52.5 -135l51 -471q2 -25 21.5 -44t40.5 -19 q78 0 78 -76q0 -78 -78 -78h-586q-94 0 -180 57q-117 76 -117 217zM256 1176q0 47 33 78.5t78 31.5q47 0 78.5 -31.5t31.5 -78.5q0 -45 -31.5 -78t-78.5 -33q-45 0 -78 32.5t-33 78.5zM328 319q-6 -110 84 -151q37 -14 63 -14h90q23 0 43.5 19.5t18.5 43.5l-13 119l-26 244 q-84 -20 -158 -86q-88 -78 -102 -175zM586 1176q0 45 32.5 77.5t79.5 32.5t79 -31.5t32 -78.5q0 -45 -32 -78t-79 -33t-79.5 32.5t-32.5 78.5z" />
<glyph unicode="&#x4d4;" horiz-adv-x="2181" d="M20 203q0 152 138 377q41 66 256 364q137 190 137 258q0 80 -86 82q-76 0 -76 78q0 76 76 76h1218q33 0 76 40t76 40q51 0 81 -62.5t56 -124.5q6 -10 60 -74q33 -39 32 -71q0 -23 -20.5 -37t-42.5 -14q-66 0 -151 74.5t-167 74.5h-348v-203h256q39 0 53.5 59.5t57.5 59.5 q45 0 84 -53q33 -53 67 -109q12 -18 64 -61q35 -31 35 -64q0 -49 -58 -49q-41 0 -98 32t-115 32h-346v-396l170 142q35 76 111 121t166 45q135 0 228 -97.5t93 -230.5q0 -156 -90 -299q-16 -27 -16 -39q0 -20 26 -20h48q78 0 77 -76q0 -78 -77 -78h-1063q-74 0 -74 74 q0 80 80 80q55 0 55 65l2 303l-289 -172q96 -96 97 -237q0 -135 -105 -254q-121 -135 -297 -135q-188 0 -319 135q-137 139 -138 344zM174 203q0 -139 89 -232.5t214 -93.5q109 0 182 82q66 72 66 154t-55.5 133t-122.5 51q-135 0 -135 -113q0 -78 73 -78q35 0 35 35t-39 39 q16 47 80 47q35 0 62.5 -31.5t27.5 -84.5q0 -59 -47 -108.5t-119 -49.5q-86 0 -145 45q-82 59 -82 186t86 199q80 68 203 68q16 0 49 -5l475 314l4 104h-547l-192 -250q-162 -236 -162 -411zM600 956h471v64h-436q-2 -10 -16.5 -31.5t-18.5 -32.5zM659 430q41 -14 82 -45 l330 203v102zM686 1112h389l-20 96q-16 76 -74 76h-266q-10 -100 -29 -172zM1335 154h391q80 41 154 147q80 115 80 211q0 74 -52.5 129t-125.5 55q-61 0 -108.5 -35.5t-47.5 -93.5q0 -92 74 -92q39 0 39 27t-17 26q-20 0 -26 -12q-6 12 -6 27q0 31 23.5 55.5t64.5 24.5 q43 0 73.5 -35t30.5 -86q0 -72 -54 -121t-128 -49q-123 0 -187 106l-178 -147v-137zM1335 358l158 131q-10 41 -10 78v21l-148 -123v-107z" />
<glyph unicode="&#x4d5;" horiz-adv-x="1505" d="M76 274q0 168 114 269q127 111 418 162l-6 61q-137 -27 -248 -27q-131 0 -202 74q-55 57 -56 125q0 45 27 84t74 39q41 0 94 -39q80 -57 106 -70q76 -39 172 -39q74 0 180.5 35t141.5 35q33 0 45 -12q59 16 113 16q90 0 173 -45t78 -45q14 0 51.5 26.5t67.5 26.5 q66 1 66 -73q0 -78 -107 -181q-61 -57 -229 -182q-154 -113 -205 -168q41 -188 254 -188q45 0 104.5 14t86.5 14q68 0 67 -65q0 -47 -61 -88q-88 -59 -256 -60q-84 0 -166 29q-4 -2 -15 -2h-585q-94 0 -180 57q-117 76 -117 217zM360 319l265 220l-4 41q-84 -20 -158 -86 q-88 -78 -103 -175zM365 254q8 -29 34 -55l242 200l-8 76zM444 168q37 -14 64 -14h90q23 0 43 19t18 44l-12 119zM934 539q131 88 133 90q82 69 82 139q0 72 -78 72q-125 0 -137 -301z" />
<glyph unicode="&#x4d6;" horiz-adv-x="1282" d="M37 78q0 76 76 76q61 0 61 59v1012q0 25 -19.5 42t-41.5 17q-76 0 -76 78q0 76 76 76h675q33 0 76 40t76 40q51 0 81 -62.5t56 -124.5q6 -10 60 -74q33 -39 32 -71q0 -23 -20.5 -37t-42.5 -14q-66 0 -151 74.5t-167 74.5h-348v-203h256q39 0 53.5 59.5t57.5 59.5 q45 0 84 -53q33 -53 67 -109q12 -18 64 -61q35 -31 35 -64q0 -49 -58 -49q-41 0 -98 32t-115 32h-346v-396v-241v-137h391q80 41 154 147q80 115 80 211q0 74 -52 129t-126 55q-61 0 -108.5 -35.5t-47.5 -93.5q0 -92 74 -92q39 0 39 27t-17 26q-20 0 -26 -12q-6 12 -6 27 q0 31 23.5 55.5t64.5 24.5q43 0 73.5 -35t30.5 -86q0 -72 -54 -121t-128 -49q-123 0 -207 157q-10 41 -10 78l22 107q35 76 111 121t166 45q135 0 228 -97.5t93 -230.5q0 -156 -90 -299q-16 -27 -16 -39q0 -20 26 -20h48q78 0 77 -76q0 -78 -77 -78h-1063q-76 0 -76 78z M283 1757q0 41 59 41q33 0 55 -20q96 -104 174 -105q82 0 179 109q20 20 51 20q61 0 61 -45q0 -14 -14 -26q-141 -211 -279 -209q-139 2 -274 209q-12 12 -12 26z" />
<glyph unicode="&#x4d7;" horiz-adv-x="917" d="M47 498q0 227 121 362q113 127 283 127q90 0 173 -45t78 -45q14 0 51.5 26.5t67.5 26.5q66 1 66 -73q0 -78 -107 -181q-61 -57 -229 -182q-154 -113 -205 -168q41 -188 254 -188q45 0 104.5 14t86.5 14q68 0 67 -65q0 -47 -61 -88q-88 -59 -256 -60q-205 0 -344 138 q-150 147 -150 387zM162 1311q0 41 59 41q33 0 55 -21q96 -104 175 -104q82 0 178 108q20 20 51 21q61 0 61 -45q0 -15 -14 -27q-141 -211 -278 -209q-139 2 -275 209q-12 12 -12 27zM336 539q131 88 133 90q82 69 82 139q0 72 -78 72q-125 0 -137 -301z" />
<glyph unicode="&#x4d8;" horiz-adv-x="1136" d="M16 640.5q-2 29.5 19 70.5q53 84 188 104q43 4 110.5 -1t172.5 -11q45 -4 92 -5t88 1t74 5t49 7q6 133 -16.5 230.5t-64.5 160t-99 92t-123 27.5q-37 0 -74 -12.5t-65.5 -33t-46 -49t-17.5 -61.5q0 -37 24.5 -58.5t51.5 -21.5q45 0 45 45q0 39 -33 39q14 45 72 45 q43 0 73.5 -32.5t30.5 -73.5q0 -76 -53 -121t-135 -45q-61 0 -116.5 35t-82.5 88l-20 100q0 123 97 201t296 84q160 0 270.5 -80t177 -207t89 -287.5t4.5 -320.5q-14 -123 -46 -230.5t-90.5 -189.5t-147.5 -131t-214 -53q-102 -2 -191.5 38t-152 116.5t-88 185t-0.5 241.5 q-12 10 -58 19q-41 0 -65 27q-23 33 -25 62.5zM304 345q20 -77 58.5 -128t82.5 -77.5t65 -26.5q63 -2 113.5 36.5t85 106.5t54 157t23.5 187q-49 4 -99 6t-91 2t-68.5 -1t-29.5 -1q-53 -2 -108 -22.5t-75 -59.5q-31 -102 -11 -179z" />
<glyph unicode="&#x4d9;" horiz-adv-x="901" d="M35 508q43 66 158 80q35 4 92 0t143 -8q39 -4 59.5 -4.5t32.5 1t21.5 3.5t23.5 6q-20 94 -76.5 154.5t-162.5 60.5q-23 0 -50.5 -4t-54 -10.5t-50.5 -10.5t-36 -4q-68 0 -67 66q0 47 61 88q90 59 256 59q104 0 179 -33.5t145 -103.5q150 -147 149 -387q0 -225 -121 -363 q-113 -123 -282 -127q-84 -2 -146.5 31t-102.5 88t-56.5 125.5t-8.5 146.5q-10 8 -47 15q-35 0 -55 20q-39 49 -4 111zM287 356q-10 -76 5 -123t39.5 -72.5t53.5 -33.5t47 -8q63 0 97 68.5t40 220.5q-66 10 -105.5 11t-41.5 1q-45 -2 -82 -17.5t-53 -46.5z" />
<glyph unicode="&#x4da;" horiz-adv-x="1136" d="M16.5 640q1.5 -30 24.5 -62q25 -27 65 -27q45 -8 58 -19q-25 -133 0.5 -241.5t88 -185t152 -116.5t191.5 -38q125 4 214 53t147.5 131t90 189.5t46.5 230.5q18 160 -4.5 320.5t-89 287.5t-177 207t-270.5 80q-199 -6 -296 -84t-97 -201l20 -100q27 -53 82 -88t117 -35 q82 0 135 45t53 121q0 41 -30.5 73.5t-73.5 32.5q-57 0 -72 -45q33 0 33 -39q0 -45 -45 -45q-27 0 -51.5 21.5t-24.5 58.5q0 33 17.5 61.5t46 49t65.5 33t74 12.5q66 2 123 -27.5t99 -92t64.5 -160t16.5 -230.5q-16 -4 -49 -7t-74 -5t-88 -1t-92 5q-104 6 -172 11t-111 1 q-135 -20 -188 -104q-20 -41 -18.5 -71zM270 1647q0 47 33 78.5t78 31.5q47 0 79 -31.5t32 -78.5q0 -45 -32 -78t-79 -33q-45 0 -78 33t-33 78zM304 345q-20 77 11 179q20 39 74.5 59.5t108.5 22.5q2 0 29.5 1t68.5 1t91 -2t99 -6q-4 -98 -23.5 -187t-54 -157t-85 -106.5 t-113.5 -36.5q-20 0 -64.5 26.5t-83 77.5t-58.5 128zM600 1647q0 45 33 77.5t80 32.5t78.5 -31.5t31.5 -78.5q0 -45 -31.5 -78t-78.5 -33t-80 33t-33 78z" />
<glyph unicode="&#x4db;" horiz-adv-x="901" d="M35 508q43 66 158 80q35 4 92 0t143 -8q39 -4 59.5 -4.5t32.5 1t21.5 3.5t23.5 6q-20 94 -76.5 154.5t-162.5 60.5q-23 0 -50.5 -4t-54 -10.5t-50.5 -10.5t-36 -4q-68 0 -67 66q0 47 61 88q90 59 256 59q104 0 179 -33.5t145 -103.5q150 -147 149 -387q0 -225 -121 -363 q-113 -123 -282 -127q-84 -2 -146.5 31t-102.5 88t-56.5 125.5t-8.5 146.5q-10 8 -47 15q-35 0 -55 20q-39 49 -4 111zM135 1176q0 47 33 78.5t78 31.5q47 0 78.5 -31.5t31.5 -78.5q0 -45 -31.5 -78t-78.5 -33q-45 0 -78 32.5t-33 78.5zM287 356q-10 -76 5 -123t39.5 -72.5 t53.5 -33.5t47 -8q63 0 97 68.5t40 220.5q-66 10 -105.5 11t-41.5 1q-45 -2 -82 -17.5t-53 -46.5zM465 1176q0 45 32.5 77.5t80.5 32.5q47 0 78.5 -31.5t31.5 -78.5q0 -45 -31.5 -78t-78.5 -33t-80 32.5t-33 78.5z" />
<glyph unicode="&#x4dc;" horiz-adv-x="2267" d="M27 1141q0 137 90 233q98 100 252 101q164 0 342 -158q106 -96 284 -326v232q0 25 -20.5 44t-40.5 19q-78 0 -78 78q0 76 78 76h389q78 0 78 -76q0 -78 -78 -78q-20 0 -40.5 -19.5t-20.5 -43.5v-232q178 229 284 326q178 158 342 158q154 0 252 -101q90 -96 90 -233 t-76.5 -211t-195.5 -74q-115 0 -184 64q-63 57 -64 141q0 84 46 132t116 48q59 0 92 -33q23 -25 23 -53q0 -61 -41 -82q-27 37 -58 37q-35 0 -35 -49q0 -61 105 -62q55 0 92 37t37 105q0 80 -54.5 135t-144.5 55q-193 0 -422 -295q37 -55 150 -63l346 -729q41 -88 184 -88 q78 0 78 -76q0 -78 -78 -78l-356 -4l-248 508l-186 383q-59 -84 -94 -127v-483v-60q0 -25 20.5 -44t40.5 -19q78 0 78 -76q0 -78 -78 -78h-389q-78 0 -78 78q0 76 78 76q20 0 40.5 19.5t20.5 43.5v60v483q-35 43 -94 127l-186 -383l-248 -508l-356 4q-78 0 -78 78 q0 76 78 76q143 0 184 88l346 729q113 8 150 63q-229 295 -422 295q-90 0 -144.5 -55t-54.5 -135q0 -68 37 -105t92 -37q104 0 104 62q0 49 -34 49q-31 0 -58 -37q-41 20 -41 82q0 29 23 53q33 33 92 33q70 0 116 -48t46 -132t-64 -141q-70 -63 -184 -64q-119 0 -195.5 74 t-76.5 211zM844 1649q0 47 32.5 78.5t77.5 31.5q47 0 79 -31.5t32 -78.5q0 -45 -32 -78t-79 -33q-45 0 -77.5 33t-32.5 78zM1174 1649q0 45 32.5 77.5t79.5 32.5t79 -31.5t32 -78.5q0 -45 -32 -78t-79 -33t-79.5 33t-32.5 78z" />
<glyph unicode="&#x4dd;" horiz-adv-x="1607" d="M23 80q0 45 17 57.5t41.5 17.5t52.5 14t50 50l127 221q86 -10 142.5 19.5t62.5 89.5q-45 88 -83 147.5t-79 94.5q-23 20 -47 34.5t-44.5 17.5t-34 -9.5t-13.5 -42.5q0 -12 7 -23.5t18 -11.5q10 0 18 9t12 21q27 -6 42.5 -26.5t15.5 -36.5q0 -23 -26 -53.5t-73 -30.5 q-31 0 -59.5 12.5t-51 33t-36.5 48t-14 58.5q0 35 14 67.5t39.5 57t63.5 38t87 13.5q55 0 98.5 -27t88.5 -80t97 -135t130 -193v218q0 37 -21.5 47t-47 17t-47 20.5t-21.5 56.5q0 76 78 76h344q78 0 78 -76q0 -43 -21.5 -56.5t-47.5 -20.5t-47.5 -17.5t-21.5 -46.5v-218 q76 111 132.5 193t104.5 135t94 80t101 27q49 0 87 -13.5t64 -38t40 -57.5t14 -67q0 -31 -14 -58.5t-36.5 -48t-51.5 -33t-60 -12.5q-47 0 -72.5 30.5t-25.5 53.5q0 16 15.5 36.5t42.5 26.5q4 -12 12 -21t18 -9t17.5 11t7.5 24q0 31 -16.5 42t-41 8t-53 -17.5t-51.5 -35.5 q-41 -35 -83 -92t-75 -143q6 -59 58.5 -90t138.5 -21l127 -221q23 -41 52.5 -51t55 -15t44 -17.5t18.5 -57.5q0 -78 -78 -78h-264l-256 418q-20 -29 -36.5 -52.5t-27.5 -41.5l-2 -107q0 -37 21.5 -48t47.5 -17.5t48.5 -19.5t22.5 -54q0 -78 -78 -78h-346h-2q-78 0 -78 78 q0 41 22.5 54t48 19.5t47 17.5t21.5 48l-2 107q-10 18 -26.5 41.5t-36.5 52.5l-256 -418h-265q-78 0 -77 78zM504 1169q0 47 32.5 79t77.5 32q47 0 79 -32t32 -79q0 -45 -31.5 -77.5t-79.5 -32.5q-45 0 -77.5 32.5t-32.5 77.5zM834 1169q0 45 32.5 78t79.5 33t79 -32t32 -79 q0 -45 -32 -77.5t-79 -32.5t-79.5 32.5t-32.5 77.5z" />
<glyph unicode="&#x4de;" horiz-adv-x="1159" d="M33 420q0 74 23.5 134t67.5 102t104.5 65.5t133.5 23.5q70 0 128.5 -20t99.5 -58t63.5 -89.5t22.5 -112.5l-21 -100q-27 -53 -82 -88t-116 -35q-82 0 -135.5 45t-53.5 121q0 41 31 73.5t74 32.5q57 0 71 -45q-33 0 -32 -39q0 -45 45 -45q27 0 51 21.5t24 58.5 q0 66 -47 101.5t-123 35.5q-86 0 -136 -50t-50 -132q0 -59 31 -109.5t81 -86.5t116.5 -56.5t138.5 -20.5q123 -2 201.5 75t103.5 194q12 63 8 127.5t-27.5 118t-64.5 87t-100 33.5q-14 0 -36 -1t-46.5 -1t-49 -1t-43.5 -1q-84 16 -69 92q8 45 45 60.5t80 16.5t78.5 -3 t40.5 0q41 29 60 88.5t19 122.5q0 82 -44 136.5t-117 54.5q-41 0 -69 -7.5t-49.5 -25t-39.5 -46t-39 -69.5q-6 -27 -12 -55.5t-16.5 -53t-25 -40t-36.5 -15.5q-20 0 -32.5 14.5t-19.5 38t-13.5 51t-12.5 56.5q-2 2 -19.5 29.5t-39 61.5t-39 66.5t-17.5 47.5q0 23 16.5 43 t37.5 20q10 0 28.5 -11t40 -24.5t42 -24.5t34.5 -11q2 0 26.5 13t65.5 30.5t95.5 32t117.5 16.5q80 0 152.5 -23.5t126 -63.5t85 -94.5t31.5 -117.5q0 -78 -37.5 -158t-113.5 -137q121 -53 188.5 -139t85 -183.5t-13.5 -198t-105.5 -181.5t-191 -132t-270.5 -51 q-104 0 -196.5 31t-162 85t-110.5 131t-41 169zM322 1647q0 47 32.5 78.5t77.5 31.5q47 0 79 -31.5t32 -78.5q0 -45 -32 -78t-79 -33q-45 0 -77.5 33t-32.5 78zM651 1647q0 45 33 77.5t80 32.5t78.5 -31.5t31.5 -78.5q0 -45 -31.5 -78t-78.5 -33t-80 33t-33 78z" />
<glyph unicode="&#x4df;" horiz-adv-x="978" d="M29 272q0 76 51 129q57 61 158 62q88 0 141 -55q39 -41 39 -95q0 -45 -31 -84t-72 -39q-59 0 -79 46q47 0 47 49q0 47 -52 47q-25 0 -46 -25.5t-21 -54.5q0 -39 26.5 -67.5t67.5 -47t91 -26t98.5 -4t88 17.5t60.5 39q49 53 59.5 111.5t-10 107.5t-69 83t-115.5 38 q-23 2 -42.5 -1t-49.5 -3q-35 6 -50.5 28.5t-9.5 44.5q4 25 24.5 35t47.5 15q37 4 56.5 -0.5t23.5 0.5q63 18 87.5 57t18.5 79t-40.5 67.5t-86.5 25.5q-68 -4 -100 -47q-12 -23 -22.5 -45.5t-23.5 -43t-29.5 -32.5t-39.5 -12q-35 0 -47 33l-20 59q-16 14 -30.5 28.5 t-31.5 28.5q-45 39 -45 82q0 57 53 58q20 0 60 -23q33 -20 47 -20q37 0 74 10t75.5 22.5t78.5 24.5t83 16q55 6 121 -5t119 -68q18 -18 30.5 -59.5t4 -88.5t-41 -92t-104.5 -72h-26q94 -8 153.5 -41t93 -78t47 -94t13.5 -90q0 -158 -133 -248q-31 -20 -75 -34.5t-94 -24.5 t-102.5 -15.5t-97.5 -5.5q-154 0 -262 60q-139 78 -139 237zM168 1174q0 47 32.5 78.5t78.5 31.5q47 0 78.5 -31.5t31.5 -78.5q0 -45 -31.5 -78t-78.5 -33q-45 0 -78 32.5t-33 78.5zM498 1174q0 45 32.5 77.5t79.5 32.5t79 -31.5t32 -78.5q0 -45 -32 -78t-79 -33t-79.5 32.5 t-32.5 78.5z" />
<glyph unicode="&#x4e2;" horiz-adv-x="1388" d="M14 78q0 76 76 76q20 0 41 19.5t21 43.5v1004q0 25 -20.5 44t-41.5 19q-76 0 -76 78q0 76 76 76h389q78 0 78 -76q0 -78 -78 -78q-20 0 -40.5 -19.5t-20.5 -43.5v-693l528 709q-4 18 -20 35q-20 20 -41 20q-76 0 -76 78q0 76 76 76h389q78 0 78 -76q0 -78 -78 -78 q-20 0 -41 -19.5t-21 -43.5v-1004q0 -25 20.5 -44t41.5 -19q78 0 78 -76q0 -78 -78 -78h-389q-76 0 -76 78q0 76 76 76q20 0 40.5 19.5t20.5 43.5v733l-528 -741q0 -25 20.5 -44t40.5 -19q78 0 78 -76q0 -78 -78 -78h-389q-76 0 -76 78zM352 1612q0 76 76 76h383h109 q78 0 77 -76q0 -78 -77 -78h-109h-383q-76 0 -76 78z" />
<glyph unicode="&#x4e3;" horiz-adv-x="964" d="M27 911q0 49 55 50h84q76 0 132 -61.5t56 -143.5l2 -434q0 -109 95 -109q111 0 110 147v125v258q0 25 -20.5 44.5t-40.5 19.5q-76 0 -76 78q0 76 76 76h346q78 0 78 -76q0 -78 -78 -78q-20 0 -41 -19.5t-21 -44.5v-528q0 -25 20.5 -44t41.5 -19q78 0 78 -76 q0 -78 -78 -78h-285v100q-86 -104 -217 -104q-92 0 -149 63q-63 68 -64 183v503q0 59 -52 97.5t-52 70.5zM131 1202q0 76 76 76h383h108q78 0 78 -76q0 -78 -78 -78h-108h-383q-76 0 -76 78z" />
<glyph unicode="&#x4e4;" horiz-adv-x="1388" d="M14 78q0 76 76 76q20 0 41 19.5t21 43.5v1004q0 25 -20.5 44t-41.5 19q-76 0 -76 78q0 76 76 76h389q78 0 78 -76q0 -78 -78 -78q-20 0 -40.5 -19.5t-20.5 -43.5v-693l528 709q-4 18 -20 35q-20 20 -41 20q-76 0 -76 78q0 76 76 76h389q78 0 78 -76q0 -78 -78 -78 q-20 0 -41 -19.5t-21 -43.5v-1004q0 -25 20.5 -44t41.5 -19q78 0 78 -76q0 -78 -78 -78h-389q-76 0 -76 78q0 76 76 76q20 0 40.5 19.5t20.5 43.5v733l-528 -741q0 -25 20.5 -44t40.5 -19q78 0 78 -76q0 -78 -78 -78h-389q-76 0 -76 78zM379 1642q0 47 32.5 79t77.5 32 q47 0 79 -32t32 -79q0 -45 -31.5 -77.5t-79.5 -32.5q-45 0 -77.5 32.5t-32.5 77.5zM709 1642q0 45 32.5 78t79.5 33t79 -32t32 -79q0 -45 -32 -77.5t-79 -32.5t-79.5 32.5t-32.5 77.5z" />
<glyph unicode="&#x4e5;" horiz-adv-x="964" d="M27 911q0 49 55 50h84q76 0 132 -61.5t56 -143.5l2 -434q0 -109 95 -109q111 0 110 147v125v258q0 25 -20.5 44.5t-40.5 19.5q-76 0 -76 78q0 76 76 76h346q78 0 78 -76q0 -78 -78 -78q-20 0 -41 -19.5t-21 -44.5v-528q0 -25 20.5 -44t41.5 -19q78 0 78 -76 q0 -78 -78 -78h-285v100q-86 -104 -217 -104q-92 0 -149 63q-63 68 -64 183v503q0 59 -52 97.5t-52 70.5zM168 1190q0 47 32.5 78.5t78.5 31.5q47 0 78.5 -31.5t31.5 -78.5q0 -45 -31.5 -78t-78.5 -33q-45 0 -78 33t-33 78zM498 1190q0 45 32.5 77.5t79.5 32.5t79 -31.5 t32 -78.5q0 -45 -32 -78t-79 -33t-79.5 33t-32.5 78z" />
<glyph unicode="&#x4e6;" horiz-adv-x="1327" d="M57 719q0 313 179.5 534.5t431.5 221.5t432 -221.5t180 -534.5t-180 -534.5t-432 -221.5t-431.5 221.5t-179.5 534.5zM381 719q0 -14 2 -43q0 -29 0 -8l526 419q-84 244 -241 244q-123 0 -205 -178t-82 -434zM387 1647q0 47 33 78.5t78 31.5q47 0 78.5 -31.5t31.5 -78.5 q0 -45 -31.5 -78t-78.5 -33q-45 0 -78 33t-33 78zM389 571q6 -47 17 -110l536 432q-8 51 -18 106zM420 373q82 -266 248 -267q123 0 204.5 178.5t81.5 434.5q0 39 -4 80zM717 1647q0 45 32.5 77.5t79.5 32.5t79 -31.5t32 -78.5q0 -45 -31.5 -78t-79.5 -33q-47 0 -79.5 33 t-32.5 78z" />
<glyph unicode="&#x4e7;" d="M43 477q0 209 131 356.5t315 147.5t315.5 -147.5t131.5 -356.5t-131 -357.5t-316 -148.5q-184 0 -315 148.5t-131 357.5zM207 1180q0 47 32.5 78.5t77.5 31.5q47 0 79 -31.5t32 -78.5q0 -45 -31.5 -78t-79.5 -33q-45 0 -77.5 33t-32.5 78zM324 477l6 -88q1 -31 30 -137 q47 -127 129 -127q72 0 119 102.5t47 249.5l-4 80q-8 57 -30 139q-49 133 -132 133q-72 0 -118.5 -102t-46.5 -250zM537 1180q0 45 32.5 77.5t79.5 32.5t79 -31.5t32 -78.5q0 -45 -32 -78t-79 -33t-79.5 33t-32.5 78z" />
<glyph unicode="&#x4e8;" horiz-adv-x="1327" d="M57 719q0 313 179 534q180 221 432 222q250 0 432 -222q180 -219 180 -534t-180 -535q-182 -221 -432 -221q-252 0 -432 221q-178 221 -179 535zM391 680q0 -61 4 -117.5t11 -101.5q14 -78 41.5 -143.5t62.5 -112.5t76 -73t82 -26q121 0 204 179q76 159 82 395h-563z M395 834h553q-6 78 -23.5 165.5t-50 161.5t-82.5 122t-124 48q-61 0 -116.5 -44t-96.5 -134q-27 -55 -41.5 -140t-18.5 -179z" />
<glyph unicode="&#x4e9;" d="M43 477q0 209 131 356.5t315 147.5t315.5 -147.5t131.5 -356.5t-131 -357.5t-316 -148.5q-184 0 -315 148.5t-131 357.5zM326 432l4 -43q1 -31 30 -137q47 -127 129 -127q72 0 119 102q39 86 45 205h-327zM330 586h315q-8 47 -24 110q-49 133 -132 133q-72 0 -118 -102 q-29 -63 -41 -141z" />
<glyph unicode="&#x4ea;" horiz-adv-x="1327" d="M57 719q0 313 179 534q180 221 432 222q250 0 432 -222q180 -219 180 -534t-180 -535q-182 -221 -432 -221q-252 0 -432 221q-178 221 -179 535zM387 1647q0 47 33 78.5t78 31.5q47 0 78.5 -31.5t31.5 -78.5q0 -45 -31.5 -78t-78.5 -33q-45 0 -78 33t-33 78zM391 680 q0 -61 4 -117.5t11 -101.5q14 -78 41.5 -143.5t62.5 -112.5t76 -73t82 -26q121 0 204 179q76 159 82 395h-563zM395 834h553q-6 78 -23.5 165.5t-50 161.5t-82.5 122t-124 48q-61 0 -116.5 -44t-96.5 -134q-27 -55 -41.5 -140t-18.5 -179zM717 1647q0 45 32.5 77.5 t79.5 32.5t79 -31.5t32 -78.5q0 -45 -31.5 -78t-79.5 -33q-47 0 -79.5 33t-32.5 78z" />
<glyph unicode="&#x4eb;" d="M43 477q0 209 131 356.5t315 147.5t315.5 -147.5t131.5 -356.5t-131 -357.5t-316 -148.5q-184 0 -315 148.5t-131 357.5zM207 1180q0 47 32.5 78.5t77.5 31.5q47 0 79 -31.5t32 -78.5q0 -45 -31.5 -78t-79.5 -33q-45 0 -77.5 33t-32.5 78zM326 432l4 -43q1 -31 30 -137 q47 -127 129 -127q72 0 119 102q39 86 45 205h-327zM330 586h315q-8 47 -24 110q-49 133 -132 133q-72 0 -118 -102q-29 -63 -41 -141zM537 1180q0 45 32.5 77.5t79.5 32.5t79 -31.5t32 -78.5q0 -45 -32 -78t-79 -33t-79.5 33t-32.5 78z" />
<glyph unicode="&#x4ec;" horiz-adv-x="1232" d="M-10 20q0 35 41 41.5t125 6.5q119 0 229.5 53t199.5 140t153.5 195.5t90.5 219.5h-315q-16 -47 -53 -84q-41 -41 -93.5 -66.5t-103.5 -25.5q-45 -6 -65.5 11t-20.5 40.5t22.5 46.5t63.5 27q61 10 89 46t30 88t-14.5 113.5t-45 122t-63.5 115.5t-67 92q-78 88 -110 132 t-32 67q0 27 21.5 44t50.5 17q20 0 31.5 -11t25 -25.5t32.5 -25.5t56 -11q4 0 43 12t90.5 27.5t105.5 27.5t89 12q127 0 233.5 -53t183.5 -146t120 -219t43 -270q0 -150 -57.5 -285t-159 -245.5t-240.5 -191.5t-301 -117q-209 -31 -318.5 -14.5t-109.5 93.5zM309 1647 q0 47 33 78.5t78 31.5q47 0 78.5 -31.5t31.5 -78.5q0 -45 -31.5 -78t-78.5 -33q-45 0 -78 33t-33 78zM436 1098q8 -45 25 -99h389q-18 150 -81.5 239t-168.5 89q-70 0 -117 -42.5t-47 -108.5q-8 -33 0 -78zM506 848q14 -49 18 -94h322q4 23 6 46t2 48h-348zM639 1647 q0 45 33 77.5t80 32.5t78.5 -31.5t31.5 -78.5q0 -45 -31.5 -78t-78.5 -33t-80 33t-33 78z" />
<glyph unicode="&#x4ed;" horiz-adv-x="894" d="M31 926q0 35 4 52t39 17q23 0 35 -11t23 -24.5t24.5 -24.5t38.5 -11q47 16 78.5 25t66.5 17.5t57 8.5q96 0 182.5 -32t151 -91t102 -147.5t37.5 -198.5q0 -121 -55 -222.5t-149.5 -175t-217 -114.5t-258.5 -41q-137 0 -137 65q0 57 53 68q211 35 327 120t147 222h-304 q-23 0 -37 16.5t-13 43t13.5 47t45.5 24.5h315v23q0 125 -55.5 190.5t-161.5 61.5q-51 -2 -92 -35t-41 -101q0 -10 0 -6t1 10.5t1 9.5t0 -10q0 -25 -4 -50t-15.5 -45.5t-31 -34t-49.5 -13.5q-63 0 -64 74q0 18 8 29.5t17.5 20.5t17.5 17.5t8 22.5q0 29 -17.5 54.5t-36.5 50 t-36.5 48t-17.5 50.5zM135 1180q0 47 33 78.5t78 31.5q47 0 78.5 -31.5t31.5 -78.5q0 -45 -31.5 -78t-78.5 -33q-45 0 -78 33t-33 78zM465 1180q0 45 32.5 77.5t80.5 32.5q47 0 78.5 -31.5t31.5 -78.5q0 -45 -31.5 -78t-78.5 -33t-80 33t-33 78z" />
<glyph unicode="&#x4ee;" horiz-adv-x="1308" d="M25 1352q-2 76 75 75h439q78 0 79 -75q4 -78 -75 -78q-16 0 -31.5 -15.5t-13.5 -33.5q0 -6 4 -15l125 -241l217 -418q49 59 107.5 145t107.5 180.5t80.5 188.5t25.5 174q-6 78 -59 130t-150 46q-31 -2 -55 -20.5t-41.5 -45t-25 -57t-0.5 -55.5q14 -76 81 -57q35 6 29 32 q-4 25 -20 21q-16 0 -27 -10q-10 35 9.5 61.5t49.5 34.5q104 20 131 -96q6 -29 2 -56.5t-20 -52.5q-37 -53 -123 -76q-10 -4 -23.5 -4t-27.5 -2q-119 -4 -172 96q-18 31 -31 76q-23 106 45 201q72 94 187 121q117 27 227 -37q59 -35 94 -79t51 -138q12 -74 -13.5 -179.5 t-82.5 -227.5t-140 -251t-186 -249q-41 -49 -98 -113t-126.5 -120t-150.5 -95t-173 -37q-31 0 -65 20.5t-59.5 57.5t-36.5 89t5 114q14 33 37.5 54t46 27.5t38 -3t13.5 -40.5q-4 -66 33 -104.5t80 -38.5q53 2 114.5 44t124.5 122q-35 76 -91 145.5t-124 98.5q-57 23 -95 45 t-38 45q0 33 41 61q43 29 43 54q0 23 -12 40l-209 379q-37 63 -68 64q-76 0 -79 78zM352 1686q0 76 76 75h383h109q78 0 77 -75q0 -78 -77 -78h-109h-383q-76 0 -76 78z" />
<glyph unicode="&#x4ef;" horiz-adv-x="1204" d="M-33 -168q0 100 70 176t166 76q98 0 153 -64q49 -55 50 -126q0 -63 -39 -103q-33 -33 -68 -33q-94 0 -96 56q59 10 59 80q0 47 -59 47q-39 0 -65.5 -33t-26.5 -76q0 -141 182 -141q197 0 299 289q-51 74 -193 131q-115 47 -114 90q0 31 43 61q45 31 45 53q0 20 -11 41 l-206 389q-33 63 -66 64q-78 0 -78 78q0 76 78 76h389q78 0 78 -76q0 -78 -78 -78q-16 0 -31.5 -15.5t-15.5 -33.5q0 -6 4 -15l117 -241l131 -271l184 519q2 20 -12 38.5t-33 18.5q-76 0 -75 78q0 76 75 76h291q78 0 78 -76q0 -78 -78 -78q-20 0 -49 -19.5t-37 -44.5 l-264 -778q-70 -201 -160 -297q-117 -123 -311 -123q-176 0 -260 97q-66 76 -66 188zM291 1202q0 76 76 76h383h108q78 0 78 -76q0 -78 -78 -78h-108h-383q-76 0 -76 78z" />
<glyph unicode="&#x4f0;" horiz-adv-x="1308" d="M25 1352q-2 76 75 75h439q78 0 79 -75q4 -78 -75 -78q-16 0 -31.5 -15.5t-13.5 -33.5q0 -6 4 -15l125 -241l217 -418q49 59 107.5 145t107.5 180.5t80.5 188.5t25.5 174q-6 78 -59 130t-150 46q-31 -2 -55 -20.5t-41.5 -45t-25 -57t-0.5 -55.5q14 -76 81 -57q35 6 29 32 q-4 25 -20 21q-16 0 -27 -10q-10 35 9.5 61.5t49.5 34.5q104 20 131 -96q6 -29 2 -56.5t-20 -52.5q-37 -53 -123 -76q-10 -4 -23.5 -4t-27.5 -2q-119 -4 -172 96q-18 31 -31 76q-23 106 45 201q72 94 187 121q117 27 227 -37q59 -35 94 -79t51 -138q12 -74 -13.5 -179.5 t-82.5 -227.5t-140 -251t-186 -249q-41 -49 -98 -113t-126.5 -120t-150.5 -95t-173 -37q-31 0 -65 20.5t-59.5 57.5t-36.5 89t5 114q14 33 37.5 54t46 27.5t38 -3t13.5 -40.5q-4 -66 33 -104.5t80 -38.5q53 2 114.5 44t124.5 122q-35 76 -91 145.5t-124 98.5q-57 23 -95 45 t-38 45q0 33 41 61q43 29 43 54q0 23 -12 40l-209 379q-37 63 -68 64q-76 0 -79 78zM410 1737q0 47 32.5 78.5t77.5 31.5q47 0 79 -31.5t32 -78.5q0 -45 -32 -78t-79 -33q-45 0 -77.5 33t-32.5 78zM739 1737q0 45 33 77.5t80 32.5t79 -31.5t32 -78.5q0 -45 -32 -78t-79 -33 t-80 33t-33 78z" />
<glyph unicode="&#x4f1;" horiz-adv-x="1204" d="M-33 -168q0 100 70 176t166 76q98 0 153 -64q49 -55 50 -126q0 -63 -39 -103q-33 -33 -68 -33q-94 0 -96 56q59 10 59 80q0 47 -59 47q-39 0 -65.5 -33t-26.5 -76q0 -141 182 -141q197 0 299 289q-51 74 -193 131q-115 47 -114 90q0 31 43 61q45 31 45 53q0 20 -11 41 l-206 389q-33 63 -66 64q-78 0 -78 78q0 76 78 76h389q78 0 78 -76q0 -78 -78 -78q-16 0 -31.5 -15.5t-15.5 -33.5q0 -6 4 -15l117 -241l131 -271l184 519q2 20 -12 38.5t-33 18.5q-76 0 -75 78q0 76 75 76h291q78 0 78 -76q0 -78 -78 -78q-20 0 -49 -19.5t-37 -44.5 l-264 -778q-70 -201 -160 -297q-117 -123 -311 -123q-176 0 -260 97q-66 76 -66 188zM367 1174q0 47 32.5 78.5t77.5 31.5q47 0 79 -31.5t32 -78.5q0 -45 -32 -78t-79 -33q-45 0 -77.5 32.5t-32.5 78.5zM696 1174q0 45 33 77.5t80 32.5t79 -31.5t32 -78.5q0 -45 -32 -78 t-79 -33t-80 32.5t-33 78.5z" />
<glyph unicode="&#x4f2;" horiz-adv-x="1308" d="M25 1352q-2 76 75 75h439q78 0 79 -75q4 -78 -75 -78q-16 0 -31.5 -15.5t-13.5 -33.5q0 -6 4 -15l125 -241l217 -418q49 59 107.5 145t107.5 180.5t80.5 188.5t25.5 174q-6 78 -59 130t-150 46q-31 -2 -55 -20.5t-41.5 -45t-25 -57t-0.5 -55.5q14 -76 81 -57q35 6 29 32 q-4 25 -20 21q-16 0 -27 -10q-10 35 9.5 61.5t49.5 34.5q104 20 131 -96q6 -29 2 -56.5t-20 -52.5q-37 -53 -123 -76q-10 -4 -23.5 -4t-27.5 -2q-119 -4 -172 96q-18 31 -31 76q-23 106 45 201q72 94 187 121q117 27 227 -37q59 -35 94 -79t51 -138q12 -74 -13.5 -179.5 t-82.5 -227.5t-140 -251t-186 -249q-41 -49 -98 -113t-126.5 -120t-150.5 -95t-173 -37q-31 0 -65 20.5t-59.5 57.5t-36.5 89t5 114q14 33 37.5 54t46 27.5t38 -3t13.5 -40.5q-4 -66 33 -104.5t80 -38.5q53 2 114.5 44t124.5 122q-35 76 -91 145.5t-124 98.5q-57 23 -95 45 t-38 45q0 33 41 61q43 29 43 54q0 23 -12 40l-209 379q-37 63 -68 64q-76 0 -79 78zM367 1612q0 23 20 43l203 248q14 14 37 14q35 0 67.5 -33t32.5 -67q0 -23 -14 -37l-248 -203q-20 -20 -43 -21q-55 0 -55 56zM719 1606q0 23 20 43l203 247q14 14 37 15q35 0 67.5 -33 t32.5 -68q0 -22 -14 -36l-248 -203q-20 -20 -43 -21q-55 0 -55 56z" />
<glyph unicode="&#x4f3;" horiz-adv-x="1204" d="M-33 -168q0 100 70 176t166 76q98 0 153 -64q49 -55 50 -126q0 -63 -39 -103q-33 -33 -68 -33q-94 0 -96 56q59 10 59 80q0 47 -59 47q-39 0 -65.5 -33t-26.5 -76q0 -141 182 -141q197 0 299 289q-51 74 -193 131q-115 47 -114 90q0 31 43 61q45 31 45 53q0 20 -11 41 l-206 389q-33 63 -66 64q-78 0 -78 78q0 76 78 76h389q78 0 78 -76q0 -78 -78 -78q-16 0 -31.5 -15.5t-15.5 -33.5q0 -6 4 -15l117 -241l131 -271l184 519q2 20 -12 38.5t-33 18.5q-76 0 -75 78q0 76 75 76h291q78 0 78 -76q0 -78 -78 -78q-20 0 -49 -19.5t-37 -44.5 l-264 -778q-70 -201 -160 -297q-117 -123 -311 -123q-176 0 -260 97q-66 76 -66 188zM319 1171q0 23 21 43l203 248q14 14 37 15q35 0 67.5 -33t32.5 -68q0 -23 -14 -37l-248 -202q-20 -20 -43 -21q-55 0 -56 55zM672 1165q0 23 20 43l203 248q14 14 37 14q35 0 67.5 -32.5 t32.5 -67.5q0 -23 -14 -37l-248 -203q-20 -20 -43 -20q-55 0 -55 55z" />
<glyph unicode="&#x4f4;" horiz-adv-x="1374" d="M-2 1298.5q-8 55.5 15.5 106.5t73.5 87t116 40q47 6 95 -5t88 -37t69.5 -62.5t42.5 -81.5q12 -47 9 -91.5t-12.5 -88.5t-20.5 -92t-13 -99q-10 -145 57.5 -225t175.5 -78q72 0 120 27.5t77 75.5t41 114.5t12 144.5v197q-2 16 -20 35q-20 20 -41 20q-76 0 -76 78 q0 76 76 76h389q78 0 78 -76q0 -78 -78 -78q-20 0 -41 -19.5t-21 -43.5v-1004q0 -25 20.5 -44t41.5 -19q78 0 78 -76q0 -78 -78 -78h-389q-76 0 -76 78q0 76 76 76q20 0 39.5 19.5t21.5 43.5l2 412q-53 -57 -132 -87t-163 -35t-163.5 12.5t-135.5 58.5q-66 47 -97.5 101 t-42.5 112.5t-4 120t23 120.5q10 39 27.5 83t29 89t12.5 88t-21 82q-29 33 -61 33t-52.5 -20.5t-23.5 -52t24 -60.5q33 -23 86 -2q2 -27 -15.5 -51.5t-45 -38t-62.5 -11t-70 30.5q-53 39 -61 94.5zM426 1731q0 47 33 78.5t78 31.5q47 0 78.5 -31.5t31.5 -78.5 q0 -45 -31.5 -78t-78.5 -33q-45 0 -78 33t-33 78zM756 1731q0 45 32.5 77.5t79.5 32.5t79 -31.5t32 -78.5q0 -45 -32 -78t-79 -33t-79.5 33t-32.5 78z" />
<glyph unicode="&#x4f5;" horiz-adv-x="1024" d="M20 911q0 49 56 50h84q37 0 70.5 -16.5t60 -45.5t42 -65.5t15.5 -77.5l2 -144q0 -109 94 -108q55 0 100.5 37t45.5 110v92q0 25 -20.5 44.5t-41.5 19.5q-76 0 -75 78q0 76 75 76h346q78 0 78 -76q0 -78 -78 -78q-20 0 -40.5 -19.5t-20.5 -44.5v-528q0 -25 20.5 -44 t40.5 -19q78 0 78 -78q0 -76 -78 -76h-346q-76 0 -75 76q0 78 75 78q20 0 41 19t21 44v174q-43 -53 -115 -78.5t-137 -25.5q-92 0 -150 63q-63 66 -63 182v213q0 59 -53 97q-51 39 -52 71zM217 1174q0 47 33 78.5t78 31.5q47 0 78.5 -31.5t31.5 -78.5q0 -45 -31.5 -78 t-78.5 -33q-45 0 -78 32.5t-33 78.5zM547 1174q0 45 32.5 77.5t79.5 32.5t79 -31.5t32 -78.5q0 -45 -31.5 -78t-79.5 -33q-47 0 -79.5 32.5t-32.5 78.5z" />
<glyph unicode="&#x4f8;" horiz-adv-x="1927" d="M23 938q0 -41 17 -67.5t52 -55.5q64 -49 170 -67v-531q0 -25 -20.5 -44t-40.5 -19q-76 0 -76 -78q0 -76 76 -76h659q113 0 203 45t149.5 118t86 167t12.5 192q-27 188 -132.5 280.5t-265.5 104.5q-78 6 -173 -1t-212 -19v334q0 25 20.5 44t41.5 19q78 0 78 76 q0 78 -78 78h-389q-76 0 -76 -78q0 -76 76 -76q20 0 40.5 -19.5t20.5 -43.5v-349q-96 10 -96 66q0 45 53 61q-14 63 -90 64q-49 0 -80 -43q-27 -35 -26 -82zM528 217v539q72 8 132.5 14t107.5 6q84 0 135 -46t72.5 -115.5t17.5 -151.5t-31.5 -151.5t-75.5 -115.5t-112 -46 h-182q-23 0 -43.5 21.5t-20.5 45.5zM723 1649q0 47 32.5 78.5t78.5 31.5q47 0 78.5 -31.5t31.5 -78.5q0 -45 -31.5 -78t-78.5 -33q-45 0 -78 33t-33 78zM1053 1649q0 45 32.5 77.5t79.5 32.5t79 -31.5t32 -78.5q0 -45 -32 -78t-79 -33t-79.5 33t-32.5 78zM1350 80 q0 76 75 76q20 0 41 19.5t21 43.5v1004q0 25 -20.5 44t-41.5 19q-76 0 -75 78q0 76 75 76h390q78 0 77 -76q0 -78 -77 -78q-20 0 -41 -19.5t-21 -43.5v-1004q0 -25 20.5 -44t41.5 -19q78 0 77 -76q1 -78 -77 -78h-390q-76 0 -75 78z" />
<glyph unicode="&#x4f9;" horiz-adv-x="1533" d="M35 78q0 43 21.5 55t48 18.5t48 15.5t21.5 46l2 522q0 25 -20.5 44.5t-40.5 19.5q-76 0 -76 75q0 78 76 78h346q78 0 78 -78q0 -76 -78 -75q-20 0 -41 -19.5t-21 -44.5v-82q98 -12 179 -17t172 -20h2q78 -14 129 -56t75.5 -98t23.5 -121t-25.5 -124t-71.5 -107.5 t-115 -72.5q-31 -10 -71 -18.5t-111.5 -12.5t-184 -5t-288.5 1q-78 0 -78 76zM397 231q0 -25 20.5 -45t41.5 -20l131 -2q41 2 69.5 21.5t46 50t23.5 67.5t2 74q-6 55 -42 86t-85 47t-104.5 21.5t-102.5 9.5v-248v-62zM485 1178q0 47 33 78.5t78 31.5q47 0 79 -31.5t32 -78.5 q0 -45 -32 -78t-79 -33q-45 0 -78 33t-33 78zM815 1178q0 45 33 77.5t80 32.5t78.5 -31.5t31.5 -78.5q0 -45 -31.5 -78t-78.5 -33t-80 33t-33 78zM997 80q0 76 76 76q20 0 41 19.5t21 43.5v225v304q0 25 -20.5 44t-41.5 19q-76 0 -76 76q0 78 76 78h346q78 0 78 -78 q0 -76 -78 -76q-20 0 -40.5 -19.5t-20.5 -43.5v-529q0 -25 20.5 -44t40.5 -19q78 0 78 -76q0 -78 -78 -78h-346q-76 0 -76 78z" />
<glyph unicode="&#x2000;" horiz-adv-x="958" />
<glyph unicode="&#x2001;" horiz-adv-x="1917" />
<glyph unicode="&#x2002;" horiz-adv-x="958" />
<glyph unicode="&#x2003;" horiz-adv-x="1917" />
<glyph unicode="&#x2004;" horiz-adv-x="639" />
<glyph unicode="&#x2005;" horiz-adv-x="479" />
<glyph unicode="&#x2006;" horiz-adv-x="319" />
<glyph unicode="&#x2007;" horiz-adv-x="319" />
<glyph unicode="&#x2008;" horiz-adv-x="239" />
<glyph unicode="&#x2009;" horiz-adv-x="383" />
<glyph unicode="&#x200a;" horiz-adv-x="106" />
<glyph unicode="&#x2010;" horiz-adv-x="686" d="M78 635q0 76 76 76h389q78 0 78 -76q0 -78 -78 -78h-389q-76 0 -76 78z" />
<glyph unicode="&#x2011;" horiz-adv-x="686" d="M78 635q0 76 76 76h389q78 0 78 -76q0 -78 -78 -78h-389q-76 0 -76 78z" />
<glyph unicode="&#x2012;" horiz-adv-x="686" d="M78 635q0 76 76 76h389q78 0 78 -76q0 -78 -78 -78h-389q-76 0 -76 78z" />
<glyph unicode="&#x2013;" horiz-adv-x="686" d="M35 635q0 76 76 76h475q78 0 78 -76q0 -78 -78 -78h-475q-76 0 -76 78z" />
<glyph unicode="&#x2014;" horiz-adv-x="1253" d="M35 635q0 76 76 76h1022q78 0 77 -76q1 -78 -77 -78h-1022q-76 0 -76 78z" />
<glyph unicode="&#x2018;" horiz-adv-x="610" d="M143 1049q0 96 43 186q61 125 193 197q16 8 31 8q27 0 45 -19.5t18 -44.5q0 -33 -33 -51q-80 -43 -123 -115q63 -4 108.5 -51t45.5 -110q0 -68 -48 -116t-116 -48t-116 48t-48 116z" />
<glyph unicode="&#x2019;" horiz-adv-x="610" d="M147 942q0 33 33 51q80 43 123 115q-63 4 -108 51t-45 111q0 68 48 116t115 48q68 0 116 -48t48 -116q0 -96 -43 -187q-61 -125 -192 -196q-16 -8 -31 -8q-27 0 -45.5 19.5t-18.5 43.5z" />
<glyph unicode="&#x201a;" horiz-adv-x="610" d="M147 -190q0 33 33 51q80 43 123 114q-63 4 -108 51.5t-45 110.5q0 68 48 116t115 48q68 0 116 -48t48 -116q0 -96 -43 -186q-61 -125 -192 -197q-16 -8 -31 -8q-27 0 -45.5 19.5t-18.5 44.5z" />
<glyph unicode="&#x201c;" horiz-adv-x="1007" d="M143 1049q0 96 43 186q61 125 193 197q16 8 31 8q27 0 45 -19.5t18 -44.5q0 -33 -33 -51q-80 -43 -123 -115q63 -4 108.5 -51t45.5 -110q0 -68 -48 -116t-116 -48t-116 48t-48 116zM565 1049q0 96 43 186q61 125 193 197q16 8 30 8q27 0 45.5 -19.5t18.5 -44.5 q0 -33 -33 -51q-80 -43 -123 -115q63 -4 108.5 -51t45.5 -110q0 -68 -48 -116t-116 -48t-116 48t-48 116z" />
<glyph unicode="&#x201d;" horiz-adv-x="995" d="M147 942q0 33 33 51q80 43 123 115q-63 4 -108 51t-45 111q0 68 48 116t115 48q68 0 116 -48t48 -116q0 -96 -43 -187q-61 -125 -192 -196q-16 -8 -31 -8q-27 0 -45.5 19.5t-18.5 43.5zM547 942q0 33 33 51q80 43 122 115q-63 4 -108 51t-45 111q0 68 48 116t116 48 t116 -48t48 -116q0 -96 -43 -187q-61 -125 -193 -196q-16 -8 -31 -8q-27 0 -45 19.5t-18 43.5z" />
<glyph unicode="&#x201e;" horiz-adv-x="1032" d="M147 -190q0 33 33 51q80 43 123 114q-63 4 -108 51.5t-45 110.5q0 68 48 116t115 48q68 0 116 -48t48 -116q0 -96 -43 -186q-61 -125 -192 -197q-16 -8 -31 -8q-27 0 -45.5 19.5t-18.5 44.5zM563 -190q0 33 33 51q80 43 123 114q-63 4 -108.5 51.5t-45.5 110.5 q0 68 48.5 116t115.5 48q68 0 116 -48t48 -116q0 -96 -43 -186q-61 -125 -193 -197q-16 -8 -30 -8q-27 0 -45.5 19.5t-18.5 44.5z" />
<glyph unicode="&#x2020;" d="M68 979q0 102 98 102q43 0 117 -32q55 -31 155 -39q0 129 -36.5 215t-36.5 125q0 45 32.5 77.5t77.5 32.5q43 0 77 -32.5t34 -77.5q0 -43 -37 -151.5t-37 -188.5q84 6 154.5 38.5t115.5 32.5q101 0 101 -102q0 -106 -101 -107q-43 0 -115.5 31t-154.5 41q0 -276 88 -360 q-33 -68 -57 -226q-25 -168 -27 -350l-2 -272l-70 8l-6 264q-4 176 -32 350q-25 158 -56 226q88 86 88 360q-94 -12 -155 -41q-68 -31 -117 -31q-98 0 -98 107z" />
<glyph unicode="&#x2021;" horiz-adv-x="1064" d="M113 223q0 104 98 105q39 0 127 -31q98 -33 145 -39q0 113 -8 170q-16 119 -78 174q57 72 78 197q10 63 10 153q-94 -12 -155 -41q-68 -31 -117 -30q-98 0 -98 106q0 102 98 103q43 0 117 -33q55 -31 155 -39q0 129 -36.5 215t-36.5 125q0 45 32.5 77.5t77.5 32.5 q43 0 77 -32.5t34 -77.5q0 -43 -37 -151.5t-37 -188.5q84 6 154.5 39t115.5 33q101 -1 101 -103q0 -106 -101 -106q-43 0 -115.5 30.5t-154.5 40.5q0 -125 10 -184q18 -100 78 -166q-63 -63 -82 -182q-8 -53 -8 -162q41 6 141 39q90 31 129 31q100 0 101 -105q0 -51 -35 -80 q-27 -25 -66 -24q-41 0 -113.5 33.5t-156.5 40.5q0 -78 37 -187.5t37 -152.5q0 -45 -34 -79t-77 -34q-45 0 -77.5 33.5t-32.5 79.5q0 39 36.5 124.5t36.5 215.5q-92 -8 -155 -39q-70 -35 -117 -35q-37 0 -67.5 26.5t-30.5 77.5z" />
<glyph unicode="&#x2022;" horiz-adv-x="688" d="M92 664q0 115 74 197.5t176 82.5t176 -82.5t74 -197.5q0 -117 -74 -200t-176 -83t-176 83t-74 200z" />
<glyph unicode="&#x2026;" horiz-adv-x="1628" d="M150 137q0 68 48 116t115 48q68 0 116 -48t48 -116t-48 -115t-116 -47t-115.5 47.5t-47.5 114.5zM666 137q0 68 48 116t115 48q68 0 116 -48t48 -116t-48 -115t-116 -47t-115.5 47.5t-47.5 114.5zM1182 137q0 68 48 116t116 48t115.5 -48t47.5 -116t-48 -115t-115 -47 q-68 0 -116 47.5t-48 114.5z" />
<glyph unicode="&#x202f;" horiz-adv-x="383" />
<glyph unicode="&#x2030;" horiz-adv-x="2078" d="M63 981q0 137 86.5 233.5t206.5 96.5q133 0 224 -117q63 -47 141 -47q92 0 153 80l21 51q16 39 57 39q66 0 66 -62q0 -12 -6 -26l-490 -1200q-16 -41 -57 -41q-68 0 -68 61q0 12 6 27l390 952q-41 -10 -72 -10q-29 0 -74 4q2 -12 2 -41q0 -137 -86 -235.5t-207 -98.5 t-207 98.5t-86 235.5zM254 975q0 -231 106 -232q107 0 107 240q0 227 -111 227q-102 0 -102 -235zM752 328q0 137 86 233t206 96q121 0 207 -96t86 -233t-86 -235.5t-207 -98.5t-206.5 97t-85.5 237zM940 324q0 -233 107 -234q108 0 108 240q0 229 -111 229 q-104 0 -104 -235zM1397 328q0 137 86 233t207 96t206.5 -96t85.5 -233t-86 -235.5t-206 -98.5q-121 0 -207 97t-86 237zM1585 324q0 -233 107 -234q108 0 108 240q0 229 -110 229q-104 0 -105 -235z" />
<glyph unicode="&#x2039;" horiz-adv-x="565" d="M82 618q0 18 24 37l304 224q14 10 28 10q43 0 43 -45q0 -23 -16 -39l-174 -187l174 -186q16 -16 16 -37q0 -45 -43 -45q-14 0 -28 10l-304 222q-25 18 -24 36z" />
<glyph unicode="&#x203a;" horiz-adv-x="565" d="M80 395q0 20 16 37l174 186l-174 187q-16 16 -16 39q0 45 43 45q14 0 29 -10l303 -224q25 -18 24 -37q1 -18 -24 -36l-303 -222q-14 -10 -29 -10q-43 0 -43 45z" />
<glyph unicode="&#x2044;" horiz-adv-x="700" d="M47 49q0 12 6 27l492 1202q16 41 57 41q66 0 66 -64q0 -12 -6 -26l-490 -1200q-16 -41 -57 -41q-68 0 -68 61z" />
<glyph unicode="&#x205f;" horiz-adv-x="479" />
<glyph unicode="&#x2116;" horiz-adv-x="2023" d="M47 418q0 178 83 485t83 318q0 63 -61 63q-76 0 -76 78q0 76 76 76h438q41 -92 94 -135l395 -316v234q0 25 -20.5 44t-40.5 19q-76 0 -76 78q0 76 76 76h268q78 0 78 -76q0 -78 -78 -78q-20 0 -40.5 -19.5t-20.5 -43.5v-1192q0 -72 -72 -72q-74 0 -74 72v618l-188 148 l-506 397q-53 -152 -104 -303q-76 -240 -88 -410q-2 -123 32 -235q61 -131 181 -131q29 0 80 66.5t106 66.5q104 0 104 -121q0 -92 -88 -141q-78 -43 -186 -35q-162 12 -272 162q-102 139 -103 307zM1372 948q0 137 86 233.5t207 96.5t207 -96.5t86 -233.5t-86 -235.5 t-207 -98.5t-207 97.5t-86 236.5zM1405 473q0 76 76 76h389q78 0 78 -76q0 -78 -78 -78h-389q-76 0 -76 78zM1561 944q0 -233 106 -233q109 -1 109 239q0 229 -111 230q-104 0 -104 -236z" />
<glyph unicode="&#x2122;" horiz-adv-x="1085" d="M53 1227q0 35 33 35q10 0 24.5 -10.5t20.5 -10.5q8 0 12 4v47q0 31 -30.5 46.5t-30.5 31.5q0 29 49 41q70 16 72 19q10 4 45 34q29 25 49 25q31 0 31 -33q0 -18 -37 -56t-37 -71v-53q20 4 29 4q59 0 59 -49q0 -37 -31 -37q-10 0 -22.5 11.5t-18.5 11.5h-14v-267 q0 -31 27 -30q10 0 24.5 30.5t36.5 30.5q35 0 35 -37q0 -31 -40 -76t-40 -80q-156 -10 -156 93v309q-18 -8 -37 -8q-53 0 -53 45zM397 831q0 37 33 37t33 33v252q0 31 -33 31t-33 39q0 37 35 37h137v-50q51 51 107 52q66 0 90 -64q55 63 115 64q102 0 102 -119v-248 q0 -29 26.5 -49.5t26.5 -34.5q0 -25 -26 -25h-43q-37 0 -62.5 31t-25.5 68v114l-103 -81v-17q0 -27 25.5 -47t25.5 -37q0 -23 -26 -22h-39q-39 0 -65.5 29.5t-26.5 70.5v104l-101 -81v-17q0 -33 34 -33t34 -37t-37 -36h-168q-35 0 -35 36zM569 950l101 80v41l-101 -80v-41z M569 1024l99 80q0 51 -45 51q-53 0 -54 -72v-59zM776 950l103 80v41l-103 -80v-41zM776 1024l101 80q0 51 -46 51q-55 0 -55 -72v-59z" />
<glyph unicode="&#x2126;" horiz-adv-x="1433" d="M94 -2v348h31q0 -68 24.5 -99.5t94.5 -31.5l272 -2l2 55q-92 18 -225 131q-154 131 -154 410q0 268 161 434t421 162q254 -4 397 -143q176 -172 176 -453q0 -217 -112 -360q-119 -150 -273 -177l-2 -65h258q84 0 105 29q29 39 28 108h33v-346h-522l37 324 q141 63 195.5 186t54.5 321q0 201 -80 351q-84 158 -293 159q-123 2 -197.5 -43t-126.5 -149q-66 -131 -63 -352q2 -184 63 -308q57 -115 185 -168l30 -321h-520z" />
<glyph unicode="&#x2202;" horiz-adv-x="1050" d="M57 526q0 215 107 373q119 172 309 172q80 0 80 -55q0 -27 -53 -70q-70 -53 -103 -108q-53 -92 -53 -244q0 -174 41 -301q49 -156 143 -156q84 0 127 113q33 90 33 221q0 420 -137 639q-90 141 -254 209q-137 57 -137 84q0 66 121 65q303 0 512 -268q196 -256 196 -594 q0 -250 -112 -422q-129 -195 -353 -194q-201 0 -336 166q-131 158 -131 370z" />
<glyph unicode="&#x2206;" horiz-adv-x="1323" d="M119 -2l561 1401l491 -1401h-1052zM233 96h730l-347 961z" />
<glyph unicode="&#x220f;" horiz-adv-x="1146" d="M63 -2v41q74 0 113 37q23 20 23 112v938q0 8 2 31v37q0 109 -39 156q-33 41 -99 41v45h988v-43q-49 0 -84 -41q-51 -59 -52 -228v-882q0 -139 29 -168q41 -41 111 -41v-35h-424v39q78 0 104 35q29 25 29 104v1157h-414v-1067q0 -150 27 -184q33 -43 112 -43v-41h-426z " />
<glyph unicode="&#x2211;" horiz-adv-x="1116" d="M12 1438q20 0 62 -4h833v-283h-35q-6 80 -54 138.5t-224 58.5h-328l402 -621l-428 -573h522q102 0 135 36q68 76 88 164l31 -8q-10 -57 -39 -182q-10 -90 -27 -203q-14 8 -51 16.5t-133 8.5h-748l502 673z" />
<glyph unicode="&#x2212;" horiz-adv-x="768" d="M78 635q0 76 76 76h471q78 0 77 -76q1 -78 -77 -78h-471q-76 0 -76 78z" />
<glyph unicode="&#x221a;" horiz-adv-x="856" d="M39 594l162 156l186 -344l410 1226l24 -14l-426 -1686l-223 680z" />
<glyph unicode="&#x221e;" horiz-adv-x="1157" d="M88 627q8 84 74.5 144t156.5 60q51 0 103 -22q63 -29 174 -111q92 82 158 111q49 23 102 22q90 0 156.5 -60t74.5 -144q8 -98 -63 -181q-76 -88 -184 -81q-98 6 -219 100q-6 10 -29 35l-43 -35q-119 -94 -217 -100q-109 -6 -182 81q-70 82 -62 181zM238 592 q2 -33 26.5 -57.5t57.5 -24.5q12 0 24 4q68 16 146 84q-47 33 -125 76q-25 8 -45 8q-41 0 -63.5 -28.5t-20.5 -61.5zM686 600q80 -72 139 -86q12 -4 25 -4q35 0 60.5 24.5t27.5 57.5t-20.5 61.5t-63.5 28.5q-20 0 -45 -8t-123 -74z" />
<glyph unicode="&#x222b;" horiz-adv-x="460" d="M-70 -227q0 39 25 66.5t59 27.5q27 0 53.5 -22.5t43.5 -24.5q23 10 28 88q2 23 2 67v70q-2 47 -2 74q0 39 -5 102.5t-5 104.5v499q0 145 18 334q12 125 54.5 213t115.5 90q132 4 132 -119q-14 -78 -111 -77q-20 2 -41 18q-27 16 -33 16h-6q-16 -10 -14 -67 q10 -102 22 -301l2 -150v-448q0 -162 -10 -236q-12 -92 -25 -184q-18 -115 -53 -176q-43 -78 -147 -74q-41 2 -72 37t-31 72z" />
<glyph unicode="&#x2248;" horiz-adv-x="686" d="M68 459q4 57 59 108t125 47q53 -4 121 -47q59 -37 86 -32q45 8 47 20q6 57 57 57q55 0 55 -61q0 -59 -54 -106.5t-128 -45.5q-61 2 -117 41q-63 45 -96 37q-41 0 -43 -26q-4 -55 -57 -56q-61 0 -55 64zM68 725q4 57 59 108.5t125 47.5q53 -4 121 -47q59 -37 86 -33 q45 8 47 20q6 57 57 58q55 -1 55 -62q0 -59 -54 -106t-128 -45q-61 2 -117 41q-63 45 -96 36q-41 0 -43 -26q-4 -55 -57 -55q-61 0 -55 63z" />
<glyph unicode="&#x2260;" horiz-adv-x="761" d="M78 516q0 76 76 76h149l33 78h-182q-76 0 -76 78q0 76 76 75h247l70 162q16 39 57 39q66 0 66 -59q0 -14 -6 -29l-49 -113h71q78 0 78 -75q0 -78 -78 -78h-137l-33 -78h170q78 0 78 -76q0 -78 -78 -78h-235l-72 -170q-16 -41 -59 -41q-66 0 -66 62q0 12 6 26 q27 61 52 123h-82q-76 0 -76 78z" />
<glyph unicode="&#x2264;" horiz-adv-x="819" d="M88 119q0 76 76 76h512q78 0 78 -76q0 -78 -78 -78h-512q-76 0 -76 78zM96 674q0 31 37 57l483 354q20 16 46 17q29 0 50 -22.5t21 -53.5q0 -33 -31 -55l-405 -297l405 -295q31 -23 31 -55q0 -29 -21.5 -51.5t-52.5 -22.5q-23 0 -43 14l-483 352q-37 27 -37 58z" />
<glyph unicode="&#x2265;" horiz-adv-x="819" d="M84 119q0 76 76 76h512q78 0 78 -76q0 -78 -78 -78h-512q-76 0 -76 78zM102 324q0 33 31 55l406 295l-406 297q-31 23 -31 55q0 31 21.5 53.5t50.5 22.5q25 0 45 -17l483 -354q37 -27 37 -57q0 -31 -37 -58l-483 -352q-20 -14 -43 -14q-31 0 -52.5 22.5t-21.5 51.5z" />
<glyph unicode="&#x25ca;" horiz-adv-x="880" d="M106 723l263 707h110l264 -705l-268 -723h-108zM225 723l201 -537l195 539l-197 530z" />
<glyph unicode="&#x25fc;" horiz-adv-x="962" d="M0 0v963h963v-963h-963z" />
<glyph unicode="&#xf000;" horiz-adv-x="1329" d="M86 633q0 123 51 205q129 209 328 198q39 -2 139 -32q33 -8 53 -17q49 -6 39 -6q29 0 86 23q98 39 164 38q141 0 268 -141q-53 -25 -104 -102q-55 -86 -55 -164q0 -125 80 -213q51 -55 110 -80q-164 -354 -311 -367q-39 -4 -92 15q-43 16 -88 33q-41 8 -60 8 q-29 0 -104.5 -29t-120.5 -29q-154 2 -307 330q-76 160 -76 330zM690 1024q0 119 62 209q39 57 114 92q60 29 99 29q16 -139 -63 -225.5t-212 -104.5z" />
<glyph unicode="&#xf001;" horiz-adv-x="1107" d="M-4 899q0 70 70 70q18 0 48.5 -18.5t47.5 -18.5q18 0 26 2q-4 70 -58 159t-54 146q0 92 60.5 153.5t148.5 61.5q68 0 111.5 -31.5t52.5 -31.5q18 0 37.5 23.5t37.5 23.5q45 0 45 -66q0 -41 -30.5 -84t-30.5 -55q0 -18 13.5 -42t13.5 -34q0 -43 -62 -43q-57 0 -72 57 q-8 51 -16 105q-14 57 -68 57q-59 0 -59 -71q0 -31 72 -113q74 -88 84 -150q45 8 63 9q49 0 101.5 -22.5t123.5 -22.5h248v-746q0 -25 20.5 -44t41.5 -19q78 0 78 -76q0 -78 -78 -78h-346q-76 0 -76 78q0 76 76 76q20 0 40.5 19.5t20.5 43.5v551q0 18 -74 31q-96 16 -129 32 q-8 4 -39 29q-20 16 -39 17q-20 0 -30 -3v-669q0 -25 20.5 -44.5t40.5 -19.5q78 0 78 -71q0 -72 -80 -86q-41 -14 -143 -78q-51 -49 -103.5 -99.5t-95.5 -50.5q-57 0 -57 49q0 43 56 109t56 143v760q-57 -14 -79 -14q-113 0 -113 96zM674 1229q0 66 47 113t113 47t112.5 -47 t46.5 -113t-47 -113t-112 -47q-66 0 -113 47t-47 113z" />
<glyph unicode="&#xf002;" horiz-adv-x="602" d="M-4 899q0 70 70 70q18 0 48.5 -18.5t47.5 -18.5q18 0 26 2q-4 70 -58 159t-54 146q0 92 60.5 153.5t148.5 61.5q68 0 111.5 -31.5t52.5 -31.5q18 0 37.5 23.5t37.5 23.5q45 0 45 -66q0 -41 -30.5 -84t-30.5 -55q0 -18 13.5 -42t13.5 -34q0 -43 -62 -43q-57 0 -72 57 q-8 51 -16 105q-14 57 -68 57q-59 0 -59 -71q0 -31 72 -113q74 -88 84 -150q45 8 63 9q43 0 82 -29t39 -70q0 -80 -63 -80q-20 0 -46 24t-43 24q-20 0 -30 -3v-669q0 -25 20.5 -44.5t40.5 -19.5q78 0 78 -71q0 -72 -80 -86q-41 -14 -143 -78q-51 -49 -103.5 -99.5 t-95.5 -50.5q-57 0 -57 49q0 43 56 109t56 143v760q-57 -14 -79 -14q-113 0 -113 96z" />
</font>
</defs>
</svg>
