<?xml version="1.0" standalone="no"?>
<!DOCTYPE svg PUBLIC "-//W3C//DTD SVG 1.1//EN" "http://www.w3.org/Graphics/SVG/1.1/DTD/svg11.dtd" >
<svg xmlns="http://www.w3.org/2000/svg" xmlns:xlink="http://www.w3.org/1999/xlink" version="1.1">
<metadata>
Created by FontForge 20161013 at Sun Nov  1 11:16:20 2009
 By ,,,
Copyright (c) Alexandra Gophmann, 2006. All rights reserved.
</metadata>
<defs>
<font id="Topaz" horiz-adv-x="465" >
  <font-face 
    font-family="Topaz"
    font-weight="400"
    font-stretch="normal"
    units-per-em="1000"
    panose-1="2 0 4 0 0 0 0 0 0 0"
    ascent="800"
    descent="-200"
    x-height="640"
    cap-height="1057"
    bbox="-65 -310 2627 1350"
    underline-thickness="20"
    underline-position="-163"
    unicode-range="U+0020-F002"
  />
<missing-glyph horiz-adv-x="500" 
d="M63 0v1350h375v-1350h-375zM125 63h250v1225h-250v-1225z" />
    <glyph glyph-name=".notdef" horiz-adv-x="500" 
d="M63 0v1350h375v-1350h-375zM125 63h250v1225h-250v-1225z" />
    <glyph glyph-name=".null" horiz-adv-x="0" 
 />
    <glyph glyph-name="nonmarkingreturn" horiz-adv-x="264" 
 />
    <glyph glyph-name="space" unicode=" " horiz-adv-x="264" 
 />
    <glyph glyph-name="exclam" unicode="!" horiz-adv-x="319" 
d="M288 92q0 -48 -35 -82.5t-83 -34.5t-83 34.5t-35 82.5t35 83t83 35t83 -35t35 -83zM20 936q0 8 37 11q50 4 88 15q27 8 70 31q48 25 69 32q15 0 15 -15q0 -4 -10 -10t-22 -49q-11 -38 -12 -57l-39 -542q-1 -21 11.5 -42t12.5 -19q0 -3 -11 -3q-53 0 -116 -45l-5 -1
q-7 3 -7 9l-37 594q-2 25 -23 58.5t-21 32.5z" />
    <glyph glyph-name="quotedbl" unicode="&#x22;" horiz-adv-x="544" 
d="M274 913q0 -47 -31 -149l-48 -152q-17 -62 -27 -62t-27 62q-23 76 -47 152q-32 102 -32 149q0 43 31.5 74t74.5 31t74.5 -31t31.5 -74zM544 913q0 -47 -31 -149l-48 -152q-17 -62 -27 -62t-27 62q-23 76 -47 152q-32 102 -32 149q0 43 31.5 74t74.5 31t74.5 -31t31.5 -74
z" />
    <glyph glyph-name="numbersign" unicode="#" horiz-adv-x="727" 
d="M433 561h-97l-50 -238h96zM668 570q-2 -9 -11 -9h-117l-50 -238h117q9 0 7 -9l-19 -93q-2 -9 -11 -9h-117l-4 -20l-20 -110q-18 -88 -27 -88h-87q-9 0 -11 9q-1 4 41 209h-96l-4 -20l-20 -110q-18 -88 -27 -88h-87q-9 0 -11 9q-1 4 41 209h-108q-9 0 -7 9l19 93q2 9 12 9
h107l51 238h-109q-9 0 -7 9l20 93q1 9 11 9h108l1 5l20 110q17 88 26 88h88q8 0 11 -9q1 -4 -39 -194h97l1 5l20 110q17 88 26 88h88q8 0 11 -9q1 -4 -39 -194h117q9 0 7 -9z" />
    <glyph glyph-name="dollar" unicode="$" horiz-adv-x="460" 
d="M320 -20q0 -7 -5 -9t-13 -1q-13 2 -21.5 2t-41.5 -12t-37 -12q-11 0 -11 11v149q-14 3 -72 28q-45 20 -72 20q-13 0 -23 -6q36 52 53 78q29 47 40 83q39 -67 111 -67q21 0 38 11.5t17 31.5q0 38 -60 75q-101 62 -112 71q-61 52 -61 127q0 60 40 110t98 67q1 11 2 40
q1 25 1 40q0 11 -7 33t-7 33q0 7 5 9t13 1q12 -1 13 -1q17 0 50 11.5t37 11.5q11 0 11 -11v-171q17 -6 71 -40q46 -29 68 -29q8 0 14 3q-39 -43 -56 -64q-31 -39 -46 -71q-9 32 -32 54q-26 24 -57 24q-19 0 -36.5 -11t-17.5 -29q0 -30 63 -68q93 -57 116 -78q63 -56 63 -131
q0 -69 -40.5 -120.5t-107.5 -67.5q-2 -65 -2 -58q0 -12 7 -33.5t7 -33.5z" />
    <glyph glyph-name="percent" unicode="%" horiz-adv-x="766" 
d="M224 595v170q0 27 -26 27q-27 0 -27 -27v-170q0 -26 27 -26q26 0 26 26zM592 131v171q0 26 -27 26t-27 -26v-171q0 -26 27 -26t27 26zM199 445q-99 0 -138 76q-26 52 -26 153q0 102 26 154q38 75 138 75q99 0 138 -75q26 -52 26 -154q0 -101 -26 -153q-39 -76 -138 -76z
M499 565l-174 -356q-15 -33 -53 -115q-49 -100 -66 -100h-69q-22 0 -22 21q0 7 150 312q87 179 175 358q15 34 54 115q48 101 65 101h70q21 0 21 -22q0 -7 -151 -314zM567 -6q-100 0 -138 75q-26 52 -26 154t26 153q38 76 138 76q99 0 137 -76q27 -52 27 -153
q0 -102 -27 -154q-38 -75 -137 -75z" />
    <glyph glyph-name="ampersand" unicode="&#x26;" horiz-adv-x="725" 
d="M739 471q0 -3 -2 -6q-12 -21 -37 -64q-12 -21 -29.5 -65.5t-28.5 -64.5q-5 -8 -11 -8q-3 0 -22.5 8t-31.5 8q-26 0 -49 -17q9 -37 9 -69q0 -100 -70 -157q-66 -53 -168 -53q-129 0 -207.5 84t-78.5 214q0 168 148 263q-110 76 -110 238q0 109 73 183t182 74q99 0 168 -57
q74 -60 74 -158q0 -57 -41 -101t-97 -44q-30 0 -54 17q-27 20 -27 49q0 5 15 10q19 6 27 13q15 12 15 37q0 46 -62 46q-32 0 -60 -28t-28 -60q0 -77 29 -113q32 -39 108 -43q26 -2 26 -12v-67q0 -9 -14 -13q-10 -1 -21 -2q-59 -9 -109 -67q-54 -64 -54 -160q0 -49 20 -83
q25 -42 71 -42q32 0 57.5 19.5t25.5 50.5q0 23 -7 42q-10 27 -29 27q-8 0 -19.5 -6t-16.5 -6q-11 0 -11 16q0 80 46.5 128.5t126.5 48.5q27 0 77.5 -15t77.5 -15q21 0 60 15.5t48 15.5q11 0 11 -11z" />
    <glyph glyph-name="quotesingle" unicode="'" horiz-adv-x="235" 
d="M223 913q0 -47 -31 -149l-48 -152q-17 -62 -27 -62t-27 62q-23 76 -47 152q-32 102 -32 149q0 43 31.5 74t74.5 31t74.5 -31t31.5 -74z" />
    <glyph glyph-name="parenleft" unicode="(" horiz-adv-x="287" 
d="M308 1109q0 -5 -17 -54q-21 -61 -55.5 -172t-34.5 -369q0 -139 32 -299q22 -111 74 -292l1 -3q0 -17 -47 -47l-7 4q-118 128 -182.5 295t-64.5 342t64.5 342t182.5 295l7 4q47 -30 47 -46z" />
    <glyph glyph-name="parenright" unicode=")" horiz-adv-x="287" 
d="M7 1109q0 16 47 46l7 -4q118 -128 182.5 -295t64.5 -342t-64.5 -342t-182.5 -295l-7 -4q-47 30 -47 47l1 3q52 181 74 292q32 160 32 299q0 258 -69 480l-21 61q-17 49 -17 54z" />
    <glyph glyph-name="asterisk" unicode="*" horiz-adv-x="587" 
d="M253 478q-33 0 -59 22.5t-26 55.5q0 27 47 87q33 41 67 82q-43 -17 -87 -33q-59 -23 -84 -23q-33 0 -57 24t-24 57t24 57t57 24q25 0 84 -22q44 -17 87 -34q-34 41 -67 82q-47 60 -47 87q0 33 26 55.5t59 22.5q57 0 72 -94q5 -33 5 -137q31 47 63 95q48 64 82 64
q33 0 57.5 -26t24.5 -59q0 -43 -80 -77l-118 -38l118 -38q80 -34 80 -77q0 -33 -24.5 -59t-57.5 -26q-34 0 -82 65q-32 47 -64 95q0 -11 1 -29q1 -21 1 -29q0 -174 -78 -174z" />
    <glyph glyph-name="plus" unicode="+" horiz-adv-x="548" 
d="M339 683q11 0 11 -10v-165h164q11 0 11 -11v-130q0 -11 -11 -11h-164v-164q0 -11 -11 -11h-131q-10 0 -10 11v164h-165q-11 0 -11 11v130q0 11 11 11h165v165q0 10 10 10h131z" />
    <glyph glyph-name="comma" unicode="," horiz-adv-x="244" 
d="M247 92q0 -51 -35 -164q-26 -84 -53 -168q-18 -70 -30 -70q-11 0 -29 70q-27 84 -53 168q-35 113 -35 164q0 48 34.5 83t82.5 35q49 0 83.5 -35t34.5 -83z" />
    <glyph glyph-name="hyphen" unicode="-" horiz-adv-x="398" 
d="M375 349q0 -10 -11 -10h-331q-11 0 -11 10v146q0 11 11 11h331q11 0 11 -11v-146z" />
    <glyph glyph-name="hyphen" unicode="&#x2010;" horiz-adv-x="398" 
d="M375 349q0 -10 -11 -10h-331q-11 0 -11 10v146q0 11 11 11h331q11 0 11 -11v-146z" />
    <glyph glyph-name="period" unicode="." horiz-adv-x="250" 
d="M252 92q0 -48 -35 -82.5t-83 -34.5t-83 34.5t-35 82.5t35 83t83 35t83 -35t35 -83z" />
    <glyph glyph-name="slash" unicode="/" horiz-adv-x="508" 
d="M545 1018q0 -5 -170 -362q-194 -406 -200 -419q-30 -67 -61 -134q-51 -110 -61 -110h-80q-10 0 -10 11q0 5 171 363q194 406 199 418q31 67 61 135q51 109 62 109h79q10 0 10 -11z" />
    <glyph glyph-name="zero" unicode="0" horiz-adv-x="563" 
d="M544 443q0 -177 -44 -293q-64 -168 -211 -168t-211 168q-44 116 -44 293q0 179 44 293q63 168 211 168q147 0 211 -168q44 -116 44 -293zM356 443q0 69 -12 148q-19 115 -55 115q-35 0 -54 -115q-13 -79 -13 -148t13 -148q19 -115 54 -115q36 0 55 115q12 79 12 148z" />
    <glyph glyph-name="one" unicode="1" horiz-adv-x="326" 
d="M306 6q0 -13 -11 -13h-245q-10 0 -10 13q0 -4 20.5 21t20.5 52v578q0 36 -19.5 68t-19.5 28q0 5 10 9q81 33 148 107q12 15 25.5 30.5t27.5 23.5q11 -1 11 -11v-833q0 -27 21 -52t21 -21z" />
    <glyph glyph-name="two" unicode="2" horiz-adv-x="531" 
d="M386 157h1h-1zM526 666q0 -97 -61 -200q-18 -30 -118 -162q-69 -90 -79 -147h119q17 0 38.5 26t26.5 26q9 0 15 -58q4 -32 46 -141q2 -5 2 -6q0 -11 -11 -11h-464q-11 0 -11 11q0 132 81 268q22 37 149 204q80 106 80 166q0 30 -19 55t-48 25q-25 0 -44 -14t-19 -38
q0 -18 9 -33t26 -15q10 0 23.5 9t17.5 9q11 0 11 -12q0 -49 -29 -88q-32 -43 -79 -43q-66 0 -110 58q-41 54 -41 122q0 98 71 164t170 66q107 0 177.5 -67t70.5 -174z" />
    <glyph glyph-name="three" unicode="3" horiz-adv-x="541" 
d="M521 257q0 -126 -61 -201q-66 -82 -189 -82q-99 0 -170 66t-71 164q0 68 40 122q44 58 111 58q43 0 77 -33.5t34 -77.5q0 -12 -10 -12q-5 0 -13.5 6t-15.5 6q-16 0 -26 -17t-10 -34q0 -25 14.5 -43t39.5 -18q37 0 57 38q16 30 16 72q0 54 -24 102q-27 54 -73 71
q-12 3 -23 7q-17 6 -17 13q0 8 18 14l24 8q42 19 63 76q17 46 17 102q0 27 -18.5 50t-45.5 23q-21 0 -34 -15.5t-13 -37.5q0 -15 8.5 -29t23.5 -14q5 0 13 5t12 5q11 0 11 -12q0 -39 -31 -69t-71 -30q-65 0 -103 49q-34 44 -34 111q0 88 65 146t153 58q91 0 158 -62t67 -151
q0 -81 -11 -118q-16 -59 -66 -96q108 -72 108 -220z" />
    <glyph glyph-name="four" unicode="4" horiz-adv-x="564" 
d="M487 3q0 -10 -11 -10h-235q-11 0 -11 10q41 48 41 75v128h-238q-11 0 -11 11q0 3 100 323q101 325 109 341q4 8 11 8h169q10 0 10 -11q0 -6 -207 -520h57l1 54l70 162q42 96 77 158q12 20 15 20q11 0 11 -11v-383h20q25 0 50 21t30 21t5 -11v-214q0 -11 -11 -11
q-2 0 -14 12t-27 19q-22 11 -53 11v-128q0 -26 21 -50.5z" />
    <glyph glyph-name="five" unicode="5" horiz-adv-x="541" 
d="M227 483h-2h2zM528 351q0 -11 -1.5 -33t-1.5 -33q0 -111 -70 -206q-77 -103 -184 -103q-102 0 -171.5 68t-69.5 170q0 73 39 131q43 66 112 66q43 0 77.5 -31.5t34.5 -73.5q0 -12 -11 -12q-4 0 -11.5 5.5t-13.5 5.5q-21 0 -38 -25t-17 -46q0 -28 21 -52.5t48 -24.5
q42 0 65 51q16 39 16 87q0 188 -157 188q-26 0 -66.5 -16.5t-38.5 -16.5q-11 0 -11 11v428q0 11 11 11q4 0 70.5 -23.5t101.5 -23.5q74 0 162 65q11 -2 18 -31q6 -23 6 -40q0 -63 -45.5 -111t-108.5 -48q-19 0 -35 3v-76q21 5 46 5q101 0 165 -86q58 -79 58 -183z" />
    <glyph glyph-name="six" unicode="6" horiz-adv-x="534" 
d="M519 292q0 -301 -233 -301q-167 0 -220 151q-30 85 -30 291q0 210 33 306q56 168 222 168q88 0 149 -48q66 -52 66 -137q0 -60 -32 -96t-91 -36q-27 0 -63 25t-36 50q0 11 10 11q4 0 11 -2.5t10 -2.5q8 0 18 6.5t10 14.5q0 21 -15 34.5t-37 13.5q-26 0 -43 -26
q-14 -22 -14 -51v-131q49 35 98 35q104 0 151 -91q36 -70 36 -184zM323 236v117q0 22 -13 40t-33 18q-21 0 -33.5 -18t-12.5 -40v-117q0 -21 12.5 -39t33.5 -18q20 0 33 18t13 39z" />
    <glyph glyph-name="seven" unicode="7" horiz-adv-x="500" 
d="M534 876q0 -4 -7 -9q-34 -23 -43 -67l-159 -722q5 -23 7 -33q6 -24 12.5 -29.5t6.5 -9.5q0 -11 -11 -11h-245q-10 0 -10 12q0 4 7 9q42 28 51 67l140 636h-126q-29 0 -43 -29t-17 -29q-8 0 -11 10q-5 14 -18 83q-10 51 -26 81q-10 13 -27 42q1 11 11 11h497q11 0 11 -12z
" />
    <glyph glyph-name="eight" unicode="8" horiz-adv-x="555" 
d="M531 256q0 -125 -65 -193t-189 -68q-107 0 -175.5 70.5t-68.5 177.5q0 65 32 129q30 61 81 105q-95 81 -95 191q0 106 63 172t168 66q102 0 165.5 -64.5t63.5 -167.5q0 -57 -28.5 -114t-74.5 -95q123 -93 123 -209zM325 678q0 57 -44 57q-23 0 -36 -19t-13 -43
q0 -40 55 -80q38 38 38 85zM337 257q0 42 -61 91q-53 -45 -53 -90q0 -28 15.5 -46t43.5 -18q24 0 39.5 19.5t15.5 43.5z" />
    <glyph glyph-name="nine" unicode="9" horiz-adv-x="546" 
d="M264 -9q-88 0 -149 48q-66 52 -66 138q0 60 32 95.5t91 35.5q27 0 63 -24.5t36 -49.5q0 -11 -10 -11q-4 0 -11 2t-10 2q-8 0 -18 -6t-10 -14q0 -22 15 -35.5t37 -13.5q26 0 43 26q14 23 14 51v131q-49 -35 -98 -35q-104 0 -151 91q-36 70 -36 184q0 301 233 301
q167 0 220 -151q30 -85 30 -291q0 -209 -33 -306q-56 -168 -222 -168zM324 545v117q0 21 -12.5 39.5t-33.5 18.5q-20 0 -33 -18.5t-13 -39.5v-117q0 -21 13 -39t33 -18q21 0 33.5 18t12.5 39z" />
    <glyph glyph-name="colon" unicode=":" horiz-adv-x="250" 
d="M252 469q0 -48 -35 -82.5t-83 -34.5t-83 34.5t-35 82.5t35 83t83 35t83 -35t35 -83zM252 92q0 -48 -35 -82.5t-83 -34.5t-83 34.5t-35 82.5t35 83t83 35t83 -35t35 -83z" />
    <glyph glyph-name="semicolon" unicode=";" horiz-adv-x="250" 
d="M247 92q0 -51 -35 -164q-26 -84 -53 -168q-18 -70 -30 -70q-11 0 -29 70q-27 84 -53 168q-35 113 -35 164q0 48 34.5 83t82.5 35q49 0 83.5 -35t34.5 -83zM252 469q0 -48 -35 -82.5t-83 -34.5t-83 34.5t-35 82.5t35 83t83 35t83 -35t35 -83z" />
    <glyph glyph-name="less" unicode="&#x3c;" horiz-adv-x="538" 
d="M290 483q279 -564 279 -567q0 -8 -38.5 -31t-48.5 -23q-8 0 -12 8q-17 36 -52 107q-144 266 -399 496q-5 5 -5 11q0 5 5 10q255 220 400 495q5 9 51 108q4 8 12 8q10 0 52.5 -23t42.5 -31q0 -3 -287 -568z" />
    <glyph glyph-name="equal" unicode="=" horiz-adv-x="548" 
d="M525 277q0 -11 -11 -11h-481q-11 0 -11 11v115q0 11 11 11h481q11 0 11 -11v-115zM22 602q0 11 11 11h481q11 0 11 -11v-115q0 -11 -11 -11h-481q-11 0 -11 11v115z" />
    <glyph glyph-name="greater" unicode="&#x3e;" horiz-adv-x="538" 
d="M299 483q-286 565 -286 568q0 8 42 31t53 23q8 0 12 -8q16 -36 51 -108q145 -275 399 -495q5 -5 5 -10q0 -6 -5 -11q-255 -230 -398 -496q-1 -1 -52 -107q-4 -8 -12 -8q-10 0 -49 23t-39 31q0 3 279 567z" />
    <glyph glyph-name="question" unicode="?" horiz-adv-x="600" 
d="M402 92q0 -48 -35 -82.5t-83 -34.5t-83 34.5t-35 82.5t35 83t83 35t83 -35t35 -83zM295 388q0 -33 33 -33q16 0 33 14.5t23 14.5q13 0 13 -37q0 -42 -30 -67t-73 -25q-56 0 -98.5 38.5t-42.5 93.5q0 85 61 146l114 92q61 55 61 121q0 101 -113 101q-27 0 -48 -13
q-23 -16 -23 -42q0 -37 46 -37q5 0 12 3t10 3q13 0 13 -10q0 -23 -40 -53q-35 -28 -61 -33q-17 -4 -38 -4q-61 0 -97 45q-32 41 -32 104q0 92 92 157q83 59 179 59q130 0 208 -60q88 -67 88 -193q0 -103 -75 -180q-22 -21 -140 -105q-75 -54 -75 -100z" />
    <glyph glyph-name="at" unicode="@" horiz-adv-x="1065" 
d="M1020 473q0 -124 -69 -233q-80 -127 -202 -127q-109 0 -152 85q-14 -29 -46 -54q-36 -29 -66 -29q-131 0 -131 174v213q0 59 29 103q34 50 92 50q59 0 106 -53q-1 13 -1 43q0 28 11 28q4 0 59 -32q23 -13 60 -27q30 -12 61 -24q8 -3 8 -8q-35 -38 -35 -86v-265
q16 -12 32 -12q54 0 86 110q25 84 25 157q0 140 -98 242.5t-237 102.5q-173 0 -267 -138q-82 -119 -82 -301q0 -176 88 -290q98 -125 269 -125q51 0 93 21q25 13 55 41q23 22 31 22q17 0 17 -46q0 -78 -91 -121q-73 -34 -159 -34q-169 0 -305 128q-156 148 -156 415
q0 232 129 388q138 166 366 166q210 0 345 -137t135 -347zM543 511q-34 0 -34 -43v-170q0 -50 34 -50q21 0 46 63v150q-20 50 -46 50z" />
    <glyph glyph-name="A" unicode="A" horiz-adv-x="695" 
d="M717 3q0 -9 -10 -9h-280q-11 0 -11 9q0 -1 16 24t16 52l-1 205q-32 -25 -98 -71q-5 -52 -11 -104q-6 -62 -6 -104q0 -25 18.5 -47t18.5 -21q0 -9 -42 -27q-19 -7 -133 -72q-109 -61 -113 -61q-10 0 -10 11q0 3 6 10q15 15 31 58q15 40 18 65q13 94 24 236q19 222 20 237
q7 60 14 121q8 71 8 120q0 13 -9 37.5t-9 36.5q0 7 10 11q51 16 103.5 33.5t92.5 58.5l8 3q12 0 11 -12l-29 -346l77 57v138q0 102 -27 150q-36 63 -130 63q-56 0 -103.5 -42t-47.5 -98q0 -11 8 -30.5t8 -23.5q0 -11 -19 -11q-56 0 -89 45q-31 40 -31 98q0 116 85 189
q81 70 199 70q170 0 256 -119q75 -104 75 -282v-9l39 -572q1 -25 24 -50t23 -27z" />
    <glyph glyph-name="B" unicode="B" horiz-adv-x="680" 
d="M356 339v-134q11 -30 26 -30q57 0 57 110q0 36 -6 54q-7 23 -31 44q-24 -21 -46 -44zM140 -7q-11 0 -11 12q0 -4 18 21.5t18 52.5v540q0 44 -25 102q0 7 10 10q37 13 74 25q43 15 70 34q15 15 50 37q11 0 11 -11v-247q88 71 88 144q0 63 -39.5 107.5t-101.5 44.5
q-58 0 -116 -42q-62 -46 -62 -102q0 -7 1.5 -19.5t1.5 -19.5q0 -12 -11 -12q-51 0 -80 35q-26 32 -26 85q0 108 93 186q87 73 198 73q145 0 245 -89q104 -92 104 -234q0 -123 -94 -219q104 -115 104 -259q0 -99 -48 -172q-54 -83 -149 -83h-323z" />
    <glyph glyph-name="C" unicode="C" horiz-adv-x="509" 
d="M513 839q0 -63 -36 -107q-39 -47 -101 -47q-36 0 -62 23t-26 59q0 11 11 11q4 0 11.5 -4.5t12.5 -4.5q13 0 21 13.5t8 26.5q0 46 -44 46q-59 0 -87 -99q-19 -66 -19 -147q0 -157 55 -317q59 -173 160 -277q26 -22 59 -61q-6 -18 -42 -89.5t-47 -87.5q-5 -6 -11 -6
q-106 42 -217 261q-94 185 -122 330q-17 93 -17 216q0 81 6 140q13 117 76 214q76 116 181 116q93 0 160 -57q70 -60 70 -152z" />
    <glyph glyph-name="D" unicode="D" horiz-adv-x="713" 
d="M177 -6q-10 0 -10 12q0 -4 17.5 21.5t17.5 52.5l1 531q0 44 -25 102q0 7 9 11l74 24q44 15 70 34q16 15 51 37q11 0 11 -10v-630h31q66 0 66 192q0 19 1 57v56q0 152 -26 234q-44 136 -162 136q-52 0 -107 -41q-59 -43 -59 -93q0 -11 8.5 -28t8.5 -20q0 -16 -39 -16
q-47 0 -69 49q-17 37 -17 90q0 109 91 183q85 68 196 68q164 0 265 -130q87 -113 103 -286q6 -66 6 -175q0 -181 -49 -326q-44 -135 -170 -135h-31q-20 -1 -30 -1z" />
    <glyph glyph-name="E" unicode="E" horiz-adv-x="501" 
d="M501 824q0 -64 -32 -105q-35 -45 -97 -45q-37 0 -66 28t-29 64q0 12 10 12q5 0 12 -4.5t12 -4.5q13 0 21 13t8 27q0 46 -43 46q-31 0 -54 -25t-23 -56q0 -53 19 -95q23 -52 67 -67q13 -4 26 -7q18 -6 18 -14l-1 -92q0 -9 -17 -13q-13 -2 -25 -4q-39 -10 -60.5 -43
t-21.5 -75q0 -86 47 -187q41 -88 106 -163q23 -23 55 -65q-10 -28 -48 -86l-56 -84l-8 -5l-9 3q-111 106 -196 265q-95 177 -95 312q0 72 24 123q21 45 76 100q-60 41 -82 104q-18 48 -18 133q0 97 76 165.5t174 68.5q94 0 162 -65t68 -159z" />
    <glyph glyph-name="F" unicode="F" horiz-adv-x="675" 
d="M690 1030q0 -2 -32.5 -111t-34.5 -113q-4 -8 -10 -8q2 0 -29.5 25t-70.5 25h-208q-41 0 -72 -22q-36 -24 -36 -63q0 -27 11 -50q14 -28 39 -28q3 0 8.5 1.5t8.5 1.5q11 0 11 -12q0 -34 -30 -57t-65 -23q-72 0 -120 61q-44 56 -44 130q0 115 66.5 184.5t181.5 69.5h416
q10 0 10 -11zM547 -55q0 -8 -36 -25q-32 -14 -113 -95q-66 -66 -119 -66q-10 0 -10 10q0 4 9.5 14t22.5 56q11 43 11 63v721q0 30 -4 46q-1 5 -11 27t-10 25q0 7 10 10q49 16 99.5 33t87.5 59l9 4q10 0 10 -11v-298q38 54 56 54q102 0 102 -113q0 -53 -25 -73q-18 27 -57 27
q-43 0 -76 -47v-347q0 -27 22 -51t22 -23z" />
    <glyph glyph-name="G" unicode="G" horiz-adv-x="585" 
d="M595 488q0 -1 -18 -25.5t-18 -51.5v-276l-3 -8q-7 -6 -16.5 -6.5t-17.5 -7.5q-13 -11 -35 -43q-26 -40 -84 -66q-54 -24 -106 -24q-114 0 -191 92q-74 88 -74 204v483q0 116 74 203q77 93 191 93q97 0 164.5 -69.5t67.5 -165.5q0 -60 -32 -107q-37 -52 -94 -52
q-46 0 -82 24q-40 27 -40 71q0 13 11 13q6 0 17 -4.5t17 -4.5q28 0 28 42q0 47 -55 47q-64 0 -64 -131v-436q0 -29 18.5 -55t46.5 -26q51 0 65 66q4 23 4 106q0 26 -1 38q-3 28 -23.5 51.5t-20.5 25.5q0 9 11 9h249q11 0 11 -9z" />
    <glyph glyph-name="H" unicode="H" horiz-adv-x="651" 
d="M311 -17q0 -9 -36 -25q-50 -22 -89 -48q-9 -5 -76 -62q-62 -52 -67 -52q-10 0 -10 11q0 4 9.5 14t22.5 56q11 43 11 62v873q0 35 -20 67.5t-20 27.5q0 6 9 10q92 37 150 93q14 17 29 33q18 20 33 27q10 0 10 -11v-447h103v269q0 175 143 175q56 0 96 -32q44 -35 44 -90
q0 -70 -21 -70q-2 0 -12 6.5t-17 6.5q-19 0 -30.5 -15.5t-11.5 -34.5v-748q0 -26 22 -51t22 -26q0 -9 -11 -9h-249q-11 0 -11 9q0 -1 18 25.5t18 51.5v335h-103v-357q0 -27 22 -51t22 -23z" />
    <glyph glyph-name="I" unicode="I" horiz-adv-x="330" 
d="M316 -17q0 -9 -36 -25q-50 -22 -89 -48q-8 -5 -76 -62q-62 -52 -66 -52q-11 0 -11 11q0 4 9.5 14t22.5 56q12 43 12 62v873q0 35 -20.5 67.5t-20.5 27.5q0 6 9 10q92 37 150 93q15 17 29 33q18 20 33 27q11 0 11 -11v-1002q0 -27 21.5 -51t21.5 -23z" />
    <glyph glyph-name="J" unicode="J" horiz-adv-x="633" 
d="M696 1030q-36 -102 -80 -214q-4 -5 -9 -7q-1 0 -32 21q-27 18 -64 18h-157q-96 0 -96 -48q0 -37 28 -37q12 0 17.5 8t10.5 8q12 0 19 -19q5 -15 5 -29q0 -46 -30 -79.5t-76 -33.5q-70 0 -120 58q-48 55 -48 127q0 114 64.5 176t178.5 62h378q11 0 11 -11zM582 22
q0 -118 -83 -188q-79 -66 -199 -66q-104 0 -187 60q-90 66 -90 167q0 93 46 154q50 67 140 67q50 0 94.5 -42t44.5 -92q0 -13 -11 -35q-11 -25 -23 -25q-4 0 -16.5 23t-38.5 23q-23 0 -34 -24q-10 -18 -10 -43q0 -28 32 -44q26 -14 56 -14q33 0 60.5 28t27.5 61v602
q0 38 -26 102q2 11 24 13q123 11 174 66l8 4q11 0 11 -10v-787z" />
    <glyph glyph-name="K" unicode="K" horiz-adv-x="648" 
d="M659 926q0 -23 -12 -56q-14 -39 -32 -39q-2 0 -12.5 12t-23.5 12q-30 0 -41 -32q-6 -29 -19 -87q-25 -99 -74 -193l135 -461q6 -19 36 -49t30 -31q0 -9 -10 -9h-289q-9 0 -10 9q21 49 21 86q0 53 -21 131q-17 64 -35 128q-21 -21 -43 -40v-238q0 -27 22 -51t22 -23
q0 -8 -34.5 -23.5t-114.5 -96.5q-66 -66 -119 -66q-10 0 -10 10q0 4 9.5 14.5t21.5 54.5t12 64v872q0 38 -20 68.5t-20 27.5q0 5 9 9q92 37 150 94q14 16 29 32q18 20 33 28q10 -1 10 -11v-489q31 47 59 151q20 80 40 161q17 58 61 104q50 52 105 52q53 0 93 -35
q42 -38 42 -90z" />
    <glyph glyph-name="L" unicode="L" horiz-adv-x="520" 
d="M513 4q0 -11 -11 -11h-459q-11 0 -11 9q36 51 36 77l1 751q0 89 74 155t164 66q93 0 161 -56q72 -59 72 -150q0 -64 -31 -109q-35 -50 -96 -50q-36 0 -78 25q-46 28 -46 61q0 10 23 10q44 0 44 42q0 47 -44 47q-26 0 -41 -23q-13 -19 -13 -47l1 -612q76 -2 73 -2
q30 0 53 20q13 12 28 37q12 19 17 19q6 0 10 -8q2 -3 37.5 -126t35.5 -125z" />
    <glyph glyph-name="M" unicode="M" horiz-adv-x="941" 
d="M868 76q0 -20 16 -45.5t16 -26.5q0 -11 -11 -11h-195q-18 0 -18 42q0 41 31 187q27 128 27 280q0 167 -85 266q-90 106 -254 106q-162 0 -228 -118q-19 -33 -19 -57q0 -11 8 -31t8 -31q0 -15 -29 -15q-54 0 -86 50q-28 44 -28 101q0 46 29 102q94 182 342 182
q258 0 400 -164q134 -156 134 -418q0 -179 -47 -349q-11 -39 -11 -50zM653 4q0 -11 -11 -11h-210q-13 0 -13 11q33 26 33 68v496q0 20 -11 53t-11 41q0 7 9 11q64 26 84 37q42 22 73 55l8 3q11 0 11 -10l1 -686q0 -22 18.5 -45.5t18.5 -22.5zM407 -65q0 -8 -31 -26t-66 -44
q-66 -56 -139 -114q-1 0 -4 -1q-10 0 -10 11q0 4 9 13.5t21.5 54.5t12.5 64v710q0 30 -4 47q-2 4 -11.5 26.5t-9.5 24.5q0 7 9 11q65 28 96 48q41 26 80 71l9 4q11 0 11 -11v-825q0 -25 13.5 -46.5t13.5 -17.5z" />
    <glyph glyph-name="N" unicode="N" horiz-adv-x="721" 
d="M724 169q0 -3 -27 -82t-30.5 -86.5t-10.5 -7.5h-237q-16 0 -16 9q0 25 15 89q21 93 21 94q36 196 36 330q0 350 -220 350q-61 0 -112 -31q-60 -36 -60 -93q0 -17 12 -46t12 -32q0 -11 -20 -11q-55 0 -84 54q-23 43 -23 103q0 119 95 187q85 61 208 61q198 0 305 -154
q94 -135 94 -342q0 -88 -21 -199q-7 -37 -44 -196l94 14q13 2 13 -11zM373 2q0 -9 -10 -9h-230q-10 0 -10 9q0 1 17.5 25t17.5 52v540q0 33 -27 102q0 7 9 10l76 26q43 16 72 36q14 13 47 34q10 0 10 -11l-1 -631q0 -93 1.5 -115t14.5 -46t13 -22z" />
    <glyph glyph-name="O" unicode="O" horiz-adv-x="598" 
d="M565 281q0 -117 -74 -204q-77 -92 -191 -92q-115 0 -192 92q-73 87 -73 204v252q0 98 34 157q43 75 134 75q61 0 94 -47q30 -42 30 -105q0 -15 -11 -15q-4 0 -17.5 10.5t-25.5 10.5q-18 0 -30.5 -18.5t-12.5 -37.5v-276q0 -29 18 -54q21 -28 49 -28t47 28q18 25 18 54
v412q0 162 -110 162q-17 0 -34 -10t-17 -25q0 -5 1.5 -13.5t1.5 -12.5q0 -10 -12 -10q-32 0 -56.5 30.5t-24.5 62.5q0 81 55 129q52 47 134 47q114 0 191 -92q74 -87 74 -204v-482z" />
    <glyph glyph-name="P" unicode="P" horiz-adv-x="657" 
d="M422 -24q0 -9 -37 -25q-33 -15 -112 -95q-66 -67 -119 -67q-11 0 -11 11q0 2 10 14.5t22 55t12 62.5v691q0 33 -5 50q-2 3 -11 25q-9 19 -9 23q0 7 9 10q50 16 100.5 33t87.5 59l8 4q11 0 11 -11v-324q40 40 67 101.5t27 116.5q0 64 -51 112.5t-115 48.5q-61 0 -112 -36
q-56 -40 -56 -99q0 -14 10.5 -40t10.5 -32q0 -10 -10 -10q-64 0 -98 36t-34 101q0 113 95 192q91 75 206 75q135 0 237.5 -97t102.5 -231q0 -154 -80 -277q-59 -92 -200 -211v-192q0 -27 22 -51.5t22 -22.5z" />
    <glyph glyph-name="Q" unicode="Q" horiz-adv-x="584" 
d="M561 287q0 -86 -42 -159q-44 -77 -118 -113v-40q0 -39 24 -39q21 0 24.5 26.5t12.5 26.5q22 0 37 -37q12 -30 12 -57q0 -52 -40 -88.5t-93 -36.5t-93 36.5t-40 88.5v101q-96 21 -157 107q-57 82 -57 184v252q0 98 34 157q43 75 134 75q61 0 94 -47q30 -42 30 -105
q0 -15 -11 -15q-3 0 -17 10.5t-26 10.5q-18 0 -30.5 -18.5t-12.5 -37.5v-276q0 -29 18 -54q21 -28 49 -28t48 28q17 25 17 54v412q0 162 -110 162q-17 0 -34 -10t-17 -25q0 -5 2 -13.5t2 -12.5q0 -10 -13 -10q-32 0 -56.5 30.5t-24.5 62.5q0 81 55 129q52 47 134 47
q114 0 192 -92q73 -87 73 -204v-482z" />
    <glyph glyph-name="R" unicode="R" horiz-adv-x="699" 
d="M424 -24q0 -9 -36 -25q-21 -9 -231 -162q-11 0 -11 11q0 3 10 14t22 56q12 42 12 62v691q0 30 -5 46q-1 5 -11 27t-10 25q0 7 10 10q50 16 100 33t87 59l9 4q11 0 11 -11v-294q46 21 72 76q22 49 22 105q0 61 -45.5 106.5t-106.5 45.5q-66 0 -120 -33q-63 -37 -63 -99
q0 -16 11.5 -43t11.5 -30q0 -10 -22 -17q-17 -5 -31 -5q-51 0 -73 62q-16 42 -16 104q0 113 95 190q89 74 205 74q140 0 242 -94.5t102 -233.5q0 -92 -73 -201l67 -449q3 -26 28.5 -51t25.5 -30.5t-10 -5.5h-242q-11 0 -11 10q0 3 7 11q12 14 12 58q0 12 -2 23l-35 261
q-30 -24 -51 -37v-269q0 -27 21.5 -51t21.5 -23z" />
    <glyph glyph-name="S" unicode="S" horiz-adv-x="625" 
d="M610 291q0 -132 -88 -222.5t-220 -90.5t-196 63q-33 33 -56 83.5t-23 95.5q0 88 45 149q50 69 135 69q59 0 101 -34q46 -37 46 -95q0 -25 -19 -53q-20 -31 -43 -31q-11 0 -11 22q0 48 -40 48q-50 0 -50 -61q0 -32 34 -57t68 -25q52 0 90 35.5t38 87.5q0 156 -192 254
q-86 44 -139 103q-66 73 -66 155q0 125 63.5 195t187.5 70q26 0 79.5 -5t80.5 -5q17 0 50 7t50 7q10 0 10 -11q0 -29 -25.5 -103t-25.5 -115q0 -11 -11 -11q-14 0 -62.5 18t-75.5 18q-107 0 -107 -57q0 -34 45 -68q13 -9 75 -44q128 -73 180 -154q72 -112 72 -238z" />
    <glyph glyph-name="T" unicode="T" horiz-adv-x="677" 
d="M674 1030q-56 -159 -61 -166.5t-10 -7.5l-392 -1q-24 0 -67.5 -15.5t-59.5 -15.5q-11 0 -11 13q30 86 76 197q4 7 10 7h504q11 0 11 -11zM530 327q0 -6 -9 -10q-32 -14 -63 -28q-35 -17 -59 -35q-14 -13 -45 -33q-12 0 -12 23q0 54 1.5 160t1.5 159q0 91 -22 146
q0 6 9 10q55 25 61 28q33 16 57 34q14 14 46 34q11 -1 11 -11l-1 -214q0 -149 0 -133q3 -79 24 -130zM677 192q0 -43 -25 -92q-71 -134 -262 -134q-170 0 -269 122q-91 113 -91 288q0 135 23 224q28 106 100 201q4 6 17 14q12 2 43 2q112 0 112 -14q-1 -2 -2 -5
q-31 -87 -63 -174q-32 -99 -32 -181q0 -113 34 -193q47 -107 145 -107q57 0 102 26q53 31 53 83q0 15 -11 42t-11 32q0 11 22 11q53 0 86 -47q29 -43 29 -98zM304 808l-2 -5h1zM314 792l-5 1l-1 -1h6zM563 326l-2 5q0 -1 1 -5h1zM556 316q-1 0 -4 -1z" />
    <glyph glyph-name="U" unicode="U" horiz-adv-x="727" 
d="M593 1029q0 4 -18 -21.5t-18 -51.5l1 -540q0 -49 15 -96q1 -3 2 -7q0 -7 -9 -10q-79 -29 -95 -36q-47 -22 -84 -57l-8 -3q-11 0 -11 11l1 738q0 49 -22 64q-8 6 -8 9q0 12 12 12h231q11 0 11 -12zM725 203q0 -48 -29 -97q-82 -140 -277 -140q-199 0 -302 157
q-86 133 -86 343q0 142 46 333q25 99 25 138q0 43 -32 93q0 11 11 11h230q11 0 11 -11q0 -53 -44.5 -262t-44.5 -318q0 -113 44 -196q56 -104 159 -104q70 0 118 37q54 40 54 107q0 9 -3 26.5t-3 26.5q0 12 20 12q54 0 82 -54q21 -42 21 -102z" />
    <glyph glyph-name="V" unicode="V" horiz-adv-x="631" 
d="M605 718q0 -354 -188 -641q-59 -89 -86 -99l-7 3q-247 262 -247 689q0 101 13 183q-9 2 -18 2q-23 0 -47.5 -14.5t-23.5 -14.5q-11 0 -11 10q0 4 40 137l18 61q12 10 87 10q25 0 75 -1.5t75 -1.5q6 0 6 -9q0 -2 -3 -12q-23 -92 -23 -277q0 -231 69 -412q45 75 70 191
q21 101 21 203q0 144 -43 144q-11 0 -24 -18t-18 -18q-21 0 -35 27q-12 23 -12 46q0 63 30 103q34 46 95 46q50 0 99 -48q88 -86 88 -289z" />
    <glyph glyph-name="W" unicode="W" horiz-adv-x="887" 
d="M877 1035q-53 -160 -57.5 -167t-10.5 -7l-596 -1q-23 0 -66.5 -14.5t-60.5 -14.5q-11 0 -11 11q67 188 72 196t11 8h709q10 0 10 -11zM744 342q0 -6 -9 -10q-36 -16 -70 -32t-65 -46l-8 -3q-11 0 -11 11q0 23 1 69v69v79q0 194 -22 250q0 6 9 10q36 16 72 31q32 17 63 46
l8 4q11 -1 11 -11v-66q-1 -45 -1 -66v-81q0 -198 22 -254zM887 208q0 -107 -78 -169q-73 -58 -182 -58q-85 0 -152 34q-64 -34 -152 -34q-146 0 -234 118q-79 106 -79 257q0 257 148 451q4 6 17 13q12 2 43 2q104 0 104 -14q0 -4 -21 -35q-14 -20 -27 -39q-83 -136 -83 -285
q0 -102 26 -175q37 -102 117 -115q-53 103 -53 243q0 247 110 404q4 6 16 14q12 2 42 2q105 0 105 -14q-1 -2 -2 -5q-31 -85 -63 -169q-32 -95 -32 -176q0 -119 35 -196q48 -104 152 -104q56 0 100.5 42t44.5 98q0 10 -7 28.5t-7 28.5q0 11 11 11q50 0 78 -57
q23 -45 23 -101z" />
    <glyph glyph-name="X" unicode="X" horiz-adv-x="611" 
d="M657 1030l-29 -26q-33 -28 -42 -52l-158 -397q92 -112 127 -226q23 -72 45 -254q3 -25 22.5 -50.5t19.5 -26.5q0 -8 -11 -8h-244q-11 0 -11 8q0 3 20.5 26.5t20.5 50.5q0 168 -75 259l-94 -240q-6 -16 -6 -31q0 -21 15 -42.5t15 -20.5q0 -10 -11 -10h-260q-11 0 -11 11
q0 5 7 10q50 31 64 68l161 417q-109 176 -109 320q0 19 2 38q-10 2 -20 2q-21 0 -49.5 -15t-26.5 -15q-11 0 -11 11q0 4 58 197q8 10 94 10q22 0 67 -1t68 -1q11 0 11 -11q0 -6 -5 -23q-7 -22 -8 -26q-9 -43 -9 -110q0 -69 31 -144l54 134q41 104 41 124q0 15 -9.5 30
t-9.5 20.5t11 5.5h244q11 0 11 -12z" />
    <glyph glyph-name="Y" unicode="Y" horiz-adv-x="616" 
d="M649 1034q0 -1 -29 -31t-34 -49l-102 -363l-34 -108q-20 -68 -20 -110q0 -12 1 -35t1 -35v-209q0 -36 7.5 -52.5t35.5 -43.5q0 -12 -11 -12h-246q-11 0 -11 12q0 -3 21 22t21 51l-1 387q-128 212 -123 397q-10 2 -21 2q-21 0 -48 -15t-25 -15q-11 0 -11 9q0 11 17 101
t21 97.5t10 7.5l219 1q11 0 11 -11q0 5 -6 -24q-4 -20 -4 -49q0 -149 51 -262l40 144q27 102 27 138q0 31 -23 51q-1 13 11 13h244q11 0 11 -9z" />
    <glyph glyph-name="Z" unicode="Z" horiz-adv-x="590" 
d="M489 562q-49 -139 -54 -147t-11 -8h-49l-83 -225h65q29 0 39 7q15 9 15 37q0 24 -20 25.5t-20 11.5q0 18 30 31q23 10 46 10q58 0 94 -41t36 -100q0 -80 -51.5 -125t-133.5 -45h-359q-10 0 -10 11q0 8 146 403h-54q-11 0 -11 10q50 140 55 147.5t10 7.5h61l109 290h-53
q-57 0 -57 -42q0 -24 21 -27t21 -12q0 -19 -35 -30q-27 -9 -51 -9q-61 0 -99.5 38.5t-38.5 99.5q0 80 59 124q52 39 135 39h353q10 0 10 -11q0 -6 -168 -459h43q10 0 10 -11z" />
    <glyph glyph-name="bracketleft" unicode="[" horiz-adv-x="455" 
d="M0 -124v1221q0 10 10 10h393q13 0 14 -13l-3 -10q-36 -38 -59 -127q-3 -12 -12 -12q5 0 -39 10q-31 8 -72 7h-50v-952h221q13 0 14 -13l-3 -10q-37 -39 -59 -124q-3 -12 -12 -12q-14 0 -39.5 7t-38.5 7h-255q-10 0 -10 11z" />
    <glyph glyph-name="backslash" unicode="\" horiz-adv-x="508" 
d="M-37 1018q0 11 10 11h80q10 0 61 -109q31 -68 61 -135q6 -12 200 -418q170 -358 170 -363q0 -11 -10 -11h-79q-11 0 -62 110q-30 67 -61 134q-5 13 -199 419q-171 357 -171 362z" />
    <glyph glyph-name="bracketright" unicode="]" horiz-adv-x="455" 
d="M417 1082v-1220q0 -11 -10 -11h-393q-13 0 -14 13l3 10q36 38 59 127q3 12 12 12q-5 0 39 -10q31 -7 72 -7h50v952h-221q-13 0 -14 13l3 10q37 39 59 125q3 11 12 11q14 0 39.5 -6.5t38.5 -6.5l255 -1q10 0 10 -11z" />
    <glyph glyph-name="asciicircum" unicode="^" horiz-adv-x="949" 
d="M886 76q0 -20 16 -45.5t16 -26.5q0 -11 -11 -11h-203q-18 0 -18 42q0 43 31 187q34 161 34 280q0 166 -89 267q-93 105 -257 105q-172 0 -238 -118q-19 -33 -19 -57q0 -11 8 -31t8 -31q0 -15 -29 -15q-54 0 -86 50q-28 44 -28 101q0 46 29 102q49 94 149 141
q87 41 203 41q258 0 403 -164q138 -156 138 -418q0 -179 -47 -349q-10 -39 -10 -50zM663 4q0 -11 -11 -11h-210q-13 0 -13 11q33 26 33 68v189q-16 -11 -21 -11q-11 0 -11 11v133q0 8 32 26l1 148q0 20 -11 53t-11 41q0 7 9 11q106 39 156 92l8 3q11 0 11 -10v-237
q21 14 26 14q10 0 10 -11v-134q0 -7 -36 -28l1 -290q0 -22 18.5 -45.5t18.5 -22.5zM401 5q0 -8 -31 -26t-66 -44q-66 -56 -139 -114q-1 0 -4 -1q-10 0 -10 11q0 4 9 13.5t21.5 54.5t12.5 64v640q0 30 -4 47q-2 4 -11.5 26.5t-9.5 24.5q0 7 9 11q65 28 96 48q41 26 80 71l9 4
q11 0 11 -11v-755q0 -25 13.5 -46.5t13.5 -17.5z" />
    <glyph glyph-name="underscore" unicode="_" horiz-adv-x="534" 
d="M495 922v-1v1zM546 1028q-18 -24 -34.5 -48t-16.5 -58l1 -613q0 -148 -48 -219q-33 -50 -84 -81q-55 -33 -112 -33q-88 0 -158 62t-70 149q0 61 39.5 105.5t99.5 44.5q27 0 66 -27.5t39 -53.5q0 -10 -9 -10q-3 0 -8 1t-8 1q-12 0 -25.5 -14t-13.5 -26q0 -54 43 -54
q26 0 42 24t16 52l-1 617l-78 1q-40 0 -71 -25t-30 -25q-5 0 -9 8q-2 4 -35 113t-33 111q0 11 11 11h476q12 0 11 -13z" />
    <glyph glyph-name="grave" unicode="`" horiz-adv-x="316" 
d="M384 694q0 -6 -9 -6q-18 0 -116 28t-112 37q-33 22 -33 60q0 28 20 48.5t48 20.5q18 0 36 -10q14 -8 90 -89t76 -89z" />
    <glyph glyph-name="a" unicode="a" 
d="M271 34q-42 -52 -106 -52q-66 0 -109.5 40t-43.5 105q0 83 55 140q39 41 130 85q32 16 37 18q22 13 32 25l1 69q0 14 -13 22.5t-27 8.5q-46 0 -46 -33q0 -23 24 -29t24 -13q0 -19 -37 -38q-33 -16 -55 -16q-49 0 -78 39q-27 35 -27 86q0 71 66 117q59 42 134 42
q84 0 145 -47q67 -50 67 -133l1 -354q0 -33 11 -61q7 -19 21 -37q11 -14 11 -15q0 -9 -11 -9h-188q-11 0 -18 40zM266 235q-38 -18 -50 -28q-26 -20 -26 -47q0 -24 28 -24q26 0 36 27l12 42v30z" />
    <glyph glyph-name="b" unicode="b" horiz-adv-x="486" 
d="M218 465v-261q21 -31 43 -31q28 0 28 65v21q-1 14 -1 21v101v64q-4 48 -27 48q-21 0 -43 -28zM218 603q64 48 122 48q79 0 111 -61q23 -46 23 -133v-284q0 -70 -47 -128q-50 -61 -120 -61q-45 0 -88 29q-40 26 -66 67q-33 -32 -100 -98l-8 -3q-10 0 -10 11v736
q0 36 -19.5 68t-19.5 28q0 6 9 9q48 17 143 60q56 32 59 32q11 0 11 -11v-309z" />
    <glyph glyph-name="c" unicode="c" horiz-adv-x="447" 
d="M456 158q0 -22 -7 -44q-45 -141 -208 -141q-140 0 -194 111q-37 78 -37 236t37 235q53 111 194 111q66 0 118 -28q58 -31 78 -90q1 -2 1 -4q0 -5 -6 -10q-59 -46 -70 -55q-38 -32 -63 -63l-9 -4q-9 -1 -11 20q-2 30 -5 39q-9 22 -36 22q-16 0 -28 -12.5t-12 -28.5v-261
q0 -18 15 -33t33 -15q55 0 55 51q0 24 -24 32t-24 14q0 20 37 39q33 18 54 18q50 0 83 -46q29 -41 29 -93z" />
    <glyph glyph-name="d" unicode="d" horiz-adv-x="494" 
d="M289 52q-53 -61 -120 -61q-63 0 -101 61q-33 52 -33 119v287q0 193 134 193q61 0 116 -47v122q0 37 -19.5 68.5t-19.5 27.5q0 6 9 9q47 17 139 58q61 34 63 34q11 0 11 -11l-1 -833q0 -27 21 -52t21 -22q0 -12 -11 -12h-187q-13 0 -22 59zM286 446q-20 47 -39 47
q-26 0 -26 -44v-239q0 -37 26 -37q20 0 39 45v228z" />
    <glyph glyph-name="e" unicode="e" horiz-adv-x="455" 
d="M450 409q0 -14 -7 -17l-249 -124v-79q0 -16 12 -28t28 -12q61 0 61 48q0 23 -23.5 28.5t-23.5 12.5q0 19 37 37q32 16 53 16q48 0 80 -42q30 -38 30 -87q0 -21 -7 -44q-42 -138 -204 -138q-137 0 -190 109q-37 76 -37 231t37 230q52 109 190 109q213 0 213 -250zM274 447
v2q0 16 -12 28t-28 12t-28 -12t-12 -28v-42z" />
    <glyph glyph-name="f" unicode="f" horiz-adv-x="333" 
d="M358 798q0 -40 -32 -71.5t-72 -31.5q-30 0 -30 11q0 7 15 19.5t15 25.5t-9.5 24t-21.5 11q-44 0 -44 -58q0 -32 23.5 -58.5t49.5 -29.5h90q10 0 10 -11q0 -17 -8 -53q-8 -42 -17 -42h-61v-455q0 -26 20.5 -51.5t20.5 -21.5q0 -13 -10 -13h-245q-11 0 -11 13q0 -4 21 21.5
t21 51.5v455q-5 0 -18 -1h-17q-33 0 -33 13q0 16 7 52q9 42 17 42h36q-35 62 -35 115q0 71 49 121.5t120 50.5q60 0 103 -34q46 -37 46 -95z" />
    <glyph glyph-name="g" unicode="g" horiz-adv-x="459" 
d="M101 -50h1h-1zM276 439q0 70 -37 70q-38 0 -38 -70q0 -71 38 -71q37 0 37 71zM157 233l12 13q-72 18 -112 69.5t-40 126.5q0 177 168 200q11 8 21.5 16t10.5 22q0 16 -17 16q-11 0 -20.5 -14t-14.5 -14q-13 0 -23.5 18t-10.5 32q0 31 25.5 51.5t57.5 20.5q50 0 77 -41
q23 -35 23 -87q0 -13 -1 -25q70 -19 109 -70.5t39 -124.5q0 -179 -173 -201q2 -12 9 -22q69 -21 110 -65q44 -49 44 -117q0 -257 -225 -257q-31 0 -93.5 7t-94.5 7q-16 0 -47 -9.5t-45 -9.5q-11 0 -11 11q30 59 59 117q51 97 61 97q4 0 14 -20t32 -29.5t63 -9.5q46 0 76 19
q35 22 35 65q0 20 -17.5 33t-38.5 13q-48 0 -48 -24q0 -8 5 -18.5t5 -21t-62 -10.5q-51 0 -77.5 32t-26.5 85q0 54 46 86q38 26 96 33z" />
    <glyph glyph-name="h" unicode="h" horiz-adv-x="512" 
d="M258 5q0 -12 -10 -12h-229q-11 0 -11 12q0 -3 20.5 22.5t20.5 51.5v647q0 36 -19 68t-19 28q0 5 9 9q46 16 135 56q65 36 67 36q10 0 10 -11v-348q80 87 131 87q78 0 103 -63q16 -39 16 -131v-378q0 -26 20.5 -51.5t20.5 -21.5q0 -13 -10 -13h-230q-11 0 -10 13
q17 24 21.5 35t4.5 38v342q0 50 -22 50t-45 -42v-350q0 -49 20 -65q6 -6 6 -9z" />
    <glyph glyph-name="i" unicode="i" horiz-adv-x="283" 
d="M281 5q0 -12 -11 -12h-245q-10 0 -10 12q0 -3 20.5 22.5t20.5 51.5v388q0 36 -19.5 68t-19.5 28q0 6 10 9q46 16 135 56q17 11 34 21q25 15 32 15q11 0 11 -11v-574q0 -26 21 -51.5t21 -22.5zM135 690q-39 0 -66.5 29t-27.5 69q0 39 27.5 68.5t66.5 29.5t67 -29.5
t28 -68.5q0 -40 -28 -69t-67 -29z" />
    <glyph glyph-name="j" unicode="j" horiz-adv-x="302" 
d="M312 -48q0 -70 -49.5 -117.5t-119.5 -47.5q-61 0 -104 29q-49 33 -49 90q0 39 23 67.5t61 28.5q36 0 36 -15q0 -3 -9.5 -13.5t-9.5 -24.5q0 -30 38 -30q11 0 19 10.5t8 22.5q0 23 -36.5 69t-36.5 84v362q0 36 -19 68t-19 28q0 6 9 9q46 17 135 57q65 35 67 35
q10 0 10 -11v-496q0 -36 23 -102.5t23 -102.5zM155 690q-40 0 -67.5 29t-27.5 69q0 39 27.5 68.5t67.5 29.5q39 0 66.5 -29.5t27.5 -68.5q0 -40 -27.5 -69t-66.5 -29z" />
    <glyph glyph-name="k" unicode="k" horiz-adv-x="545" 
d="M257 5q0 -12 -10 -12h-230q-10 0 -10 12q0 -3 20.5 22.5t20.5 51.5v647q0 36 -19.5 68t-19.5 28q0 6 10 9q46 16 135 56q66 36 67 36q10 0 10 -11v-463q80 129 80 152q0 13 -5 19l-6 7q0 13 11 13h245q10 0 10 -9q0 -7 -7 -12q-37 -23 -45 -30q-22 -17 -36 -40l-90 -146
l109 -321q12 -36 61 -68q7 -5 7 -10q0 -11 -11 -11h-229q-11 0 -11 11q0 6 5 10t5 14q0 47 -56 179l-37 -60v-68q0 -49 20 -65q6 -6 6 -9z" />
    <glyph glyph-name="l" unicode="l" horiz-adv-x="288" 
d="M284 5q0 -12 -11 -12h-244q-11 0 -11 12q0 -3 20.5 22.5t20.5 51.5v647q0 36 -19 68t-19 28q0 5 9 9q46 16 135 56q17 10 34 21q25 15 33 15q10 0 10 -11v-833q0 -26 21 -51.5t21 -22.5z" />
    <glyph glyph-name="m" unicode="m" horiz-adv-x="776" 
d="M267 5q0 -12 -11 -12h-229q-11 0 -11 12q0 -3 20.5 22.5t20.5 51.5v377q0 37 -19 68.5t-19 27.5q0 6 9 9q46 17 135 56q65 36 67 36q12 0 12 -39q0 65 -2 -50q80 87 131 87q94 0 112 -94q84 94 137 94q78 0 104 -63q15 -39 15 -131v-378q0 -26 21 -51.5t21 -21.5
q0 -13 -11 -13h-229q-12 0 -11 13q18 25 22 35.5t4 37.5v342q0 50 -22 50q-21 0 -44 -42v-350q0 -27 4 -37.5t22 -35.5q1 -13 -11 -13h-213q-12 0 -11 13q18 25 22 35.5t4 37.5v342q0 50 -22 50t-45 -42v-350q0 -49 20 -65q7 -6 7 -9z" />
    <glyph glyph-name="n" unicode="n" horiz-adv-x="527" 
d="M267 5q0 -12 -11 -12h-229q-11 0 -11 12q0 -3 20.5 22.5t20.5 51.5v377q0 37 -19 68.5t-19 27.5q0 6 9 9q46 17 135 56q65 36 67 36q12 0 12 -39q0 64 -2 -50q80 87 131 87q78 0 103 -63q16 -39 16 -131v-378q0 -26 20.5 -51.5t20.5 -21.5q0 -13 -10 -13h-229
q-12 0 -11 13q18 24 22 35t4 38v342q0 50 -22 50t-45 -42v-350q0 -49 20 -65q7 -6 7 -9z" />
    <glyph glyph-name="o" unicode="o" horiz-adv-x="468" 
d="M475 318q0 -155 -38 -232q-53 -108 -193 -108q-139 0 -192 108q-39 77 -39 232q0 156 38 232q53 107 193 107t193 -108q38 -76 38 -231zM283 187v260q0 16 -12.5 28t-28.5 12t-28.5 -12t-12.5 -28v-260q0 -16 12.5 -28t28.5 -12t28.5 12t12.5 28z" />
    <glyph glyph-name="p" unicode="p" horiz-adv-x="505" 
d="M233 425v-224q21 -50 40 -50q27 0 27 44v240q0 36 -27 36q-20 0 -40 -46zM277 -184q0 -12 -10 -12h-244q-11 0 -11 12q0 -3 20.5 22t20.5 52l-1 564q0 36 -19 68.5t-19 27.5q0 6 9 10q45 16 133 56q64 35 66 35q11 0 12 -24q0 5 -1 -32q53 58 118 58q63 0 101 -61
q33 -52 33 -119v-287q0 -193 -134 -193q-62 0 -117 49v-156q0 -24 21.5 -47.5t21.5 -22.5z" />
    <glyph glyph-name="q" unicode="q" horiz-adv-x="476" 
d="M278 39q-65 -49 -123 -49q-79 0 -111 62q-23 45 -23 132v284q0 71 47 128q50 61 120 61q45 0 88 -28q40 -27 66 -68q34 33 101 99l8 3q11 -1 11 -11v-767q0 -26 21 -50.5t21 -29.5t-11 -5h-244q-11 0 -11 10q41 48 41 75zM278 437q-22 32 -44 32q-29 0 -29 -66
q0 -7 1 -21v-21l1 -100v-65q4 -48 27 -48q22 0 44 29v260z" />
    <glyph glyph-name="r" unicode="r" horiz-adv-x="399" 
d="M260 4q0 -12 -11 -12h-229q-11 0 -11 12q0 -3 21 22t21 51v388q0 36 -19.5 68t-19.5 28q0 5 9 9q46 16 136 56q65 36 66 36q13 0 13 -44q0 -9 -1 -25t-1 -24q47 74 98 74q38 0 60 -35q18 -29 18 -70q0 -16 -3 -32q-6 -37 -27 -66q-23 -32 -45 -26q-2 0 -13 26
q-10 23 -32 23q-5 0 -12 -1q-20 -5 -28.5 -28.5t-15.5 -45.5v-311q0 -48 19 -64q7 -6 7 -9z" />
    <glyph glyph-name="s" unicode="s" horiz-adv-x="457" 
d="M461 570q-2 -7 -39 -50q-21 -31 -64 -93q-5 -6 -11 -6q-4 0 -14 21q-13 26 -26 38q-20 21 -48 21q-15 0 -29 -8.5t-14 -21.5q0 -25 63 -64q87 -54 116 -82q63 -61 63 -140q0 -90 -60 -150t-150 -60q-50 0 -119 29t-91 29q-4 0 -11 -3t-12 -3q-10 0 -10 11q0 3 2 7
q0 1 30 46q20 39 61 117q4 8 9 8q1 0 35 -35t73 -35q48 0 48 33q0 34 -60 71q-93 58 -112 76q-60 55 -60 134t58.5 139.5t137.5 60.5q61 0 128.5 -40.5t80.5 -40.5q3 0 7.5 1.5t7.5 1.5q10 0 10 -12z" />
    <glyph glyph-name="t" unicode="t" horiz-adv-x="333" 
d="M307 6q0 -13 -11 -13h-244q-11 0 -11 13q0 -4 20.5 21t20.5 52v455q-5 0 -17 -1h-18q-34 0 -34 12q0 17 8 53q9 42 17 42h44v17q0 56 -38 96q0 5 9 9q48 20 104 57q49 35 98 69q10 0 10 -11v-237h76q10 0 10 -11q0 -17 -8 -53q-8 -42 -17 -42h-61v-455q0 -27 21 -52
t21 -21z" />
    <glyph glyph-name="u" unicode="u" horiz-adv-x="528" 
d="M309 69q-84 -96 -138 -96q-78 0 -104 63q-15 39 -15 131v283q0 71 -32 99q-7 6 -7 12q0 5 9 9q46 17 135 56q17 10 34 21q26 15 33 15q11 0 11 -11v-448q0 -50 22 -50q24 0 50 53v259q0 36 -19.5 68t-19.5 28q0 5 10 9q46 16 135 56q65 36 66 36q11 0 11 -11v-572
q0 -26 21 -51.5t21 -22.5q0 -12 -11 -12h-187q-15 0 -25 76z" />
    <glyph glyph-name="v" unicode="v" horiz-adv-x="531" 
d="M213 -7q-8 0 -10 8l-145 551q-6 21 -34 48t-28 28q0 12 11 12h245q11 0 11 -12q0 2 -12.5 -17t-12.5 -36q0 -41 51 -205l45 218q3 16 3 30q0 25 -17 51.5t-17 23.5q0 8 9 12q138 60 245 160l8 3q11 0 11 -10q0 -29 -10 -72q-9 -35 -17 -71q-36 -169 -122 -573
q-7 -49 -30 -140q-4 -9 -11 -9h-173z" />
    <glyph glyph-name="w" unicode="w" horiz-adv-x="799" 
d="M207 -7q-8 0 -10 8l-137 551q-10 40 -55 67q-7 4 -7 9q0 12 11 12h245q11 0 11 -11q0 1 -12.5 -18t-12.5 -37q0 -8 2 -17l43 -178l35 177q3 15 3 29q0 22 -15 44q0 11 11 11h192q11 0 11 -11q-15 -22 -15 -44q0 -14 3 -29l32 -165l40 166q2 9 2 17q0 17 -12 36.5
t-12 17.5q0 12 10 12h245q11 0 11 -12q0 -5 -7 -9q-45 -27 -55 -67l-136 -551q-2 -8 -11 -8h-143q-9 0 -11 9l-50 292l-59 -292q-2 -9 -11 -9h-136z" />
    <glyph glyph-name="x" unicode="x" horiz-adv-x="536" 
d="M234 570l1 -1q0 1 -1 1zM308 63v1v-1zM303 569v1v-1zM228 61v-1v1zM561 629q0 -6 -8 -10q-55 -32 -74 -70l-117 -228l122 -238q19 -37 74 -69q8 -4 8 -10q0 -11 -11 -11h-245q-10 0 -10 10q0 2 6.5 12.5t6.5 22.5q0 20 -17 52q-14 25 -27 49q-15 -25 -29 -51
q-17 -33 -17 -54q0 -12 6.5 -22t6.5 -12q0 -10 -11 -10h-244q-11 0 -11 11q0 6 7 10q56 32 75 69l124 241l-117 228q-20 38 -75 70q-7 4 -7 10q0 11 10 11h245q10 0 10 -10q0 -2 -6 -12.5t-6 -22.5q0 -21 14 -48q12 -22 25 -44q12 22 25 44q14 27 14 48q0 13 -7 22.5
t-7 11.5q0 11 11 11h245q11 0 11 -11z" />
    <glyph glyph-name="y" unicode="y" horiz-adv-x="534" 
d="M224 -185h-2h2zM174 48l-132 504q-6 24 -33.5 50t-27.5 32t10 6h245q11 0 11 -12q0 2 -12.5 -17t-12.5 -36q0 -40 47 -191q49 175 49 193q0 17 -11.5 34.5t-11.5 19.5q0 9 11 9h245q10 0 10 -9q-29 -30 -64 -80q-43 -130 -99 -337q-78 -289 -93 -340q-17 -60 -70 -60
q-29 0 -87 2t-88 2q-11 0 -34.5 -2t-34.5 -2t-11 11q35 99 81 215q4 7 12 7q1 0 13.5 -32t40.5 -32q31 0 40 18q5 10 7 45v2z" />
    <glyph glyph-name="z" unicode="z" horiz-adv-x="490" 
d="M500 4q0 -11 -11 -11h-103q-70 -1 -104 -1l-266 1q-11 0 -11 11q0 4 100 218q114 242 118 251q-19 1 -56 0q-28 -2 -41 -17q-6 -7 -12 -26q-5 -14 -12 -14q-5 0 -9 6.5t-25 63.5l-54 146q1 11 11 11l5 -1l-2 1q37 -6 96 -6q30 0 91.5 1.5t91.5 1.5h181q10 0 10 -11
q0 -4 -100 -218l-116 -250q21 0 63 1q27 1 40 18q6 8 12 31q5 16 13 16q5 0 8 -5.5t24 -60.5q22 -58 58 -157z" />
    <glyph glyph-name="braceleft" unicode="{" horiz-adv-x="291" 
d="M289 5q0 -12 -11 -12h-245q-10 0 -10 12q0 -3 20.5 22.5t20.5 51.5v268q0 36 -19.5 68t-19.5 28q0 6 10 9q45 16 135 56q17 11 33 21q26 15 33 15q11 0 11 -11v-454q0 -26 21 -51.5t21 -22.5zM143 540q-39 0 -66.5 29t-27.5 69q0 39 27.5 68.5t66.5 29.5t67 -29.5
t28 -68.5q0 -40 -28 -69t-67 -29z" />
    <glyph glyph-name="braceright" unicode="}" horiz-adv-x="415" 
d="M223 468q0 -14 54 -45q69 -41 99 -72q54 -54 54 -123q0 -81 -52 -159q-31 -45 -126 -130.5t-147 -115.5q-4 -3 -8 -3q-8 0 -13 10q-3 7 -22 88t-19 88q0 9 104 88.5t104 114.5q0 28 -60 66q-89 55 -111 76q-60 56 -60 129q0 79 55 130.5t134 51.5q18 0 54.5 -5t54.5 -5
q44 0 96 10l9 -3q4 -4 4 -10q0 -1 -24 -60q-12 -27 -23 -73q-15 -59 -20 -75q-4 -12 -15 -12q-65 61 -99 61q-23 0 -23 -22z" />
    <glyph glyph-name="asciitilde" unicode="~" horiz-adv-x="664" 
d="M407 288q-52 0 -97 29q-20 13 -64 55q-30 30 -48 30q-27 0 -27 -38q0 -15 24 -35t24 -21q0 -35 -66 -35q-57 0 -92 48q-31 43 -31 101q0 64 47.5 109t111.5 45q52 0 98 -30q22 -14 63 -54q30 -30 45 -30q31 0 31 38q0 15 -23.5 33.5t-23.5 22.5q0 35 66 35q56 0 91 -48
q31 -44 31 -102q0 -64 -48 -108.5t-112 -44.5z" />
    <glyph glyph-name="exclamdown" unicode="&#xa1;" horiz-adv-x="250" 
d="M-41 758q0 48 35 82.5t83 34.5t82.5 -34.5t34.5 -82.5t-34.5 -83t-82.5 -35t-83 35t-35 83zM227 -86q0 -8 -37 -11q-51 -4 -89 -15q-26 -8 -69 -31q-48 -25 -69 -32q-15 0 -15 15q0 4 9.5 10t22.5 49q10 38 12 57l39 542q1 21 -12 42t-13 19q0 3 12 3q53 0 116 45l5 1
q6 -3 7 -9l37 -595q1 -24 22.5 -57.5t21.5 -32.5z" />
    <glyph glyph-name="cent" unicode="&#xa2;" horiz-adv-x="470" 
d="M304 -20q0 -7 -5 -9t-13 -1q-12 2 -21 2t-42 -12t-37 -12q-11 0 -11 11v157q-92 26 -126 130q-23 68 -23 191q0 122 22 190q34 104 125 130q2 69 2 60q0 11 -7 33t-7 33q0 7 5 9t14 1q12 -1 21 -1t42 11.5t36 11.5q11 0 11 -11v-141q49 -8 87 -35q43 -30 56 -74
q1 -3 1 -4q0 -5 -6 -10l-66 -52q-37 -31 -61 -60l-8 -4q-10 -1 -11 19q-2 29 -5 37q-8 20 -33 20q-16 0 -27 -11t-11 -27v-247q0 -17 14 -31t31 -14q51 0 51 48q0 22 -22.5 29.5t-22.5 13.5q0 19 35 38q32 16 52 16q48 0 79 -43q28 -39 28 -89q0 -65 -46.5 -114t-111.5 -59
q-1 -6 -2 -32q-1 -19 -1 -31t7 -33.5t7 -33.5z" />
    <glyph glyph-name="sterling" unicode="&#xa3;" horiz-adv-x="571" 
d="M580 -5q0 -10 -11 -10h-475q-11 0 -11 9q0 6 8 12q19 16 34 57q51 138 51 270v6l-143 1q-10 0 -11 10l4 8q28 28 55 99q4 10 11 10q11 0 31 -6.5t31 -6.5h13q-16 59 -31 117q-18 70 -18 118q0 85 70 143q66 55 153 55q85 0 148 -45q71 -51 71 -132q0 -57 -29 -96
q-32 -42 -88 -42q-33 0 -70 21q-42 25 -42 55q0 10 23 10q40 0 40 35q0 38 -48 38q-25 0 -41.5 -16.5t-16.5 -41.5q0 -47 15 -110q14 -54 27 -108l179 1q10 0 10 -11l-3 -8q-37 -36 -64 -102q-3 -10 -10 -10q-13 0 -41.5 8t-43.5 8l-13 -1q0 -98 -24 -188l90 1q27 0 48 17
q13 10 28 31q12 17 16 17q6 0 11 -9t67 -214z" />
    <glyph glyph-name="currency" unicode="&#xa4;" horiz-adv-x="638" 
d="M61 475l3 8q17 17 22 68q4 44 13 44q6 0 30 -8t38 -8q28 311 247 311q78 0 135.5 -39.5t80.5 -112.5v-3q0 -7 -8 -11q-57 -26 -82 -50q-8 -7 -63 -72l-9 -5q-10 1 -11 16q1 -7 1 24q0 25 -12 43q-13 22 -37 22q-39 0 -48 -48q-1 -9 -1 -74l177 -1q11 0 11 -10l-3 -8
q-43 -42 -64 -102q-3 -10 -11 -10q-5 0 -20 4.5t-19 5.5q-28 5 -71 5v-41l100 -1q10 0 10 -10l-3 -8q-17 -17 -22 -68q-4 -44 -14 -44q-6 0 -29 8t-36 8h-6v-73q0 -22 14 -41t35 -19q31 0 41 27q5 12 7 50q2 27 12 27l9 -5q55 -65 62 -71q26 -24 82 -50q9 -4 9 -11l-1 -4
q-20 -71 -79.5 -111t-135.5 -40q-225 0 -250 320l-171 1q-11 0 -11 10l3 8q43 42 64 102q3 10 10 10q-7 0 32 -8q30 -7 69 -7v12v29l-90 1q-10 0 -10 10z" />
    <glyph glyph-name="currency" unicode="&#x20ac;" horiz-adv-x="638" 
d="M61 475l3 8q17 17 22 68q4 44 13 44q6 0 30 -8t38 -8q28 311 247 311q78 0 135.5 -39.5t80.5 -112.5v-3q0 -7 -8 -11q-57 -26 -82 -50q-8 -7 -63 -72l-9 -5q-10 1 -11 16q1 -7 1 24q0 25 -12 43q-13 22 -37 22q-39 0 -48 -48q-1 -9 -1 -74l177 -1q11 0 11 -10l-3 -8
q-43 -42 -64 -102q-3 -10 -11 -10q-5 0 -20 4.5t-19 5.5q-28 5 -71 5v-41l100 -1q10 0 10 -10l-3 -8q-17 -17 -22 -68q-4 -44 -14 -44q-6 0 -29 8t-36 8h-6v-73q0 -22 14 -41t35 -19q31 0 41 27q5 12 7 50q2 27 12 27l9 -5q55 -65 62 -71q26 -24 82 -50q9 -4 9 -11l-1 -4
q-20 -71 -79.5 -111t-135.5 -40q-225 0 -250 320l-171 1q-11 0 -11 10l3 8q43 42 64 102q3 10 10 10q-7 0 32 -8q30 -7 69 -7v12v29l-90 1q-10 0 -10 10z" />
    <glyph glyph-name="yen" unicode="&#xa5;" horiz-adv-x="639" 
d="M254 277l-157 1q-11 0 -11 11l3 8q27 25 56 99q4 9 11 9q10 0 30 -6t31 -6h33q-125 174 -121 325q-11 1 -22 1q-18 0 -46.5 -12t-27.5 -12q-11 0 -11 10q0 6 18.5 84.5t20.5 80.5q7 11 91 11q22 0 66 -1.5t66 -1.5q11 0 11 -11q-11 -28 -11 -61q0 -126 67 -240
q20 66 40 133q29 101 29 124q0 15 -11.5 29t-11.5 20t10 6h240q10 0 10 -9q0 -2 -29 -26.5t-34 -40.5l-140 -409h149q11 0 11 -11l-4 -8q-35 -35 -63 -102q-4 -10 -11 -10q7 0 -35 9q-25 6 -62 6l-1 -217q0 -20 21 -40.5t21 -19.5q0 -13 -11 -13h-247q-11 0 -11 13
q0 -1 21 20t21 40z" />
    <glyph glyph-name="dieresis" unicode="&#xa8;" horiz-adv-x="283" 
d="M170 788q0 -34 -23.5 -58.5t-56.5 -24.5t-56 24.5t-23 58.5q0 33 23 58t56 25t56.5 -25t23.5 -58zM395 788q0 -34 -23.5 -58.5t-56.5 -24.5t-56 24.5t-23 58.5q0 33 23 58t56 25t56.5 -25t23.5 -58z" />
    <glyph glyph-name="copyright" unicode="&#xa9;" horiz-adv-x="1466" 
d="M618 1216l-5 5q-2 0 -4 3l-10 -8l1 4q0 4 -6 6q2 3 6 3q6 0 13 -5l5 4q-5 -4 0 -12zM590 1232l-7 -15l-6 4q1 1 1 3q-1 1 -22 8h34zM628 1064q-5 2 -10 2t-15 -3q-7 -2 -21 1l-2 -5q-3 3 -7 3q-15 0 -15 -1l-7 -7q-28 -5 -45 -5l-7 5q-5 -6 -11 -6l-4 1l3 5l-7 2l-3 -4
q-2 3 -10 2.5t-11 4.5l-15 -3l-9 8q-4 -6 -14 -6q-5 0 -17.5 3.5t-21.5 2.5l-7 4q-8 -2 -16 -2q-6 0 -17 1t-17 1l-2 5q2 7 14 7q5 0 5 -7q2 0 8 1t9 1l9 -2l9 5l5 -5l12 7l3 -4q1 -1 23 -1q8 0 28 -6t30 -6q12 0 36 8q0 -6 6.5 -8t12.5 -4l2 7l5 -2l9 7l-4 -5l2 -5
q5 0 13.5 4.5t17.5 4.5q-1 0 26 6v-8q14 4 20 4l7 -1v-7zM311 1083l-13 -12l-9 7q-3 -1 -7 -9l-6 3v-2l-5 5q8 11 18 14l12 -5zM1416 568q0 -283 -200 -483t-483 -200q-282 0 -482.5 200t-200.5 483q0 254 167 448l-1 -7q0 -3 3 -12l3 2l4 -7l-7 -5l5 -2l-2 -3l4 -2l-4 -2
l7 -8l-10 -7l15 -12q11 0 16 -5l-2 -2l7 -2q5 -5 -2 -12l7 -5l-1 -2q0 -1 2 -4t-1 -4q2 -3 5 -3t9 6l7 -7l-2 -5l5 -5l-3 -5q13 -9 14 -9q4 0 5 5l-7 7q9 -4 22 -17t24 -17q6 -2 10 -12.5t6 -13.5l-2 2q-4 -5 -4 -11q0 -5 16 -7.5t19 -7.5l-2 -9q12 -7 16 -15q10 -5 12 3
q7 -6 0 -12q7 -8 12 -3l5 -9h5l-5 -3q5 -7 17 -19l2 3l5 -10l7 -5q4 -8 14 -24l-12 -7l3 -2l-3 -3l5 -2l-5 -2l3 -5q-3 1 -7 1q-2 0 -9 -4q-5 -3 -20 0l-5 -4l-2 7l12 2l9 12l-2 7q-7 0 -17.5 -7.5t-15.5 -8.5l2 -3q0 -1 -2 -1l-5 4q-3 2 -5 -3l-12 5l-7 -5q-6 2 -14 10
l-3 -3l-9 12v3q-1 5 -8 9l5 3l-5 2v7l-4 3l4 2l-2 5q6 7 12 24h-10l-9 4q-7 -1 -19 -7l5 -2l-5 -7l5 -3l-8 -2l8 -5l-5 -10l7 -11l-5 -3l7 -2l-4 -2l9 -12l-3 -7l1 -1l-2 -2l11 -10q7 -2 21 -7l6 3l1 -4q4 0 8 1l2 -2l5 5l5 -7h4q8 0 15 -3q-7 -5 -9 3l-3 -5q-14 7 -31 5
l5 2l-1 1q-3 0 -7 1l-4 -2q-8 1 -24 7h-19l-7 5l-5 -5l-14 7l-5 -5l7 -9l5 5l11 -5h-1q-6 0 -6 -2q0 -3 5 -5l-4 -5l-3 5l-5 -3l3 -2q-4 1 -5 7t-2 7l-9 -7l2 -2l-3 2h1q-5 5 -11 5q-5 0 -19 -5l5 -7q10 -2 54 -14.5t46 -12.5q5 0 8 3l-1 1q6 -6 28 -10q18 -4 18 -10
q0 -4 -2.5 -12t-2.5 -12l5 -5q10 3 5 10h4q4 0 8 7l-7 7l4 5l10 -5l7 10q7 0 16.5 7.5t14.5 8.5l-5 3l5 2v7q3 -4 22 -16l5 2l-2 2q-3 2 -6 5l6 -5q2 -1 5 -1l8 4q-2 -4 -14 -11.5t-12 -14.5v-3l12 -9l5 2q4 -4 10 -4q-3 0 21 6l10 -2q-8 -3 -8 -8q0 -3 5 -13l-5 -5
q16 -11 20 -11q5 0 5 6q0 5 -6 9t-11 8l7 12l2 -3l5 7q-7 5 -22 10l8 10l2 -3q1 1 2 3l3 -3q12 11 28 38l-7 3l5 2l-10 5q6 8 3 21l9 5l-2 3l2 2q1 0 1.5 -1t1.5 -1t2 8l-5 11q8 5 10 19h3q7 -1 15 9q12 14 13 15l-2 4l-4 1q-9 0 -11 -5l-2 4l-3 -2q6 2 17 7l3 3
q-1 -2 -3 -3q2 -1 5 -1q4 0 11.5 3.5t12.5 2.5q6 4 5 7q-3 7 -3 8v4h3q6 0 15 7t11 7q-3 1 -5 6t-3 5l-2 -1l-14 -5l-5 5q6 2 7.5 15.5t7.5 17.5q-1 -1 -1 -3q0 -3 5 -4q7 4 24 3q3 3 10 7t9 7q2 -3 0 -8q-2 -6 -2 -8q0 -4 5 -5q7 0 12 14q7 2 21 12l5 -5l-10 -12l10 -9
l10 7l-3 2l3 2l-5 3v7l9 2l-1 3q0 3 4 7.5t4 7.5q0 2 -2 4l-2 -2v7l2 -3l5 7q9 -15 23 -15q9 0 13 11l-10 2l-5 -5l-14 7q-1 2 -1 5q0 2 5 7.5t5.5 7t1.5 2.5q0 -3 1 -6q2 0 7 6l-2 5q4 8 26 2l12 5l7 -5h2q2 -6 10 -12h2l5 7q-2 8 -12 12q12 0 17 5l-10 12l5 -5q13 7 18 7
q8 0 13 -12q2 4 10 10l-5 2l7 8q0 7 -14 12l-10 -5l3 -5q-3 2 -11 -1q-6 -1 -8 3l-5 -4l-5 2q0 4 6 5t6 5l6 -1q7 0 20.5 5t9.5 10q5 5 14 0q2 0 2 3t-16 11l-5 -7l-2 2q-5 -10 -14 -10q-10 0 -22 10l-5 -9l-5 2q-9 -14 -22 -14q-3 0 -9 -3.5t-9 -3.5l-7 5q-2 -2 -22.5 -9.5
t-24 -7.5t-4.5 -5l-4 2l-5 -4q-3 3 -5 3q-1 0 -7 -3q-4 -2 -7 0l-5 -8l-6 2q-4 0 -12 -2.5t-13 -1.5l-5 -7l-12 5l-5 -5q-6 -1 -14 5l-7 -7q-1 3 -5 1q-6 -2 -6.5 -2t-0.5 3l12 9l14 -2q18 11 55 34l-2 -3l5 -2l2 5l2 -3q8 9 31 13.5t31 10.5l12 -2l-2 2l10 5l-5 2
q6 2 14 -2l7 5h17q9 0 12 7l-10 5l5 2l-2 2l52 10l-4 9l-3 1q-4 0 -10.5 -3t-10.5 -3q-3 0 -5 1l14 7l-2 2l2 3l-7 2q-2 -3 -7 -2.5t-7 -2.5l2 -2q-2 0 -4.5 2.5t-3.5 2.5l-9 -5l-4 2l-10 -5l2 -2q-39 1 -45 -7q-4 -1 -7 -2l-3 4l10 -2q7 3 17 12l-3 5q1 0 19 19l1 -4
q0 -5 -8 -11l5 -9q12 2 34 12l-3 2l5 7l6 -1q4 0 10 4t8 5l-5 2l7 5l12 -7l7 9l5 -1q5 0 10 3l-3 5l12 -2l12 7q0 7 -9 7q-19 -9 -32 -9q-16 0 -16 3q0 1 5 4l-5 5q-1 -1 -23 -8q-13 -5 -20 -14v-7h-6q-9 -1 -11 7q-5 -2 -14 -7q1 -2 1 -4q0 -4 -6 -6v8l-12 7q-1 -7 -7 -8
l-12 -2l2 -2q1 0 -2 1.5t-6 1.5q-8 0 -25.5 -5t-25.5 -5q-4 2 -4 6q0 2 1 3q3 -4 7 -4q3 0 8 5t9 4v9l5 5q3 -4 8 -4q13 0 23 11l2 10l3 -5q-2 -3 -5 -5q4 -3 10 -3l7 1l4 7q-8 5 -8 10l1 2l10 -9q4 0 10 -1h10q11 0 13 8l-5 5l-11 -5l-3 5l5 4q0 8 -10 10q4 3 6 3
q5 0 11 -13l10 10l-5 2l5 12l9 -9l10 9h-7q3 1 3 2q0 8 -14 8l-11 -5l1 3q0 6 -10 12v-1l-3 3l3 -2q3 2 3 4t-11 12l3 5q-8 5 -5 12q-4 4 -14 9q7 3 8 10t1 14l-5 3l-9 -5l-7 7q-8 0 -7 -12l4 -2l-4 -3q14 -9 14 -14q-7 0 -7 -12l-7 2l3 10l-6 7l-2 -7h-17l-10 -5l-4 10
l-5 -5l-2 12q-6 -4 -9 -3l-15 5q-1 -3 -7 -2t-8 -3q-1 2 -1 4t4.5 4.5t4.5 4.5q0 3 -3 4l-5 -5q2 18 26 22q6 1 39 1q283 0 483 -200.5t200 -482.5zM242 1019q0 -5 -6 -8l-2 2l-3 -4l-9 9l2 5q5 -5 14 -2l3 2zM445 644q-4 -4 -8 -4l-9 8q0 4 3 4q6 0 14 -8zM320 665
q-5 6 -17 14q3 0 17 -5l-8 -2zM797 1224l-9 9q-4 -1 -5 -17l7 -4zM919 927l-2 5h-7l-8 10l-4 -5q5 -20 8 -20q6 0 13 10zM892 927q0 4 -4 8l-7 2v-7l-2 -3q9 3 11 -4zM898 913q-15 6 -22 5q-7 7 -12 7t-5 -5q0 -7 13 -10l18 -4zM924 825l-2 4q-1 3 -2 3q-3 0 -8 -7l2 -5z
M929 810l-7 7l-8 -7q8 -2 11 -2t4 2zM912 813v7l-5 2l-7 -7l2 -5q3 -1 5 -1q5 0 5 4zM890 809q0 4 -4 8l-5 -2l2 -2h-3q-7 0 -9 -5l-4 2l-5 -7l5 -5q23 8 23 11zM799 877q0 9 -7 9q-3 0 -16 -14l2 -7q5 5 17 5q4 2 4 7zM1003 612l-7 5l2 5q-5 4 -17 9l5 5q-2 6 -8 6
q-8 0 -18 -11l12 -5l-3 -4q1 -1 3.5 -8t6.5 -7v12l2 5q11 -16 16 -16q3 0 6 4zM882 725q-3 7 -6 7q-2 0 -3 -5l-3 -2q5 -5 8 -5t4 5zM960 617l-3 2q2 1 3 3q0 4 -8 4q-9 -4 -14 -7q7 -9 15 -9l-3 -3l5 -2zM864 688q-15 12 -19 34l10 7l-5 5q-11 0 -17 -10l3 -4l-5 -5
q8 -17 26 -33zM943 612q-5 6 -17 14l-12 -7q0 -3 10 -8.5t13 -5.5q4 0 6 7zM962 548q-2 11 -12 31l-5 -3l-1 -5q0 -4 4.5 -5.5t4.5 -11.5q0 -4 4 -4l-4 -2h9zM950 684l-9 12l-3 -5l-2 2q-10 -7 -24 -26l-5 10l-2 -3l-3 3l-12 -12l-8 1q-12 0 -20 -6l2 2l-5 3l-4 -3l-3 5
l-5 -2l3 2h-7q-1 5 -8 8.5t-9 5.5l2 3l-4 2v4q0 10 -8 18l3 4l-5 3q3 7 12 19l-5 5q-8 -4 -26 -10q-10 -9 -17 -9l-5 -8q-3 -1 -4 -1t-2 1l6 12q1 0 2 1.5t2 1.5t4 2q2 2 4 -1q1 3 23 15t28 14q18 -6 13 -6q3 0 6 2l-3 2q10 -1 27 5l9 -7l10 5q4 -1 14 -6.5t17 -5.5l2 5
q-3 4 -12.5 7.5t-11.5 8.5q-3 -1 -6 -1t-3 4l4 7l-4 5l-5 -5q-7 7 -12 2l-5 5q1 0 -15 0q-6 0 -9 -5l-5 3l-9 -8q-2 2 -5 2q-10 0 -30.5 -9.5t-24.5 -18.5q-1 5 -6 5q-2 0 -16 -11.5t-16 -14.5l2 -7q-14 -10 -24 -20l8 -7q7 0 9 12l15 -9l9 12v-12l-2 2l-3 -5l-2 3
q-2 0 -3 -9q0 -14 12 -20l3 5l2 -5l3 2q2 -2 1 -8l-1 1v1q0 2 -2 2q-4 0 -13 -5l-4 5q-3 -1 -4 -4q1 5 1 13l-7 3l2 2l-14 -2q7 -8 7 -15q-11 6 -33 15l-5 7q-9 1 -22 -7l5 -5q-4 -2 -4 -6q0 -5 4 -8.5t8 -1.5l-8 -6l-24 3l-4 -5l2 5l-11 1q-8 0 -37 -6l5 -3l-5 -2l10 -5
l2 5q4 -2 12 -5l-9 -4q-12 7 -15 7q-5 0 0 -5l-7 5q3 2 5 4l-3 5q-9 -1 -19 -1q-14 -2 -14 -6q-11 -11 -11 -18l4 -8q1 3 5.5 3.5t4.5 2.5t-1 3l10 -7q4 0 4 4q0 3 -2 6l5 -7l2 2l3 -2l2 4h5q-2 -6 -14.5 -7.5t-14.5 -8.5l-2 2q-5 -5 -7 -17l-3 3l-2 -7q5 -5 17 -12q2 0 2 2
q0 4 -5 12l12 5v12q12 0 17 4l-2 -2q2 -1 5 -1t8 2.5t8 2.5q5 0 7 -6q3 7 15 7l9 -5l12 7q1 -3 9 -3l8 -4l2 5l27 1q4 0 4 -11l3 3l2 -3q5 -4 10 -16q4 9 14 9l10 10l-10 4l-2 -4q-1 3 -4 1q-5 -3 -5.5 -3t-0.5 2l2 7q9 2 22 -5l5 5q2 -4 21 -5l3 5l4 -7l8 4l2 -4q4 2 8 2
q6 0 16 -7l2 5q22 0 24 -5l5 5q2 -2 23 -6t25 -4q1 0 1 1q3 -2 6 -3l5 2q10 -7 26 -21l7 7l-7 12l-4 -1q-2 0 -6 3.5t-7 1.5l-7 10l-10 -5l-4 2q9 6 9 11q0 3 -2 6q-2 -2 -4 -2t-3 5l-5 -5q-4 4 -10 4l-9 -4l5 5l-4 3q3 0 11 2l2 -5l7 5h3q4 0 11 -4.5t11 -4.5t4 9
q0 1 -17 7q11 2 24 13t10 20zM895 540v10q-11 2 -33 9l-10 -9q-2 4 -5 4t-9 -6l-5 2q-1 -3 -1 -6q0 -14 22 -14q11 0 15 8q3 -1 5 2l5 -4q11 0 16 4zM836 564l-5 3l5 2q-23 10 -67 31q-2 -5 -5 -5l-3 3l3 2q-1 1 -3 2l3 3q-3 2 -6 2q-10 0 -13 -9l5 -5v-7l4 -5l-2 -5l5 -5
l-3 -4l15 -5l4 12q2 -1 12 -17q2 3 6 3t8 -1.5t10.5 -3.5t9.5 -2q6 0 5 9l7 -5zM925 434q0 1 -4 7q-3 4 1 4l-5 2q-4 -2 -4 -5q0 -5 9 -14q3 3 3 6zM864 503q0 4 -2 9l-5 -5l-5 5q-12 0 -12 -9q0 -7 5 -15l10 12l2 -3q1 2 2 3l3 -3q2 3 2 6zM910 430l-8 10q-4 -6 -4 -12
l7 -7zM1065 555l-10 7l-4 -3q-4 10 -4 11.5t6 3.5l-5 5l-5 -3l-2 5q19 0 21 5q-2 3 -10 3l-9 4l5 5q-3 9 -11 9q-13 0 -13 -12l-5 -12q-2 -5 -9 -14l5 -5l-7 -2q-2 4 0 9q2 8 2 10l-7 7q-3 -5 -6 -5q-2 0 -4 3l3 2q-2 1 -2.5 3.5t-8.5 2.5q-11 0 -28 -3l8 -12l1 -1q7 0 10 8
l8 -5v-12l7 -7l-3 -5l5 -5l-2 -4q4 -3 4 -8t-7 -7l5 -2v-7l-7 -5l5 -3l-2 1q-6 0 -6 -7l3 -8q-2 -2 -4 -2t-3 5q3 5 3 13q0 16 -10 16l-3 -1q2 -7 2 -16l-2 -12l5 -3l-5 -2l3 -3q-4 2 -7 10t-8 9q5 5 8 15l-5 2l-5 -5l-12 5q0 -7 -5 -14q-22 -11 -28 -10l-8 -9l3 -5l-3 -2
l5 -3q-4 -4 -9 -4l-8 4q-4 -3 -31 -5q-3 2 -8 2l-8 -4l-10 5l-7 -5l-2 2q-4 -1 -9 -1l-8 4l-5 -5l-14 10l1 3q0 6 -8 11l-10 -10l-5 3q0 4 3 6t7 1v7l-7 2l-3 -4l-5 4q2 5 13 10t11 12l-7 7l-7 -7q-14 5 -21 10l2 2l-5 2l5 3l-5 2l3 2h-5q-6 0 -7 5q-3 -2 -1 -6q2 -6 2 -7
q0 -2 -1 -3l-5 7l-5 -10q11 -7 24 -29l-10 -7q2 -2 2 -4q0 -1 -3 -7q-2 -5 1 -8q-4 5 -24 3l-7 7q-17 2 -38 9l-7 12l-10 -5q-5 5 -9 15q-7 2 -12 12.5t-7 13.5q2 2 2 6q0 5 -7 11q-5 14 -12 17l-5 -5q0 -12 7 -12l-4 -3l12 -9l-3 -5l5 -5l-2 -4l4 -10l3 2q4 -23 21 -38
q2 -1 14 -5.5t12 -8.5q0 -3 -1 -3q-3 0 -10 8l-5 -3l-3 5h-12q-1 5 -9.5 5t-9.5 5l3 2q-7 4 -17 14l-2 -2q-2 0 -4.5 4t-5.5 3l-12 7q-5 -2 -5 -5q0 -2 4.5 -7t5.5 -7l2 2l5 -7l5 5l-1 -4q0 -4 7 -7t8 -6q8 -14 38 -23l48 -10l3 5q9 -10 27 -10q5 0 6 3q4 -4 14.5 -3.5
t14.5 -4.5l4 5q2 -5 12 -5h3l2 5l10 -5h14v-7q8 -5 22 -19l-8 2q-1 -8 -12 -19l-4 3l4 2q-4 7 -10 7q-9 0 -16 -9l5 7q-3 7 -14 7l2 2q-10 0 -29 10q4 0 4 2l1 -2l10 7q-7 7 -15 7q-2 0 -4 -2l2 -2l-2 1q-4 2 -8 2l-9 -3l2 -5l-7 -7q2 -7 5 -5l-3 -3l-4 3l-3 -5l7 -9l-2 -5
l10 -10l-8 -5q4 -7 22 -12l2 -11l10 -10l5 5l-5 5l2 4l7 -4l-2 -3l2 -2l-2 -3l8 -8q4 -5 11 -4l-5 -4q7 -3 11 -13q4 -14 6 -16l7 2l-2 -4l7 -8v-2q0 -5 -7 -7l-7 12q-2 -4 -4 -4t-5 3t-6 3q-10 0 -10 -7t-2 -10q10 -7 15 -2l7 -5q-1 -1 -9 -3t-8 -5q0 -6 11 -7t13 -4
q5 6 21 11.5t20 14.5l2 5l2 -2l3 2q7 -2 0 -7q7 -7 17 -7l4 -12q38 6 36 26l7 5q-3 4 -3 8l3 9l-7 7l5 5l-7 4l5 5l-5 3q7 2 14 9v10l-9 5l-5 -5l5 -3l-3 -2l3 -2l-12 2l4 2l1 3q0 3 -6 5t-7 4l8 5q-9 9 -15 2q-9 3 -4 10q-24 15 -31 15q-6 0 -10 -10l-2 12q-2 2 -2 3
q0 3 4 6t4 5q0 1 -2 2q4 3 8 5q-1 -2 -1 -5q0 -7 20 -14l4 5l-2 5l5 4l5 -2q6 5 6 10l-9 7q-14 -5 -12 -15l-5 5l-6 3q5 3 11 4l-5 8q-5 -4 -12 -4q-26 0 -21 1v7q17 -2 50 -2l3 2q14 0 40 8l-2 2l9 -5l3 5l2 -5q11 2 23.5 5t17.5 12l-7 7l-5 -5l-5 5l12 7l-2 3q0 1 1 1
t5 -4q3 -2 5 3q3 -16 9 -16q4 0 11 4l-8 7l10 7l7 -10q7 6 22 17l-5 3l5 2q-1 12 3 12q1 0 4 -5l-3 -5q4 -3 7 -3q2 0 5 3l-2 3l14 12l-4 4l-3 -4q-3 4 -3 5q0 -2 10 11l-2 5l-5 -2l-5 7q8 0 22 5zM723 569q-2 1 -5 7t-7 5l3 2l-5 3l7 5q-3 4 -11 6t-10 3l-10 -2q5 1 5 8v4
l-7 4q-6 -7 -11 -7q-4 0 -11 5q-12 -5 -26 -5l2 -5q-3 -5 -3 -11l6 -12l-5 -3q10 -10 19 -5q5 -12 21 -7l3 -5q12 0 17 5q0 -10 7 -10q11 0 19 8l-3 5l3 -3zM728 510q0 5 -4 7q-5 2 -8 -1q-1 4 -5 4q-2 0 -4 -1l-3 -5l3 -5l-3 -4q8 -6 14 -6q10 0 10 11zM962 282l-5 5
q-3 -4 -24 -13t-27 -9h-6q-5 1 -7 1l-3 -5q-4 3 -10 0q-6 -4 -6 -10l5 -2l-5 -2l5 -5q1 4 13 1q17 -4 18 -4l2 -7l11 -5q6 0 22 12l-4 5l2 5q7 -5 17 2v2q0 11 -14 11l-4 -1q-1 3 -2 3q-2 0 -3 -1q6 5 18 5zM398 772q0 6 -7 6l-9 -4q1 -7 7 -7q2 0 9 5zM262 899q-16 8 -18 8
q-7 0 -7 -13q0 -5 4 -5l7 3q5 1 7 -3zM595 553q0 5 -5.5 14t-10.5 9q-3 0 -4 -5l7 -12q0 -7 10 -11q3 0 3 5zM386 779l-4 7q-1 0 -3 -1q-1 0 -4 4q-3 3 -5 -3q-5 5 -19 10q-3 3 -11 3l-6 -1l-7 -7q1 -3 8 -3l8 -4l3 5q10 -5 31 -12zM390 756q-2 6 -8 6q-3 0 -8.5 -4.5
t-5.5 -7.5t4 -3q6 0 18 9zM795 330l-2 7l-17 3l5 9l-5 3q-5 -5 -12 -10l12 -12l-3 -2l5 -3l-5 -2l3 -5q2 1 19 12zM265 851l-3 9l-7 -7l2 -4q0 -4 2 -4t6 6zM379 729h-7l-2 -5l4 -4zM265 832q-5 4 -9.5 14.5t-7.5 13.5q-2 -2 -4 -2t-3 5q-3 -2 -3 -4t3.5 -6t3.5 -6
q0 -1 -2 -1q3 -7 14 -19zM870 207l-2 4q-1 2 1 4l-5 3l5 2q-5 10 -17 27q-2 -3 -2 -6q0 -6 5 -11l-3 -5q3 -4 10 -12l-3 -5l3 -14q8 11 8 13zM463 607q-4 6 -8 6l-2 -1l5 -10zM671 385l-5 7l2 10l-4 2l4 3l-7 2l5 2q0 1 -5 16q-3 10 -11 10q-4 0 -4 -8q0 -4 3 -6l-2 -4
l-10 2l-5 -7l8 -7l-1 -9q0 -9 5 -18l-4 -7l2 -7l14 12l-4 2l4 3l10 -5zM451 602l-5 3l5 2v7q0 8 -12 8l-10 -12l5 -5l5 2q-1 -1 -1 -3q0 -3 6 -6zM312 712l-7 10q2 1 2 3q0 4 -4 6q-4 -5 -4 -11q0 -10 9 -15zM855 175l-3 5l-12 -8l3 -7q0 2 2 2t2 -2zM326 701l-4 4l-12 -12
l2 -5q5 0 13 10h-1zM802 227q-2 5 -7 5t-12 -7l10 -14v7q0 4 4 5zM394 593l-12 5l-5 4l-7 -2q2 0 2 -2q0 -3 -2 -3l9 -7q9 0 15 5zM789 201l-1 5q-2 0 -2 2q0 3 2 3l-5 2q-16 -12 -19 -29l5 -2q6 4 13 8.5t7 10.5zM761 173l-7 11l-4 -4l2 -5l2 2l-2 -12l2 3l3 -3q4 0 4 8z
M346 576q0 5 -5 10l-2 -3l-3 5q0 3 4 3l-1 2q-11 11 -11 14q0 1 1 3q-3 5 -12 12v9l-5 3l5 2q-7 7 -17 7q2 -11 12 -31l-4 -2l7 -5q-2 -1 -2 -3q0 -1 3 -4q2 -3 -1 -5q6 -4 14 -17l5 3q2 -11 7 -11t5 8zM394 543v5q-12 7 -24 4q2 2 2 3q0 3 -5 4l-9 -11l2 -5q1 4 6 4
q3 0 6 -2q10 3 12 -5l2 5l3 -5zM589 373q-4 29 -4 23q0 7 4 13q-4 8 -4 23q0 6 -5 8q5 5 5 17h-10q-1 2 -5 8.5t-4 10.5l4 2v7q-3 -3 -6 -3q-6 0 -6 6q0 2 4 4.5t4 4.5v3l-10 2q0 4 5 9t5 9v4h-5q-5 14 -15 43l-2 -1q-3 0 -5 5l-4 -2l-3 7q-5 0 -16.5 1.5t-16.5 1.5v4
q-15 0 -23 -16.5t-8 -33.5q-8 -9 -8 -12q0 -2 3 -6t3 -7l-1 -1l-9 -10q7 0 7 -9h-5l-5 -12l-7 5q-9 -8 -31 -8l-5 -4q-5 9 -9 9q-22 0 -17 -2v-5l-5 -2q-8 5 -13 5l-8 -5q7 -4 7 -10v-2l-10 5l-4 -12q0 -10 7 -21.5t7 -19.5q0 -7 -2 -14l7 -8q0 -16 7 -31l-3 -4
q7 -7 13.5 -14t6.5 -15l7 -5l-3 -7q2 -3 19 -14q-2 6 3 19q-5 9 -12 9v8q5 -10 14 -5q8 -12 27 -34l4 -12l-4 -2q3 -11 11 -11q11 4 15 11q3 -3 17 -2l2 -5h3q4 0 10.5 4.5t10.5 4.5l2 -4q7 0 19 7l-2 5l7 2l7 12l29 21l-2 8q2 11 9 11q0 4 -1 12t-1 12zM457 538l-4 10
l-7 -8l3 -4l-7 1q-6 0 -25 -4q-15 -3 -28 0l-3 -5q0 6 -5 7q-8 2 -9 3l-13 -1l-8 1l-3 -5q-5 1 -5 5q1 1 3 2l7 -2q2 2 2 4q0 6 -14 8l-2 -12q-11 7 -41 10q1 1 1 2q0 4 -6 7q-5 0 -14 6t-14 6v3q0 2 -4.5 7t-5.5 7l-2 -3q-1 2 -3 3l-2 -3q-9 14 -13 16q-7 4 -11 8l2 5l-4 5
l-5 -3l2 -2l-2 -2q-2 0 -2 10q0 2 -3 2l-7 -8q-2 5 -10 12q4 0 4 3t-7 11t-11 8l5 2l-7 3l2 2q-6 4 -17 12l-5 -5l-2 5q12 0 12 8q0 11 -12 2q-14 4 -9 11l-5 3l-3 5l3 -3q5 5 5 10q-4 7 -10 12q-1 -3 -6.5 -9t-5.5 -10q0 -2 5.5 -4.5t6.5 -5.5l5 5q-5 -5 -7 -16
q-2 -14 -3 -18l5 -2q-6 -4 -6 -9q0 -4 4 -8q2 7 8 7q3 0 3 -20q0 -12 8 -15q-2 -1 -2 -2t3 -4q2 -3 -1 -4l9 -7l-2 -2l12 -10l-3 -2q8 -8 14 -8q2 0 3 2v-6q3 -15 48 -27q14 5 18 5q6 0 19 -4t20 -3l5 -7l5 2l9 -7l3 5l12 -7l7 4h2q-9 -7 -9 -10q0 -1 2 -2q7 0 16.5 -5
t10 -5t3.5 3q2 1 4 -2l2 5l-10 9l-4 -2q-2 1 -4 3q2 -1 4 -1q3 0 7 3l-3 2q1 -1 27 -7q-15 -2 -15 -10l10 -4l-5 -3q2 -7 10 -19q0 2 2 2t2 -2q5 10 5 12q0 7 -9 7l-5 3l17 2l9 -5l7 5l5 -5q21 7 22 7l12 5l-10 2q5 5 17 12q1 5 1 10zM742 149l-4 2l4 2q1 9 -7 22l-2 -5
l2 -5l-7 -9l2 -5l3 2q-4 -5 -10 -7l5 -2l-5 -3l12 -9q4 1 4 7zM704 192l-7 7q-3 0 -3.5 -6.5t-3.5 -8.5l5 -7l7 7q-3 2 -3 4t5 4zM226 686q-2 4 -9 5t-10 2l-12 -2v-7h-7l3 2l-5 2q-10 -6 -10 -12q2 -5 7 -7l5 8q4 -5 8 -5l9 7l-5 -5q7 -4 14 -4l10 4l-2 5zM697 158l-5 3
l5 2v7q-5 4 -17 10q7 2 7 7l-9 12l-12 -7q4 -6 4 -10q0 -3 -2 -5l-2 3v-8l-5 5l-7 -5l-2 -7q4 -2 9 -2q10 0 14 9l3 -4l-3 -3l5 -2l-9 -12l12 -5l-3 3q12 4 17 9zM659 151q0 6 -7 6l-8 -6q3 -14 10 -14zM128 669l-7 10l5 5l-5 4q-1 -5 -4 -5q-2 1 -3 3l2 5l-9 9v-4
q1 -6 -5 -10q8 -3 12 -14q2 -1 2 -3t-2 -2l10 -7zM661 206l-7 12l-5 -12q0 12 -6 12h-1l-12 -12l-5 2l-4 -2q2 -10 0 -17l4 -2l-4 -3l2 -2q-1 -2 -2 -2q-3 1 -3 2l-2 -5l-3 3q0 3 2 9.5t2 10.5l-4 8q-1 2 -3 2q-4 0 -4 -11l5 -3q2 -2 2 -5t-4 -4q0 3 -4 9t-4 10l-12 -2
l8 -12l-8 -10l3 14l-14 8q-2 -10 -12 -24l4 -3q-7 0 -7 -9l5 -3q5 5 14 7l7 -4q-1 -3 -11 -5t-10 -7l7 -10l7 10l10 -3q8 8 16 8l10 -5l-7 -5l5 -2l-5 -3l10 -12l7 5l-5 2q5 7 14 20q3 -2 6 -2t5 10t11 13l-5 2l5 3l-5 2l2 3q-1 0 -2 2l2 2l-4 3zM720 68q0 6 -9 16
q-3 -3 -3 -7q0 2 10 -14q2 2 2 5zM764 15l-5 2l5 3l-7 7l2 2q-1 4 -5 4q-2 0 -4 -1l-1 -6q0 -15 12 -18zM745 24l-7 8q-8 -3 -3 -15l-5 -5l10 -4q5 4 5 16zM518 237q-1 4 -7 4q-4 0 -8 -2q-2 -7 -2 -10.5t2 -3.5l3 -1q1 0 3.5 3.5t5.5 2.5zM753 -17l-1 8q2 17 -5 19
q-9 -12 -2 -17q-6 -4 -6 -9q6 -10 13 -10zM501 251q-5 0 -10 -5l-9 -9l10 -7l7 9zM484 258l-4 8q-17 -3 -17 -21q0 -2 5 -3zM556 201v10q-4 1 -11.5 -1t-10.5 -2h-4q16 4 24 12q-6 3 -11 3q1 0 -20 -5l-10 -7l-5 2q-2 -4 -6 -2q-7 3 -8 3q-2 0 -2 -3l7 -12l-3 -5q1 -4 5 -12
l-5 -5q7 -2 12 -14l-5 -2l5 -3l-2 -2h12q3 0 2 1q0 1 -1 2q3 4 3 7t-4 4l-3 -5v3q-2 6 -9 15q2 9 6 9q2 0 3 -5q13 10 18 10t9 -8l4 5l-1 3zM702 43q-2 5 -7 15q-2 -3 -4 -3t-4 5q2 7 5 17q-6 2 -8.5 11.5t-5.5 12.5h-7q0 -5 3 -15t3 -15q0 -8 -9 -11v7q-11 12 -14 24l5 17
q1 -3 3 -3q3 0 4 5l-7 12q-1 -1 -2.5 -6t-4 -5t-3.5 7t-2 7q-22 0 -34 -36l5 -10l-12 -7l3 -2l-5 -5q-3 7 -10 17q-1 -3 -3 -3q-4 0 -4 10l2 2q-1 1 -2 3l2 2l-6 5l6 9q1 -2 2 -2t4 3t4 -1l10 5q-3 6 -29 12l-5 10l-9 -10l7 -7q10 1 10 -3q0 -2 -5 -4l-5 -10q0 -3 1 -4t4 -3
q-8 -2 -20 0q-14 -4 -14 -11q0 -1 7 -15l-5 -10l5 -2l-2 -3l5 -2l-5 -2l5 -10l7 10l2 -3l3 3q2 -10 24 -10q4 0 12.5 5t12.5 5q6 0 8 -5q7 0 12 12l-5 2q14 5 22 12q0 -9 7 -9l-5 -3v-5q-1 -7 5 -7q2 0 9 -3q6 -2 10 1l-12 -10q3 -3 9 -3q9 0 17 8l3 -5zM614 109q0 4 -4 4
q-18 0 -18 -19q12 0 14 -8l5 5l-5 3q8 7 8 15zM733 -38q-5 15 -13 15h-2v-7q-1 -2 -1 -4q0 -5 6 -11zM446 251l-2 5h-12l-3 -5l8 -7zM750 -38l-5 5l-3 -5l-2 3q-18 -24 -18 -32q0 -5 6 -5l14 6q-5 0 -5 4q0 5 6 13t7 11zM671 20q-5 5 -15 12l-4 -8l5 -9q3 -5 8 -5h1z
M492 208l-5 5q-4 -5 -31 -5l-3 -4l-1 -1q-3 0 -6 3.5t-6 3.5q-1 0 -3 -2q4 -2 7 -19q4 6 10 7l6 -7l-4 -5l7 -7q1 5 7 15l-5 2l12 10l5 -5zM726 15l-5 2v3q0 4 -4.5 8t-5.5 6l-4 -5l7 -9l2 2l-3 -6q-4 6 -10 6q-11 0 -16 -12l-9 2l-3 3l-4 -15q1 -8 4 -21q3 2 12 31h8l4 -10
q-4 -4 -7 3l-5 -5q5 -2 5 -8q0 -3 -3.5 -11t-3.5 -11q0 -4 2 -6l-7 -7q-2 3 0 8q2 7 2 8q0 4 -4 6l-7 -12l-3 2l-2 -14l14 -7l-7 -5l-5 7l-7 -12h10v-7q15 -8 15 -13q0 -2 -3 -4q12 -9 24 -24h9q-13 10 -9 26l-5 5q-3 -7 -5 -7q-2 1 -2 2q1 8 7 13.5t6 10.5l-6 12q1 2 1 4
t-4 6.5t-4 6.5l4 5q-2 4 -2 8l7 11l-5 9q1 2 3 2t2 -2q2 5 8 13l-1 -1q2 -1 4 -1q5 0 11 4zM654 3q0 9 -12 9q-15 -11 -15 -16l5 -12l12 9q-6 3 -6 4q1 1 4 1zM530 101l-5 2l-5 -2l3 2l-5 3l-5 -5l7 -10q0 2 3 2q2 0 2 -2zM542 77v5l-3 4q-8 -1 -21 -9l2 -5h9zM599 29l-2 5
l-5 -2l-12 7q-14 0 -24 2l-2 -5l-3 3q0 -7 -5 -10l5 -2l7 5l-2 2q5 -1 10.5 -1.5t11.5 -10.5l-3 -2q3 -4 7 -4q10 0 17 13zM635 -49l-3 15q-3 9 3 13l-12 7v-7l-5 -5l5 -2l-5 -3q6 -24 10 -24q7 0 7 6zM566 22l-10 2l-7 -9l7 -7q10 7 10 14zM580 -13l-5 9l-12 -7l5 -3l-5 -2
l12 -5q5 2 5 8zM561 -2l-10 10l-2 -2l-3 4l-2 -2q-5 4 -14 2l-5 2q-3 -1 -3 -5t3 -9l7 7l5 -5l11 5q-4 -4 -4 -10l7 -9zM623 -69l-5 5l-12 -10q3 -18 7 -18q5 0 8 6h-3q-3 0 -3 4l1 4zM595 -56q0 6 -6 6q-11 0 -11 -10q0 -4 4 -4q13 0 13 8zM561 -36l-3 8q-2 5 3 7
q-3 6 -9 6l-10 -6q4 -2 6 -9.5t6 -9.5l4 2q3 0 3 2zM578 -28l-5 2l-5 -9q0 -5 -4 -14t-4 -15q0 -7 8 -14l7 7l-7 12q4 10 10 31zM845 722l-2 -2zM996 526l-3 -2zM898 609h-1l1 1v-1zM875 632q-2 0 -1 2zM897 609v-2h-2zM900 603q0 -1 -1 -2q-2 2 -2 5v1q3 -2 3 -4zM873 632
l-4 -6q1 4 4 6zM793 653l-5 -8q-12 8 -17 0l1 4v2q3 1 3 3q11 -6 18 -1zM775 654q-5 2 -5 5v2q5 -4 5 -7zM772 651l-1 -1l-5 5q5 -1 6 -4zM743 657q-4 -9 -8 -9v7l3 -2q3 1 5 4zM726 614l-10 -7v10q2 1 3 1q4 0 7 -4zM711 638q-5 -2 -13 -2q-34 0 -32 0q-7 5 -12 0l-2 2
q17 4 40 4q11 0 19 -4zM652 638l-3 2v1zM853 438l-5 -3q2 3 4 3h1zM649 640l-7 -6l-4 -1q-6 0 -8 5h3q4 0 11 5zM788 493l-7 -8l-8 8h15zM599 641l-5 -7l-2 2q-1 -1 -3 -2l-2 2q4 1 12 5zM716 516l-2 -2q0 1 2 2zM582 636l-4 -5l-10 12q7 -7 12 -2zM943 261l-2 2h1
q1 -1 1 -2zM758 442l-1 3q1 -2 1 -3zM735 435q-1 -2 -2 -2zM843 301l-4 4q2 -1 4 -4zM839 305l-1 1zM838 306q-15 -10 -19 -10l-3 1l12 7l-4 5l2 4q1 -2 4 -3l-2 -1q4 -1 10 -3zM652 421q-2 0 -3 2zM222 679h-8l3 5zM207 681l-2 -2l-3 5zM347 522q-4 2 -11 6q7 -3 11 -6z
M644 199l-2 -15l-5 -4l5 -3q-10 0 -10 -12l-7 7q19 10 12 27h7zM183 591l-1 -4q-4 3 -11 8zM188 576v-3q-1 9 -7 13l1 1q6 -6 6 -11zM545 197l-3 -1l2 3zM687 43q-4 -4 -9 3l-3 2h12l-2 -2zM714 15l-2 -2l1 3zM638 89l-1 -3l-12 -7l-1 3l3 6q2 4 -2 6q3 1 5.5 6.5t5.5 5.5h1
q-4 -3 -4 -5t2.5 -5.5t2.5 -6.5zM520 199h-5l-2 -3l-2 3q4 0 7 5zM721 -28l-3 -3v1q1 1 3 2zM506 183v-1l-3 2q2 0 3 -1zM621 68q0 -1 -5 -3l-2 1l2 4q5 0 5 -2zM583 101h-1q-3 -2 -5 -2q-1 0 -2 1q0 2 5 3zM614 66l-1 -1l-4 5zM519 159l-1 -1l-3 3q1 -1 4 -2zM702 -50
q-1 -1 -3 -2zM566 79l-3 -2q-5 2 -7 9l5 3l5 -3v-7zM685 -45l-2 2q1 0 2 -2zM589 58q1 -5 -10 -5h-4l3 2h-8q-7 3 -7 6q0 2 19 4zM687 -57l-4 5q2 3 2 5t2 0l-2 -5zM683 -52q-1 -1 -3 -2zM556 34l-2 2zM549 5h-1l1 1v-1z" />
    <glyph glyph-name="guillemotleft" unicode="&#xab;" horiz-adv-x="722" 
d="M281 319q101 -224 101 -231q0 -15 -31.5 -41.5t-45.5 -26.5q-12 0 -19 16q-46 89 -101 149q-49 54 -131 110q-14 9 -14 24t14 24q82 57 131 110q55 60 101 150q7 15 19 15q13 0 45 -26.5t32 -41.5q0 -7 -101 -231zM581 319q101 -224 101 -231q0 -15 -31.5 -41.5
t-45.5 -26.5q-12 0 -19 16q-46 89 -101 149q-49 54 -131 110q-14 9 -14 24t14 24q82 57 131 110q55 60 101 150q7 15 19 15q13 0 45 -26.5t32 -41.5q0 -7 -101 -231z" />
    <glyph glyph-name="registered" unicode="&#xae;" horiz-adv-x="2677" 
d="M2532 1086q-15 -3 -30 -19.5t-15 -32.5v-206h-46v258q0 15 -11 24l28 35q26 -9 29 -45q34 45 42 45h3v-59zM2419 1053q0 -84 -67 -101q-1 -25 10 -48q12 -28 35 -28q7 0 20 6v-53q-10 -4 -25 -4q-90 0 -90 159v36q0 125 59 125q58 0 58 -92zM2278 828h-47v257
q0 14 -12 14q-7 0 -12 -8v-263h-47v258q0 18 -9 25l29 34q14 -3 24 -22q17 22 36 22q38 0 38 -55v-262zM2134 828h-46v255q0 16 -12 16q-5 0 -14 -10v-261h-46v408h47v-109q15 19 33 19q38 0 38 -60v-258zM2627 354h-47v254q0 17 -11 17q-6 0 -13 -10v-261h-46v255
q0 16 -12 16q-6 0 -13 -10v-261h-46v265q0 13 -8 19l27 34q20 -6 25 -24q16 24 37 24t33 -23q18 23 37 23q37 0 37 -58v-260zM1995 985q0 -160 -57 -160q-38 0 -52 71q-9 41 -9 89q0 160 59 160q37 0 51 -69q8 -39 8 -91zM2415 511q0 -160 -57 -160q-39 0 -53 71
q-8 41 -8 89q0 160 58 160q37 0 52 -68q8 -40 8 -92zM1866 828h-87v408h54v-354h33v-54zM2284 359q-7 -9 -24 -9q-65 0 -65 143v45q0 134 67 134q10 0 21 -4v-48q-8 4 -11 4q-29 0 -29 -86v-42q0 -47 4 -67q5 -30 21 -30q11 0 16 7v-47zM1701 865l-27 -41q-19 5 -25 28
q-17 -27 -31 -27q-47 0 -47 119v57q0 144 72 144v91h47v-332q0 -29 11 -39zM2113 423q0 -72 -54 -72q-18 0 -32 8v48q8 -10 19 -10q24 0 24 24q0 27 -21 88t-21 91q0 72 48 72q14 0 32 -10v-44q-9 8 -17 8q-19 0 -19 -24t20.5 -85.5t20.5 -93.5zM1558 860l-36 -35
q-25 8 -25 42v369h46v-344q0 -26 15 -32zM2184 381q0 -30 -31 -30q-30 0 -30 30t30 30q31 0 31 -30zM2014 361q-12 -9 -25 -9q-45 0 -45 54v223h-24v14q16 16 58 77h13v-51h23v-40h-23v-216q0 -16 13 -16q3 0 10 4v-40zM1473 985q0 -160 -57 -160q-39 0 -53 71q-8 41 -8 89
q0 160 58 160q37 0 51 -69q9 -39 9 -91zM1902 354h-47v258q0 13 -12 13q-6 0 -12 -8v-263h-46v259q0 18 -10 24l30 35q13 -3 23 -22q17 22 36 22q38 0 38 -56v-262zM1343 1086q-16 -3 -30.5 -19.5t-14.5 -32.5v-206h-47v258q0 15 -11 24l29 35q25 -9 29 -45q34 45 41 45h4
v-59zM2321 -119h-47v254q0 16 -11 16q-6 0 -13 -10v-260h-47v255q0 15 -11 15q-6 0 -13 -10v-260h-46v265q0 13 -8 19l27 33q20 -6 25 -23q16 24 37 24t33 -23q18 23 37 23q37 0 37 -58v-260zM1764 511q0 -160 -57 -160q-39 0 -53 71q-8 41 -8 89q0 160 58 160q37 0 52 -68
q8 -40 8 -92zM1235 866l-27 -41q-15 4 -26 27q-12 -27 -32 -27q-46 0 -46 140v38q0 57 19 94q25 48 77 48h22v-234q0 -36 13 -45zM1633 721q-23 -3 -23 -28v-24h23v-40h-23v-251q0 -36 -8 -52q-15 -31 -58 -31v51q20 0 20 41v242h-20v40h20v21q0 80 69 75v-44zM2109 38
q0 -160 -57 -160q-39 0 -53 71q-8 41 -8 89q0 160 58 160q37 0 51 -69q9 -39 9 -91zM1077 828h-55v172h-28v-172h-55v408h55v-183h28v183h55v-408zM1532 423q0 -72 -55 -72q-18 0 -32 8v48q8 -10 19 -10q24 0 24 24q0 27 -21 88t-21 91q0 72 49 72q13 0 31 -10v-44
q-9 8 -17 8q-19 0 -19 -24t21 -85.5t21 -93.5zM1978 -114q-7 -9 -24 -9q-65 0 -65 142v46q0 133 67 133q10 0 21 -4v-48q-8 5 -11 5q-29 0 -29 -86v-42q0 -48 3 -68q6 -30 22 -30q11 0 16 7v-46zM1437 392l-27 -41q-19 5 -25 28q-16 -27 -31 -27q-47 0 -47 119v56
q0 145 72 145v91h47v-333q0 -28 11 -38zM1810 -87l-36 -35q-25 8 -25 42v369h47v-344q0 -26 14 -32zM865 1182h-49v-128q44 -31 44 -100q0 -46 -27 -87q-30 -47 -75 -42v57q45 10 45 75q0 61 -42 70v209h104v-54zM1294 386l-36 -34q-25 7 -25 41v370h46v-345q0 -25 15 -32z
M1877 -93q0 -29 -30 -29t-30 29q0 31 30 31t30 -31zM1725 38q0 -160 -57 -160q-39 0 -53 71q-8 41 -8 89q0 160 58 160q37 0 52 -69q8 -39 8 -91zM739 1028q0 -147 -42 -189q-14 -14 -28 -14q-20 0 -33 14q-43 42 -43 192q0 208 73 208t73 -211zM1209 511q0 -160 -57 -160
q-39 0 -53 71q-8 41 -8 89q0 160 58 160q37 0 52 -68q8 -40 8 -92zM1599 -81l-27 -41q-14 4 -25 27q-13 -27 -32 -27q-46 0 -46 140v38q0 57 19 94q25 48 77 48h22v-234q0 -36 12 -45zM1079 613q-16 -3 -30.5 -20t-14.5 -33v-206h-47v258q0 16 -11 25l29 34q25 -9 29 -44
q34 44 41 44h4v-58zM574 1028q0 -147 -43 -189q-13 -14 -28 -14q-19 0 -33 14q-43 42 -43 192q0 208 73 208q74 0 74 -211zM1452 122q0 -43 -9 -87q-14 -66 -42 -66q-17 0 -23 30q-10 -30 -27 -30q-33 0 -33 93q0 39 9 79q13 59 39 59q14 0 22 -21l1 12h28l-14 -122
q-2 -19 -2 -21v-11q0 -19 4 -19q3 0 13 29t10 78q0 40 -10 73q-14 50 -45 50q-39 0 -59 -71q-13 -49 -13 -103q0 -50 12 -94q18 -67 55 -67q28 0 53 45l7 14l11 -42v-1q-32 -63 -72 -63q-46 0 -71 72q-20 58 -20 138q0 69 18 130q25 89 77 89q45 0 67 -69q14 -47 14 -104z
M971 392l-27 -40q-15 3 -25 27q-13 -27 -33 -27q-46 0 -46 140v38q0 57 19 94q25 47 77 47h23v-234q0 -36 12 -45zM407 828h-113q52 187 52 302q0 47 -27 47q-14 0 -25 -13v54q24 21 46 21q63 0 63 -99q0 -80 -40 -259l44 1v-54zM814 354h-47v256q0 15 -11 15q-6 0 -14 -10
v-261h-46v409h47v-110q15 19 33 19q38 0 38 -59v-259zM1263 139q-16 -3 -31 -19.5t-15 -32.5v-206h-46v258q0 15 -11 24l28 35q26 -9 29 -45q34 45 42 45h4v-59zM276 1024q0 -62 -15 -122q-21 -90 -64 -90q-42 0 -64 90q-14 60 -14 122q0 87 22 148q22 65 56 65q43 0 64 -90
q15 -60 15 -123zM1149 106q0 -83 -67 -101q0 -25 10 -48q12 -28 35 -28q7 0 20 6v-53q-10 -4 -25 -4q-90 0 -90 159v36q0 125 59 125q58 0 58 -92zM631 669l-37 -318h-37l-18 202l-19 -202h-38l-37 318h47l10 -215l15 215h42l16 -213l10 213h46zM679 381q0 -30 -31 -30
q-30 0 -30 30t30 30q31 0 31 -30zM1008 -119h-47v257q0 14 -12 14q-7 0 -12 -8v-263h-47v258q0 18 -9 25l29 34q14 -3 24 -22q17 22 36 22q38 0 38 -55v-262zM864 -119h-46v255q0 16 -12 16q-5 0 -13 -10v-261h-47v408h47v-109q15 19 33 19q38 0 38 -60v-258zM434 669
l-37 -318h-38l-18 202l-19 -202h-37l-38 318h48l9 -215l15 215h43l15 -213l10 213h47zM726 38q0 -160 -57 -160q-39 0 -53 71q-8 41 -8 89q0 160 58 160q37 0 51 -69q9 -39 9 -91zM237 669l-37 -318h-38l-18 202l-19 -202h-38l-37 318h47l10 -215l15 215h42l16 -213l10 213
h47zM596 -119h-87v408h55v-354h32v-54zM479 -119h-54v172h-29v-172h-55v408h55v-183h29v183h54v-408zM2373 1052q0 30 -11 44q-12 -20 -12 -51v-41q23 8 23 48zM1948 984q0 99 -11 106q-11 -7 -11 -101q0 -100 11 -110q11 12 11 105zM2368 510q0 100 -12 107
q-11 -8 -11 -101q0 -100 11 -110q12 12 12 104zM1643 876v212q-24 -7 -24 -72v-65q0 -80 16 -80q7 0 8 5zM1425 984q0 99 -11 106q-11 -7 -11 -101q0 -100 11 -110q11 12 11 105zM1717 510q0 100 -12 107q-11 -8 -11 -101q0 -100 11 -110q12 12 12 104zM1176 874v212
q-24 -7 -24 -80v-57q0 -78 16 -78q6 0 8 3zM2061 37q0 99 -11 106q-11 -7 -11 -101q0 -100 11 -110q11 12 11 105zM1379 402v212q-24 -7 -24 -71v-66q0 -79 16 -79q7 0 8 4zM1678 37q0 99 -12 106q-11 -7 -11 -101q0 -100 11 -110q12 12 12 105zM682 1025q0 69 -2 94
q-3 40 -14 57q-11 -14 -14 -54q-2 -25 -2 -83q0 -67 3 -97q3 -41 14 -55q15 24 15 138zM1162 510q0 100 -12 107q-11 -8 -11 -101q0 -100 11 -110q12 12 12 104zM1540 -73v212q-24 -7 -24 -80v-57q0 -78 16 -78q7 0 8 3zM516 1025q0 69 -2 94q-3 40 -14 57q-10 -14 -13 -54
q-3 -25 -3 -83q0 -67 3 -97q3 -41 14 -55q15 24 15 138zM1379 126q0 29 -8 29q-4 0 -14 -31q-8 -35 -8 -67q0 -40 9 -40q4 0 14 40q7 44 7 69zM912 401v212q-24 -8 -24 -80v-58q0 -77 16 -77q6 0 8 3zM250 1024q0 43 -10 91q-15 70 -43 70q-19 0 -35 -45q-17 -48 -17 -116
q0 -67 16.5 -113.5t35.5 -46.5q28 0 43 70q10 48 10 90zM1103 105q0 30 -11 44q-12 -20 -12 -51v-41q23 8 23 48zM678 37q0 99 -11 106q-11 -7 -11 -101q0 -100 11 -110q11 12 11 105zM236 1071l-26 -18l-1 9q-4 30 -11 33q-5 0 -9 -16q-5 -19 -5 -55q0 -54 10 -68
q2 -2 3 -2q4 0 12 41l1 12l26 -26v-2q-8 -75 -38 -75q-42 0 -42 119q0 122 43 122q28 0 37 -71v-3z" />
    <glyph glyph-name="degree" unicode="&#xb0;" horiz-adv-x="436" 
d="M396 812q0 -73 -52.5 -125.5t-125.5 -52.5t-125.5 52.5t-52.5 125.5t52.5 125.5t125.5 52.5t125.5 -52.5t52.5 -125.5zM218 872q-24 0 -42 -18t-18 -42t18 -42t42 -18t42 18t18 42t-18 42t-42 18z" />
    <glyph glyph-name="acute" unicode="&#xb4;" 
d="M305 881q28 0 48.5 -20t20.5 -48q0 -39 -33 -60q-12 -8 -113 -36.5t-116 -28.5q-4 0 -8 3l-1 3q0 8 76 88.5t92 89.5t34 9z" />
    <glyph glyph-name="periodcentered" unicode="&#xb7;" horiz-adv-x="250" 
d="M125 317q-45 0 -77.5 32.5t-32.5 77.5t32.5 77.5t77.5 32.5t77.5 -32.5t32.5 -77.5t-32.5 -77.5t-77.5 -32.5z" />
    <glyph glyph-name="periodcentered" unicode="&#x2219;" horiz-adv-x="250" 
d="M125 317q-45 0 -77.5 32.5t-32.5 77.5t32.5 77.5t77.5 32.5t77.5 -32.5t32.5 -77.5t-32.5 -77.5t-77.5 -32.5z" />
    <glyph glyph-name="cedilla" unicode="&#xb8;" horiz-adv-x="447" 
d="M334 -48q0 -52 -29.5 -81t-82.5 -29q-78 0 -78 77q0 26 16 26q2 0 10.5 -16t22.5 -16q41 0 41 38q0 18 -29.5 30t-29.5 25q0 12 19.5 34t30.5 22l6 -1l85 -62q6 -5 12 -21t6 -26z" />
    <glyph glyph-name="guillemotright" unicode="&#xbb;" horiz-adv-x="722" 
d="M141 319q-101 224 -101 231q0 15 32 41.5t45 26.5q12 0 20 -15q45 -90 100 -150q49 -53 132 -110q13 -9 13 -24t-13 -24q-83 -56 -132 -110q-55 -60 -100 -149q-8 -16 -20 -16q-13 0 -45 26.5t-32 41.5q0 7 101 231zM441 319q-101 224 -101 231q0 15 32 41.5t45 26.5
q12 0 20 -15q45 -90 100 -150q49 -53 132 -110q13 -9 13 -24t-13 -24q-83 -56 -132 -110q-55 -60 -100 -149q-8 -16 -20 -16q-13 0 -45 26.5t-32 41.5q0 7 101 231z" />
    <glyph glyph-name="questiondown" unicode="&#xbf;" horiz-adv-x="600" 
d="M201 758q0 48 35 83t83 35t82.5 -35t34.5 -83t-34.5 -82.5t-82.5 -34.5t-83 34.5t-35 82.5zM308 463q0 33 -33 33q-16 0 -33 -14.5t-23 -14.5q-13 0 -13 36q0 42 30 67t73 25q56 0 98.5 -38t42.5 -94q0 -84 -61 -146l-114 -92q-61 -54 -61 -121q0 -101 113 -101
q27 0 47 14q24 16 24 42q0 37 -46 37q-5 0 -12 -3.5t-10 -3.5q-13 0 -13 11q0 22 40 53q35 27 61 32q17 4 38 4q61 0 96 -45q33 -41 33 -104q0 -91 -92 -156q-84 -59 -179 -59q-130 0 -208 60q-88 66 -88 192q0 104 75 180q22 22 140 106q75 53 75 100z" />
    <glyph glyph-name="Agrave" unicode="&#xc0;" horiz-adv-x="681" 
d="M717 3q0 -9 -10 -9h-280q-11 0 -11 9q0 -1 16 24t16 52l-1 205q-32 -25 -98 -71q-5 -52 -11 -104q-6 -62 -6 -104q0 -25 18.5 -47t18.5 -21q0 -9 -42 -27q-19 -7 -133 -72q-109 -61 -113 -61q-10 0 -10 11q0 3 6 10q15 15 31 58q15 40 18 65q13 94 24 237q19 221 20 236
q7 60 14 121q8 71 8 120q0 13 -9 37.5t-9 36.5q0 7 10 11q51 16 103.5 33.5t92.5 58.5l8 3q12 0 11 -12l-29 -346l77 57v138q0 102 -27 150q-36 63 -130 63q-56 0 -103.5 -42t-47.5 -98q0 -11 8 -30.5t8 -23.5q0 -11 -19 -11q-56 0 -89 45q-31 40 -31 98q0 116 85 189
q81 70 199 70q170 0 256 -119q75 -104 75 -282v-9l39 -572q1 -25 24 -50t23 -27zM302 1286q18 0 34 -9t92 -89.5t76 -88.5l-1 -3q-4 -3 -8 -3q-15 0 -116 28.5t-113 36.5q-33 21 -33 60q0 28 20.5 48t48.5 20z" />
    <glyph glyph-name="Aacute" unicode="&#xc1;" horiz-adv-x="681" 
d="M717 3q0 -9 -10 -9h-280q-11 0 -11 9q0 -1 16 24t16 52l-1 205q-32 -25 -98 -71q-5 -52 -11 -104q-6 -62 -6 -104q0 -25 18.5 -47t18.5 -21q0 -9 -42 -27q-19 -7 -133 -72q-109 -61 -113 -61q-10 0 -10 11q0 3 6 10q15 15 31 58q15 40 18 65q13 94 24 236q19 222 20 237
q7 60 14 121q8 71 8 120q0 13 -9 37.5t-9 36.5q0 7 10 11q51 16 103.5 33.5t92.5 58.5l8 3q12 0 11 -12l-29 -346l77 57v138q0 102 -27 150q-36 63 -130 63q-56 0 -103.5 -42t-47.5 -98q0 -11 8 -30.5t8 -23.5q0 -11 -19 -11q-56 0 -89 45q-31 40 -31 98q0 116 85 189
q81 70 199 70q170 0 256 -119q75 -104 75 -282v-9l39 -572q1 -25 24 -50t23 -27zM455 1286q28 0 48.5 -20t20.5 -48q0 -39 -33 -60q-12 -8 -113 -36.5t-116 -28.5q-4 0 -8 3l-1 3q0 8 76 88.5t92 89.5t34 9z" />
    <glyph glyph-name="Acircumflex" unicode="&#xc2;" horiz-adv-x="681" 
d="M717 3q0 -9 -10 -9h-280q-11 0 -11 9q0 -1 16 24t16 52l-1 205q-32 -25 -98 -71q-5 -52 -11 -104q-6 -62 -6 -104q0 -25 18.5 -47t18.5 -21q0 -9 -42 -27q-19 -7 -133 -72q-109 -61 -113 -61q-10 0 -10 11q0 3 6 10q15 15 31 58q15 40 18 65q13 94 24 236q19 222 20 237
q7 60 14 121q8 71 8 120q0 13 -9 37.5t-9 36.5q0 7 10 11q51 16 103.5 33.5t92.5 58.5l8 3q12 0 11 -12l-29 -346l77 57v138q0 102 -27 150q-36 63 -130 63q-56 0 -103.5 -42t-47.5 -98q0 -11 8 -30.5t8 -23.5q0 -11 -19 -11q-56 0 -89 45q-31 40 -31 98q0 116 85 189
q81 70 199 70q170 0 256 -119q75 -104 75 -282v-9l39 -572q1 -25 24 -50t23 -27zM384 1150q-117 -63 -121 -63q-8 0 -21.5 20t-13.5 28t8 13q80 48 135 145q5 8 13 8q7 0 12 -8q55 -97 135 -145q8 -5 8 -13t-13.5 -28t-21.5 -20q-4 0 -120 63z" />
    <glyph glyph-name="Atilde" unicode="&#xc3;" horiz-adv-x="681" 
d="M717 3q0 -9 -10 -9h-280q-11 0 -11 9q0 -1 16 24t16 52l-1 205q-32 -25 -98 -71q-5 -52 -11 -104q-6 -62 -6 -104q0 -25 18.5 -47t18.5 -21q0 -9 -42 -27q-19 -7 -133 -72q-109 -61 -113 -61q-10 0 -10 11q0 3 6 10q15 15 31 58q15 40 18 65q13 94 24 236q19 222 20 237
q7 60 14 121q8 71 8 120q0 13 -9 37.5t-9 36.5q0 7 10 11q51 16 103.5 33.5t92.5 58.5l8 3q12 0 11 -12l-29 -346l77 57v138q0 102 -27 150q-36 63 -130 63q-56 0 -103.5 -42t-47.5 -98q0 -11 8 -30.5t8 -23.5q0 -11 -19 -11q-56 0 -89 45q-31 40 -31 98q0 116 85 189
q81 70 199 70q170 0 256 -119q75 -104 75 -282v-9l39 -572q1 -25 24 -50t23 -27zM259 1146q0 -10 12 -19.5t12 -12.5q0 -28 -43 -28q-32 0 -52 29q-17 25 -17 59q0 48 29 76t77 28q38 0 71 -20q15 -9 47 -36q22 -20 35 -20q28 0 28 26q0 10 -12 19.5t-12 12.5q0 28 43 28
q32 0 52 -29q17 -25 17 -59q0 -48 -29 -76t-78 -28q-38 0 -71 19q-15 9 -46 37q-23 20 -35 20q-28 0 -28 -26z" />
    <glyph glyph-name="Adieresis" unicode="&#xc4;" horiz-adv-x="681" 
d="M717 3q0 -9 -10 -9h-280q-11 0 -11 9q0 -1 16 24t16 52l-1 205q-32 -25 -98 -71q-5 -52 -11 -104q-6 -62 -6 -104q0 -25 18.5 -47t18.5 -21q0 -9 -42 -27q-19 -7 -133 -72q-109 -61 -113 -61q-10 0 -10 11q0 3 6 10q15 15 31 58q15 40 18 65q13 94 24 236q19 222 20 237
q7 60 14 121q8 71 8 120q0 13 -9 37.5t-9 36.5q0 7 10 11q51 16 103.5 33.5t92.5 58.5l8 3q12 0 11 -12l-29 -346l77 57v138q0 102 -27 150q-36 63 -130 63q-56 0 -103.5 -42t-47.5 -98q0 -11 8 -30.5t8 -23.5q0 -11 -19 -11q-56 0 -89 45q-31 40 -31 98q0 116 85 189
q81 70 199 70q170 0 256 -119q75 -104 75 -282v-9l39 -572q1 -25 24 -50t23 -27zM335 1193q0 -34 -23.5 -58.5t-56.5 -24.5t-56 24.5t-23 58.5q0 33 23 58t56 25t56.5 -25t23.5 -58zM560 1193q0 -34 -23.5 -58.5t-56.5 -24.5t-56 24.5t-23 58.5q0 33 23 58t56 25t56.5 -25
t23.5 -58z" />
    <glyph glyph-name="Aring" unicode="&#xc5;" horiz-adv-x="681" 
d="M717 3q0 -9 -10 -9h-280q-11 0 -11 9q0 -1 16 24t16 52l-1 205q-32 -25 -98 -71q-5 -52 -11 -104q-6 -62 -6 -104q0 -25 18.5 -47t18.5 -21q0 -9 -42 -27q-19 -7 -133 -72q-109 -61 -113 -61q-10 0 -10 11q0 3 6 10q15 15 31 58q15 40 18 65q13 94 24 236q19 222 20 237
q7 60 14 121q8 71 8 120q0 13 -9 37.5t-9 36.5q0 7 10 11q51 16 103.5 33.5t92.5 58.5l8 3q12 0 11 -12l-29 -346l77 57v138q0 102 -27 150q-36 63 -130 63q-56 0 -103.5 -42t-47.5 -98q0 -11 8 -30.5t8 -23.5q0 -11 -19 -11q-56 0 -89 45q-31 40 -31 98q0 116 85 189
q81 70 199 70q170 0 256 -119q75 -104 75 -282v-9l39 -572q1 -25 24 -50t23 -27zM491 1217q0 -48 -35 -83.5t-83 -35.5q-49 0 -84 35.5t-35 83.5q0 49 35 84t84 35q48 0 83 -35t35 -84zM373 1257q-16 0 -28 -12t-12 -28t11.5 -28t28.5 -12q16 0 28 12t12 28t-12 28t-28 12z
" />
    <glyph glyph-name="AE" unicode="&#xc6;" horiz-adv-x="915" 
d="M915 824q0 -64 -32 -105q-35 -45 -97 -45q-37 0 -66 28t-29 64q0 12 10 12q5 0 12 -4.5t12 -4.5q13 0 21 13t8 27q0 46 -43 46q-31 0 -54 -25t-23 -56q0 -53 19 -95q23 -51 67 -67q13 -4 26 -7q18 -6 18 -14l-1 -92q0 -9 -18 -13l-24 -4q-38 -9 -60 -42.5t-22 -75.5
q0 -87 47 -187q41 -86 106 -163q24 -24 55 -65q-7 -20 -48 -84l-56 -86l-8 -5l-9 3q-97 93 -176 229q-83 143 -107 268q-30 -24 -94 -68q-5 -52 -11 -104q-6 -62 -6 -105q0 -24 18.5 -46t18.5 -21q0 -10 -42 -27q-19 -8 -133 -72q-109 -61 -113 -61q-10 0 -10 11q0 2 6 10
q15 15 31 58q15 39 18 65q13 93 24 236q19 220 20 237l14 120q8 72 8 121q0 13 -9 37.5t-9 35.5q0 8 10 11q51 16 104 34t92 58l8 4q12 -1 11 -12l-29 -347q42 31 85 61q50 37 80 67q-46 32 -68 72q-19 35 -29 95q-17 114 -148 114q-55 0 -95.5 -42.5t-40.5 -98.5
q0 -10 8 -29.5t8 -23.5q0 -11 -19 -11q-56 0 -95.5 42.5t-39.5 100.5q0 115 85 189q81 70 199 70q133 0 215 -72q74 65 170 65q94 0 162 -65t68 -159z" />
    <glyph glyph-name="Ccedilla" unicode="&#xc7;" horiz-adv-x="530" 
d="M379 -48q0 -52 -29.5 -81t-82.5 -29q-78 0 -78 77q0 26 16 26q2 0 10.5 -16t22.5 -16q41 0 41 38q0 21 -31 30q-24 8 -49.5 16t-44.5 21q-93 64 -125 225q-20 94 -20 267q0 88 17.5 209t75.5 213q74 116 181 116q100 0 161 -46q69 -51 69 -148q0 -63 -36 -113
q-40 -56 -101 -56q-36 0 -62 23.5t-26 58.5q0 11 11 11q5 0 12 -4.5t12 -4.5q13 0 21 13t8 27q0 46 -44 46q-75 0 -99 -156q-10 -69 -10 -219q0 -122 19 -188q33 -115 123 -115q25 0 70.5 18t67.5 18q11 0 11 -11q0 -38 25.5 -109.5t25.5 -108.5q0 -11 -9 -11
q-17 0 -50.5 7.5t-50.5 7.5q-23 0 -60 -5q8 -19 8 -31z" />
    <glyph glyph-name="Egrave" unicode="&#xc8;" horiz-adv-x="501" 
d="M501 824q0 -64 -32 -105q-35 -45 -97 -45q-37 0 -66 28t-29 64q0 12 10 12q5 0 12 -4.5t12 -4.5q13 0 21 13t8 27q0 46 -43 46q-31 0 -54 -25t-23 -56q0 -53 19 -95q23 -52 67 -67q13 -4 26 -7q18 -6 18 -14l-1 -92q0 -9 -17 -13q-13 -2 -25 -4q-39 -10 -60.5 -43
t-21.5 -75q0 -86 47 -187q41 -88 106 -163q23 -23 55 -65q-10 -28 -48 -86l-56 -84l-8 -5l-9 3q-111 106 -196 265q-95 177 -95 312q0 72 24 123q21 45 76 100q-60 41 -82 104q-18 48 -18 133q0 97 76 165.5t174 68.5q94 0 162 -65t68 -159zM192 1286q18 0 34 -9t92 -89.5
t76 -88.5l-1 -3q-4 -3 -8 -3q-15 0 -116 28.5t-113 36.5q-33 21 -33 60q0 28 20.5 48t48.5 20z" />
    <glyph glyph-name="Eacute" unicode="&#xc9;" horiz-adv-x="501" 
d="M501 824q0 -64 -32 -105q-35 -45 -97 -45q-37 0 -66 28t-29 64q0 12 10 12q5 0 12 -4.5t12 -4.5q13 0 21 13t8 27q0 46 -43 46q-31 0 -54 -25t-23 -56q0 -53 19 -95q23 -52 67 -67q13 -4 26 -7q18 -6 18 -14l-1 -92q0 -9 -17 -13q-13 -2 -25 -4q-39 -10 -60.5 -43
t-21.5 -75q0 -86 47 -187q41 -88 106 -163q23 -23 55 -65q-10 -28 -48 -86l-56 -84l-8 -5l-9 3q-111 106 -196 265q-95 177 -95 312q0 72 24 123q21 45 76 100q-60 41 -82 104q-18 48 -18 133q0 97 76 165.5t174 68.5q94 0 162 -65t68 -159zM335 1286q28 0 48.5 -20
t20.5 -48q0 -39 -33 -60q-12 -8 -113 -36.5t-116 -28.5q-4 0 -8 3l-1 3q0 8 76 88.5t92 89.5t34 9z" />
    <glyph glyph-name="Ecircumflex" unicode="&#xca;" horiz-adv-x="501" 
d="M501 824q0 -64 -32 -105q-35 -45 -97 -45q-37 0 -66 28t-29 64q0 12 10 12q5 0 12 -4.5t12 -4.5q13 0 21 13t8 27q0 46 -43 46q-31 0 -54 -25t-23 -56q0 -53 19 -95q23 -52 67 -67q13 -4 26 -7q18 -6 18 -14l-1 -92q0 -9 -17 -13q-13 -2 -25 -4q-39 -10 -60.5 -43
t-21.5 -75q0 -86 47 -187q41 -88 106 -163q23 -23 55 -65q-10 -28 -48 -86l-56 -84l-8 -5l-9 3q-111 106 -196 265q-95 177 -95 312q0 72 24 123q21 45 76 100q-60 41 -82 104q-18 48 -18 133q0 97 76 165.5t174 68.5q94 0 162 -65t68 -159zM264 1150q-117 -63 -121 -63
q-8 0 -21.5 20t-13.5 28t8 13q80 48 135 145q5 8 13 8q7 0 12 -8q55 -97 135 -145q8 -5 8 -13t-13.5 -28t-21.5 -20q-4 0 -120 63z" />
    <glyph glyph-name="Edieresis" unicode="&#xcb;" horiz-adv-x="501" 
d="M501 824q0 -64 -32 -105q-35 -45 -97 -45q-37 0 -66 28t-29 64q0 12 10 12q5 0 12 -4.5t12 -4.5q13 0 21 13t8 27q0 46 -43 46q-31 0 -54 -25t-23 -56q0 -53 19 -95q23 -52 67 -67q13 -4 26 -7q18 -6 18 -14l-1 -92q0 -9 -17 -13q-13 -2 -25 -4q-39 -10 -60.5 -43
t-21.5 -75q0 -86 47 -187q41 -88 106 -163q23 -23 55 -65q-10 -28 -48 -86l-56 -84l-8 -5l-9 3q-111 106 -196 265q-95 177 -95 312q0 72 24 123q21 45 76 100q-60 41 -82 104q-18 48 -18 133q0 97 76 165.5t174 68.5q94 0 162 -65t68 -159zM230 1193q0 -34 -23.5 -58.5
t-56.5 -24.5t-56 24.5t-23 58.5q0 33 23 58t56 25t56.5 -25t23.5 -58zM455 1193q0 -34 -23.5 -58.5t-56.5 -24.5t-56 24.5t-23 58.5q0 33 23 58t56 25t56.5 -25t23.5 -58z" />
    <glyph glyph-name="Igrave" unicode="&#xcc;" horiz-adv-x="330" 
d="M316 -17q0 -9 -36 -25q-50 -22 -89 -48q-8 -5 -76 -62q-62 -52 -66 -52q-11 0 -11 11q0 4 9.5 14t22.5 56q12 43 12 62v873q0 35 -20.5 67.5t-20.5 27.5q0 6 9 10q92 37 150 93q15 17 29 33q18 20 33 27q11 0 11 -11v-1002q0 -27 21.5 -51t21.5 -23zM102 1286q18 0 34 -9
t92 -89.5t76 -88.5l-1 -3q-4 -3 -8 -3q-15 0 -116 28.5t-113 36.5q-33 21 -33 60q0 28 20.5 48t48.5 20z" />
    <glyph glyph-name="Iacute" unicode="&#xcd;" horiz-adv-x="330" 
d="M316 -17q0 -9 -36 -25q-50 -22 -89 -48q-8 -5 -76 -62q-62 -52 -66 -52q-11 0 -11 11q0 4 9.5 14t22.5 56q12 43 12 62v873q0 35 -20.5 67.5t-20.5 27.5q0 6 9 10q92 37 150 93q15 17 29 33q18 20 33 27q11 0 11 -11v-1002q0 -27 21.5 -51t21.5 -23zM251 1286
q28 0 48.5 -20t20.5 -48q0 -39 -33 -60q-12 -8 -113 -36.5t-116 -28.5q-4 0 -8 3l-1 3q0 8 76 88.5t92 89.5t34 9z" />
    <glyph glyph-name="Icircumflex" unicode="&#xce;" horiz-adv-x="330" 
d="M316 -17q0 -9 -36 -25q-50 -22 -89 -48q-8 -5 -76 -62q-62 -52 -66 -52q-11 0 -11 11q0 4 9.5 14t22.5 56q12 43 12 62v873q0 35 -20.5 67.5t-20.5 27.5q0 6 9 10q92 37 150 93q15 17 29 33q18 20 33 27q11 0 11 -11v-1002q0 -27 21.5 -51t21.5 -23zM172 1150
q-117 -63 -121 -63q-8 0 -21.5 20t-13.5 28t8 13q80 48 135 145q5 8 13 8q7 0 12 -8q55 -97 135 -145q8 -5 8 -13t-13.5 -28t-21.5 -20q-4 0 -120 63z" />
    <glyph glyph-name="Idieresis" unicode="&#xcf;" horiz-adv-x="330" 
d="M316 -17q0 -9 -36 -25q-50 -22 -89 -48q-8 -5 -76 -62q-62 -52 -66 -52q-11 0 -11 11q0 4 9.5 14t22.5 56q12 43 12 62v873q0 35 -20.5 67.5t-20.5 27.5q0 6 9 10q92 37 150 93q15 17 29 33q18 20 33 27q11 0 11 -11v-1002q0 -27 21.5 -51t21.5 -23zM146 1193
q0 -34 -23.5 -58.5t-56.5 -24.5t-56 24.5t-23 58.5q0 33 23 58t56 25t56.5 -25t23.5 -58zM371 1193q0 -34 -23.5 -58.5t-56.5 -24.5t-56 24.5t-23 58.5q0 33 23 58t56 25t56.5 -25t23.5 -58z" />
    <glyph glyph-name="Eth" unicode="&#xd0;" horiz-adv-x="713" 
d="M177 -6q-10 0 -10 12q0 -4 17.5 21.5t17.5 52.5l1 327h-80q-11 0 -12 10q17 68 42 148q4 7 9 7h41v39q0 44 -25 102q0 7 9 11l74 24q44 15 70 34q16 15 51 37q11 0 11 -10v-236h63q11 0 12 -11q-17 -68 -42 -148q-4 -7 -9 -7h-24v-228h31q66 0 66 192q0 19 1 57v56
q0 152 -26 234q-44 136 -162 136q-52 0 -107 -41q-59 -43 -59 -93q0 -11 8.5 -28t8.5 -20q0 -16 -39 -16q-47 0 -69 49q-17 37 -17 90q0 109 91 183q85 68 196 68q164 0 265 -130q87 -113 103 -286q6 -66 6 -175q0 -181 -49 -326q-44 -135 -170 -135h-31q-20 -1 -30 -1z" />
    <glyph glyph-name="Ntilde" unicode="&#xd1;" horiz-adv-x="767" 
d="M724 169q0 -3 -27 -82t-30.5 -86.5t-10.5 -7.5h-237q-16 0 -16 9q0 25 15 89q21 93 21 94q36 196 36 330q0 350 -220 350q-61 0 -112 -31q-60 -36 -60 -93q0 -17 12 -46t12 -32q0 -11 -20 -11q-55 0 -84 54q-23 43 -23 103q0 119 95 187q85 61 208 61q198 0 305 -154
q94 -135 94 -342q0 -88 -21 -199q-7 -37 -44 -196l94 14q13 2 13 -11zM373 2q0 -9 -10 -9h-230q-10 0 -10 9q0 1 17.5 25t17.5 52v540q0 33 -27 102q0 7 9 10l76 26q43 16 72 36q14 13 47 34q10 0 10 -11l-1 -631q0 -93 1.5 -115t14.5 -46t13 -22zM319 1146q0 -10 12 -19.5
t12 -12.5q0 -28 -43 -28q-32 0 -52 29q-17 25 -17 59q0 48 29 76t77 28q38 0 71 -20q15 -9 47 -36q22 -20 35 -20q28 0 28 26q0 10 -12 19.5t-12 12.5q0 28 43 28q32 0 52 -29q17 -25 17 -59q0 -48 -29 -76t-78 -28q-38 0 -71 19q-15 9 -46 37q-23 20 -35 20q-28 0 -28 -26z
" />
    <glyph glyph-name="Ograve" unicode="&#xd2;" horiz-adv-x="598" 
d="M565 281q0 -117 -74 -204q-77 -92 -191 -92q-115 0 -192 92q-73 87 -73 204v252q0 98 34 157q43 75 134 75q61 0 94 -47q30 -42 30 -105q0 -15 -11 -15q-4 0 -17.5 10.5t-25.5 10.5q-18 0 -30.5 -18.5t-12.5 -37.5v-276q0 -29 18 -54q21 -28 49 -28t47 28q18 25 18 54
v412q0 162 -110 162q-17 0 -34 -10t-17 -25q0 -5 1.5 -13.5t1.5 -12.5q0 -10 -12 -10q-32 0 -56.5 30.5t-24.5 62.5q0 81 55 129q52 47 134 47q114 0 191 -92q74 -87 74 -204v-482zM232 1286q18 0 34 -9t92 -89.5t76 -88.5l-1 -3q-4 -3 -8 -3q-15 0 -116 28.5t-113 36.5
q-33 21 -33 60q0 28 20.5 48t48.5 20z" />
    <glyph glyph-name="Oacute" unicode="&#xd3;" horiz-adv-x="598" 
d="M565 281q0 -117 -74 -204q-77 -92 -191 -92q-115 0 -192 92q-73 87 -73 204v252q0 98 34 157q43 75 134 75q61 0 94 -47q30 -42 30 -105q0 -15 -11 -15q-4 0 -17.5 10.5t-25.5 10.5q-18 0 -30.5 -18.5t-12.5 -37.5v-276q0 -29 18 -54q21 -28 49 -28t47 28q18 25 18 54
v412q0 162 -110 162q-17 0 -34 -10t-17 -25q0 -5 1.5 -13.5t1.5 -12.5q0 -10 -12 -10q-32 0 -56.5 30.5t-24.5 62.5q0 81 55 129q52 47 134 47q114 0 191 -92q74 -87 74 -204v-482zM380 1286q28 0 48.5 -20t20.5 -48q0 -39 -33 -60q-12 -8 -113 -36.5t-116 -28.5q-4 0 -8 3
l-1 3q0 8 76 88.5t92 89.5t34 9z" />
    <glyph glyph-name="Ocircumflex" unicode="&#xd4;" horiz-adv-x="598" 
d="M565 281q0 -117 -74 -204q-77 -92 -191 -92q-115 0 -192 92q-73 87 -73 204v252q0 98 34 157q43 75 134 75q61 0 94 -47q30 -42 30 -105q0 -15 -11 -15q-4 0 -17.5 10.5t-25.5 10.5q-18 0 -30.5 -18.5t-12.5 -37.5v-276q0 -29 18 -54q21 -28 49 -28t47 28q18 25 18 54
v412q0 162 -110 162q-17 0 -34 -10t-17 -25q0 -5 1.5 -13.5t1.5 -12.5q0 -10 -12 -10q-32 0 -56.5 30.5t-24.5 62.5q0 81 55 129q52 47 134 47q114 0 191 -92q74 -87 74 -204v-482zM309 1150q-117 -63 -121 -63q-8 0 -21.5 20t-13.5 28t8 13q80 48 135 145q5 8 13 8
q7 0 12 -8q55 -97 135 -145q8 -5 8 -13t-13.5 -28t-21.5 -20q-4 0 -120 63z" />
    <glyph glyph-name="Otilde" unicode="&#xd5;" horiz-adv-x="598" 
d="M565 281q0 -117 -74 -204q-77 -92 -191 -92q-115 0 -192 92q-73 87 -73 204v252q0 98 34 157q43 75 134 75q61 0 94 -47q30 -42 30 -105q0 -15 -11 -15q-4 0 -17.5 10.5t-25.5 10.5q-18 0 -30.5 -18.5t-12.5 -37.5v-276q0 -29 18 -54q21 -28 49 -28t47 28q18 25 18 54
v412q0 162 -110 162q-17 0 -34 -10t-17 -25q0 -5 1.5 -13.5t1.5 -12.5q0 -10 -12 -10q-32 0 -56.5 30.5t-24.5 62.5q0 81 55 129q52 47 134 47q114 0 191 -92q74 -87 74 -204v-482zM199 1146q0 -10 12 -19.5t12 -12.5q0 -28 -43 -28q-32 0 -52 29q-17 25 -17 59q0 48 29 76
t77 28q38 0 71 -20q15 -9 47 -36q22 -20 35 -20q28 0 28 26q0 10 -12 19.5t-12 12.5q0 28 43 28q32 0 52 -29q17 -25 17 -59q0 -48 -29 -76t-78 -28q-38 0 -71 19q-15 9 -46 37q-23 20 -35 20q-28 0 -28 -26z" />
    <glyph glyph-name="Odieresis" unicode="&#xd6;" horiz-adv-x="598" 
d="M565 281q0 -117 -74 -204q-77 -92 -191 -92q-115 0 -192 92q-73 87 -73 204v252q0 98 34 157q43 75 134 75q61 0 94 -47q30 -42 30 -105q0 -15 -11 -15q-4 0 -17.5 10.5t-25.5 10.5q-18 0 -30.5 -18.5t-12.5 -37.5v-276q0 -29 18 -54q21 -28 49 -28t47 28q18 25 18 54
v412q0 162 -110 162q-17 0 -34 -10t-17 -25q0 -5 1.5 -13.5t1.5 -12.5q0 -10 -12 -10q-32 0 -56.5 30.5t-24.5 62.5q0 81 55 129q52 47 134 47q114 0 191 -92q74 -87 74 -204v-482zM275 1193q0 -34 -23.5 -58.5t-56.5 -24.5t-56 24.5t-23 58.5q0 33 23 58t56 25t56.5 -25
t23.5 -58zM500 1193q0 -34 -23.5 -58.5t-56.5 -24.5t-56 24.5t-23 58.5q0 33 23 58t56 25t56.5 -25t23.5 -58z" />
    <glyph glyph-name="Oslash" unicode="&#xd8;" horiz-adv-x="598" 
d="M427 1023q27 71 36 71h109q10 0 11 -11q-24 -66 -60 -161q42 -74 42 -159v-482q0 -117 -74 -204q-77 -92 -191 -92q-67 0 -124 33q-33 -85 -43 -85h-109q-10 0 -11 11q27 73 66 174q-44 75 -44 163v252q0 98 34 157q43 75 134 75q61 0 94 -47q30 -42 30 -105
q0 -15 -11 -15q-3 0 -17 10.5t-26 10.5q-18 0 -30.5 -18.5t-12.5 -37.5v-276q0 -29 18 -54q21 -28 49 -28t47 28q18 25 18 54v412q0 162 -110 162q-17 0 -34 -10t-17 -25q0 -5 1.5 -13.5t1.5 -12.5q0 -10 -12 -10q-32 0 -56.5 30.5t-24.5 62.5q0 81 55 129q52 47 134 47
q69 0 127 -36z" />
    <glyph glyph-name="Ugrave" unicode="&#xd9;" horiz-adv-x="727" 
d="M593 1029q0 4 -18 -21.5t-18 -51.5l1 -540q0 -49 15 -96q1 -3 2 -7q0 -7 -9 -10q-79 -29 -95 -36q-47 -22 -84 -57l-8 -3q-11 0 -11 11l1 738q0 49 -22 64q-8 6 -8 9q0 12 12 12h231q11 0 11 -12zM725 203q0 -48 -29 -97q-82 -140 -277 -140q-199 0 -302 157
q-86 133 -86 343q0 142 46 333q25 99 25 138q0 43 -32 93q0 11 11 11h230q11 0 11 -11q0 -53 -44.5 -262t-44.5 -318q0 -113 44 -196q56 -104 159 -104q70 0 118 37q54 40 54 107q0 9 -3 26.5t-3 26.5q0 12 20 12q54 0 82 -54q21 -42 21 -102zM272 1286q18 0 34 -9t92 -89.5
t76 -88.5l-1 -3q-4 -3 -8 -3q-15 0 -116 28.5t-113 36.5q-33 21 -33 60q0 28 20.5 48t48.5 20z" />
    <glyph glyph-name="Uacute" unicode="&#xda;" horiz-adv-x="727" 
d="M593 1029q0 4 -18 -21.5t-18 -51.5l1 -540q0 -49 15 -96q1 -3 2 -7q0 -7 -9 -10q-79 -29 -95 -36q-47 -22 -84 -57l-8 -3q-11 0 -11 11l1 738q0 49 -22 64q-8 6 -8 9q0 12 12 12h231q11 0 11 -12zM725 203q0 -48 -29 -97q-82 -140 -277 -140q-199 0 -302 157
q-86 133 -86 343q0 142 46 333q25 99 25 138q0 43 -32 93q0 11 11 11h230q11 0 11 -11q0 -53 -44.5 -262t-44.5 -318q0 -113 44 -196q56 -104 159 -104q70 0 118 37q54 40 54 107q0 9 -3 26.5t-3 26.5q0 12 20 12q54 0 82 -54q21 -42 21 -102zM425 1286q28 0 48.5 -20
t20.5 -48q0 -39 -33 -60q-12 -8 -113 -36.5t-116 -28.5q-4 0 -8 3l-1 3q0 8 76 88.5t92 89.5t34 9z" />
    <glyph glyph-name="Ucircumflex" unicode="&#xdb;" horiz-adv-x="727" 
d="M593 1029q0 4 -18 -21.5t-18 -51.5l1 -540q0 -49 15 -96q1 -3 2 -7q0 -7 -9 -10q-79 -29 -95 -36q-47 -22 -84 -57l-8 -3q-11 0 -11 11l1 738q0 49 -22 64q-8 6 -8 9q0 12 12 12h231q11 0 11 -12zM725 203q0 -48 -29 -97q-82 -140 -277 -140q-199 0 -302 157
q-86 133 -86 343q0 142 46 333q25 99 25 138q0 43 -32 93q0 11 11 11h230q11 0 11 -11q0 -53 -44.5 -262t-44.5 -318q0 -113 44 -196q56 -104 159 -104q70 0 118 37q54 40 54 107q0 9 -3 26.5t-3 26.5q0 12 20 12q54 0 82 -54q21 -42 21 -102zM354 1150q-117 -63 -121 -63
q-8 0 -21.5 20t-13.5 28t8 13q80 48 135 145q5 8 13 8q7 0 12 -8q55 -97 135 -145q8 -5 8 -13t-13.5 -28t-21.5 -20q-4 0 -120 63z" />
    <glyph glyph-name="Udieresis" unicode="&#xdc;" horiz-adv-x="727" 
d="M593 1029q0 4 -18 -21.5t-18 -51.5l1 -540q0 -49 15 -96q1 -3 2 -7q0 -7 -9 -10q-79 -29 -95 -36q-47 -22 -84 -57l-8 -3q-11 0 -11 11l1 738q0 49 -22 64q-8 6 -8 9q0 12 12 12h231q11 0 11 -12zM725 203q0 -48 -29 -97q-82 -140 -277 -140q-199 0 -302 157
q-86 133 -86 343q0 142 46 333q25 99 25 138q0 43 -32 93q0 11 11 11h230q11 0 11 -11q0 -53 -44.5 -262t-44.5 -318q0 -113 44 -196q56 -104 159 -104q70 0 118 37q54 40 54 107q0 9 -3 26.5t-3 26.5q0 12 20 12q54 0 82 -54q21 -42 21 -102zM335 1193q0 -34 -23.5 -58.5
t-56.5 -24.5t-56 24.5t-23 58.5q0 33 23 58t56 25t56.5 -25t23.5 -58zM560 1193q0 -34 -23.5 -58.5t-56.5 -24.5t-56 24.5t-23 58.5q0 33 23 58t56 25t56.5 -25t23.5 -58z" />
    <glyph glyph-name="Yacute" unicode="&#xdd;" horiz-adv-x="606" 
d="M649 1034q0 -1 -29 -31t-34 -49l-102 -363l-34 -108q-20 -68 -20 -110q0 -12 1 -35t1 -35v-209q0 -36 7.5 -52.5t35.5 -43.5q0 -12 -11 -12h-246q-11 0 -11 12q0 -3 21 22t21 51l-1 387q-128 212 -123 397q-10 2 -21 2q-21 0 -48 -15t-25 -15q-11 0 -11 9q0 11 17 101
t21 97.5t10 7.5l219 1q11 0 11 -11q0 5 -6 -24q-4 -20 -4 -49q0 -149 51 -262l40 144q27 102 27 138q0 31 -23 51q-1 13 11 13h244q11 0 11 -9zM410 1286q28 0 48.5 -20t20.5 -48q0 -39 -33 -60q-12 -8 -113 -36.5t-116 -28.5q-4 0 -8 3l-1 3q0 8 76 88.5t92 89.5t34 9z" />
    <glyph glyph-name="germandbls" unicode="&#xdf;" horiz-adv-x="684" 
d="M666 184q0 -79 -57 -137t-133 -58q-69 0 -119 45t-50 113q0 33 20 65q24 37 55 37q13 0 13 -9q0 -10 -5.5 -28.5t-5.5 -28.5q0 -24 22 -41.5t47 -17.5q16 0 31.5 21.5t15.5 37.5q0 33 -50 72q-77 60 -94 78q-50 58 -50 137q0 63 29 117q10 18 55 77q29 38 29 65
q0 35 -30 58t-67 23q-43 0 -71 -22t-28 -63q0 -51 43 -96v-565q0 -34 26 -58q-2 -13 -10 -13h-230q-8 0 -11 13q42 30 42 73v455h-58l-10 12q1 20 7 52q9 42 17 42h36q-20 43 -20 115q0 103 83 156q69 45 176 45q124 0 198 -60q79 -64 79 -178q0 -49 -57 -128.5t-57 -99.5
q0 -28 49 -74q72 -69 91 -94q49 -65 49 -138z" />
    <glyph glyph-name="agrave" unicode="&#xe0;" 
d="M271 34q-42 -52 -106 -52q-66 0 -109.5 40t-43.5 105q0 83 55 140q39 41 130 85q32 16 37 18q22 13 32 25l1 69q0 14 -13 22.5t-27 8.5q-46 0 -46 -33q0 -23 24 -29t24 -13q0 -19 -37 -38q-33 -16 -55 -16q-49 0 -78 39q-27 35 -27 86q0 71 66 117q59 42 134 42
q84 0 145 -47q67 -50 67 -133l1 -354q0 -33 11 -61q7 -19 21 -37q11 -14 11 -15q0 -9 -11 -9h-188q-11 0 -18 40zM266 235q-38 -18 -50 -28q-26 -20 -26 -47q0 -24 28 -24q26 0 36 27l12 42v30zM375 694q0 -6 -9 -6q-18 0 -116 28t-112 37q-33 22 -33 60q0 28 20 48.5
t48 20.5q18 0 36 -10q14 -8 90 -89t76 -89z" />
    <glyph glyph-name="aacute" unicode="&#xe1;" 
d="M271 34q-42 -52 -106 -52q-66 0 -109.5 40t-43.5 105q0 83 55 140q39 41 130 85q32 16 37 18q22 13 32 25l1 69q0 14 -13 22.5t-27 8.5q-46 0 -46 -33q0 -23 24 -29t24 -13q0 -19 -37 -38q-33 -16 -55 -16q-49 0 -78 39q-27 35 -27 86q0 71 66 117q59 42 134 42
q84 0 145 -47q67 -50 67 -133l1 -354q0 -33 11 -61q7 -19 21 -37q11 -14 11 -15q0 -9 -11 -9h-188q-11 0 -18 40zM266 235q-38 -18 -50 -28q-26 -20 -26 -47q0 -24 28 -24q26 0 36 27l12 42v30zM320 881q28 0 48.5 -20t20.5 -48q0 -39 -33 -60q-12 -8 -113 -36.5t-116 -28.5
q-4 0 -8 3l-1 3q0 8 76 88.5t92 89.5t34 9z" />
    <glyph glyph-name="acircumflex" unicode="&#xe2;" 
d="M271 34q-42 -52 -106 -52q-66 0 -109.5 40t-43.5 105q0 83 55 140q39 41 130 85q32 16 37 18q22 13 32 25l1 69q0 14 -13 22.5t-27 8.5q-46 0 -46 -33q0 -23 24 -29t24 -13q0 -19 -37 -38q-33 -16 -55 -16q-49 0 -78 39q-27 35 -27 86q0 71 66 117q59 42 134 42
q84 0 145 -47q67 -50 67 -133l1 -354q0 -33 11 -61q7 -19 21 -37q11 -14 11 -15q0 -9 -11 -9h-188q-11 0 -18 40zM266 235q-38 -18 -50 -28q-26 -20 -26 -47q0 -24 28 -24q26 0 36 27l12 42v30zM242 745q-117 -63 -121 -63q-8 0 -21.5 20t-13.5 28t8 13q80 48 135 145
q5 8 13 8q7 0 12 -8q55 -97 135 -145q8 -5 8 -13t-13.5 -28t-21.5 -20q-4 0 -120 63z" />
    <glyph glyph-name="atilde" unicode="&#xe3;" 
d="M271 34q-42 -52 -106 -52q-66 0 -109.5 40t-43.5 105q0 83 55 140q39 41 130 85q32 16 37 18q22 13 32 25l1 69q0 14 -13 22.5t-27 8.5q-46 0 -46 -33q0 -23 24 -29t24 -13q0 -19 -37 -38q-33 -16 -55 -16q-49 0 -78 39q-27 35 -27 86q0 71 66 117q59 42 134 42
q84 0 145 -47q67 -50 67 -133l1 -354q0 -33 11 -61q7 -19 21 -37q11 -14 11 -15q0 -9 -11 -9h-188q-11 0 -18 40zM266 235q-38 -18 -50 -28q-26 -20 -26 -47q0 -24 28 -24q26 0 36 27l12 42v30zM145 741q0 -10 12 -19.5t12 -12.5q0 -28 -43 -28q-32 0 -52 29q-17 25 -17 59
q0 48 29 76t77 28q38 0 71 -20q15 -9 47 -36q22 -20 35 -20q28 0 28 26q0 10 -12 19.5t-12 12.5q0 28 43 28q32 0 52 -29q17 -25 17 -59q0 -48 -29 -76t-78 -28q-38 0 -71 19q-15 9 -46 37q-23 20 -35 20q-28 0 -28 -26z" />
    <glyph glyph-name="adieresis" unicode="&#xe4;" 
d="M271 34q-42 -52 -106 -52q-66 0 -109.5 40t-43.5 105q0 83 55 140q39 41 130 85q32 16 37 18q22 13 32 25l1 69q0 14 -13 22.5t-27 8.5q-46 0 -46 -33q0 -23 24 -29t24 -13q0 -19 -37 -38q-33 -16 -55 -16q-49 0 -78 39q-27 35 -27 86q0 71 66 117q59 42 134 42
q84 0 145 -47q67 -50 67 -133l1 -354q0 -33 11 -61q7 -19 21 -37q11 -14 11 -15q0 -9 -11 -9h-188q-11 0 -18 40zM266 235q-38 -18 -50 -28q-26 -20 -26 -47q0 -24 28 -24q26 0 36 27l12 42v30zM205 788q0 -34 -23.5 -58.5t-56.5 -24.5t-56 24.5t-23 58.5q0 33 23 58t56 25
t56.5 -25t23.5 -58zM430 788q0 -34 -23.5 -58.5t-56.5 -24.5t-56 24.5t-23 58.5q0 33 23 58t56 25t56.5 -25t23.5 -58z" />
    <glyph glyph-name="aring" unicode="&#xe5;" 
d="M271 34q-42 -52 -106 -52q-66 0 -109.5 40t-43.5 105q0 83 55 140q39 41 130 85q32 16 37 18q22 13 32 25l1 69q0 14 -13 22.5t-27 8.5q-46 0 -46 -33q0 -23 24 -29t24 -13q0 -19 -37 -38q-33 -16 -55 -16q-49 0 -78 39q-27 35 -27 86q0 71 66 117q59 42 134 42
q84 0 145 -47q67 -50 67 -133l1 -354q0 -33 11 -61q7 -19 21 -37q11 -14 11 -15q0 -9 -11 -9h-188q-11 0 -18 40zM266 235q-38 -18 -50 -28q-26 -20 -26 -47q0 -24 28 -24q26 0 36 27l12 42v30zM356 812q0 -48 -35 -83.5t-83 -35.5q-49 0 -84 35.5t-35 83.5q0 49 35 84
t84 35q48 0 83 -35t35 -84zM238 852q-16 0 -28 -12t-12 -28t11.5 -28t28.5 -12q16 0 28 12t12 28t-12 28t-28 12z" />
    <glyph glyph-name="ae" unicode="&#xe6;" horiz-adv-x="711" 
d="M531 444v3q0 16 -12.5 27.5t-28.5 11.5t-28.5 -11.5t-12.5 -27.5v-42zM333 45q-24 -23 -70 -43t-78 -20q-67 0 -118 39q-55 41 -55 106q0 79 49 134q39 43 120 83q22 11 44 21q26 14 39 27q3 45 3 72q0 14 -13 22.5t-27 8.5q-46 0 -46 -33q0 -23 24 -29t24 -13
q0 -19 -37 -38q-33 -16 -55 -16q-49 0 -78 39q-27 35 -27 86q0 71 66 117q59 42 134 42q70 0 126 -33q52 36 135 36q217 0 217 -245q0 -14 -6 -17l-255 -122v-77q0 -16 12.5 -27.5t28.5 -11.5q62 0 62 46q0 23 -24 28t-24 13q0 18 38 36q32 15 54 15q49 0 80.5 -38.5
t31.5 -87.5q0 -21 -7 -43q-43 -135 -208 -135q-104 0 -160 58zM265 234q-37 -17 -49 -27q-26 -20 -26 -47q0 -24 28 -24q26 0 36 27l12 42v16q0 1 -1 13z" />
    <glyph glyph-name="ccedilla" unicode="&#xe7;" horiz-adv-x="447" 
d="M334 -48q0 -52 -29.5 -81t-82.5 -29q-78 0 -78 77q0 26 16 26q1 0 10 -16t23 -16q41 0 41 38q0 16 -14 23q-128 7 -177 120q-33 77 -33 226q0 158 37 235q53 111 194 111q65 0 118 -28q60 -32 78 -90q1 -2 1 -4q0 -5 -6 -10q-35 -27 -70 -55q-39 -33 -63 -63l-9 -4
q-9 -1 -11 19q-1 31 -5 40q-9 22 -36 22q-16 0 -28 -12.5t-12 -28.5v-261q0 -18 15 -33t33 -15q55 0 55 51q0 24 -24 32t-24 14q0 20 37 39q33 18 54 18q50 0 83 -46q29 -41 29 -93q0 -57 -37.5 -106.5t-93.5 -66.5q9 -19 9 -33z" />
    <glyph glyph-name="egrave" unicode="&#xe8;" horiz-adv-x="455" 
d="M450 409q0 -14 -7 -17l-249 -124v-79q0 -16 12 -28t28 -12q61 0 61 48q0 23 -23.5 28.5t-23.5 12.5q0 19 37 37q32 16 53 16q48 0 80 -42q30 -38 30 -87q0 -21 -7 -44q-42 -138 -204 -138q-137 0 -190 109q-37 76 -37 231t37 230q52 109 190 109q213 0 213 -250zM274 447
v2q0 16 -12 28t-28 12t-28 -12t-12 -28v-42zM384 694q0 -6 -9 -6q-18 0 -116 28t-112 37q-33 22 -33 60q0 28 20 48.5t48 20.5q18 0 36 -10q14 -8 90 -89t76 -89z" />
    <glyph glyph-name="eacute" unicode="&#xe9;" horiz-adv-x="455" 
d="M450 409q0 -14 -7 -17l-249 -124v-79q0 -16 12 -28t28 -12q61 0 61 48q0 23 -23.5 28.5t-23.5 12.5q0 19 37 37q32 16 53 16q48 0 80 -42q30 -38 30 -87q0 -21 -7 -44q-42 -138 -204 -138q-137 0 -190 109q-37 76 -37 231t37 230q52 109 190 109q213 0 213 -250zM274 447
v2q0 16 -12 28t-28 12t-28 -12t-12 -28v-42zM320 881q28 0 48.5 -20t20.5 -48q0 -39 -33 -60q-12 -8 -113 -36.5t-116 -28.5q-4 0 -8 3l-1 3q0 8 76 88.5t92 89.5t34 9z" />
    <glyph glyph-name="ecircumflex" unicode="&#xea;" horiz-adv-x="455" 
d="M450 409q0 -14 -7 -17l-249 -124v-79q0 -16 12 -28t28 -12q61 0 61 48q0 23 -23.5 28.5t-23.5 12.5q0 19 37 37q32 16 53 16q48 0 80 -42q30 -38 30 -87q0 -21 -7 -44q-42 -138 -204 -138q-137 0 -190 109q-37 76 -37 231t37 230q52 109 190 109q213 0 213 -250zM274 447
v2q0 16 -12 28t-28 12t-28 -12t-12 -28v-42zM242 745q-117 -63 -121 -63q-8 0 -21.5 20t-13.5 28t8 13q80 48 135 145q5 8 13 8q7 0 12 -8q55 -97 135 -145q8 -5 8 -13t-13.5 -28t-21.5 -20q-4 0 -120 63z" />
    <glyph glyph-name="edieresis" unicode="&#xeb;" horiz-adv-x="455" 
d="M450 409q0 -14 -7 -17l-249 -124v-79q0 -16 12 -28t28 -12q61 0 61 48q0 23 -23.5 28.5t-23.5 12.5q0 19 37 37q32 16 53 16q48 0 80 -42q30 -38 30 -87q0 -21 -7 -44q-42 -138 -204 -138q-137 0 -190 109q-37 76 -37 231t37 230q52 109 190 109q213 0 213 -250zM274 447
v2q0 16 -12 28t-28 12t-28 -12t-12 -28v-42zM208 788q0 -34 -23.5 -58.5t-56.5 -24.5t-56 24.5t-23 58.5q0 33 23 58t56 25t56.5 -25t23.5 -58zM433 788q0 -34 -23.5 -58.5t-56.5 -24.5t-56 24.5t-23 58.5q0 33 23 58t56 25t56.5 -25t23.5 -58z" />
    <glyph glyph-name="igrave" unicode="&#xec;" horiz-adv-x="283" 
d="M281 5q0 -12 -11 -12h-245q-10 0 -10 12q0 -3 20.5 22.5t20.5 51.5v388q0 36 -19.5 68t-19.5 28q0 6 10 9q46 16 135 56q17 11 34 21q25 15 32 15q11 0 11 -11v-574q0 -26 21 -51.5t21 -22.5zM270 694q0 -6 -9 -6q-18 0 -116 28t-112 37q-33 22 -33 60q0 28 20 48.5
t48 20.5q18 0 36 -10q14 -8 90 -89t76 -89z" />
    <glyph glyph-name="iacute" unicode="&#xed;" horiz-adv-x="283" 
d="M281 5q0 -12 -11 -12h-245q-10 0 -10 12q0 -3 20.5 22.5t20.5 51.5v388q0 36 -19.5 68t-19.5 28q0 6 10 9q46 16 135 56q17 11 34 21q25 15 32 15q11 0 11 -11v-574q0 -26 21 -51.5t21 -22.5zM236 881q28 0 48.5 -20t20.5 -48q0 -39 -33 -60q-12 -8 -113 -36.5
t-116 -28.5q-4 0 -8 3l-1 3q0 8 76 88.5t92 89.5t34 9z" />
    <glyph glyph-name="icircumflex" unicode="&#xee;" horiz-adv-x="283" 
d="M281 5q0 -12 -11 -12h-245q-10 0 -10 12q0 -3 20.5 22.5t20.5 51.5v388q0 36 -19.5 68t-19.5 28q0 6 10 9q46 16 135 56q17 11 34 21q25 15 32 15q11 0 11 -11v-574q0 -26 21 -51.5t21 -22.5zM142 745q-117 -63 -121 -63q-8 0 -21.5 20t-13.5 28t8 13q80 48 135 145
q5 8 13 8q7 0 12 -8q55 -97 135 -145q8 -5 8 -13t-13.5 -28t-21.5 -20q-4 0 -120 63z" />
    <glyph glyph-name="idieresis" unicode="&#xef;" horiz-adv-x="283" 
d="M281 5q0 -12 -11 -12h-245q-10 0 -10 12q0 -3 20.5 22.5t20.5 51.5v388q0 36 -19.5 68t-19.5 28q0 6 10 9q46 16 135 56q17 11 34 21q25 15 32 15q11 0 11 -11v-574q0 -26 21 -51.5t21 -22.5zM116 788q0 -34 -23.5 -58.5t-56.5 -24.5t-56 24.5t-23 58.5q0 33 23 58t56 25
t56.5 -25t23.5 -58zM341 788q0 -34 -23.5 -58.5t-56.5 -24.5t-56 24.5t-23 58.5q0 33 23 58t56 25t56.5 -25t23.5 -58z" />
    <glyph glyph-name="eth" unicode="&#xf0;" horiz-adv-x="493" 
d="M286 406q-16 37 -39 37q-26 0 -26 -44v-189q0 -37 26 -37q20 0 39 45v188zM507 836q1 -1 1 -36q1 -35 0 -42q-2 -7 -8 -10l-33 -20v-490q0 -99 -61 -173q-65 -78 -162 -78q-74 0 -139 55.5t-68 128.5q-2 47 -2 237q0 193 134 193q73 0 116 -37q1 27 1 83l-42 -24
q-10 -6 -14 5q0 2 -1 36q0 36 1 42.5t7 10.5l40 22q-14 27 -45 27q-46 0 -46 -48q0 -13 -13 -13q-22 0 -38 27q-15 24 -15 47q0 55 45 90q41 30 97 30q25 0 50 -4q97 -18 131 -81l50 28q10 5 14 -6z" />
    <glyph glyph-name="ntilde" unicode="&#xf1;" horiz-adv-x="527" 
d="M267 5q0 -12 -11 -12h-229q-11 0 -11 12q0 -3 20.5 22.5t20.5 51.5v377q0 37 -19 68.5t-19 27.5q0 6 9 9q46 17 135 56q65 36 67 36q12 0 12 -39q0 64 -2 -50q80 87 131 87q78 0 103 -63q16 -39 16 -131v-378q0 -26 20.5 -51.5t20.5 -21.5q0 -13 -10 -13h-229
q-12 0 -11 13q18 24 22 35t4 38v342q0 50 -22 50t-45 -42v-350q0 -49 20 -65q7 -6 7 -9zM154 741q0 -10 12 -19.5t12 -12.5q0 -28 -43 -28q-32 0 -52 29q-17 25 -17 59q0 48 29 76t77 28q38 0 71 -20q15 -9 47 -36q22 -20 35 -20q28 0 28 26q0 10 -12 19.5t-12 12.5
q0 28 43 28q32 0 52 -29q17 -25 17 -59q0 -48 -29 -76t-78 -28q-38 0 -71 19q-15 9 -46 37q-23 20 -35 20q-28 0 -28 -26z" />
    <glyph glyph-name="ograve" unicode="&#xf2;" horiz-adv-x="468" 
d="M475 318q0 -155 -38 -232q-53 -108 -193 -108q-139 0 -192 108q-39 77 -39 232q0 156 38 232q53 107 193 107t193 -108q38 -76 38 -231zM283 187v260q0 16 -12.5 28t-28.5 12t-28.5 -12t-12.5 -28v-260q0 -16 12.5 -28t28.5 -12t28.5 12t12.5 28zM375 694q0 -6 -9 -6
q-18 0 -116 28t-112 37q-33 22 -33 60q0 28 20 48.5t48 20.5q18 0 36 -10q14 -8 90 -89t76 -89z" />
    <glyph glyph-name="oacute" unicode="&#xf3;" horiz-adv-x="468" 
d="M475 318q0 -155 -38 -232q-53 -108 -193 -108q-139 0 -192 108q-39 77 -39 232q0 156 38 232q53 107 193 107t193 -108q38 -76 38 -231zM283 187v260q0 16 -12.5 28t-28.5 12t-28.5 -12t-12.5 -28v-260q0 -16 12.5 -28t28.5 -12t28.5 12t12.5 28zM320 881q28 0 48.5 -20
t20.5 -48q0 -39 -33 -60q-12 -8 -113 -36.5t-116 -28.5q-4 0 -8 3l-1 3q0 8 76 88.5t92 89.5t34 9z" />
    <glyph glyph-name="ocircumflex" unicode="&#xf4;" horiz-adv-x="468" 
d="M475 318q0 -155 -38 -232q-53 -108 -193 -108q-139 0 -192 108q-39 77 -39 232q0 156 38 232q53 107 193 107t193 -108q38 -76 38 -231zM283 187v260q0 16 -12.5 28t-28.5 12t-28.5 -12t-12.5 -28v-260q0 -16 12.5 -28t28.5 -12t28.5 12t12.5 28zM251 745
q-117 -63 -121 -63q-8 0 -21.5 20t-13.5 28t8 13q80 48 135 145q5 8 13 8q7 0 12 -8q55 -97 135 -145q8 -5 8 -13t-13.5 -28t-21.5 -20q-4 0 -120 63z" />
    <glyph glyph-name="otilde" unicode="&#xf5;" horiz-adv-x="468" 
d="M475 318q0 -155 -38 -232q-53 -108 -193 -108q-139 0 -192 108q-39 77 -39 232q0 156 38 232q53 107 193 107t193 -108q38 -76 38 -231zM283 187v260q0 16 -12.5 28t-28.5 12t-28.5 -12t-12.5 -28v-260q0 -16 12.5 -28t28.5 -12t28.5 12t12.5 28zM145 741q0 -10 12 -19.5
t12 -12.5q0 -28 -43 -28q-32 0 -52 29q-17 25 -17 59q0 48 29 76t77 28q38 0 71 -20q15 -9 47 -36q22 -20 35 -20q28 0 28 26q0 10 -12 19.5t-12 12.5q0 28 43 28q32 0 52 -29q17 -25 17 -59q0 -48 -29 -76t-78 -28q-38 0 -71 19q-15 9 -46 37q-23 20 -35 20q-28 0 -28 -26z
" />
    <glyph glyph-name="odieresis" unicode="&#xf6;" horiz-adv-x="468" 
d="M475 318q0 -155 -38 -232q-53 -108 -193 -108q-139 0 -192 108q-39 77 -39 232q0 156 38 232q53 107 193 107t193 -108q38 -76 38 -231zM283 187v260q0 16 -12.5 28t-28.5 12t-28.5 -12t-12.5 -28v-260q0 -16 12.5 -28t28.5 -12t28.5 12t12.5 28zM208 788
q0 -34 -23.5 -58.5t-56.5 -24.5t-56 24.5t-23 58.5q0 33 23 58t56 25t56.5 -25t23.5 -58zM433 788q0 -34 -23.5 -58.5t-56.5 -24.5t-56 24.5t-23 58.5q0 33 23 58t56 25t56.5 -25t23.5 -58z" />
    <glyph glyph-name="oslash" unicode="&#xf8;" horiz-adv-x="468" 
d="M294 644q12 29 34 73l9 7h109q10 0 11 -11l-55 -134q73 -93 73 -268q0 -157 -32 -225q-49 -101 -188 -101q-38 0 -69 7q-12 -26 -29 -60l-9 -6h-109q-10 0 -11 10q16 45 41 109q-56 80 -56 266q0 161 32 231q48 108 189 108q32 0 60 -6zM283 193v246q0 17 -12.5 29
t-28.5 12t-28.5 -12t-12.5 -29v-246q0 -16 12.5 -28t28.5 -12t28.5 12t12.5 28z" />
    <glyph glyph-name="ugrave" unicode="&#xf9;" horiz-adv-x="528" 
d="M309 69q-84 -96 -138 -96q-78 0 -104 63q-15 39 -15 131v283q0 71 -32 99q-7 6 -7 12q0 5 9 9q46 17 135 56q17 10 34 21q26 15 33 15q11 0 11 -11v-448q0 -50 22 -50q24 0 50 53v259q0 36 -19.5 68t-19.5 28q0 5 10 9q46 16 135 56q65 36 66 36q11 0 11 -11v-572
q0 -26 21 -51.5t21 -22.5q0 -12 -11 -12h-187q-15 0 -25 76zM399 694q0 -6 -9 -6q-18 0 -116 28t-112 37q-33 22 -33 60q0 28 20 48.5t48 20.5q18 0 36 -10q14 -8 90 -89t76 -89z" />
    <glyph glyph-name="uacute" unicode="&#xfa;" horiz-adv-x="528" 
d="M309 69q-84 -96 -138 -96q-78 0 -104 63q-15 39 -15 131v283q0 71 -32 99q-7 6 -7 12q0 5 9 9q46 17 135 56q17 10 34 21q26 15 33 15q11 0 11 -11v-448q0 -50 22 -50q24 0 50 53v259q0 36 -19.5 68t-19.5 28q0 5 10 9q46 16 135 56q65 36 66 36q11 0 11 -11v-572
q0 -26 21 -51.5t21 -22.5q0 -12 -11 -12h-187q-15 0 -25 76zM350 881q28 0 48.5 -20t20.5 -48q0 -39 -33 -60q-12 -8 -113 -36.5t-116 -28.5q-4 0 -8 3l-1 3q0 8 76 88.5t92 89.5t34 9z" />
    <glyph glyph-name="ucircumflex" unicode="&#xfb;" horiz-adv-x="528" 
d="M309 69q-84 -96 -138 -96q-78 0 -104 63q-15 39 -15 131v283q0 71 -32 99q-7 6 -7 12q0 5 9 9q46 17 135 56q17 10 34 21q26 15 33 15q11 0 11 -11v-448q0 -50 22 -50q24 0 50 53v259q0 36 -19.5 68t-19.5 28q0 5 10 9q46 16 135 56q65 36 66 36q11 0 11 -11v-572
q0 -26 21 -51.5t21 -22.5q0 -12 -11 -12h-187q-15 0 -25 76zM263 745q-117 -63 -121 -63q-8 0 -21.5 20t-13.5 28t8 13q80 48 135 145q5 8 13 8q7 0 12 -8q55 -97 135 -145q8 -5 8 -13t-13.5 -28t-21.5 -20q-4 0 -120 63z" />
    <glyph glyph-name="udieresis" unicode="&#xfc;" horiz-adv-x="528" 
d="M309 69q-84 -96 -138 -96q-78 0 -104 63q-15 39 -15 131v283q0 71 -32 99q-7 6 -7 12q0 5 9 9q46 17 135 56q17 10 34 21q26 15 33 15q11 0 11 -11v-448q0 -50 22 -50q24 0 50 53v259q0 36 -19.5 68t-19.5 28q0 5 10 9q46 16 135 56q65 36 66 36q11 0 11 -11v-572
q0 -26 21 -51.5t21 -22.5q0 -12 -11 -12h-187q-15 0 -25 76zM230 788q0 -34 -23.5 -58.5t-56.5 -24.5t-56 24.5t-23 58.5q0 33 23 58t56 25t56.5 -25t23.5 -58zM455 788q0 -34 -23.5 -58.5t-56.5 -24.5t-56 24.5t-23 58.5q0 33 23 58t56 25t56.5 -25t23.5 -58z" />
    <glyph glyph-name="yacute" unicode="&#xfd;" horiz-adv-x="548" 
d="M224 -185h-2h2zM174 48l-132 504q-6 24 -33.5 50t-27.5 32t10 6h245q11 0 11 -12q0 2 -12.5 -17t-12.5 -36q0 -40 47 -191q49 175 49 193q0 17 -11.5 34.5t-11.5 19.5q0 9 11 9h245q10 0 10 -9q-29 -30 -64 -80q-43 -130 -99 -337q-78 -289 -93 -340q-17 -60 -70 -60
q-29 0 -87 2t-88 2q-11 0 -34.5 -2t-34.5 -2t-11 11q35 99 81 215q4 7 12 7q1 0 13.5 -32t40.5 -32q31 0 40 18q5 10 7 45v2zM365 881q28 0 48.5 -20t20.5 -48q0 -39 -33 -60q-12 -8 -113 -36.5t-116 -28.5q-4 0 -8 3l-1 3q0 8 76 88.5t92 89.5t34 9z" />
    <glyph glyph-name="ydieresis" unicode="&#xff;" horiz-adv-x="548" 
d="M224 -185h-2h2zM174 48l-132 504q-6 24 -33.5 50t-27.5 32t10 6h245q11 0 11 -12q0 2 -12.5 -17t-12.5 -36q0 -40 47 -191q49 175 49 193q0 17 -11.5 34.5t-11.5 19.5q0 9 11 9h245q10 0 10 -9q-29 -30 -64 -80q-43 -130 -99 -337q-78 -289 -93 -340q-17 -60 -70 -60
q-29 0 -87 2t-88 2q-11 0 -34.5 -2t-34.5 -2t-11 11q35 99 81 215q4 7 12 7q1 0 13.5 -32t40.5 -32q31 0 40 18q5 10 7 45v2zM250 788q0 -34 -23.5 -58.5t-56.5 -24.5t-56 24.5t-23 58.5q0 33 23 58t56 25t56.5 -25t23.5 -58zM475 788q0 -34 -23.5 -58.5t-56.5 -24.5
t-56 24.5t-23 58.5q0 33 23 58t56 25t56.5 -25t23.5 -58z" />
    <glyph glyph-name="dotlessi" unicode="&#x131;" horiz-adv-x="283" 
d="M281 5q0 -12 -11 -12h-245q-10 0 -10 12q0 -3 20.5 22.5t20.5 51.5v388q0 36 -19.5 68t-19.5 28q0 6 10 9q46 16 135 56q17 11 34 21q25 15 32 15q11 0 11 -11v-574q0 -26 21 -51.5t21 -22.5z" />
    <glyph glyph-name="Lslash" unicode="&#x141;" horiz-adv-x="550" 
d="M513 4q0 -11 -11 -11h-459q-11 0 -11 9q36 51 36 77v280q-31 -14 -53 -23q-7 0 -9 6q0 21 -1 62v62q0 38 13 48l50 22l1 294q0 89 74 155t164 66q93 0 161 -56q72 -59 72 -150q0 -64 -31 -109q-35 -50 -96 -50q-36 0 -78 25q-46 28 -46 61q0 10 23 10q44 0 44 42
q0 47 -44 47q-26 0 -41 -23q-13 -19 -13 -47l-1 -179q29 13 51 21q7 0 9 -6v-62q1 -42 1 -62q0 -37 -12 -47q-24 -10 -49 -21l1 -256q77 -2 74 -2q30 0 53 20q13 12 28 37q12 19 17 19q6 0 10 -8q2 -3 37.5 -126t35.5 -125z" />
    <glyph glyph-name="lslash" unicode="&#x142;" horiz-adv-x="313" 
d="M321 490q0 -18 -8 -21l-61 -28v-362q0 -26 20.5 -51.5t20.5 -22.5q0 -12 -10 -12h-245q-11 0 -11 12q0 -3 21 22.5t21 51.5v279q-50 -22 -52 -22q-7 0 -9 6l-1 76q0 29 9 33l53 24v251q0 36 -19.5 68t-19.5 28q0 6 9 9q46 16 136 56q19 14 60 34q2 1 6 2q11 0 11 -11
v-354q33 15 59 25q6 0 9 -6z" />
    <glyph glyph-name="OE" unicode="&#x152;" horiz-adv-x="834" 
d="M834 824q0 -64 -32 -105q-35 -45 -97 -45q-37 0 -66 28t-29 64q0 12 10 12q5 0 12 -4.5t12 -4.5q13 0 21 13t8 27q0 46 -43 46q-31 0 -54 -25t-23 -56q0 -53 19 -95q23 -52 67 -67q13 -4 26 -7q18 -6 18 -14l-1 -92q0 -9 -17 -13q-13 -2 -25 -4q-39 -10 -60.5 -43
t-21.5 -75q0 -169 153 -350q24 -24 55 -65q-7 -20 -48 -84l-56 -86l-8 -5l-9 3q-110 105 -196 265q-66 -51 -149 -51q-114 0 -192 92q-73 87 -73 204v252q0 98 34 157q43 75 134 75q61 0 94 -47q30 -41 30 -104q0 -17 -10 -17q-4 0 -18 11.5t-26 11.5q-18 0 -30.5 -19
t-12.5 -38v-276q0 -30 19.5 -55.5t47.5 -25.5q24 0 44 22.5t20 47.5q0 12 -3.5 35.5t-3.5 36.5q0 72 24 123q21 45 76 100q-80 54 -94 150q-1 16 -5 49q-7 40 -35 65.5t-68 25.5q-17 0 -34 -10t-17 -26q0 -4 1.5 -12.5t1.5 -12.5q0 -9 -12 -9q-32 0 -56.5 30t-24.5 63
q0 80 55 129q52 46 134 46q92 0 158 -63q67 46 146 46q94 0 162 -65t68 -159z" />
    <glyph glyph-name="oe" unicode="&#x153;" horiz-adv-x="730" 
d="M283 447q0 16 -12.5 28t-28.5 12t-28.5 -12t-12.5 -28v-260q0 -16 12.5 -28t28.5 -12t28.5 12t12.5 28v260zM721 409q0 -14 -6 -17l-240 -119q-1 -14 -5 -44t-4 -46q0 -13 13.5 -23.5t26.5 -10.5q61 0 61 48q0 23 -23.5 28.5t-23.5 12.5q0 19 36 37q32 16 54 16
q48 0 80 -42q29 -38 29 -87q0 -20 -7 -44q-40 -138 -204 -138q-79 0 -129 35q-52 -37 -135 -37q-139 0 -192 108q-39 77 -39 232q0 156 38 232q54 107 193 107q80 0 132 -35q51 37 132 37q213 0 213 -250zM546 447v2q0 16 -12 28t-28 12q-14 0 -27 -10.5t-13 -24.5
q0 -8 3 -22q2 -17 3 -22z" />
    <glyph glyph-name="Scaron" unicode="&#x160;" horiz-adv-x="625" 
d="M610 291q0 -132 -88 -222.5t-220 -90.5t-196 63q-33 33 -56 83.5t-23 95.5q0 88 45 149q50 69 135 69q59 0 101 -34q46 -37 46 -95q0 -25 -19 -53q-20 -31 -43 -31q-11 0 -11 22q0 48 -40 48q-50 0 -50 -61q0 -32 34 -57t68 -25q52 0 90 35.5t38 87.5q0 156 -192 254
q-86 44 -139 103q-66 73 -66 155q0 125 63.5 195t187.5 70q26 0 79.5 -5t80.5 -5q17 0 50 7t50 7q10 0 10 -11q0 -29 -25.5 -103t-25.5 -115q0 -11 -11 -11q-14 0 -62.5 18t-75.5 18q-107 0 -107 -57q0 -34 45 -68q13 -9 75 -44q128 -73 180 -154q72 -112 72 -238zM309 1239
q116 64 120 64q8 0 21.5 -20t13.5 -28t-8 -13q-80 -48 -135 -145q-5 -8 -12 -8q-8 0 -13 8q-55 97 -135 145q-8 5 -8 13t14 28t21 20q4 0 121 -64z" />
    <glyph glyph-name="scaron" unicode="&#x161;" horiz-adv-x="457" 
d="M461 570q-2 -7 -39 -50q-21 -31 -64 -93q-5 -6 -11 -6q-4 0 -14 21q-13 26 -26 38q-20 21 -48 21q-15 0 -29 -8.5t-14 -21.5q0 -25 63 -64q87 -54 116 -82q63 -61 63 -140q0 -90 -60 -150t-150 -60q-50 0 -119 29t-91 29q-4 0 -11 -3t-12 -3q-10 0 -10 11q0 3 2 7
q0 1 30 46q20 39 61 117q4 8 9 8q1 0 35 -35t73 -35q48 0 48 33q0 34 -60 71q-93 58 -112 76q-60 55 -60 134t58.5 139.5t137.5 60.5q61 0 128.5 -40.5t80.5 -40.5q3 0 7.5 1.5t7.5 1.5q10 0 10 -12zM249 834q116 64 120 64q8 0 21.5 -20t13.5 -28t-8 -13q-80 -48 -135 -145
q-5 -8 -12 -8q-8 0 -13 8q-55 97 -135 145q-8 5 -8 13t14 28t21 20q4 0 121 -64z" />
    <glyph glyph-name="Ydieresis" unicode="&#x178;" horiz-adv-x="606" 
d="M649 1034q0 -1 -29 -31t-34 -49l-102 -363l-34 -108q-20 -68 -20 -110q0 -12 1 -35t1 -35v-209q0 -36 7.5 -52.5t35.5 -43.5q0 -12 -11 -12h-246q-11 0 -11 12q0 -3 21 22t21 51l-1 387q-128 212 -123 397q-10 2 -21 2q-21 0 -48 -15t-25 -15q-11 0 -11 9q0 11 17 101
t21 97.5t10 7.5l219 1q11 0 11 -11q0 5 -6 -24q-4 -20 -4 -49q0 -149 51 -262l40 144q27 102 27 138q0 31 -23 51q-1 13 11 13h244q11 0 11 -9zM305 1178q0 -34 -23.5 -58.5t-56.5 -24.5t-56 24.5t-23 58.5q0 33 23 58t56 25t56.5 -25t23.5 -58zM530 1178q0 -34 -23.5 -58.5
t-56.5 -24.5t-56 24.5t-23 58.5q0 33 23 58t56 25t56.5 -25t23.5 -58z" />
    <glyph glyph-name="Zcaron" unicode="&#x17d;" horiz-adv-x="590" 
d="M489 562q-49 -139 -54 -147t-11 -8h-49l-83 -225h65q29 0 39 7q15 9 15 37q0 24 -20 25.5t-20 11.5q0 18 30 31q23 10 46 10q58 0 94 -41t36 -100q0 -80 -51.5 -125t-133.5 -45h-359q-10 0 -10 11q0 8 146 403h-54q-11 0 -11 10q50 140 55 147.5t10 7.5h61l109 290h-53
q-57 0 -57 -42q0 -24 21 -27t21 -12q0 -19 -35 -30q-27 -9 -51 -9q-61 0 -99.5 38.5t-38.5 99.5q0 80 59 124q52 39 135 39h353q10 0 10 -11q0 -6 -168 -459h43q10 0 10 -11zM339 1239q116 64 120 64q8 0 21.5 -20t13.5 -28t-8 -13q-80 -48 -135 -145q-5 -8 -12 -8
q-8 0 -13 8q-55 97 -135 145q-8 5 -8 13t14 28t21 20q4 0 121 -64z" />
    <glyph glyph-name="zcaron" unicode="&#x17e;" horiz-adv-x="490" 
d="M500 4q0 -11 -11 -11h-103q-70 -1 -104 -1l-266 1q-11 0 -11 11q0 4 100 218q114 242 118 251q-19 1 -56 0q-28 -2 -41 -17q-6 -7 -12 -26q-5 -14 -12 -14q-5 0 -9 6.5t-25 63.5l-54 146q1 11 11 11l5 -1l-2 1q37 -6 96 -6q30 0 91.5 1.5t91.5 1.5h181q10 0 10 -11
q0 -4 -100 -218l-116 -250q21 0 63 1q27 1 40 18q6 8 12 31q5 16 13 16q5 0 8 -5.5t24 -60.5q22 -58 58 -157zM264 834q116 64 120 64q8 0 21.5 -20t13.5 -28t-8 -13q-80 -48 -135 -145q-5 -8 -12 -8q-8 0 -13 8q-55 97 -135 145q-8 5 -8 13t14 28t21 20q4 0 121 -64z" />
    <glyph glyph-name="circumflex" unicode="&#x2c6;" 
d="M234 745q-117 -63 -121 -63q-8 0 -21.5 20t-13.5 28t8 13q80 48 135 145q5 8 13 8q7 0 12 -8q55 -97 135 -145q8 -5 8 -13t-13.5 -28t-21.5 -20q-4 0 -120 63z" />
    <glyph glyph-name="caron" unicode="&#x2c7;" 
d="M234 834q116 64 120 64q8 0 21.5 -20t13.5 -28t-8 -13q-80 -48 -135 -145q-5 -8 -12 -8q-8 0 -13 8q-55 97 -135 145q-8 5 -8 13t14 28t21 20q4 0 121 -64z" />
    <glyph glyph-name="ring" unicode="&#x2da;" 
d="M356 812q0 -48 -35 -83.5t-83 -35.5q-49 0 -84 35.5t-35 83.5q0 49 35 84t84 35q48 0 83 -35t35 -84zM238 852q-16 0 -28 -12t-12 -28t11.5 -28t28.5 -12q16 0 28 12t12 28t-12 28t-28 12z" />
    <glyph glyph-name="tilde" unicode="&#x2dc;" horiz-adv-x="527" 
d="M154 741q0 -10 12 -19.5t12 -12.5q0 -28 -43 -28q-32 0 -52 29q-17 25 -17 59q0 48 29 76t77 28q38 0 71 -20q15 -9 47 -36q22 -20 35 -20q28 0 28 26q0 10 -12 19.5t-12 12.5q0 28 43 28q32 0 52 -29q17 -25 17 -59q0 -48 -29 -76t-78 -28q-38 0 -71 19q-15 9 -46 37
q-23 20 -35 20q-28 0 -28 -26z" />
    <glyph glyph-name="afii10023" unicode="&#x401;" horiz-adv-x="501" 
d="M501 824q0 -64 -32 -105q-35 -45 -97 -45q-37 0 -66 28t-29 64q0 12 10 12q5 0 12 -4.5t12 -4.5q13 0 21 13t8 27q0 46 -43 46q-31 0 -54 -25t-23 -56q0 -53 19 -95q23 -52 67 -67q13 -4 26 -7q18 -6 18 -14l-1 -92q0 -9 -17 -13q-13 -2 -25 -4q-39 -10 -60.5 -43
t-21.5 -75q0 -86 47 -187q41 -88 106 -163q23 -23 55 -65q-10 -28 -48 -86l-56 -84l-8 -5l-9 3q-111 106 -196 265q-95 177 -95 312q0 72 24 123q21 45 76 100q-60 41 -82 104q-18 48 -18 133q0 97 76 165.5t174 68.5q94 0 162 -65t68 -159zM230 1193q0 -34 -23.5 -58.5
t-56.5 -24.5t-56 24.5t-23 58.5q0 33 23 58t56 25t56.5 -25t23.5 -58zM455 1193q0 -34 -23.5 -58.5t-56.5 -24.5t-56 24.5t-23 58.5q0 33 23 58t56 25t56.5 -25t23.5 -58z" />
    <glyph glyph-name="afii10053" unicode="&#x404;" horiz-adv-x="509" 
d="M511 839q0 -64 -36 -107q-39 -47 -101 -47q-36 0 -62 23t-26 59q0 11 11 11q4 0 11.5 -4.5t12.5 -4.5q13 0 21 13.5t8 26.5q0 46 -44 46q-59 0 -87 -99q-19 -64 -19 -147v-40q19 1 38 1q25 1 46 2.5t29 3.5q20 4 28 6q6 1 5 2q6 -1 9 -10q21 -61 64 -102l3 -8
q0 -10 -11 -10l-198 -1q14 -80 42 -161q58 -172 160 -277q13 -11 27.5 -26t31.5 -35q-6 -19 -42 -89q-18 -36 -30 -58t-17 -30q-5 -6 -11 -6q-106 42 -217 261q-48 93 -78 175t-44 155q-8 47 -12.5 100.5t-4.5 115.5q0 81 6 140q14 117 76 214q77 116 181 116q92 0 160 -57
q70 -60 70 -152z" />
    <glyph glyph-name="uni0406" unicode="&#x406;" horiz-adv-x="330" 
d="M316 -17q0 -9 -36 -25q-50 -22 -89 -48q-8 -5 -76 -62q-62 -52 -66 -52q-11 0 -11 11q0 4 9.5 14t22.5 56q12 43 12 62v873q0 35 -20.5 67.5t-20.5 27.5q0 6 9 10q92 37 150 93q15 17 29 33q18 20 33 27q11 0 11 -11v-1002q0 -27 21.5 -51t21.5 -23z" />
    <glyph glyph-name="afii10056" unicode="&#x407;" horiz-adv-x="330" 
d="M316 -17q0 -9 -36 -25q-50 -22 -89 -48q-8 -5 -76 -62q-62 -52 -66 -52q-11 0 -11 11q0 4 9.5 14t22.5 56q12 43 12 62v873q0 35 -20.5 67.5t-20.5 27.5q0 6 9 10q92 37 150 93q15 17 29 33q18 20 33 27q11 0 11 -11v-1002q0 -27 21.5 -51t21.5 -23zM146 1193
q0 -34 -23.5 -58.5t-56.5 -24.5t-56 24.5t-23 58.5q0 33 23 58t56 25t56.5 -25t23.5 -58zM371 1193q0 -34 -23.5 -58.5t-56.5 -24.5t-56 24.5t-23 58.5q0 33 23 58t56 25t56.5 -25t23.5 -58z" />
    <glyph glyph-name="afii10062" unicode="&#x40e;" horiz-adv-x="727" 
d="M566 550q0 -90 -9 -163q3 2 7 5q23 20 36 46t13 58q0 9 -3 26.5t-3 26.5q0 12 20 12q48 0 75.5 -43t27.5 -113q0 -47 -29 -97q-65 -110 -198 -134q-30 -80 -76 -170q-111 -219 -217 -261q-6 0 -11 6q-11 16 -47 87.5t-42 89.5q33 39 59 61q77 79 130 199q-62 20 -110 63
q-92 81 -128 227q-14 46 -18 105t4 113q6 41 14.5 79.5t16 70.5t13 56.5t5.5 36.5q0 43 -32 93q0 11 11 11h230q11 0 11 -11q0 -6 -10.5 -38.5t-24.5 -81t-28 -109t-20.5 -122.5t-2.5 -121t26.5 -104.5t66.5 -73.5q16 -10 35 -17q26 110 26 218l3 231q0 35 -21 67
q-19 30 -20 28q0 6 9 10q92 37 150 93q15 17 29 33q18 20 33 27q11 0 11 -11zM325 1206q49 0 70 13q23 14 23 40q0 8 -5.5 20.5t-5.5 17.5q0 8 22 8q30 0 53.5 -21.5t23.5 -50.5q0 -62 -55 -99q-49 -33 -115 -33t-114 33q-55 37 -55 99q0 29 23.5 50.5t52.5 21.5q22 0 22 -8
q0 -5 -5.5 -17.5t-5.5 -20.5q0 -26 24 -40q20 -13 47 -13z" />
    <glyph glyph-name="afii10017" unicode="&#x410;" horiz-adv-x="695" 
d="M717 3q0 -9 -10 -9h-280q-11 0 -11 9q0 -1 16 24t16 52l-1 205q-32 -25 -98 -71q-5 -52 -11 -104q-6 -62 -6 -104q0 -25 18.5 -47t18.5 -21q0 -9 -42 -27q-19 -7 -133 -72q-109 -61 -113 -61q-10 0 -10 11q0 3 6 10q15 15 31 58q15 40 18 65q13 94 24 236q19 222 20 237
q7 60 14 121q8 71 8 120q0 13 -9 37.5t-9 36.5q0 7 10 11q51 16 103.5 33.5t92.5 58.5l8 3q12 0 11 -12l-29 -346l77 57v138q0 102 -27 150q-36 63 -130 63q-56 0 -103.5 -42t-47.5 -98q0 -11 8 -30.5t8 -23.5q0 -11 -19 -11q-56 0 -89 45q-31 40 -31 98q0 116 85 189
q81 70 199 70q170 0 256 -119q75 -104 75 -282v-9l39 -572q1 -25 24 -50t23 -27z" />
    <glyph glyph-name="afii10018" unicode="&#x411;" horiz-adv-x="591" 
d="M269 205q10 -30 26 -30q29 0 46 27.5t19 82.5q1 33 -10 60t-27 49t-33.5 38t-29.5 26zM268 627q69 -21 120 -54t81 -66q104 -116 104 -259q0 -52 -14 -98.5t-40 -81t-62 -55t-81 -20.5h-323q-11 0 -11 12v-1q2 0 8 7.5t12 18.5t11 24t5 25v774q0 48 -9 94t-43 95
q0 9 11 9h507q11 0 11 -11q0 -2 -36 -125q-9 -33 -18.5 -61t-17.5 -47.5t-14 -29.5t-8 -5q-5 13 -14 28t-20.5 28t-25 21.5t-27.5 8.5q1 0 -8.5 -0.5t-25.5 -0.5t-35.5 -0.5t-38.5 -0.5z" />
    <glyph glyph-name="afii10019" unicode="&#x412;" horiz-adv-x="680" 
d="M356 339v-134q11 -30 26 -30q57 0 57 110q0 36 -6 54q-7 23 -31 44q-24 -21 -46 -44zM140 -7q-11 0 -11 12q0 -4 18 21.5t18 52.5v540q0 44 -25 102q0 7 10 10q37 13 74 25q43 15 70 34q15 15 50 37q11 0 11 -11v-247q88 71 88 144q0 63 -39.5 107.5t-101.5 44.5
q-58 0 -116 -42q-62 -46 -62 -102q0 -7 1.5 -19.5t1.5 -19.5q0 -12 -11 -12q-51 0 -80 35q-26 32 -26 85q0 108 93 186q87 73 198 73q145 0 245 -89q104 -92 104 -234q0 -123 -94 -219q104 -115 104 -259q0 -99 -48 -172q-54 -83 -149 -83h-323z" />
    <glyph glyph-name="afii10020" unicode="&#x413;" horiz-adv-x="520" 
d="M68 965q0 26 -36 77q0 9 11 9h459q11 0 11 -11q0 -2 -36 -125q-17 -62 -26.5 -93t-10.5 -33q-5 -8 -10 -8t-17 19q-15 25 -28 37q-23 20 -53 20q2 0 -16.5 -0.5t-56.5 -1.5l7 -798q0 -14 9.5 -26.5t20.5 -24.5l22 -23q0 -9 -36 -25q-51 -23 -89 -48q-4 -2 -26.5 -17.5
t-56.5 -44.5q-61 -52 -66 -52q-11 0 -11 11q0 3 9 14q9 9 23 56q6 22 9 45.5t3 33.5z" />
    <glyph glyph-name="afii10021" unicode="&#x414;" horiz-adv-x="969" 
d="M270 -2q-42 0 -60 -22t-18 -51q0 -25 13 -44t37 -19q3 0 8.5 1.5t8.5 1.5q11 0 11 -10q0 -15 -9 -27t-22.5 -20.5t-30.5 -13t-33 -4.5q-59 0 -96.5 26.5t-54 66t-11.5 85.5t29.5 85.5t69.5 66t109 26.5h10q-6 57 -11.5 96t-9.5 69t-7 55t-4 53t-0.5 63t3.5 86
q4 111 35 202t85.5 156.5t129.5 101.5t168 36q63 0 116.5 -17t92.5 -48t61 -75t22 -98q0 -36 -8 -66.5t-22.5 -53t-35.5 -35t-46 -12.5q-14 0 -17.5 3t-1.5 8.5t6.5 13.5t6.5 18q5 13 9.5 26t4.5 20q0 26 -13.5 49t-36 39.5t-53 26t-64.5 9.5q-75 0 -123 -45.5t-75.5 -119
t-38.5 -166.5t-11 -188q0 -45 1.5 -76.5t4.5 -54.5t6.5 -40t7.5 -34l148 1q0 10 0.5 20t1.5 23l-9 630v2q0 9 9 9q23 -14 37 -24t25.5 -17.5t23.5 -14t31 -13.5q9 -4 23.5 -8t28 -8.5t23 -9t9.5 -9.5q-13 -35 -21.5 -52t-9.5 -33l12 -493h1q63 0 108 -26.5t70 -66.5
t29.5 -87t-11.5 -87t-53.5 -66.5t-97.5 -26.5q-16 0 -33 4.5t-30.5 13t-22.5 20.5t-9 27q0 10 11 10q3 0 8.5 -1.5t8.5 -1.5q24 0 37 19t13 44q0 15 -9 28t-24 23t-34.5 16t-40.5 6h-133z" />
    <glyph glyph-name="afii10022" unicode="&#x415;" horiz-adv-x="501" 
d="M501 824q0 -64 -32 -105q-35 -45 -97 -45q-37 0 -66 28t-29 64q0 12 10 12q5 0 12 -4.5t12 -4.5q13 0 21 13t8 27q0 46 -43 46q-31 0 -54 -25t-23 -56q0 -53 19 -95q23 -52 67 -67q13 -4 26 -7q18 -6 18 -14l-1 -92q0 -9 -17 -13q-13 -2 -25 -4q-39 -10 -60.5 -43
t-21.5 -75q0 -86 47 -187q41 -88 106 -163q23 -23 55 -65q-10 -28 -48 -86l-56 -84l-8 -5l-9 3q-111 106 -196 265q-95 177 -95 312q0 72 24 123q21 45 76 100q-60 41 -82 104q-18 48 -18 133q0 97 76 165.5t174 68.5q94 0 162 -65t68 -159z" />
    <glyph glyph-name="afii10024" unicode="&#x416;" horiz-adv-x="1024" 
d="M610 127q0 -12 5.5 -33t12 -41t12 -34.5t6.5 -14.5l-261 -4q1 1 7 16.5t13 36t12 41.5t5 33l-1 174q-11 10 -22 22.5t-20 21.5q-10 -35 -20 -71t-18 -70t-13 -64.5t-5 -53.5q0 -37 21 -86q-2 -9 -10 -9h-289q-10 0 -10 9q0 -1 9.5 8.5t21.5 23t22.5 27t12.5 21.5l135 461
q-24 48 -43 95.5t-31 97.5q-8 32 -12 54.5t-9.5 37t-14 21t-24.5 6.5q-6 0 -12 -4t-11 -8.5t-8.5 -8t-4.5 -3.5q-8 0 -16 10.5t-14 25t-10 31t-4 28.5q0 25 11 48t30 40t43 27t51 10q25 0 51 -13t48.5 -34.5t40 -49.5t26.5 -59q10 -44 22 -89t24.5 -87t25.5 -77t25 -57v244
q0 18 -6 35t-13 30.5t-13.5 22t-7.5 8.5q0 4 9 9q60 25 100.5 55t78.5 71q20 21 33 28q10 -1 10 -11v-489q13 19 26 53t25.5 76t24.5 89t23 94q9 31 26.5 59t40 49.5t48 34.5t51.5 13q27 0 51 -10t43 -27t30 -40t11 -48q0 -12 -4 -28.5t-10 -31t-14 -25t-16 -10.5
q-1 0 -4.5 3.5t-8.5 8t-11 8.5t-12 4q-16 0 -24.5 -6.5t-14 -21t-10 -37t-11.5 -54.5q-12 -50 -31 -97.5t-43 -95.5l135 -461q2 -8 12.5 -21.5t22.5 -27t21.5 -23t9.5 -8.5q0 -9 -10 -9h-289q-9 0 -10 9q21 49 21 86q0 23 -5 53.5t-13 64.5t-18 70t-20 71q-21 -21 -43 -40z
" />
    <glyph glyph-name="afii10025" unicode="&#x417;" horiz-adv-x="625" 
d="M468 601q20 -20 42 -41t28 -31q72 -113 72 -238q0 -65 -23.5 -122t-64.5 -99.5t-97.5 -67t-122.5 -24.5q-132 0 -196 63q-17 16 -31 38t-25 45.5t-17 48t-6 47.5q0 46 13 86t37 69t57 46t73 17q30 0 57 -10t47 -27t31.5 -40.5t11.5 -51.5q0 -13 -5.5 -27.5t-14.5 -27
t-20 -21t-22 -8.5q-7 0 -9 11t-5 24t-10.5 24t-26.5 11q-50 0 -50 -61q0 -16 9.5 -31t24.5 -26t33 -18t35 -7q26 0 49.5 9.5t41 26t27.5 39t10 48.5q0 54 -11 102.5t-36 84t-64 55t-95 17.5q-12 0 -20.5 18t-8.5 39.5t10.5 38.5t36.5 14q36 -4 66 9.5t49 36.5t25.5 51.5
t-3.5 53t-39 41t-80 16.5q-11 0 -32.5 -5.5t-43.5 -12.5t-40 -12.5t-22 -5.5q-11 0 -11 11q0 17 -8 49t-17.5 66t-17.5 63t-8 40t10 11q7 0 21 -2t29.5 -5t29 -5t20.5 -2q11 0 33 1.5t47 3.5t47 3.5t33 1.5q125 0 188 -69.5t63 -195.5q0 -46 -24 -89.5t-64 -82.5z" />
    <glyph glyph-name="afii10026" unicode="&#x418;" horiz-adv-x="727" 
d="M593 1043q0 4 -18 -21.5t-18 -51.5l1 -540q0 -49 15 -96q1 -3 2 -7q0 -7 -9 -10q-79 -29 -95 -36q-47 -22 -84 -57l-8 -3q-11 0 -11 11l1 738q0 49 -22 64q-8 6 -8 9q0 12 12 12h231q11 0 11 -12zM725 217q0 -48 -29 -97q-82 -140 -277 -140q-199 0 -302 157
q-86 133 -86 343q0 142 46 333q25 99 25 138q0 43 -32 93q0 11 11 11h230q11 0 11 -11q0 -53 -44.5 -262t-44.5 -318q0 -113 44 -196q56 -104 159 -104q70 0 118 37q54 40 54 107q0 9 -3 26.5t-3 26.5q0 12 20 12q54 0 82 -54q21 -42 21 -102z" />
    <glyph glyph-name="afii10027" unicode="&#x419;" horiz-adv-x="727" 
d="M593 1043q0 4 -18 -21.5t-18 -51.5l1 -540q0 -49 15 -96q1 -3 2 -7q0 -7 -9 -10q-79 -29 -95 -36q-47 -22 -84 -57l-8 -3q-11 0 -11 11l1 738q0 49 -22 64q-8 6 -8 9q0 12 12 12h231q11 0 11 -12zM725 217q0 -48 -29 -97q-82 -140 -277 -140q-199 0 -302 157
q-86 133 -86 343q0 142 46 333q25 99 25 138q0 43 -32 93q0 11 11 11h230q11 0 11 -11q0 -53 -44.5 -262t-44.5 -318q0 -113 44 -196q56 -104 159 -104q70 0 118 37q54 40 54 107q0 9 -3 26.5t-3 26.5q0 12 20 12q54 0 82 -54q21 -42 21 -102zM325 1206q49 0 70 13
q23 14 23 40q0 8 -5.5 20.5t-5.5 17.5q0 8 22 8q30 0 53.5 -21.5t23.5 -50.5q0 -62 -55 -99q-49 -33 -115 -33t-114 33q-55 37 -55 99q0 29 23.5 50.5t52.5 21.5q22 0 22 -8q0 -5 -5.5 -17.5t-5.5 -20.5q0 -26 24 -40q20 -13 47 -13z" />
    <glyph glyph-name="afii10028" unicode="&#x41a;" horiz-adv-x="648" 
d="M659 926q0 -23 -12 -56q-14 -39 -32 -39q-2 0 -12.5 12t-23.5 12q-30 0 -41 -32q-6 -29 -19 -87q-25 -99 -74 -193l135 -461q6 -19 36 -49t30 -31q0 -9 -10 -9h-289q-9 0 -10 9q21 49 21 86q0 53 -21 131q-17 64 -35 128q-21 -21 -43 -40v-238q0 -27 22 -51t22 -23
q0 -8 -34.5 -23.5t-114.5 -96.5q-66 -66 -119 -66q-10 0 -10 10q0 4 9.5 14.5t21.5 54.5t12 64v872q0 38 -20 68.5t-20 27.5q0 5 9 9q92 37 150 94q14 16 29 32q18 20 33 28q10 -1 10 -11v-489q31 47 59 151q20 80 40 161q17 58 61 104q50 52 105 52q53 0 93 -35
q42 -38 42 -90z" />
    <glyph glyph-name="afii10029" unicode="&#x41b;" horiz-adv-x="714" 
d="M352 244q-1 -34 -1.5 -68t-0.5 -68q0 -38 1.5 -66t23.5 -53q21 -24 21 -21q0 -9 -40 -27q-20 -8 -125 -72q-103 -61 -108 -61q-11 0 -11 12q0 3 10.5 20t18.5 47q9 27 13 53.5t4.5 54.5t0 58.5t-0.5 66.5v68v237q1 36 2.5 72t1.5 73q0 41 -1 70.5t-15 62.5q-12 27 -12 39
q0 4 13 9.5t31 11.5t36.5 11.5t29.5 9.5q50 17 88 59l6 3q12 0 12 -12zM465 287l-5 366v21q0 51 -9.5 88t-31.5 61t-58 35.5t-90 11.5q-27 0 -54.5 -11t-49.5 -30t-35.5 -44.5t-13.5 -53.5q0 -5 2 -13.5t5 -16t5 -13.5t2 -7q0 -10 -15 -10q-56 0 -87.5 41t-31.5 104
q2 53 24 98.5t59.5 79t87.5 52.5t108 19q94 0 163 -26t114.5 -75t68 -118.5t22.5 -157.5q0 -8 -0.5 -16t-0.5 -16l16 -579q0 -12 7 -25.5t15 -25.5t15 -19.5t7 -6.5q0 -7 -8 -7h-2l-260 7q-10 2 -10 7q0 1 -0.5 0.5t0 1t4 6.5t12.5 17q18 26 18 51z" />
    <glyph glyph-name="afii10030" unicode="&#x41c;" horiz-adv-x="941" 
d="M868 76q0 -20 16 -45.5t16 -26.5q0 -11 -11 -11h-195q-18 0 -18 42q0 41 31 187q27 128 27 280q0 167 -85 266q-90 106 -254 106q-162 0 -228 -118q-19 -33 -19 -57q0 -11 8 -31t8 -31q0 -15 -29 -15q-54 0 -86 50q-28 44 -28 101q0 46 29 102q94 182 342 182
q258 0 400 -164q134 -156 134 -418q0 -179 -47 -349q-11 -39 -11 -50zM653 4q0 -11 -11 -11h-210q-13 0 -13 11q33 26 33 68v496q0 20 -11 53t-11 41q0 7 9 11q64 26 84 37q42 22 73 55l8 3q11 0 11 -10l1 -686q0 -22 18.5 -45.5t18.5 -22.5zM407 -65q0 -8 -31 -26t-66 -44
q-66 -56 -139 -114q-1 0 -4 -1q-10 0 -10 11q0 4 9 13.5t21.5 54.5t12.5 64v710q0 30 -4 47q-2 4 -11.5 26.5t-9.5 24.5q0 7 9 11q65 28 96 48q41 26 80 71l9 4q11 0 11 -11v-825q0 -25 13.5 -46.5t13.5 -17.5z" />
    <glyph glyph-name="afii10031" unicode="&#x41d;" horiz-adv-x="651" 
d="M311 -17q0 -9 -36 -25q-50 -22 -89 -48q-9 -5 -76 -62q-62 -52 -67 -52q-10 0 -10 11q0 4 9.5 14t22.5 56q11 43 11 62v873q0 35 -20 67.5t-20 27.5q0 6 9 10q92 37 150 93q14 17 29 33q18 20 33 27q10 0 10 -11v-447h103v269q0 175 143 175q56 0 96 -32q44 -35 44 -90
q0 -70 -21 -70q-2 0 -12 6.5t-17 6.5q-19 0 -30.5 -15.5t-11.5 -34.5v-748q0 -26 22 -51t22 -26q0 -9 -11 -9h-249q-11 0 -11 9q0 -1 18 25.5t18 51.5v335h-103v-357q0 -27 22 -51t22 -23z" />
    <glyph glyph-name="afii10032" unicode="&#x41e;" horiz-adv-x="598" 
d="M565 281q0 -116 -74 -204q-77 -92 -191 -92q-115 0 -192 92q-73 86 -73 204v252q0 99 34 157q43 75 134 75q61 0 94 -47q30 -42 30 -105q0 -15 -11 -15q-2 0 -6.5 3.5t-10.5 7t-13 7t-13 3.5q-18 0 -30.5 -18.5t-12.5 -37.5v-276q0 -29 18 -54q21 -28 49 -28t47 28
q18 25 18 54v412q0 162 -110 162q-17 0 -34 -10t-17 -25q0 -5 1.5 -13.5t1.5 -12.5q0 -10 -12 -10q-32 0 -57 30q-24 31 -24 63q0 81 55 129q53 47 134 47q114 0 191 -92q74 -88 74 -204v-482z" />
    <glyph glyph-name="afii10033" unicode="&#x41f;" horiz-adv-x="721" 
d="M724 169q0 -3 -27 -82t-30.5 -86.5t-10.5 -7.5h-237q-16 0 -16 9q0 25 15 89q21 93 21 94q36 196 36 330q0 350 -220 350q-61 0 -112 -31q-60 -36 -60 -93q0 -17 12 -46t12 -32q0 -11 -20 -11q-55 0 -84 54q-23 43 -23 103q0 119 95 187q85 61 208 61q198 0 305 -154
q94 -135 94 -342q0 -88 -21 -199q-7 -37 -44 -196l94 14q13 2 13 -11zM373 2q0 -9 -10 -9h-230q-10 0 -10 9q0 1 17.5 25t17.5 52v540q0 33 -27 102q0 7 9 10l76 26q43 16 72 36q14 13 47 34q10 0 10 -11l-1 -631q0 -93 1.5 -115t14.5 -46t13 -22z" />
    <glyph glyph-name="afii10034" unicode="&#x420;" horiz-adv-x="657" 
d="M418 -26q0 -9 -37 -25q-33 -15 -112 -95q-66 -67 -119 -67q-11 0 -11 11q0 2 10 14.5t22 55t12 62.5v691q0 33 -5 50q-2 3 -11 25q-9 19 -9 23q0 7 9 10q50 16 100.5 33t87.5 59l8 4q11 0 11 -11v-324q40 40 67 101.5t27 116.5q0 64 -51 112.5t-115 48.5q-61 0 -112 -36
q-56 -40 -56 -99q0 -14 10.5 -40t10.5 -32q0 -10 -10 -10q-64 0 -98 36t-34 101q0 113 95 192q91 75 206 75q135 0 237.5 -97t102.5 -231q0 -154 -80 -277q-59 -92 -200 -211v-192q0 -27 22 -51.5t22 -22.5z" />
    <glyph glyph-name="afii10035" unicode="&#x421;" horiz-adv-x="509" 
d="M513 839q0 -63 -36 -107q-39 -47 -101 -47q-36 0 -62 23t-26 59q0 11 11 11q4 0 11.5 -4.5t12.5 -4.5q13 0 21 13.5t8 26.5q0 46 -44 46q-59 0 -87 -99q-19 -66 -19 -147q0 -157 55 -317q59 -173 160 -277q26 -22 59 -61q-6 -18 -42 -89.5t-47 -87.5q-5 -6 -11 -6
q-106 42 -217 261q-94 185 -122 330q-17 93 -17 216q0 81 6 140q13 117 76 214q76 116 181 116q93 0 160 -57q70 -60 70 -152z" />
    <glyph glyph-name="afii10036" unicode="&#x422;" horiz-adv-x="677" 
d="M674 1030q-56 -159 -61 -166.5t-10 -7.5l-392 -1q-24 0 -67.5 -15.5t-59.5 -15.5q-11 0 -11 13q30 86 76 197q4 7 10 7h504q11 0 11 -11zM530 327q0 -6 -9 -10q-32 -14 -63 -28q-35 -17 -59 -35q-14 -13 -45 -33q-12 0 -12 23q0 54 1.5 160t1.5 159q0 91 -22 146
q0 6 9 10q55 25 61 28q33 16 57 34q14 14 46 34q11 -1 11 -11l-1 -214q0 -149 0 -133q3 -79 24 -130zM677 192q0 -43 -25 -92q-71 -134 -262 -134q-170 0 -269 122q-91 113 -91 288q0 135 23 224q28 106 100 201q4 6 17 14q12 2 43 2q112 0 112 -14q-1 -2 -2 -5
q-31 -87 -63 -174q-32 -99 -32 -181q0 -113 34 -193q47 -107 145 -107q57 0 102 26q53 31 53 83q0 15 -11 42t-11 32q0 11 22 11q53 0 86 -47q29 -43 29 -98zM304 808l-2 -5h1zM314 792l-5 1l-1 -1h6zM563 326l-2 5q0 -1 1 -5h1zM556 316q-1 0 -4 -1z" />
    <glyph glyph-name="afii10037" unicode="&#x423;" horiz-adv-x="727" 
d="M566 550q0 -90 -9 -163q26 19 41 47t15 62q0 9 -3 26.5t-3 26.5q0 12 20 12q48 0 75.5 -43t27.5 -113q0 -47 -29 -97q-65 -110 -198 -134q-30 -80 -76 -170q-111 -219 -217 -261q-6 0 -11 6q-11 16 -47 87.5t-42 89.5q33 39 59 61q77 80 130 200q-91 30 -151 103.5
t-87 185.5q-14 46 -18 105t4 113q6 41 14.5 79.5t16 70.5t13 56.5t5.5 36.5q0 43 -32 93q0 11 11 11h230q11 0 11 -11q0 -6 -9 -34t-21.5 -70.5t-26 -96t-22 -110.5t-9.5 -113t11.5 -104.5t40.5 -84.5t78 -53q26 109 26 217l3 231q0 35 -21 67q-19 30 -20 28q0 6 9 10
q92 37 150 93q15 17 29 33q18 20 33 27q11 0 11 -11z" />
    <glyph glyph-name="afii10038" unicode="&#x424;" horiz-adv-x="847" 
d="M207 312q0 -9 6 -19t14.5 -18.5t19 -13.5t19.5 -5q6 0 13 3.5t13 7t10.5 7t6.5 3.5q11 0 11 -15q0 -63 -30 -105q-33 -47 -94 -47q-91 0 -134 75q-9 15 -17 38.5t-15 50.5t-11 55.5t-4 52.5v252q0 99 34 157q43 75 134 75q31 0 52.5 -13.5t41.5 -33.5q16 -16 26.5 -33
t17.5 -34v49q0 35 -21 67q-19 30 -20 28q0 6 9 10q92 37 150 93q15 17 29 33q18 20 33 27q11 0 11 -11v-304q6 19 17 37.5t29 35.5q20 20 41.5 33.5t52.5 13.5q90 0 134 -75q34 -58 34 -157v-252q0 -24 -4 -52.5t-11 -55.5t-15 -50.5t-17 -38.5q-44 -75 -134 -75
q-61 0 -94 47q-30 42 -30 105q0 15 11 15q2 0 6.5 -3.5t10.5 -7t13 -7t13 -3.5q9 0 19.5 5t19 13.5t14.5 18.5t6 19l1 352q0 9 -3.5 19t-10.5 18.5t-15.5 13.5t-17.5 5q-10 0 -21 -7.5t-21 -17.5t-17.5 -20t-10.5 -16v-611q0 -27 21.5 -51t21.5 -23q0 -9 -36 -25
q-50 -22 -89 -48q-8 -5 -76 -62q-62 -52 -66 -52q-11 0 -11 11q0 4 9.5 14t22.5 56q12 43 12 62v735q-5 7 -12.5 16.5t-17 18.5t-19.5 15.5t-19 6.5t-17.5 -5t-15.5 -13.5t-10.5 -18.5t-3.5 -19z" />
    <glyph glyph-name="afii10039" unicode="&#x425;" horiz-adv-x="611" 
d="M657 1030l-29 -26q-33 -28 -42 -52l-158 -397q92 -112 127 -226q23 -72 45 -254q3 -25 22.5 -50.5t19.5 -26.5q0 -8 -11 -8h-244q-11 0 -11 8q0 3 20.5 26.5t20.5 50.5q0 168 -75 259l-94 -240q-6 -16 -6 -31q0 -21 15 -42.5t15 -20.5q0 -10 -11 -10h-260q-11 0 -11 11
q0 5 7 10q50 31 64 68l161 417q-109 176 -109 320q0 19 2 38q-10 2 -20 2q-21 0 -49.5 -15t-26.5 -15q-11 0 -11 11q0 4 58 197q8 10 94 10q22 0 67 -1t68 -1q11 0 11 -11q0 -6 -5 -23q-7 -22 -8 -26q-9 -43 -9 -110q0 -69 31 -144l54 134q41 104 41 124q0 15 -9.5 30
t-9.5 20.5t11 5.5h244q11 0 11 -12z" />
    <glyph glyph-name="afii10040" unicode="&#x426;" horiz-adv-x="854" 
d="M725 203q0 -9 -1 -19q7 9 7 7q41 -23 65.5 -54.5t36.5 -65.5t13.5 -67.5t-3.5 -60.5q-10 -50 -35.5 -87t-57.5 -60.5t-66.5 -33.5t-62.5 -6q-42 6 -67.5 21t-39.5 35q-11 16 -15.5 34.5t-3.5 36t6.5 32.5t13.5 25q-3 -26 5.5 -44.5t23.5 -30.5t34 -17t39 -4q28 2 46.5 16
t26.5 34.5t6 43t-14 40.5t-34 28q-18 8 -43 6q-74 -46 -186 -46q-92 0 -164 35t-121.5 100t-76 157.5t-26.5 207.5q0 145 46 333q12 50 18.5 84t6.5 54q0 43 -32 93q0 11 11 11h230q11 0 11 -11q0 -54 -45 -262q-23 -105 -33.5 -184t-10.5 -134q0 -65 14.5 -119.5t41 -95
t64 -63t83.5 -22.5q37 0 68.5 10.5t54.5 30t36 45.5t13 58q0 9 -3 26.5t-3 26.5q0 12 20 12q48 0 75.5 -43t27.5 -113zM593 1029q-2 0 -8 -7.5t-12 -18.5t-11 -23.5t-5 -23.5l1 -540q0 -52 17 -103q0 -7 -9 -10q-40 -14 -63.5 -23t-31.5 -13q-47 -23 -84 -57l-8 -3
q-11 0 -11 11l1 738q0 19 -4.5 32.5t-10.5 22t-10.5 12.5t-4.5 6q0 12 12 12h231q11 0 11 -12zM595 11q0 -2 3 0h-3z" />
    <glyph glyph-name="afii10041" unicode="&#x427;" horiz-adv-x="727" 
d="M621 -17q0 -9 -36 -25q-50 -22 -89 -48q-8 -5 -76 -62q-62 -52 -66 -52q-11 0 -11 11q0 4 9.5 14t22.5 56q12 43 12 62v230q-128 11 -210 90.5t-116 216.5q-14 46 -18 105t4 113q6 41 14.5 79.5t16 70.5t13 56.5t5.5 36.5q0 43 -32 93q0 11 11 11h230q11 0 11 -11
q0 -6 -9.5 -35.5t-23 -74.5t-27 -101.5t-21.5 -115t-7 -116.5t17 -105.5t50 -81t92 -44.5v456q0 35 -21 67q-19 30 -20 28q0 6 9 10q92 37 150 93q15 17 29 33q18 20 33 27q11 0 11 -11v-653q35 38 35 90q0 9 -3 26.5t-3 26.5q0 12 20 12q48 0 75.5 -43t27.5 -113
q0 -47 -29 -97q-45 -77 -123 -111v-140q0 -27 21.5 -51t21.5 -23z" />
    <glyph glyph-name="afii10042" unicode="&#x428;" horiz-adv-x="1106" 
d="M1084 233q0 -47 -29 -97q-83 -140 -277 -140q-107 0 -187 47q-26 -22 -62.5 -32.5t-91.5 -10.5q-92 0 -164 35t-121.5 100t-76 157.5t-26.5 207.5q0 145 46 333q12 50 18.5 84t6.5 54q0 43 -32 93q0 11 11 11h230q11 0 11 -11q0 -51 -44 -262q-23 -105 -34.5 -184
t-10.5 -134q0 -65 14.5 -119.5t41 -95t64 -63t83.5 -22.5h4q-33 62 -50.5 140t-17.5 172q0 145 46 333q12 50 18.5 84t6.5 54q0 43 -32 93q0 11 11 11h230q11 0 11 -11q0 -54 -45 -262q-23 -105 -33.5 -184t-10.5 -134q0 -65 14.5 -119.5t41 -95t64 -63t83.5 -22.5
q37 0 68.5 10.5t54.5 30t36 45.5t13 58q0 9 -3 26.5t-3 26.5q0 12 20 12q48 0 75.5 -43t27.5 -113zM952 1059q-2 0 -8 -7.5t-12 -18.5t-11 -23.5t-5 -23.5l1 -540q0 -52 17 -103q0 -7 -9 -10q-40 -14 -63.5 -23t-31.5 -13q-47 -23 -84 -57l-8 -3q-11 0 -11 11l1 738
q0 19 -4.5 32.5t-10.5 22t-10.5 12.5t-4.5 6q0 12 12 12h231q11 0 11 -12z" />
    <glyph glyph-name="afii10043" unicode="&#x429;" horiz-adv-x="1188" 
d="M956 -242q-42 6 -67.5 21t-39.5 35q-11 16 -15.5 34.5t-3.5 36t6.5 32.5t13.5 25q-3 -26 5.5 -44.5t23.5 -30.5t34 -17t39 -4q29 2 47 16t26 34.5t6 43t-14 40.5t-34 28t-53 5q-33 -14 -71.5 -23t-80.5 -9q-54 0 -100.5 19.5t-86.5 42.5q-26 -22 -62.5 -32.5t-91.5 -10.5
q-92 0 -164 35t-121.5 100t-76 157.5t-26.5 207.5q0 145 46 333q12 50 18.5 84t6.5 54q0 43 -32 93q0 11 11 11h230q11 0 11 -11q0 -51 -44 -262q-45 -210 -45 -318q0 -65 14.5 -119.5t41 -95t64 -63t83.5 -22.5h4q-33 62 -50.5 140t-17.5 172q0 145 46 333q12 50 18.5 84
t6.5 54q0 43 -32 93q0 11 11 11h230q11 0 11 -11q0 -54 -45 -262q-23 -105 -33.5 -184t-10.5 -134q0 -65 14.5 -119.5t41 -95t64 -63t83.5 -22.5q37 0 67 10.5t51.5 29t33.5 43.5t12 54q0 8 -3 24.5t-3 24.5q0 11 19 11q45 0 71 -39.5t26 -104.5q0 -22 -3 -40
q41 -23 65.5 -54.5t36.5 -65.5t13.5 -67.5t-3.5 -60.5q-10 -50 -35.5 -87t-57.5 -60.5t-66.5 -33.5t-62.5 -6zM952 1059q-2 0 -8 -7.5t-12 -18.5t-11 -23.5t-5 -23.5l1 -540q0 -52 17 -103q0 -7 -9 -10q-40 -14 -63.5 -23t-31.5 -13q-47 -23 -84 -57l-8 -3q-11 0 -11 11
l1 738q0 19 -4.5 32.5t-10.5 22t-10.5 12.5t-4.5 6q0 12 12 12h231q11 0 11 -12z" />
    <glyph glyph-name="afii10044" unicode="&#x42a;" horiz-adv-x="738" 
d="M424 212q10 -30 26 -30q29 0 44.5 27.5t12.5 82.5q-2 36 -12 62t-23.5 44t-28.5 30.5t-26 22.5zM232 867q-19 0 -29 0.5t-14.5 1t-5 0.5t0.5 0q-30 0 -53 -20q-13 -12 -28 -37q-12 -19 -17 -19t-10 8q-1 2 -10.5 33t-26.5 93q-36 123 -36 125q0 11 11 11h434q11 0 11 -9
q-36 -51 -36 -77v-362q69 -21 120 -44.5t81 -56.5q104 -116 104 -259q0 -52 -14 -98.5t-40 -81t-62 -55t-81 -20.5h-323q-11 0 -11 12v-1q2 0 8 7.5t12 18.5t11 24t5 25z" />
    <glyph glyph-name="afii10045" unicode="&#x42b;" horiz-adv-x="867" 
d="M269 205q10 -30 26 -30q57 0 57 110q0 19 -9 42t-21.5 45t-27 40t-25.5 28v-235zM469 507q104 -116 104 -259q0 -52 -14 -98.5t-40 -81t-62 -55t-81 -20.5h-323q-11 0 -11 12v-1q2 0 8 7.5t12 18.5t11 24t5 25v774q0 45 -25 102q0 4 9.5 9t23 10t28 9t23.5 7
q21 7 33.5 13t24 14t25.5 18.5t37 25.5q11 0 11 -11v-442q69 -21 120 -44.5t81 -56.5zM588 0q0 -2 6 13t12.5 36t12.5 43t6 35l-3 687q0 15 -6 32t-13 31t-14 23t-8 9q0 5 9 10q60 24 103 54.5t76 71.5q8 10 16.5 16t16.5 11q11 0 11 -11v-934q0 -13 6 -34.5t12.5 -41.5
t12.5 -34.5t6 -12.5z" />
    <glyph glyph-name="afii10046" unicode="&#x42c;" horiz-adv-x="587" 
d="M269 205q10 -30 26 -30q57 0 57 110q0 30 -9 54.5t-22 43.5t-27.5 33t-25.5 24zM469 507q104 -116 104 -259q0 -52 -14 -98.5t-40 -81t-62 -55t-81 -20.5h-323q-11 0 -11 12v-1q2 0 8 7.5t12 18.5t11 24t5 25v774q0 45 -25 102q0 4 9.5 9t23 10t28 9t23.5 7q21 7 33.5 13
t24 14t25.5 18.5t37 25.5q11 0 11 -11v-442q69 -21 120 -44.5t81 -56.5z" />
    <glyph glyph-name="afii10047" unicode="&#x42d;" horiz-adv-x="509" 
d="M19 839q0 92 70 152q67 57 160 57q104 0 181 -116q62 -97 76 -214q6 -59 6 -140q0 -62 -4.5 -115.5t-12.5 -100.5q-14 -73 -44 -155t-78 -175q-111 -219 -217 -261q-7 0 -11 6q-5 8 -17 30t-30 58q-36 70 -42 89q17 20 31.5 35t27.5 26q102 105 160 277q14 41 24.5 80.5
t17.5 80.5l-198 1q-11 0 -11 10l3 8q43 41 64 102q3 9 9 10q0 -2 33 -8q5 -2 17.5 -3t28 -1.5t33 -1.5t33.5 -1q0 10 0.5 20t0.5 20q0 83 -19 147q-29 99 -87 99q-44 0 -44 -46q0 -13 8 -26.5t21 -13.5q5 0 12.5 4.5t11.5 4.5q11 0 11 -11q0 -36 -26 -59t-62 -23
q-62 0 -101 47q-36 43 -36 107z" />
    <glyph glyph-name="afii10048" unicode="&#x42e;" horiz-adv-x="912" 
d="M893 287q0 -115 -74 -204q-77 -92 -191 -92q-115 0 -192 92q-73 85 -73 204v127h-96v-357q0 -29 22 -51q5 -6 9.5 -10t7.5 -7q4 -4 5 -6q0 -9 -36 -25q-52 -23 -89 -48q-9 -4 -76 -62q-61 -52 -67 -52q-10 0 -10 11q0 3 9 14q9 9 23 56q5 22 8 37t3 25v873q0 35 -20 67
q-18 31 -20 29q0 4 9 9q91 37 150 93q7 8 14 16.5t15 16.5q18 19 33 27q10 0 10 -11v-447h106q4 35 10 52.5t14 31.5q43 75 134 75q61 0 94 -47q30 -42 30 -105q0 -15 -11 -15q-4 0 -17 10.5t-26 10.5q-18 0 -30.5 -18.5t-12.5 -37.5v-276q0 -29 18 -54q21 -28 49 -28t47 28
q18 25 18 54v412q0 162 -110 162q-17 0 -34 -10t-17 -25q0 -5 1.5 -13.5t1.5 -12.5q0 -10 -12 -10q-32 0 -57 30q-24 31 -24 63q0 81 55 129q53 47 134 47q114 0 191 -92q74 -89 74 -204v-482z" />
    <glyph glyph-name="afii10049" unicode="&#x42f;" horiz-adv-x="702" 
d="M310 -24q0 -2 6.5 5t15 18t15 25t6.5 26v269q-11 7 -23.5 16t-27.5 21l-35 -261q-1 -5 -1.5 -11t-0.5 -12q0 -19 3 -31.5t6.5 -20.5t6.5 -12t3 -5q0 -10 -11 -10h-242q-10 0 -10 4q0 2 8 11t17.5 21t18 25.5t10.5 25.5l67 449q-73 109 -73 201q0 69 28 129t75.5 104.5
t109.5 69.5t131 25q59 0 114.5 -18.5t99 -51.5t70.5 -79t29 -100q3 -85 -18.5 -128.5t-63.5 -35.5q-19 4 -31 10t-18.5 16.5t-9 27t-2.5 41.5q0 28 -13.5 53.5t-37 44t-54.5 28t-65 5.5q-30 -3 -57.5 -18.5t-49 -38.5t-34.5 -51.5t-13 -59.5q0 -60 24.5 -110.5t69.5 -70.5
v294q0 11 11 11l9 -4q38 -43 87 -59q11 -4 29.5 -9t36.5 -10.5t31 -11t13 -9.5q0 -2 -2.5 -9.5t-7.5 -18.5q-6 -14 -9.5 -22t-5 -15t-1.5 -15v-21v-691q0 -20 12 -62q6 -23 11.5 -36t10 -20t7.5 -10t3 -4q0 -11 -11 -11q-210 153 -231 162q-36 16 -36 25z" />
    <glyph glyph-name="afii10065" unicode="&#x430;" 
d="M271 34q-42 -52 -106 -52q-66 0 -109.5 40t-43.5 105q0 83 55 140q39 41 130 85q32 16 37 18q22 13 32 25l1 69q0 14 -13 22.5t-27 8.5q-46 0 -46 -33q0 -23 24 -29t24 -13q0 -19 -37 -38q-33 -16 -55 -16q-49 0 -78 39q-27 35 -27 86q0 71 66 117q59 42 134 42
q84 0 145 -47q67 -50 67 -133l1 -354q0 -33 11 -61q7 -19 21 -37q11 -14 11 -15q0 -9 -11 -9h-188q-11 0 -18 40zM266 235q-38 -18 -50 -28q-26 -20 -26 -47q0 -24 28 -24q26 0 36 27l12 42v30z" />
    <glyph glyph-name="afii10066" unicode="&#x431;" horiz-adv-x="485" 
d="M475 318q0 -92 -13.5 -156.5t-41.5 -105t-71.5 -59.5t-104.5 -19q-60 0 -104 19t-72 60t-41.5 105.5t-13.5 155.5q0 89 21 186t63.5 187.5t107.5 166t154 122.5q4 3 8 3q9 0 13 -10q-1 1 1.5 -12.5t6.5 -34t9 -44t9 -44t7 -33.5t3 -12q-25 -12 -51 -30q-22 -17 -46 -43
t-41 -65q101 -10 149 -90t48 -247zM283 187v260q0 16 -12.5 28t-28.5 12t-28.5 -12t-12.5 -28v-260q0 -16 12.5 -28t28.5 -12t28.5 12t12.5 28z" />
    <glyph glyph-name="afii10067" unicode="&#x432;" horiz-adv-x="486" 
d="M221 285v-97q0 -13 5 -20t12.5 -10.5t15.5 -4t14 -0.5q15 0 22.5 12.5t7.5 49.5v23q-1 -10 -1 -4.5v9.5v19q-2 27 -16.5 39t-26.5 12q-11 0 -16 -6t-17 -22zM48 587q0 9 -6 20t-14 20t-15 15.5t-9 6.5q0 2 24 3t58.5 2t73 1.5t67.5 0.5h42t-3 0q33 0 62 -7.5t50 -22
t33.5 -35.5t12.5 -48v-88q0 -47 -17.5 -69t-48.5 -33q35 -6 57.5 -14t34.5 -24q13 -15 16.5 -46t2.5 -97q1 -54 -8.5 -89.5t-29 -56.5t-47 -29t-62.5 -8q-29 0 -50.5 2t-40.5 5t-35.5 5t-34.5 2q-20 0 -42 -3.5t-51 -12.5l-8 -3q-10 0 -10 11zM247 541q-19 0 -35 -24v-93
q19 -28 35 -28q12 0 22.5 7.5t10.5 21.5v91q0 12 -10.5 18.5t-22.5 6.5z" />
    <glyph glyph-name="afii10068" unicode="&#x433;" horiz-adv-x="468" 
d="M270 -10h-245q-10 0 -10 11q1 -1 20 23q21 25 21 52v382q0 36 -20 68q-18 29 -19 28q0 6 10 9q23 8 56.5 22t78.5 34q8 5 17 10.5t17 10.5q25 15 32 15h1h1l242 2q11 0 11 -11q0 -7 -15 -32q-5 -8 -10.5 -17t-11.5 -17q-37 -71 -57 -134q-3 -10 -9 -10q3 0 -28 20
q-32 20 -68 20h-45v-400q0 -27 21 -52q19 -25 21 -23q0 -11 -11 -11z" />
    <glyph glyph-name="afii10069" unicode="&#x434;" horiz-adv-x="492" 
d="M283 58q-32 -25 -65.5 -37t-62.5 -12q-69 0 -101.5 45.5t-32.5 147.5v266q0 36 13.5 70t36.5 60.5t53 42.5t64 16q21 0 43 -7t42 -20t38 -30.5t31 -38.5q17 17 42 41.5t59 57.5l8 3q11 -2 11 -11l-5 -524q2 -17 3 -43t1 -55.5t-1 -60t-1.5 -55.5t-1 -42.5t-0.5 -20.5
q-14 -60 -67 -63h-26.5t-46.5 0.5t-57.5 0.5t-58 0.5t-48.5 0.5h-29q-6 0 -15 -1.5t-19.5 -3t-19.5 -2.5t-15 -1q-10 0 -12 11q7 25 15.5 45.5t17.5 41t18.5 42.5t19.5 52q5 8 12 8q1 0 4.5 -10t10.5 -21.5t17.5 -21t24.5 -8.5q13 0 30.5 -1t33 2t26 12t10.5 29v95zM278 437
q-23 32 -44 32q-29 0 -29 -66v-9t1 -12l1 -121v-65q4 -48 27 -48q21 0 44 29v260z" />
    <glyph glyph-name="afii10070" unicode="&#x435;" horiz-adv-x="455" 
d="M450 409q0 -14 -7 -17l-249 -124v-79q0 -16 12 -28t28 -12q61 0 61 48q0 23 -23.5 28.5t-23.5 12.5q0 19 37 37q32 16 53 16q48 0 80 -42q30 -38 30 -87q0 -21 -7 -44q-42 -138 -204 -138q-137 0 -190 109q-37 76 -37 231t37 230q52 109 190 109q213 0 213 -250zM274 447
v2q0 16 -12 28t-28 12t-28 -12t-12 -28v-42z" />
    <glyph glyph-name="afii10072" unicode="&#x436;" horiz-adv-x="857" 
d="M542 10q0 -12 -10 -12h-230q-10 0 -10 11q1 -1 20 23q21 25 21 52v65l-40 61q-56 -133 -56 -179q0 -10 5 -14t5 -10q0 -11 -11 -11h-229q-11 0 -11 11q0 6 7 10q49 31 61 68l109 321l-90 146q-15 24 -36 40q-8 7 -45 30q-7 4 -7 12q0 9 10 9h245q11 0 11 -13l-6 -7
q-5 -7 -5 -19q0 -11 23.5 -51.5t59.5 -98.5v61q0 36 -20 68q-18 29 -19 28q0 6 10 9q23 8 56.5 22t78.5 34q66 36 67 36q10 0 10 -11v-247q80 130 80 152q0 12 -5 19l-6 7q0 13 11 13h245q10 0 10 -9q0 -8 -7 -12q-38 -23 -45 -30q-21 -16 -36 -40l-90 -146l109 -321
q12 -37 61 -68q7 -4 7 -10q0 -11 -11 -11h-229q-11 0 -11 11q0 6 5 10t5 14q0 46 -56 179l-37 -60v-68q0 -48 20 -65q6 -6 6 -9z" />
    <glyph glyph-name="afii10073" unicode="&#x437;" horiz-adv-x="440" 
d="M354 344q42 -29 62 -76t20 -87q0 -90 -60 -150t-150 -60q-49 0 -119 29t-91 29q-4 0 -11 -3t-12 -3q-10 0 -10 11q0 1 2 7q0 1 30 46q10 20 25.5 49t35.5 68q5 8 9 8l35 -35q35 -35 73 -35q24 0 35.5 10.5t17.5 26.5q6 15 2.5 34t-15 43.5t-30 36t-43.5 10.5
q-31 7 -42.5 17.5t-8.5 21.5t19 21t40 16q13 8 21.5 20t13 23.5t6 21t1.5 12.5q0 11 -8 17t-19 6q-35 0 -99 -61q-11 0 -15 12q-2 8 -7 27t-13 48q-5 23 -11 41t-12 32q-24 58 -24 60q0 6 4 10l9 3q47 -10 96 -10q9 0 22.5 1.5l31.5 3.5q19 2 32.5 3.5t22.5 1.5
q79 0 134 -52q55 -51 55 -130q0 -37 -12.5 -67t-42.5 -58z" />
    <glyph glyph-name="afii10074" unicode="&#x438;" horiz-adv-x="528" 
d="M305 69q-84 -96 -138 -96q-78 0 -104 63q-15 39 -15 131v283q0 71 -32 99q-7 6 -7 12q0 5 9 9q46 17 135 56q17 10 34 21q26 15 33 15q11 0 11 -11v-448q0 -50 22 -50q24 0 50 53v259q0 36 -19.5 68t-19.5 28q0 5 10 9q46 16 135 56q65 36 66 36q11 0 11 -11v-572
q0 -26 21 -51.5t21 -22.5q0 -12 -11 -12h-187q-15 0 -25 76z" />
    <glyph glyph-name="afii10075" unicode="&#x439;" horiz-adv-x="528" 
d="M309 69q-84 -96 -138 -96q-78 0 -104 63q-15 39 -15 131v283q0 71 -32 99q-7 6 -7 12q0 5 9 9q46 17 135 56q17 10 34 21q26 15 33 15q11 0 11 -11v-448q0 -50 22 -50q24 0 50 53v259q0 36 -19.5 68t-19.5 28q0 5 10 9q46 16 135 56q65 36 66 36q11 0 11 -11v-572
q0 -26 21 -51.5t21 -22.5q0 -12 -11 -12h-187q-15 0 -25 76zM293 812q49 1 70 14q22 15 22 41q0 8 -6 20t-6 17q0 8 22 9q30 1 54 -20t24 -50q2 -62 -53 -101q-48 -34 -114 -35t-115 31q-55 35 -57 97q0 29 23 51t52 23q22 0 22 -8q0 -5 -5 -17.5t-5 -20.5q0 -26 25 -39
q20 -13 47 -12z" />
    <glyph glyph-name="afii10076" unicode="&#x43a;" horiz-adv-x="570" 
d="M257 5q0 -12 -10 -12h-230q-10 0 -10 12q0 -3 20.5 22.5t20.5 51.5v385q0 36 -19.5 68t-19.5 28q0 6 10 9q46 16 135 56q66 36 67 36q10 0 10 -11v-201q80 129 80 152q0 13 -5 19l-6 7q0 13 11 13h245q10 0 10 -9q0 -7 -7 -12q-37 -23 -45 -30q-22 -17 -36 -40l-90 -146
l109 -321q12 -36 61 -68q7 -5 7 -10q0 -11 -11 -11h-229q-11 0 -11 11q0 6 5 10t5 14q0 47 -56 179l-37 -60v-68q0 -49 20 -65q6 -6 6 -9z" />
    <glyph glyph-name="afii10077" unicode="&#x43b;" horiz-adv-x="574" 
d="M232 55q-15 12 15 -20q28 -29 28 -31q0 -12 -11 -12h-245q-11 0 -11 12q0 -2 13 17q6 10 10.5 19l8.5 17q13 34 99 452q7 47 30 133q4 9 11 9h173q8 0 10 -8l145 -558q6 -22 34 -48q28 -27 28 -28q0 -12 -11 -12h-245q-11 0 -11 12q0 -3 12 17q13 19 13 36q0 41 -51 205z
" />
    <glyph glyph-name="afii10078" unicode="&#x43c;" horiz-adv-x="799" 
d="M59 468q0 36 -20 68q-19 29 -19 28q0 6 10 9q23 8 55 22t77 34q8 5 17 10.5t17 10.5q13 8 20.5 6.5t11.5 -1.5q5 0 9 4.5t4 -0.5v-2q4 -3 8 -10l162 -321l162 310v17q0 5 3 3t8 -2q4 0 11.5 1.5t20.5 -6.5q8 -5 17 -10.5t17 -10.5q45 -20 77 -34t55 -22q8 -3 10 -9
q-1 1 -19 -28q-20 -32 -20 -68l6 -381q0 -40 39 -67q5 -4 5 -9q-3 -12 -14 -12h-245q-11 0 -9 11q0 -1 5.5 5t12.5 14.5t12.5 18t7.5 17.5q2 4 2 8v9l-1 130l-1 59q-58 -164 -93 -270h-139q-8 45 -102 272l-1 -60l-1 -130v-9t2 -8q1 -7 7 -16.5t12.5 -18t12 -14.5t6.5 -6
q2 -11 -9 -11h-245q-11 0 -14 12q0 5 5 9q39 27 39 67z" />
    <glyph glyph-name="afii10079" unicode="&#x43d;" horiz-adv-x="611" 
d="M270 -1h-245q-10 0 -10 11q1 0 20 23q21 26 21 52v388q0 36 -20 68q-18 29 -19 28q0 6 10 9q46 16 135 56q17 11 34 21q25 15 32 15q11 0 11 -11v-217h152v49q0 36 -20 68q-18 29 -19 28q0 6 10 9q46 16 135 56q17 11 34 21q25 15 32 15q11 0 11 -11v-593q0 -26 21 -52
q20 -24 21 -23q0 -11 -11 -11h-245q-10 0 -10 11q1 0 20 23q21 26 21 52v252h-25.5h-39.5t-45.5 -0.5t-41.5 -0.5v-250q0 -26 21 -52q20 -24 21 -23q0 -11 -11 -11z" />
    <glyph glyph-name="afii10080" unicode="&#x43e;" horiz-adv-x="481" 
d="M475 328q0 -155 -38 -232q-53 -108 -193 -108q-139 0 -192 108q-39 77 -39 232q0 156 38 232q53 107 193 107t193 -108q38 -76 38 -231zM283 197v260q0 16 -12.5 28t-28.5 12t-28.5 -12t-12.5 -28v-260q0 -16 12.5 -28t28.5 -12t28.5 12t12.5 28z" />
    <glyph glyph-name="afii10081" unicode="&#x43f;" horiz-adv-x="527" 
d="M267 5q0 -12 -11 -12h-229q-11 0 -11 12q0 -3 20.5 22.5t20.5 51.5v377q0 37 -19 68.5t-19 27.5q0 6 9 9q46 17 135 56q65 36 67 36q12 0 12 -39q0 64 -2 -50q80 87 131 87q78 0 103 -63q16 -39 16 -131v-378q0 -26 20.5 -51.5t20.5 -21.5q0 -13 -10 -13h-229
q-12 0 -11 13q18 24 22 35t4 38v342q0 50 -22 50t-45 -42v-350q0 -49 20 -65q7 -6 7 -9z" />
    <glyph glyph-name="afii10082" unicode="&#x440;" horiz-adv-x="505" 
d="M233 425v-224q21 -50 40 -50q27 0 27 44v240q0 36 -27 36q-20 0 -40 -46zM277 -184q0 -12 -10 -12h-244q-11 0 -11 12q0 -3 20.5 22t20.5 52l-1 564q0 36 -19 68.5t-19 27.5q0 6 9 10q45 16 133 56q64 35 66 35q11 0 12 -24q0 5 -1 -32q53 58 118 58q63 0 101 -61
q33 -52 33 -119v-287q0 -193 -134 -193q-62 0 -117 49v-156q0 -24 21.5 -47.5t21.5 -22.5z" />
    <glyph glyph-name="afii10083" unicode="&#x441;" horiz-adv-x="447" 
d="M456 158q0 -22 -7 -44q-45 -141 -208 -141q-140 0 -194 111q-37 78 -37 236t37 235q53 111 194 111q66 0 118 -28q58 -31 78 -90q1 -2 1 -4q0 -5 -6 -10q-59 -46 -70 -55q-38 -32 -63 -63l-9 -4q-9 -1 -11 20q-2 30 -5 39q-9 22 -36 22q-16 0 -28 -12.5t-12 -28.5v-261
q0 -18 15 -33t33 -15q55 0 55 51q0 24 -24 32t-24 14q0 20 37 39q33 18 54 18q50 0 83 -46q29 -41 29 -93z" />
    <glyph glyph-name="afii10084" unicode="&#x442;" horiz-adv-x="776" 
d="M267 5q0 -12 -11 -12h-229q-11 0 -11 12q0 -3 20.5 22.5t20.5 51.5v377q0 37 -19 68.5t-19 27.5q0 6 9 9q46 17 135 56q65 36 67 36q12 0 12 -39q0 65 -2 -50q80 87 131 87q94 0 112 -94q84 94 137 94q78 0 104 -63q15 -39 15 -131v-378q0 -26 21 -51.5t21 -21.5
q0 -13 -11 -13h-229q-12 0 -11 13q18 25 22 35.5t4 37.5v342q0 50 -22 50q-21 0 -44 -42v-350q0 -27 4 -37.5t22 -35.5q1 -13 -11 -13h-213q-12 0 -11 13q18 25 22 35.5t4 37.5v342q0 50 -22 50t-45 -42v-350q0 -49 20 -65q7 -6 7 -9z" />
    <glyph glyph-name="afii10085" unicode="&#x443;" horiz-adv-x="534" 
d="M224 -185h-2h2zM174 48l-132 504q-6 24 -33.5 50t-27.5 32t10 6h245q11 0 11 -12q0 2 -12.5 -17t-12.5 -36q0 -40 47 -191q49 175 49 193q0 17 -11.5 34.5t-11.5 19.5q0 9 11 9h245q10 0 10 -9q-29 -30 -64 -80q-43 -130 -99 -337q-78 -289 -93 -340q-17 -60 -70 -60
q-29 0 -87 2t-88 2q-11 0 -34.5 -2t-34.5 -2t-11 11q35 99 81 215q4 7 12 7q1 0 13.5 -32t40.5 -32q31 0 40 18q5 10 7 45v2z" />
    <glyph glyph-name="afii10086" unicode="&#x444;" horiz-adv-x="710" 
d="M441 206q21 -50 40 -50q27 0 27 44v240q0 36 -27 36q-21 0 -40 -46v-224zM263 675q-10 36 -29 68t-19 28q0 5 9 9q46 16 135 56q17 10 34 21q25 15 33 15q10 0 10 -11l5 -261q52 58 118 58q29 0 53.5 -14.5t42.5 -39.5t28 -57.5t10 -68.5v-287q0 -193 -134 -193
q-62 0 -117 49v-156q0 -11 6.5 -24t15 -23.5t15 -17.5t6.5 -5q0 -12 -10 -12h-244q-11 0 -11 12q1 0 8 7t14 18t13 24t6 25l-1 148q-55 -49 -117 -49q-134 0 -134 193v287q0 36 10 68.5t28 57.5t42.5 39.5t53.5 14.5q32 0 64.5 -14.5t58.5 -43.5zM261 426q-19 46 -40 46
q-27 0 -27 -36v-240q0 -44 27 -44q19 0 40 50v224v0z" />
    <glyph glyph-name="afii10087" unicode="&#x445;" horiz-adv-x="536" 
d="M234 570l1 -1q0 1 -1 1zM308 63v1v-1zM303 569v1v-1zM228 61v-1v1zM561 629q0 -6 -8 -10q-55 -32 -74 -70l-117 -228l122 -238q19 -37 74 -69q8 -4 8 -10q0 -11 -11 -11h-245q-10 0 -10 10q0 2 6.5 12.5t6.5 22.5q0 20 -17 52q-14 25 -27 49q-15 -25 -29 -51
q-17 -33 -17 -54q0 -12 6.5 -22t6.5 -12q0 -10 -11 -10h-244q-11 0 -11 11q0 6 7 10q56 32 75 69l124 241l-117 228q-20 38 -75 70q-7 4 -7 10q0 11 10 11h245q10 0 10 -10q0 -2 -6 -12.5t-6 -22.5q0 -21 14 -48q12 -22 25 -44q12 22 25 44q14 27 14 48q0 13 -7 22.5
t-7 11.5q0 11 11 11h245q11 0 11 -11z" />
    <glyph glyph-name="afii10088" unicode="&#x446;" horiz-adv-x="564" 
d="M334 -7q-14 -1 -25 76q-84 -96 -138 -96q-79 0 -104 63q-15 39 -15 131v283q0 70 -32 99q-7 6 -7 12q0 4 9 9q23 8 56.5 22t78.5 34q8 5 17 10.5t17 10.5q25 15 33 15q11 0 11 -11v-448q0 -50 22 -50q24 0 50 53v259q0 36 -20 68q-19 31 -19 28q0 5 10 9q23 8 56.5 22
t78.5 34q64 36 66 36q11 0 11 -11l1 -565q27 -12 42.5 -30t23 -38t8.5 -39t-3 -33q-5 -29 -21 -50t-37 -34.5t-43.5 -19t-39.5 -2.5q-26 3 -42 11t-26 20q-14 20 -11 39.5t12 33.5q-2 -15 3.5 -25.5t15.5 -17t22 -9.5t24 -3q22 1 34.5 15.5t15.5 32.5t-5 34.5t-26 22.5
q-11 5 -26 3z" />
    <glyph glyph-name="afii10089" unicode="&#x447;" horiz-adv-x="528" 
d="M307 206v37q-84 -89 -136 -89q-33 0 -55.5 9t-37 31.5t-20.5 60t-6 93.5v102q0 70 -32 99q-7 6 -7 12q0 4 18 12t45 19t58 25t57 30q13 8 21 11t12 4q11 0 11 -11v-267q0 -50 22 -50q21 0 50 46v85q0 16 -5.5 33t-12.5 31t-13.5 23t-7.5 9q0 3 13 9t34 14.5t46.5 19
t51.5 22.5q64 36 66 36q11 0 11 -11v-572q0 -11 6 -24t13.5 -24t14 -18.5t8.5 -7.5q0 -12 -11 -12h-187q-15 0 -27 213z" />
    <glyph glyph-name="afii10090" unicode="&#x448;" horiz-adv-x="775" 
d="M560 69q-84 -96 -138 -96q-78 0 -104 63q-5 13 -9 32q-83 -95 -137 -95q-78 0 -104 63q-15 39 -15 131v283q0 71 -32 99q-7 6 -7 12q0 5 9 9q46 17 135 56q17 10 34 21q26 15 33 15q11 0 11 -11v-448q0 -50 22 -50q21 0 45 43v254q0 71 -32 99q-7 6 -7 12q0 5 9 9
q46 17 135 56q17 10 34 21q26 15 33 15q11 0 11 -11v-448q0 -50 22 -50q24 0 50 53v259q0 36 -20 68q-18 29 -19 28q0 5 10 9q46 16 135 56q65 36 66 36q11 0 11 -11v-572q0 -26 21 -52q20 -24 21 -23q0 -11 -11 -11h-187q-15 0 -25 76z" />
    <glyph glyph-name="afii10091" unicode="&#x449;" horiz-adv-x="820" 
d="M738 68q26 -12 42 -30t23.5 -38t8.5 -39t-3 -33q-5 -29 -21 -50t-37 -34.5t-43.5 -19t-39.5 -2.5q-26 3 -42 11t-26 20q-14 20 -11 39.5t12 33.5q-2 -15 1.5 -22.5t11 -11t18 -3.5h22.5q22 1 35.5 13.5t17.5 28.5t-2.5 31t-24.5 21q-5 2 -15 -2t-18 -5l-66 -1
q-4 1 -6.5 10.5t-4 23t-3.5 29.5t-5 31h-2q-84 -96 -138 -96q-51 0 -76.5 23.5t-36.5 71.5q-83 -95 -137 -95q-33 0 -55.5 9t-37 31.5t-20.5 60t-6 93.5v283q0 70 -32 99q-7 6 -7 12q0 4 18 12t45 19t58 25t57 30q13 8 21 11t12 4q11 0 11 -11v-448q0 -50 22 -50q21 0 45 43
v254q0 70 -32 99q-7 6 -7 12q0 4 18 12t45 19t58 25t57 30q13 8 21 11t12 4q11 0 11 -11v-163v-285q0 -50 22 -50q24 0 50 53v259q0 16 -5.5 33t-12.5 31t-13.5 23t-7.5 9q0 3 13 9t34 14.5t46.5 19t51.5 22.5q64 36 66 36q11 0 11 -11z" />
    <glyph glyph-name="afii10092" unicode="&#x44a;" horiz-adv-x="577" 
d="M380 129q26 0 26 28v138q0 35 -26 35q-18 0 -37 -33v-140q8 -15 18 -21.5t19 -6.5zM161 477q-5 0 -10.5 0.5t-13.5 0.5q-16 0 -17.5 -0.5t-7.5 -5t-10 -13.5t-9 -25q-5 -14 -12 -14h-5t-5 6t-8.5 20.5t-15.5 43.5l-54 146q2 11 11 11l5 -1l-2 1q37 -6 96 -6q12 0 26 0.5
t37 1t45 1t34 0.5h87q10 0 10 -11l1 -192q23 4 44.5 4.5t37.5 0.5q129 0 129 -152v-168q0 -66 -42.5 -101.5t-113.5 -35.5h-10.5t-10.5 1h-35.5h-52t-59 0.5t-55 1t-40.5 2t-16 3.5q2 0 8.5 7.5t14 18.5t13 24t5.5 24z" />
    <glyph glyph-name="afii10093" unicode="&#x44b;" horiz-adv-x="748" 
d="M273 -9h-21.5h-48.5t-62 0.5t-61 1t-46.5 2t-18.5 3.5q2 0 8.5 7.5t14 18.5t13 24t5.5 24v388q0 16 -5.5 33t-12.5 31t-13.5 23t-7.5 9q0 4 18 11.5t45 18.5t58 25t58 31q25 15 32 15q11 0 11 -11v-204q23 4 44.5 4.5t37.5 0.5q129 0 129 -152v-168q0 -70 -48.5 -106
t-128.5 -30zM276 130q26 0 26 28v138q0 35 -26 35q-18 0 -37 -33v-140q8 -15 18 -21.5t19 -6.5zM732 -2q0 -12 -11 -12h-245q-10 0 -10 12q0 -3 20.5 22.5t20.5 51.5v388q0 36 -19.5 68t-19.5 28q0 6 10 9q46 16 135 56q17 11 34 21q25 15 32 15q11 0 11 -11v-574
q0 -26 21 -51.5t21 -22.5z" />
    <glyph glyph-name="afii10094" unicode="&#x44c;" horiz-adv-x="454" 
d="M263 -9h-21.5h-48.5t-62 0.5t-61 1t-46.5 2t-18.5 3.5q2 0 8.5 7.5t14 18.5t13 24t5.5 24v388q0 16 -5.5 33t-12.5 31t-13.5 23t-7.5 9q0 4 18 11.5t45 18.5t58 25t58 31q25 15 32 15q11 0 11 -11v-204q23 4 44.5 4.5t37.5 0.5q129 0 129 -152v-168q0 -70 -48.5 -106
t-128.5 -30zM266 130q13 0 22.5 7t9.5 21v138q0 17 -9.5 26t-22.5 9q-18 0 -37 -33v-140q8 -15 18 -21.5t19 -6.5z" />
    <glyph glyph-name="afii10095" unicode="&#x44d;" horiz-adv-x="464" 
d="M10 158q0 52 29 93q33 46 83 46q21 0 54 -18q37 -19 37 -39q0 -7 -24 -14q-24 -8 -24 -32q0 -51 55 -51q18 0 33 15t15 33v124l-148 1q-11 0 -11 5l3 5q41 22 61 69q3 5 9 6q3 -3 31 -4q6 -1 21 -2t34 -1v58q0 16 -12 28.5t-28 12.5q-27 0 -36 -22q-4 -11 -5 -39
q-2 -22 -11 -20l-9 4q-26 31 -63 63q-5 5 -23 18.5t-47 36.5q-6 4 -6 10q0 3 1 4q19 58 78 90q52 28 118 28q141 0 194 -111q37 -75 37 -235q0 -159 -37 -236q-54 -111 -194 -111q-163 0 -208 141q-7 21 -7 44z" />
    <glyph glyph-name="afii10096" unicode="&#x44e;" horiz-adv-x="826" 
d="M814 327q0 -154 -38 -232q-53 -108 -193 -108t-192 108q-39 76 -39 232v3h-47t-66 -1v-250q0 -27 21 -52q19 -25 21 -23q0 -11 -11 -11h-245q-10 0 -10 11q1 -1 20 23q21 25 21 52v388q0 36 -20 68q-18 29 -19 28q0 6 10 9q23 8 56.5 22t78.5 34q8 5 17 10.5t17 10.5
q25 15 32 15q11 0 11 -11v-217h118q9 76 33 123q53 107 193 107t193 -108q38 -78 38 -231zM622 196v260q0 16 -12.5 28t-28.5 12t-28.5 -12t-12.5 -28v-260q0 -16 12.5 -28t28.5 -12t28.5 12t12.5 28z" />
    <glyph glyph-name="afii10097" unicode="&#x44f;" horiz-adv-x="559" 
d="M319 89v119q-23 -11 -42.5 -35t-33.5 -51t-22 -52.5t-8 -38.5q0 -10 5 -14t5 -10q0 -11 -11 -11h-205q-11 0 -11 11q0 6 7 10q25 16 36.5 33t17.5 35q8 21 22 44.5t29.5 46t31.5 42t29 33.5q-16 9 -35.5 20.5t-37 27t-29 36t-11.5 47.5v142q0 34 20.5 60.5t53.5 43.5
t73.5 24.5t81.5 4.5h21.5h48.5t62 -0.5t61 -1t46.5 -2t18.5 -3.5q-2 0 -8.5 -7.5t-14 -18.5t-13 -24t-5.5 -24v-487q0 -27 21 -52q20 -24 21 -23q0 -11 -11 -11h-245q-10 0 -10 11l20 23q21 25 21 52zM282 521q-6 0 -15 -2t-16.5 -5.5t-13 -9t-5.5 -12.5v-105q0 -9 5.5 -15
t13 -10.5t16.5 -6.5t15 -2q17 0 37 33v107q-8 15 -18 21.5t-19 6.5z" />
    <glyph glyph-name="afii10071" unicode="&#x451;" horiz-adv-x="455" 
d="M450 409q0 -14 -7 -17l-249 -124v-79q0 -16 12 -28t28 -12q61 0 61 48q0 23 -23.5 28.5t-23.5 12.5q0 19 37 37q32 16 53 16q48 0 80 -42q30 -38 30 -87q0 -21 -7 -44q-42 -138 -204 -138q-137 0 -190 109q-37 76 -37 231t37 230q52 109 190 109q213 0 213 -250zM274 447
v2q0 16 -12 28t-28 12t-28 -12t-12 -28v-42zM208 788q0 -34 -23.5 -58.5t-56.5 -24.5t-56 24.5t-23 58.5q0 33 23 58t56 25t56.5 -25t23.5 -58zM433 788q0 -34 -23.5 -58.5t-56.5 -24.5t-56 24.5t-23 58.5q0 33 23 58t56 25t56.5 -25t23.5 -58z" />
    <glyph glyph-name="afii10101" unicode="&#x454;" horiz-adv-x="464" 
d="M456 158q0 -23 -7 -44q-45 -141 -208 -141q-140 0 -194 111q-37 77 -37 236q0 160 37 235q53 111 194 111q66 0 118 -28q59 -32 78 -90q1 -1 1 -4q0 -6 -6 -10q-29 -23 -47 -36.5t-23 -18.5q-37 -32 -63 -63l-9 -4q-9 -2 -11 20q-1 28 -5 39q-9 22 -36 22
q-16 0 -28 -12.5t-12 -28.5v-71q19 0 34 1t21 2q28 1 31 4q6 -1 9 -6q20 -34 61 -56l3 -5q0 -5 -11 -5l-148 -1v-124q0 -18 15 -33t33 -15q55 0 55 51q0 24 -24 32q-24 7 -24 14q0 20 37 39q33 18 54 18q50 0 83 -46q29 -41 29 -93z" />
    <glyph glyph-name="afii10103" unicode="&#x456;" horiz-adv-x="283" 
d="M281 5q0 -12 -11 -12h-245q-10 0 -10 12q0 -3 20.5 22.5t20.5 51.5v388q0 36 -19.5 68t-19.5 28q0 6 10 9q46 16 135 56q17 11 34 21q25 15 32 15q11 0 11 -11v-574q0 -26 21 -51.5t21 -22.5zM135 690q-39 0 -66.5 29t-27.5 69q0 39 27.5 68.5t66.5 29.5t67 -29.5
t28 -68.5q0 -40 -28 -69t-67 -29z" />
    <glyph glyph-name="afii10104" unicode="&#x457;" horiz-adv-x="283" 
d="M281 5q0 -12 -11 -12h-245q-10 0 -10 12q0 -3 20.5 22.5t20.5 51.5v388q0 36 -19.5 68t-19.5 28q0 6 10 9q46 16 135 56q17 11 34 21q25 15 32 15q11 0 11 -11v-574q0 -26 21 -51.5t21 -22.5zM116 788q0 -34 -23.5 -58.5t-56.5 -24.5t-56 24.5t-23 58.5q0 33 23 58t56 25
t56.5 -25t23.5 -58zM341 788q0 -34 -23.5 -58.5t-56.5 -24.5t-56 24.5t-23 58.5q0 33 23 58t56 25t56.5 -25t23.5 -58z" />
    <glyph glyph-name="afii10110" unicode="&#x45e;" horiz-adv-x="534" 
d="M224 -185h-2h2zM174 48l-132 504q-6 24 -33.5 50t-27.5 32t10 6h245q11 0 11 -12q0 2 -12.5 -17t-12.5 -36q0 -40 47 -191q49 175 49 193q0 17 -11.5 34.5t-11.5 19.5q0 9 11 9h245q10 0 10 -9q-29 -30 -64 -80q-43 -130 -99 -337q-78 -289 -93 -340q-17 -60 -70 -60
q-29 0 -87 2t-88 2q-11 0 -34.5 -2t-34.5 -2t-11 11q35 99 81 215q4 7 12 7q1 0 13.5 -32t40.5 -32q31 0 40 18q5 10 7 45v2zM293 812q49 1 70 14q22 15 22 41q0 8 -6 20t-6 17q0 8 22 9q30 1 54 -20t24 -50q2 -62 -53 -101q-48 -34 -114 -35t-115 31q-55 35 -57 97
q0 29 23 51t52 23q22 0 22 -8q0 -5 -5 -17.5t-5 -20.5q0 -26 25 -39q20 -13 47 -12z" />
    <glyph glyph-name="afii10050" unicode="&#x490;" horiz-adv-x="588" 
d="M259 818l7 -761q0 -14 9.5 -26.5t20.5 -24.5q22 -23 22 -27.5t-36 -20.5q-51 -23 -89 -48q-4 -2 -26.5 -17.5t-56.5 -44.5q-61 -52 -66 -52q-11 0 -11 11q0 3 9 14q9 9 23 56q6 22 9 45.5t3 33.5l-9 963q0 26 -36 77q0 9 11 9l275 1q38 -1 56.5 -1.5t16.5 -0.5
q30 0 53 20q13 12 28 37q12 19 17 19t10 -8q1 -2 10.5 -33t26.5 -93q36 -123 36 -125q-23 -4 -313 -3z" />
    <glyph glyph-name="afii10098" unicode="&#x491;" horiz-adv-x="456" 
d="M349 654q20 0 34 10.5t25 22.5t19.5 22.5t17.5 10.5q6 0 9 -10l-34 -230l-181 -3v-401q0 -27 21 -52q19 -25 21 -23q0 -11 -11 -11h-245q-10 0 -10 11q1 -1 20 23q21 25 21 52v382q0 36 -20 68q-18 29 -19 28q0 6 10 9q23 8 56.5 22t78.5 34q8 5 17 10.5t17 10.5
q25 15 32 15h1h1l22 -1h97z" />
    <glyph glyph-name="endash" unicode="&#x2013;" horiz-adv-x="687" 
d="M675 349q0 -10 -11 -10h-631q-11 0 -11 10v146q0 11 11 11h631q11 0 11 -11v-146z" />
    <glyph glyph-name="emdash" unicode="&#x2014;" horiz-adv-x="998" 
d="M975 349q0 -10 -11 -10h-931q-11 0 -11 10v146q0 11 11 11h931q11 0 11 -11v-146z" />
    <glyph glyph-name="quoteleft" unicode="&#x2018;" horiz-adv-x="235" 
d="M249 1019q9 0 9 -38l1 -243q0 -173 -112 -173q-43 0 -74 31t-31 75q0 13 4 29q10 40 71 133q45 67 89 133q32 53 43 53z" />
    <glyph glyph-name="quoteright" unicode="&#x2019;" horiz-adv-x="235" 
d="M54 565q-10 0 -10 38v243q0 174 111 174q44 0 75 -31.5t31 -74.5q0 -14 -4 -29q-11 -41 -72 -134q-44 -67 -88 -133q-33 -53 -43 -53z" />
    <glyph glyph-name="quotesinglbase" unicode="&#x201a;" horiz-adv-x="244" 
d="M54 -239q-10 0 -10 38v243q0 174 111 174q44 0 75 -31.5t31 -74.5q0 -14 -4 -29q-11 -41 -72 -134q-44 -67 -88 -133q-33 -53 -43 -53z" />
    <glyph glyph-name="quotedblleft" unicode="&#x201c;" horiz-adv-x="544" 
d="M534 1019q9 0 9 -38l1 -243q0 -173 -112 -173q-43 0 -74 31t-31 75q0 13 4 29q10 40 71 133q45 67 89 133q32 53 43 53zM264 1019q9 0 9 -38l1 -243q0 -173 -112 -173q-43 0 -74 31t-31 75q0 13 4 29q10 40 71 133q45 67 89 133q32 53 43 53z" />
    <glyph glyph-name="quotedblright" unicode="&#x201d;" horiz-adv-x="544" 
d="M69 565q-10 0 -10 38v122v121q0 174 111 174q44 0 75 -31.5t31 -74.5q0 -14 -4 -29q-11 -41 -72 -134q-44 -67 -88 -133q-33 -53 -43 -53zM339 565q-10 0 -10 38v122v121q0 174 111 174q44 0 75 -31.5t31 -74.5q0 -14 -4 -29q-11 -41 -72 -134q-44 -67 -88 -133
q-33 -53 -43 -53z" />
    <glyph glyph-name="quotedblbase" unicode="&#x201e;" horiz-adv-x="544" 
d="M69 -239q-10 0 -10 38v122v121q0 174 111 174q44 0 75 -31.5t31 -74.5q0 -14 -4 -29q-11 -41 -72 -134q-44 -67 -88 -133q-33 -53 -43 -53zM339 -239q-10 0 -10 38v122v121q0 174 111 174q44 0 75 -31.5t31 -74.5q0 -14 -4 -29q-11 -41 -72 -134q-44 -67 -88 -133
q-33 -53 -43 -53z" />
    <glyph glyph-name="bullet" unicode="&#x2022;" horiz-adv-x="343" 
d="M171 271q-64 0 -110 46t-46 110t46 110.5t110 46.5t110.5 -46.5t46.5 -110.5t-46.5 -110t-110.5 -46z" />
    <glyph glyph-name="guilsinglleft" unicode="&#x2039;" horiz-adv-x="422" 
d="M281 319q101 -224 101 -231q0 -15 -31.5 -41.5t-45.5 -26.5q-12 0 -19 16q-46 89 -101 149q-49 54 -131 110q-14 9 -14 24t14 24q82 57 131 110q55 60 101 150q7 15 19 15q13 0 45 -26.5t32 -41.5q0 -7 -101 -231z" />
    <glyph glyph-name="guilsinglright" unicode="&#x203a;" horiz-adv-x="422" 
d="M141 319q-101 224 -101 231q0 15 32 41.5t45 26.5q12 0 20 -15q45 -90 100 -150q49 -53 132 -110q13 -9 13 -24t-13 -24q-83 -56 -132 -110q-55 -60 -100 -149q-8 -16 -20 -16q-13 0 -45 26.5t-32 41.5q0 7 101 231z" />
    <glyph glyph-name="afii61352" unicode="&#x2116;" horiz-adv-x="1120" 
d="M724 169q0 -3 -27 -82t-30.5 -86.5t-10.5 -7.5h-237q-16 0 -16 9q0 25 15 89q21 93 21 94q36 196 36 330q0 350 -220 350q-61 0 -112 -31q-60 -36 -60 -93q0 -17 12 -46t12 -32q0 -11 -20 -11q-55 0 -84 54q-23 43 -23 103q0 119 95 187q85 61 208 61q198 0 305 -154
q94 -135 94 -342q0 -88 -21 -199q-7 -37 -44 -196l94 14q13 2 13 -11zM373 2q0 -9 -10 -9h-230q-10 0 -10 9q0 1 17.5 25t17.5 52v540q0 33 -27 102q0 7 9 10l76 26q43 16 72 36q14 13 47 34q10 0 10 -11l-1 -631q0 -93 1.5 -115t14.5 -46t13 -22zM1097 317q0 -8 -6 -8h-348
q-6 0 -6 8v111q0 9 6 9h348q6 0 6 -9v-111zM1100 684q0 -73 -52.5 -125.5t-125.5 -52.5t-125.5 52.5t-52.5 125.5t52.5 125.5t125.5 52.5t125.5 -52.5t52.5 -125.5zM922 744q-24 0 -42 -18t-18 -42t18 -42t42 -18t42 18t18 42t-18 42t-42 18z" />
    <glyph glyph-name="fi" unicode="&#xf001;" horiz-adv-x="605" 
d="M603 5q0 -12 -10 -12h-230q-11 0 -11 12q27 21 27 59v403q0 36 -19 67h-94v-470q0 -33 26 -58q1 -13 -10 -13h-230q-11 0 -11 13q42 30 42 73v455q-5 0 -18 -1h-17q-33 0 -33 13q0 16 7 52q9 42 17 42h36q-20 42 -20 115q0 97 79 158q73 57 173 57q90 0 156 -45
q75 -52 75 -138q0 -40 -32 -69.5t-72 -29.5q-30 0 -30 11q0 7 7.5 24t7.5 28q0 36 -32 56q-28 18 -65 18q-43 0 -71 -29t-28 -71q0 -46 35 -85h294q10 0 10 -15v-546q0 -25 20.5 -51t20.5 -23z" />
    <glyph glyph-name="fl" unicode="&#xf002;" horiz-adv-x="605" 
d="M352 629q0 -17 -8 -53q-8 -42 -17 -42h-61v-470q0 -33 26 -58q1 -13 -10 -13h-230q-11 0 -11 13q42 30 42 73v455h-35q-33 0 -33 12q0 16 7 52q9 42 17 42h36q-20 42 -20 115q0 97 79 158q73 57 173 57q60 0 113 -22q59 -25 90 -69q2 0 43 25q32 19 40 19q11 0 11 -11
v-833q0 -26 21 -51.5t21 -22.5q0 -12 -11 -12h-245q-11 0 -11 12q0 -3 21 22.5t21 51.5v618q0 64 -17 92q-22 36 -82 36q-43 0 -71 -29t-28 -71q0 -46 35 -85h84q10 0 10 -11z" />
    </font>
</defs>
</svg>
